<svg xmlns="http://www.w3.org/2000/svg" viewBox="0 -0.5 32 32" shape-rendering="crispEdges"><metadata>Made with Pixels to Svg https://codepen.io/shshaw/pen/XbxvNj</metadata><path stroke="#2a2f42" d="M0 0h1M2 0h1M4 0h1M6 0h1M8 0h1M10 0h1M12 0h1M14 0h1M0 1h2M3 1h1M5 1h1M7 1h1M9 1h1M11 1h1M13 1h1M15 1h1M1 2h2M4 2h1M6 2h1M8 2h1M10 2h1M12 2h1M14 2h1M3 3h3M7 3h1M9 3h1M11 3h1M13 3h1M15 3h1M6 4h5M12 4h1M14 4h1M10 5h6"/><path stroke="#454d6a" d="M1 0h1M3 0h1M5 0h1M7 0h1M9 0h1M11 0h1M13 0h1M15 0h1M2 1h1M4 1h1M6 1h1M8 1h1M10 1h1M12 1h1M14 1h1M3 2h1M5 2h1M7 2h1M9 2h1M11 2h1M13 2h1M15 2h1M6 3h1M8 3h1M10 3h1M12 3h1M14 3h1M11 4h1M13 4h1M15 4h1"/><path stroke="#a45d59" d="M16 0h1M18 0h1M20 0h1M22 0h1M25 0h1M27 0h1M29 0h1M31 0h1M17 1h1M19 1h1M21 1h1M23 1h2M26 1h1M28 1h1M30 1h1M16 2h1M18 2h1M20 2h1M22 2h1M25 2h1M27 2h1M29 2h1M31 2h1M17 3h1M19 3h1M21 3h1M23 3h2M26 3h1M28 3h1M30 3h1M16 4h1M18 4h1M20 4h1M22 4h1M25 4h1M27 4h1M29 4h1M31 4h1"/><path stroke="#925350" d="M17 0h1M19 0h1M21 0h1M23 0h2M26 0h1M28 0h1M30 0h1M16 1h1M18 1h1M20 1h1M22 1h1M25 1h1M27 1h1M29 1h1M31 1h1M17 2h1M19 2h1M21 2h1M23 2h2M26 2h1M28 2h1M30 2h1M16 3h1M18 3h1M20 3h1M22 3h1M25 3h1M27 3h1M29 3h1M31 3h1M17 4h1M19 4h1M21 4h1M23 4h2M26 4h1M28 4h1M30 4h1"/><path stroke="#9d8a79" d="M0 2h1M0 3h1M0 4h1M0 5h1M0 6h1M0 7h1M0 8h1M0 9h2M0 10h1M2 10h1M0 11h1M3 11h3M0 12h1M6 12h4M0 13h1M10 13h6M0 14h1M0 15h1M0 16h1M0 17h1M0 18h1M0 19h1M2 19h1M0 20h1M3 20h3M0 21h1M6 21h4M0 22h1M10 22h6M0 23h1M0 24h1M0 25h1M0 26h1M1 27h1M2 28h1M3 29h3M6 30h4M10 31h6"/><path stroke="#d2bba5" d="M1 3h1M4 4h1M1 5h1M6 5h2M4 6h1M12 6h2M1 7h1M6 7h1M11 7h1M4 8h1M12 8h2M3 9h1M6 9h1M11 9h1M1 10h1M4 10h1M8 10h2M12 10h2M6 11h2M11 11h1M14 11h2M1 12h1M3 12h1M12 12h2M4 13h1M8 13h2M1 14h1M6 14h2M11 14h1M14 14h2M4 15h1M9 15h1M12 15h2M1 16h1M6 16h1M11 16h1M4 17h1M9 17h1M12 17h2M3 18h1M6 18h1M11 18h1M1 19h1M4 19h1M8 19h2M12 19h2M6 20h2M11 20h1M14 20h2M1 21h1M3 21h1M12 21h2M4 22h1M8 22h2M1 23h1M6 23h2M11 23h1M14 23h2M4 24h1M9 24h1M12 24h2M1 25h1M6 25h1M11 25h1M4 26h1M9 26h1M12 26h2M3 27h1M6 27h1M11 27h1M4 28h1M8 28h2M12 28h2M6 29h2M11 29h1M14 29h2M12 30h2"/><path stroke="#bfa894" d="M2 3h1M2 4h1M5 4h1M2 5h1M5 5h1M2 6h1M5 6h1M10 6h1M2 7h1M5 7h1M10 7h1M2 8h1M5 8h1M10 8h1M2 9h1M5 9h1M10 9h1M5 10h1M10 10h1M2 11h1M10 11h1M2 12h1M5 12h1M10 12h1M2 13h1M5 13h1M2 14h1M5 14h1M10 14h1M2 15h1M5 15h1M10 15h1M2 16h1M5 16h1M10 16h1M2 17h1M5 17h1M10 17h1M2 18h1M5 18h1M10 18h1M5 19h1M10 19h1M2 20h1M10 20h1M2 21h1M5 21h1M10 21h1M2 22h1M5 22h1M2 23h1M5 23h1M10 23h1M2 24h1M5 24h1M10 24h1M2 25h1M5 25h1M10 25h1M2 26h1M5 26h1M10 26h1M2 27h1M5 27h1M10 27h1M5 28h1M10 28h1M10 29h1M10 30h1"/><path stroke="#ddc3ab" d="M1 4h1M3 4h1M4 5h1M8 5h2M1 6h1M6 6h1M11 6h1M14 6h2M4 7h1M9 7h1M12 7h2M1 8h1M6 8h1M11 8h1M4 9h1M9 9h1M12 9h2M3 10h1M6 10h2M11 10h1M1 11h1M8 11h2M12 11h2M4 12h1M11 12h1M14 12h2M1 13h1M3 13h1M6 13h2M4 14h1M8 14h2M12 14h2M1 15h1M6 15h1M11 15h1M14 15h2M4 16h1M9 16h1M12 16h2M1 17h1M6 17h1M11 17h1M4 18h1M9 18h1M12 18h2M3 19h1M6 19h2M11 19h1M1 20h1M8 20h2M12 20h2M4 21h1M11 21h1M14 21h2M1 22h1M3 22h1M6 22h2M4 23h1M8 23h2M12 23h2M1 24h1M6 24h1M11 24h1M14 24h2M4 25h1M9 25h1M12 25h2M1 26h1M6 26h1M11 26h1M4 27h1M9 27h1M12 27h2M3 28h1M6 28h2M11 28h1M8 29h2M12 29h2M11 30h1M14 30h2"/><path stroke="#bae1ef" d="M3 5h1M3 6h1M7 6h2M3 7h1M7 7h2M14 7h2M3 8h1M7 8h2M14 8h2M23 8h2M7 9h2M14 9h2M22 9h4M14 10h2M23 10h2M3 14h1M3 15h1M7 15h2M3 16h1M7 16h2M14 16h2M3 17h1M7 17h2M14 17h2M7 18h2M14 18h2M23 18h2M14 19h2M22 19h4M23 20h2M3 23h1M3 24h1M7 24h2M3 25h1M7 25h2M14 25h2M3 26h1M7 26h2M14 26h2M7 27h2M14 27h2M14 28h2"/><path stroke="#7b4542" d="M16 5h16"/><path stroke="#d8bfa8" d="M9 6h1M9 8h1"/><path stroke="#dfbc9c" d="M16 6h6M26 6h6M16 7h4M28 7h4M16 8h2M30 8h2M16 9h2M30 9h2M16 10h1M31 10h1M16 11h1M31 11h1M16 12h16M16 13h1M18 13h1M20 13h1M22 13h1M25 13h1M27 13h1M29 13h1M31 13h1M16 15h16M16 16h6M26 16h6M16 17h4M28 17h4M16 18h2M30 18h2M16 19h2M30 19h2M16 20h1M31 20h1M16 21h1M31 21h1M16 22h16M16 23h1M18 23h1M20 23h1M22 23h1M25 23h1M27 23h1M29 23h1M31 23h1M16 25h6M26 25h6M16 26h4M28 26h4M16 27h2M30 27h2M16 28h2M30 28h2M16 29h1M31 29h1M16 30h1M31 30h1M16 31h1M31 31h1"/><path stroke="#a3958d" d="M22 6h4M20 7h2M26 7h2M18 8h2M28 8h2M22 16h4M20 17h2M26 17h2M18 18h2M28 18h2"/><path stroke="#eedcd2" d="M22 7h4M20 8h3M25 8h3M18 9h4M26 9h4M17 10h6M25 10h6M17 11h14M17 13h1M19 13h1M21 13h1M23 13h2M26 13h1M28 13h1M30 13h1M22 17h4M20 18h3M25 18h3M18 19h4M26 19h4M17 20h6M25 20h6M17 21h14M17 23h1M19 23h1M21 23h1M23 23h2M26 23h1M28 23h1M30 23h1"/><path stroke="#cfae90" d="M16 14h16M16 24h16"/><path stroke="#ad9886" d="M1 18h1"/><path stroke="#816d5b" d="M22 25h4M20 26h2M26 26h2M18 27h2M28 27h2M17 29h1M30 29h1"/><path stroke="#ae937b" d="M22 26h4M20 27h8M18 28h5M25 28h5M18 29h4M26 29h4M17 30h5M26 30h5M17 31h5M26 31h5"/><path stroke="#351c15" d="M23 28h2M22 29h4M22 30h4M22 31h4"/></svg>