<svg width="30" height="30" viewBox="0 0 30 30" fill="none" xmlns="http://www.w3.org/2000/svg"><rect x="13" y="18" width="3" height="12" fill="#fff"/><rect x="13" y="18" width="3" height="12" fill="#fff"/><rect x="13" y="18" width="3" height="12" fill="#fff"/><rect x="13" y="18" width="3" height="12" fill="#fff"/><rect x="14" width="1" height="1" fill="#000"/><rect x="14" width="1" height="1" fill="#000"/><rect x="14" width="1" height="1" fill="#000"/><rect x="14" y="1" width="1" height="1" fill="#000"/><rect x="14" y="1" width="1" height="1" fill="#000"/><rect x="14" y="1" width="1" height="1" fill="#FF000D"/><rect x="14" y="4" width="1" height="2" fill="#000"/><rect x="14" y="4" width="1" height="2" fill="#000"/><rect x="14" y="4" width="1" height="2" fill="#FF000D"/><rect x="13.9628" y="8" width="1" height="2" fill="#000"/><rect x="13.9628" y="8" width="1" height="2" fill="#000"/><rect x="13.9628" y="8" width="1" height="2" fill="#FF000D"/><rect x="12" y="10" width="1" height="1" fill="#000"/><rect x="12" y="10" width="1" height="1" fill="#000"/><rect x="12" y="10" width="1" height="1" fill="#000"/><rect x="11" y="11" width="1" height="1" fill="#000"/><rect x="11" y="11" width="1" height="1" fill="#000"/><rect x="11" y="11" width="1" height="1" fill="#000"/><rect x="10" y="12" width="1" height="4" fill="#000"/><rect x="10" y="12" width="1" height="4" fill="#000"/><rect x="10" y="12" width="1" height="4" fill="#000"/><rect x="11" y="16" width="1" height="2" fill="#000"/><rect x="11" y="16" width="1" height="2" fill="#000"/><rect x="11" y="16" width="1" height="2" fill="#000"/><rect x="12" y="18" width="1" height="12" fill="#000"/><rect x="12" y="18" width="1" height="12" fill="#000"/><rect x="12" y="18" width="1" height="12" fill="#000"/><rect x="13" y="1" width="1" height="9" fill="#000"/><rect x="13" y="1" width="1" height="9" fill="#000"/><rect x="13" y="1" width="1" height="9" fill="#000"/><rect width="1" height="1" transform="matrix(-1 0 0 1 17 10)" fill="#000"/><rect width="1" height="1" transform="matrix(-1 0 0 1 17 10)" fill="#000"/><rect width="1" height="1" transform="matrix(-1 0 0 1 17 10)" fill="#000"/><rect width="1" height="1" transform="matrix(-1 0 0 1 18 11)" fill="#000"/><rect width="1" height="1" transform="matrix(-1 0 0 1 18 11)" fill="#000"/><rect width="1" height="1" transform="matrix(-1 0 0 1 18 11)" fill="#000"/><rect width="1" height="4" transform="matrix(-1 0 0 1 19 12)" fill="#000"/><rect width="1" height="4" transform="matrix(-1 0 0 1 19 12)" fill="#000"/><rect width="1" height="4" transform="matrix(-1 0 0 1 19 12)" fill="#000"/><rect width="1" height="2" transform="matrix(-1 0 0 1 18 16)" fill="#000"/><rect width="1" height="2" transform="matrix(-1 0 0 1 18 16)" fill="#000"/><rect width="1" height="2" transform="matrix(-1 0 0 1 18 16)" fill="#000"/><rect width="1" height="12" transform="matrix(-1 0 0 1 17 18)" fill="#000"/><rect width="1" height="12" transform="matrix(-1 0 0 1 17 18)" fill="#000"/><rect width="1" height="12" transform="matrix(-1 0 0 1 17 18)" fill="#000"/><rect width="1" height="9" transform="matrix(-1 0 0 1 15.9628 1)" fill="#000"/><rect width="1" height="9" transform="matrix(-1 0 0 1 15.9628 1)" fill="#000"/><rect width="1" height="9" transform="matrix(-1 0 0 1 15.9628 1)" fill="#000"/><rect x="15" y="23" width="1" height="1" fill="#fff"/><rect x="15" y="23" width="1" height="1" fill="#fff"/><rect x="15" y="23" width="1" height="1" fill="#fff"/><rect x="15" y="23" width="1" height="1" fill="#B7B7B7"/><rect x="15" y="20" width="1" height="1" fill="#fff"/><rect x="15" y="20" width="1" height="1" fill="#fff"/><rect x="15" y="20" width="1" height="1" fill="#fff"/><rect x="15" y="20" width="1" height="1" fill="#D8D8D8"/><rect x="14.9628" y="19" width="1" height="1" fill="#fff"/><rect x="14.9628" y="19" width="1" height="1" fill="#fff"/><rect x="14.9628" y="19" width="1" height="1" fill="#fff"/><rect x="14.9628" y="19" width="1" height="1" fill="#CCC"/><rect x="15" y="18" width="1" height="1" fill="#fff"/><rect x="15" y="18" width="1" height="1" fill="#fff"/><rect x="15" y="18" width="1" height="1" fill="#fff"/><rect x="15" y="18" width="1" height="1" fill="#DDD"/><rect x="14" y="18" width="1" height="1" fill="#fff"/><rect x="14" y="18" width="1" height="1" fill="#fff"/><rect x="14" y="18" width="1" height="1" fill="#fff"/><rect x="14" y="18" width="1" height="1" fill="#B7B7B7"/><rect x="14" y="18" width="1" height="1" fill="#fff"/><rect x="14" y="18" width="1" height="1" fill="#fff"/><rect x="14" y="18" width="1" height="1" fill="#fff"/><rect x="14" y="18" width="1" height="1" fill="#DDD"/><rect x="13" y="18" width="1" height="1" fill="#fff"/><rect x="13" y="18" width="1" height="1" fill="#fff"/><rect x="13" y="18" width="1" height="1" fill="#fff"/><rect x="13" y="18" width="1" height="1" fill="#DDD"/><rect x="14" y="19" width="1" height="1" fill="#fff"/><rect x="14" y="19" width="1" height="1" fill="#fff"/><rect x="14" y="19" width="1" height="1" fill="#fff"/><rect x="14" y="19" width="1" height="1" fill="#D5D5D5"/><rect x="13" y="10" width="1" height="1" fill="#fff"/><rect x="13" y="10" width="1" height="1" fill="#fff"/><rect x="13" y="10" width="1" height="1" fill="#fff"/><rect x="13" y="10" width="1" height="1" fill="#fff"/><rect x="11" y="12" width="7" height="1" fill="#fff"/><rect x="11" y="14" width="7" height="1" fill="#fff"/><rect x="12" y="16" width="5" height="1" fill="#fff"/><rect x="14" y="10" width="1" height="1" fill="#fff"/><rect x="14" y="10" width="1" height="1" fill="#fff"/><rect x="14" y="10" width="1" height="1" fill="#fff"/><rect x="14" y="10" width="1" height="1" fill="#D9D9D9"/><rect x="15" y="10" width="1" height="1" fill="#fff"/><rect x="15" y="10" width="1" height="1" fill="#fff"/><rect x="15" y="10" width="1" height="1" fill="#fff"/><rect x="15" y="10" width="1" height="1" fill="#D9D9D9"/><rect x="13.9628" y="6" width="1" height="2" fill="#fff"/><rect x="13.9628" y="6" width="1" height="2" fill="#fff"/><rect x="13.9628" y="6" width="1" height="2" fill="#fff"/><rect x="13.9628" y="6" width="1" height="2" fill="#D9D9D9"/><rect x="13.9256" y="2" width="1" height="2" fill="#fff"/><rect x="13.9256" y="2" width="1" height="2" fill="#fff"/><rect x="13.9256" y="2" width="1" height="2" fill="#fff"/><rect x="13.9256" y="2" width="1" height="2" fill="#D9D9D9"/><rect x="11" y="15" width="7" height="1" fill="#747376"/><rect x="11" y="13" width="7" height="1" fill="#fff"/><rect x="11" y="13" width="7" height="1" fill="#fff"/><rect x="11" y="13" width="7" height="1" fill="#fff"/><rect x="11" y="13" width="7" height="1" fill="#747376"/><rect x="11" y="13" width="7" height="1" fill="#747376"/><rect x="11" y="13" width="7" height="1" fill="#747376"/><rect x="11" y="13" width="7" height="1" fill="#747376"/><rect x="11" y="13" width="7" height="1" fill="#747376"/><rect x="12" y="11" width="5" height="1" fill="#747376"/><rect x="12" y="17" width="5" height="1" fill="#747376"/></svg>