<svg xmlns="http://www.w3.org/2000/svg" id="il-highway-red-2" width="22" height="18" viewBox="0 0 22 18"><g><path d="M0,0 H22 V18 H0 Z" fill="none"/><path d="M3,1 H19 C19,1 21,1 21,3 V15 C21,15 21,17 19,17 H3 C3,17 1,17 1,15 V3 C1,3 1,1 3,1" fill="none" stroke="hsl(0, 0%, 100%)" stroke-linejoin="round" stroke-miterlimit="4px" stroke-width="2"/><path d="M3,1 H19 C19,1 21,1 21,3 V15 C21,15 21,17 19,17 H3 C3,17 1,17 1,15 V3 C1,3 1,1 3,1" fill="hsl(0, 87%, 59%)"/><path d="M3.252,14.545,2.5,9,3.252,3.455,11,2.503,18.748,3.455,19.5,9,18.748,14.545,11,15.497,3.252,14.545 Z" fill="hsl(0, 0%, 100%)"/><path d="M0,6 H22 V12 H0 Z" fill="none" id="mapbox-text-placeholder"/></g></svg>