<svg xmlns="http://www.w3.org/2000/svg" id="il-highway-black-4" width="33" height="18" viewBox="0 0 33 18"><g><path d="M0,0 H33 V18 H0 Z" fill="none"/><path d="M3,1 H30 C30,1 32,1 32,3 V15 C32,15 32,17 30,17 H3 C3,17 1,17 1,15 V3 C1,3 1,1 3,1" fill="none" stroke="hsl(0, 0%, 100%)" stroke-linejoin="round" stroke-miterlimit="4px" stroke-width="2"/><path d="M3,1 H30 C30,1 32,1 32,3 V15 C32,15 32,17 30,17 H3 C3,17 1,17 1,15 V3 C1,3 1,1 3,1" fill="hsl(230, 18%, 13%)"/><path d="M16.5,2.5,3.537,3.5,2.5,9,4.056,14.5,16.5,15.5,28.944,14.5,30.5,9,29.463,3.5,16.5,2.5" fill="hsl(0, 0%, 100%)"/><path d="M0,6 H33 V12 H0 Z" fill="none" id="mapbox-text-placeholder"/></g></svg>