<svg xmlns="http://www.w3.org/2000/svg" id="il-highway-blue-3" width="28" height="18" viewBox="0 0 28 18"><g><path d="M0,0 H28 V18 H0 Z" fill="none"/><path d="M3,1 H25 C25,1 27,1 27,3 V15 C27,15 27,17 25,17 H3 C3,17 1,17 1,15 V3 C1,3 1,1 3,1" fill="none" stroke="hsl(0, 0%, 100%)" stroke-linejoin="round" stroke-miterlimit="4px" stroke-width="2"/><path d="M3,1 H25 C25,1 27,1 27,3 V15 C27,15 27,17 25,17 H3 C3,17 1,17 1,15 V3 C1,3 1,1 3,1" fill="hsl(230, 57%, 54%)"/><path d="M3.466,14.539,2.5,9,3.466,3.461,14.05,2.498,24.534,3.461,25.5,9,24.534,14.539,14.001,15.498,3.466,14.539 Z" fill="hsl(0, 0%, 100%)"/><path d="M0,6 H28 V12 H0 Z" fill="none" id="mapbox-text-placeholder"/></g></svg>