<svg xmlns="http://www.w3.org/2000/svg" id="jp-urban-expressway-3" width="26" height="17" viewBox="0 0 26 17"><g><path d="M0,0 H26 V17 H0 Z" fill="none"/><path d="M3.087,1A2.051,2.051,0,0,0,1,3V8c0,8.5,12,8,12,8s12,.5,12-8V3a2.051,2.051,0,0,0-2.087-2Z" fill="none" stroke="hsl(0, 0%, 100%)" stroke-linejoin="round" stroke-miterlimit="4px" stroke-width="2"/><path d="M3.087,1A2.051,2.051,0,0,0,1,3V8c0,8.5,12,8,12,8s12,.5,12-8V3a2.051,2.051,0,0,0-2.087-2Z" fill="hsl(140, 74%, 37%)"/><path d="M0,5.5 H26 V11.5 H0 Z" fill="none" id="mapbox-text-placeholder"/></g></svg>