<svg xmlns="http://www.w3.org/2000/svg" viewBox="0 -0.5 32 32" shape-rendering="crispEdges"><metadata>Made with Pixels to Svg https://codepen.io/shshaw/pen/XbxvNj</metadata><path stroke="#ababab" d="M0 0h32M0 6h32M0 24h32M3 26h1M6 26h1M13 26h1M18 26h1M25 26h1M28 26h1M3 27h1M6 27h1M13 27h1M18 27h1M25 27h1M28 27h1M3 28h1M6 28h1M13 28h6M25 28h1M28 28h1M3 29h1M6 29h1M13 29h1M18 29h1M25 29h1M28 29h1M3 30h1M6 30h1M13 30h1M18 30h1M25 30h1M28 30h1M3 31h1M6 31h1M13 31h1M18 31h1M25 31h1M28 31h1"/><path stroke="#70b5c4" d="M0 1h28M29 1h3M0 2h28M29 2h3M0 3h28M29 3h3M0 4h28M29 4h3M0 5h28M29 5h3M29 21h3"/><path stroke="#a0b7af" d="M28 1h1M28 2h1M28 3h1M28 4h1M28 5h1"/><path stroke="#94c8d3" d="M0 7h3M24 7h4M29 7h3M0 9h3M24 9h4M29 9h3M0 11h3M24 11h4M29 11h3"/><path stroke="#bbcdc7" d="M3 7h21M28 7h1M3 9h2M11 9h13M28 9h1M3 11h21M28 11h1"/><path stroke="#86c0cd" d="M0 8h3M24 8h4M29 8h3M24 10h4M29 10h3"/><path stroke="#b0c4bd" d="M3 8h21M28 8h1M3 10h21M28 10h1"/><path stroke="#94bab9" d="M5 9h6M12 15h6"/><path stroke="#89bcc5" d="M0 10h3"/><path stroke="#bcbcbc" d="M0 12h32M0 18h32"/><path stroke="#b6d9e1" d="M0 13h3M29 13h3M0 15h3M29 15h3M0 17h3M29 17h3"/><path stroke="#cfdad6" d="M3 13h21M28 13h1M3 15h9M18 15h6M28 15h1M3 17h21M28 17h1"/><path stroke="#cacdc7" d="M24 13h4M24 15h4M24 17h4"/><path stroke="#a8d2db" d="M0 14h3M29 14h3M0 16h3M29 16h3"/><path stroke="#c6d3ce" d="M3 14h9M18 14h6M28 14h1M3 16h21M28 16h1"/><path stroke="#c8d6d1" d="M12 14h6"/><path stroke="#b6bcb7" d="M24 14h4M24 16h4"/><path stroke="#daecf0" d="M0 19h3M0 21h3M0 23h3"/><path stroke="#e7ecea" d="M3 19h21M3 21h4M13 21h13M3 23h21"/><path stroke="#e5e6e3" d="M24 19h4M24 23h4"/><path stroke="#f3f6f5" d="M28 19h1M28 23h1"/><path stroke="#edf6f8" d="M29 19h3M29 23h3"/><path stroke="#cfe6ec" d="M0 20h3M0 22h3"/><path stroke="#d9e2df" d="M3 20h4M18 20h6"/><path stroke="#dbe4e1" d="M7 20h11"/><path stroke="#d1dad7" d="M24 20h2"/><path stroke="#d7dedc" d="M26 20h2"/><path stroke="#d7e4e3" d="M28 20h1"/><path stroke="#d1e7ec" d="M29 20h3"/><path stroke="#8db9bb" d="M7 21h6M28 21h1"/><path stroke="#7faaae" d="M26 21h2"/><path stroke="#e0e7e4" d="M3 22h21"/><path stroke="#d7dad7" d="M24 22h4"/><path stroke="#dfe9e9" d="M28 22h1"/><path stroke="#e0eff3" d="M29 22h3"/><path stroke="#929292" d="M3 25h1M6 25h1M9 25h2M13 25h1M18 25h1M21 25h2M25 25h1M28 25h1"/><path stroke="#538995" d="M4 25h2M7 25h2M11 25h2M14 25h4M19 25h2M23 25h2M26 25h2"/><path stroke="#88c0cf" d="M4 26h2M7 26h2M11 26h2M14 26h4M19 26h2M23 26h2M26 26h2M4 27h2M7 27h2M11 27h2M14 27h4M19 27h2M23 27h2M26 27h2M4 28h2M7 28h2M11 28h2M19 28h2M23 28h2M26 28h2M4 29h2M7 29h2M11 29h2M14 29h4M19 29h2M23 29h2M26 29h2M4 30h2M7 30h2M11 30h2M14 30h4M19 30h2M23 30h2M26 30h2M4 31h2M7 31h2M11 31h2M14 31h4M19 31h2M23 31h2M26 31h2"/><path stroke="#9a9999" d="M9 26h2M21 26h2M9 27h2M21 27h2M9 28h2M21 28h2M9 29h2M21 29h2M9 30h2M21 30h2M9 31h2M21 31h2"/></svg>