<svg xmlns="http://www.w3.org/2000/svg" id="mashreq-network-2" width="20" height="25" viewBox="0 0 20 25"><g><path d="M0,0 H20 V25 H0 Z" fill="none"/><path d="M3,7,1,11a7.651,7.651,0,0,1,2,5c0,7,3.991,8,7,8s7-1,7-8a7.651,7.651,0,0,1,2-5L17,7Z" fill="none" stroke="hsl(230, 57%, 54%)" stroke-linejoin="round" stroke-miterlimit="4px" stroke-width="2"/><path d="M3,7,1,11a7.651,7.651,0,0,1,2,5c0,7,3.991,8,7,8s7-1,7-8a7.651,7.651,0,0,1,2-5L17,7Z" fill="hsl(0, 0%, 100%)"/><path d="M7.5,22,7.5,17,9.064,17,10.003,20.411,10.932,17,12.5,17,12.5,22,11.529,22,11.529,18.065,10.501,22,9.495,22,8.471,18.065,8.471,22,7.5,22 Z" fill="hsl(230, 57%, 54%)"/><path d="M0,9.5 H20 V15.5 H0 Z" fill="none" id="mapbox-text-placeholder"/></g></svg>