<svg xmlns="http://www.w3.org/2000/svg" viewBox="0 -0.5 32 32" shape-rendering="crispEdges"><metadata>Made with Pixels to Svg https://codepen.io/shshaw/pen/XbxvNj</metadata><path stroke="#a9cce9" d="M0 0h4M0 1h3"/><path stroke="#82b6de" d="M4 0h1M11 0h1M19 0h2M24 0h2M3 1h2M12 1h1M25 1h2M0 2h3M13 2h5M27 2h5"/><path stroke="#3b8dcc" d="M5 0h6M21 0h3M5 1h7M19 1h6M3 2h10M18 2h9M0 3h32M0 4h32M0 5h2M11 5h21M0 6h2M17 6h15M0 7h2M23 7h9M0 8h2M30 8h2M0 9h2M30 9h2M0 10h3M29 10h3M0 11h3M30 11h2M0 12h2M30 12h2M0 13h2M30 13h2M0 14h2M30 14h2M0 15h2M30 15h2M0 16h2M30 16h2M0 17h3M29 17h3M0 18h3M30 18h2M0 19h2M30 19h2M0 20h2M30 20h2M0 21h2M30 21h2M0 22h2M30 22h2M0 23h2M30 23h2M0 24h2M29 24h3M0 25h3M29 25h3M0 26h3M29 26h3"/><path stroke="#b8d5ed" d="M12 0h7M26 0h6M13 1h5M27 1h5"/><path stroke="#97c2e4" d="M18 1h1"/><path stroke="#c7d3e3" d="M2 5h9M10 6h7M16 7h7M24 8h6M12 12h18M2 13h11M20 19h10M15 20h6M2 21h14"/><path stroke="#bcc9d9" d="M2 6h8M2 7h14M2 8h4M13 13h17M2 14h10M27 14h3M2 15h11M25 15h5M21 20h9M16 21h14M9 22h21M11 23h7"/><path stroke="#adb9c9" d="M6 8h18M2 9h5M23 9h7M2 16h12M23 16h7M2 22h7M8 23h3M18 23h12M10 24h9"/><path stroke="#637887" d="M7 9h4M12 9h3M16 9h3M20 9h3M3 10h3M23 10h1M25 10h3M3 23h2M6 23h2M9 24h1M19 24h3M23 24h2M26 24h2"/><path stroke="#394751" d="M11 9h1M15 9h1M19 9h1M6 10h1M10 10h1M12 10h1M14 10h1M16 10h1M18 10h1M20 10h1M24 10h1M28 10h1M3 11h1M5 11h1M7 11h1M9 11h1M13 11h1M17 11h1M21 11h1M23 11h1M25 11h1M27 11h1M29 11h1M4 12h1M8 12h1M14 14h1M18 14h1M22 14h1M14 15h1M18 15h1M22 15h1M14 16h1M18 16h1M22 16h1M6 17h1M10 17h1M14 17h1M18 17h1M22 17h1M26 17h1M3 18h1M5 18h1M7 18h1M9 18h1M11 18h1M13 18h1M15 18h1M17 18h1M19 18h1M21 18h1M23 18h1M25 18h1M27 18h1M29 18h1M3 19h1M5 19h1M7 19h1M9 19h1M11 19h1M13 19h1M16 19h1M4 20h1M8 20h1M12 20h1M2 23h1M5 23h1M2 24h1M5 24h1M8 24h1M22 24h1M25 24h1M28 24h1M3 25h1M6 25h1M9 25h1M12 25h1M15 25h1M18 25h1M21 25h1M24 25h1M27 25h1M3 26h1M6 26h1M9 26h1M12 26h1M15 26h1M18 26h1M21 26h1M24 26h1M27 26h1"/><path stroke="#708a9c" d="M7 10h3M11 10h1M13 10h1M15 10h1M17 10h1M19 10h1M21 10h2M4 11h1M6 11h1M8 11h1M10 11h3M14 11h3M18 11h3M22 11h1M24 11h1M26 11h1M28 11h1M2 12h2M5 12h3M9 12h3M13 15h1M15 15h3M19 15h3M23 15h2M15 16h3M19 16h3M3 17h3M7 17h3M11 17h3M15 17h3M19 17h3M23 17h3M27 17h2M4 18h1M6 18h1M8 18h1M10 18h1M12 18h1M14 18h1M16 18h1M18 18h1M20 18h1M22 18h1M24 18h1M26 18h1M28 18h1M2 19h1M4 19h1M6 19h1M8 19h1M10 19h1M12 19h1M14 19h2M17 19h3M2 20h2M5 20h3M9 20h3M13 20h2M3 24h2M6 24h2M4 25h2M7 25h2M19 25h2M22 25h2M25 25h2M28 25h1M4 26h2M7 26h2M10 26h2M13 26h2M16 26h2M19 26h2M22 26h2M25 26h2M28 26h1"/><path stroke="#697e8d" d="M12 14h2M15 14h3M19 14h3M23 14h4M10 25h2M13 25h2M16 25h2"/><path stroke="#474e56" d="M0 27h32M0 31h32"/><path stroke="#555c63" d="M0 28h32M0 29h32M0 30h32"/></svg>