<svg xmlns="http://www.w3.org/2000/svg" viewBox="0 -0.5 32 32" shape-rendering="crispEdges"><metadata>Made with Pixels to Svg https://codepen.io/shshaw/pen/XbxvNj</metadata><path stroke="#3f5a55" d="M14 1h4M13 2h1M16 2h1M19 2h1M10 3h2M20 3h1M23 4h1M7 5h1M24 5h2M6 6h1M26 6h1M3 9h1M28 9h2"/><path stroke="#647d79" d="M12 2h1M14 2h2M17 2h2M21 3h1M8 4h2M22 4h1M5 7h1M27 7h1M3 8h2M28 8h1"/><path stroke="#768e8a" d="M12 3h2M15 3h5M10 4h3M15 4h2M19 4h3M8 5h2M11 5h1M14 5h1M17 5h1M20 5h1M22 5h1M7 6h1M10 6h2M13 6h1M16 6h1M18 6h1M21 6h1M23 6h2M6 7h1M9 7h2M12 7h1M15 7h1M19 7h1M21 7h2M25 7h2M5 8h1M8 8h2M12 8h1M16 8h1M19 8h1M22 8h2M26 8h2M4 9h1M7 9h2M11 9h1M16 9h1M20 9h1M23 9h2M27 9h1"/><path stroke="#c0d5d3" d="M14 3h1M18 4h1M12 5h2M18 5h1M8 6h2M12 6h1M25 6h1M8 7h1M15 8h1M9 9h2M14 9h1M21 9h2M25 9h2"/><path stroke="#99b6b1" d="M13 4h2M17 4h1M10 5h1M15 5h2M19 5h1M21 5h1M23 5h1M14 6h2M17 6h1M19 6h2M22 6h1M7 7h1M11 7h1M13 7h2M16 7h3M20 7h1M23 7h2M6 8h2M10 8h2M13 8h2M17 8h2M20 8h2M24 8h2M5 9h2M12 9h2M15 9h1M17 9h3"/><path stroke="#82775f" d="M1 10h2"/><path stroke="#948979" d="M3 10h27"/><path stroke="#564e3d" d="M30 10h1M0 11h1M4 11h3M11 11h1M16 11h3M23 11h4M31 11h1M0 12h1M31 12h1M0 13h1M31 13h1M0 14h1M31 14h1M0 15h1M31 15h1M0 16h1M31 16h1M0 17h1M31 17h1M0 18h1M31 18h1M0 19h1M31 19h1M0 20h1M31 20h1M31 21h1M31 22h1M30 25h1M3 27h4M10 27h2M15 27h1M18 27h3M24 27h2"/><path stroke="#876f55" d="M1 11h3M8 11h3M12 11h2M15 11h1M19 11h3M27 11h4M1 12h1M3 12h2M9 12h1M13 12h1M17 12h3M23 12h2M27 12h1M30 12h1M1 13h1M3 13h3M8 13h2M13 13h2M17 13h2M22 13h2M26 13h2M30 13h1M1 14h1M3 14h3M8 14h2M13 14h2M17 14h2M22 14h2M26 14h2M30 14h1M1 15h1M4 15h2M8 15h2M13 15h2M17 15h2M22 15h2M26 15h2M30 15h1M1 16h1M4 16h2M8 16h2M13 16h2M17 16h2M22 16h2M26 16h2M30 16h1M1 17h1M4 17h2M8 17h2M13 17h2M17 17h2M22 17h2M26 17h2M30 17h1M1 18h1M4 18h2M8 18h2M13 18h2M17 18h2M22 18h2M26 18h2M30 18h1M1 19h1M4 19h2M8 19h2M13 19h2M17 19h2M22 19h2M26 19h2M30 19h1M1 20h1M4 20h2M8 20h2M14 20h1M17 20h2M22 20h2M26 20h2M30 20h1M1 21h1M4 21h2M8 21h2M14 21h1M17 21h2M22 21h2M26 21h2M30 21h1M1 22h1M4 22h2M8 22h2M14 22h1M17 22h2M22 22h2M26 22h2M30 22h1M1 23h1M4 23h2M8 23h2M14 23h1M17 23h2M23 23h1M26 23h2M30 23h1M1 24h1M4 24h2M8 24h2M13 24h2M17 24h3M26 24h2M30 24h1M4 25h2M8 25h2M14 25h1M17 25h3M26 25h2M4 26h2M8 26h3M14 26h1M17 26h2M26 26h2"/><path stroke="#94826c" d="M7 11h1M22 11h1M6 12h1M11 12h2M25 12h1"/><path stroke="#af9470" d="M14 11h1M5 12h1M7 12h2M10 12h1M14 12h1M20 12h2M28 12h2M7 13h1M11 13h2M19 14h1M19 15h1M19 16h1M10 17h1M19 17h1M10 18h1M19 18h1M10 19h1M19 19h1M10 20h1M13 20h1M19 20h1M13 21h1M19 21h1M13 22h1M19 22h1M10 23h1M13 23h1M22 23h1M10 24h1M22 24h2M10 25h1M13 25h1M22 25h1M13 26h1M22 26h1"/><path stroke="#dac7b1" d="M2 12h1M15 12h2M22 12h1M26 12h1M10 13h1M19 13h1"/><path stroke="#645047" d="M2 13h1M6 13h1M15 13h2M20 13h2M24 13h2M28 13h2M7 14h1M10 14h1M15 14h1M24 14h1M28 14h1M10 15h1M10 16h1M0 21h1M10 21h1M0 22h1M0 23h1M19 23h1M0 24h1M2 25h2M23 25h1M28 25h2M3 26h1M6 26h2M11 26h2M15 26h2M19 26h3M23 26h3M28 26h1"/><path stroke="#dbe0e0" d="M2 14h1M6 14h1M11 14h1M16 14h1M21 14h1M25 14h1M29 14h1M6 15h1M15 15h1M21 15h1M25 15h1M28 15h1M6 16h2M28 16h1M3 17h1M6 17h2M11 17h1M20 17h2M25 17h1M28 17h1M3 18h1M7 18h1M11 18h1M16 18h1M20 18h2M24 18h1M28 18h1M3 19h1M7 19h1M11 19h1M15 19h1M20 19h1M24 19h1M28 19h1M3 20h1M11 20h2M15 20h1M20 20h1M24 20h1M28 20h1M3 21h1M7 21h1M15 21h2M20 21h1M28 21h1M7 22h1M7 23h1M15 23h1M24 23h1M15 24h2M20 24h2M24 24h2M6 25h2M11 25h2M15 25h2M20 25h2M24 25h2"/><path stroke="#84624e" d="M12 14h1M20 14h1M10 22h1"/><path stroke="#fcf6eb" d="M2 15h1M7 15h1M11 15h2M16 15h1M20 15h1M24 15h1M29 15h1M2 16h1M11 16h2M15 16h2M20 16h2M24 16h2M29 16h1M2 17h1M15 17h2M24 17h1M29 17h1M2 18h1M15 18h1M29 18h1M2 19h1M29 19h1M2 20h1M29 20h1M2 21h1"/><path stroke="#a1a4a0" d="M3 15h1M3 16h1M12 17h1M6 18h1M12 18h1M25 18h1M6 19h1M12 19h1M16 19h1M21 19h1M25 19h1M6 20h2M16 20h1M21 20h1M25 20h1M6 21h1M11 21h2M21 21h1M24 21h2M29 21h1M2 22h2M6 22h1M11 22h2M15 22h2M20 22h2M24 22h2M28 22h2M2 23h2M6 23h1M11 23h2M16 23h1M20 23h2M25 23h1M28 23h2M2 24h2M6 24h2M11 24h2M28 24h2"/><path stroke="#393329" d="M31 23h1M31 24h1M1 25h1M2 26h1M29 26h1M7 27h3M12 27h3M16 27h2M21 27h3M26 27h3"/><path stroke="#a1a1a1" d="M0 25h1M7 28h2M4 29h1M12 29h2M26 29h4M2 30h1M2 31h1M12 31h2M19 31h5M27 31h2"/><path stroke="#474747" d="M31 25h1M0 26h2M30 26h2M1 27h2M0 28h7M9 28h23M6 29h2M15 29h1M23 29h2M31 29h1M0 30h2M3 30h29M0 31h2M9 31h2M16 31h2M26 31h1"/><path stroke="#717171" d="M0 27h1M29 27h3M0 29h4M5 29h1M8 29h4M14 29h1M16 29h7M25 29h1M30 29h1M3 31h6M11 31h1M14 31h2M18 31h1M24 31h2M29 31h3"/></svg>