<svg xmlns="http://www.w3.org/2000/svg" viewBox="0 -0.5 32 32" shape-rendering="crispEdges"><metadata>Made with Pixels to Svg https://codepen.io/shshaw/pen/XbxvNj</metadata><path stroke="#6acdda" d="M0 0h32M0 1h14M18 1h14"/><path stroke="#474e5e" d="M14 1h4M0 2h14M18 2h14M10 3h2M20 3h2M8 4h2M22 4h2M6 5h2M24 5h2M3 6h12M17 6h12M0 7h3M6 7h1M12 7h1M19 7h1M25 7h1M29 7h3M2 8h1M6 8h1M10 8h2M20 8h2M25 8h1M29 8h1M2 9h1M6 9h1M8 9h2M22 9h2M25 9h1M29 9h1M2 10h1M5 10h3M24 10h3M29 10h1M2 11h1M4 11h1M27 11h1M29 11h1M0 12h4M28 12h4"/><path stroke="#55668b" d="M14 2h1M17 2h1M0 3h10M12 3h2M18 3h2M22 3h10M10 4h2M20 4h2M8 5h2M22 5h2M3 7h3M7 7h5M20 7h5M26 7h3M0 8h2M30 8h2"/><path stroke="#5c6f99" d="M15 2h2M14 3h4M0 4h8M12 4h8M24 4h8M0 5h6M10 5h12M26 5h6M0 6h3M29 6h3M3 8h1M5 8h1M7 8h3M22 8h3M26 8h1M28 8h1M1 9h1M3 9h1M5 9h1M7 9h1M24 9h1M26 9h1M28 9h1M30 9h1M3 10h2M27 10h2M0 11h2M3 11h1M28 11h1M30 11h2"/><path stroke="#82725f" d="M15 6h2M13 7h2M17 7h2M12 8h1M19 8h1M10 9h2M20 9h2M8 10h2M22 10h2M5 11h22M4 12h1M6 12h1M25 12h1M27 12h1M0 13h4M6 13h1M25 13h1M28 13h4M2 14h1M6 14h1M25 14h1M29 14h1M2 15h1M6 15h1M25 15h1M29 15h1M2 16h1M6 16h1M25 16h1M29 16h1M2 17h1M6 17h1M25 17h1M29 17h1M2 18h1M6 18h1M25 18h1M29 18h1M2 19h1M5 19h22M29 19h1M2 20h1M4 20h1M6 20h1M8 20h1M13 20h1M18 20h1M23 20h1M25 20h1M27 20h1M29 20h1M0 21h4M6 21h1M25 21h1M28 21h4M2 22h1M6 22h1M25 22h1M29 22h1M2 23h1M6 23h1M25 23h1M29 23h1M2 24h1M6 24h1M25 24h1M29 24h1M2 25h1M6 25h1M25 25h1M29 25h1M2 26h1M6 26h1M25 26h1M29 26h1M2 27h1M6 27h1M25 27h1M29 27h1M2 28h1M5 28h22M29 28h1M2 29h1M4 29h1M27 29h1M29 29h1M0 30h4M28 30h4"/><path stroke="#c9b092" d="M15 7h2M13 8h6M12 9h2M18 9h2M10 10h3M19 10h3M5 12h1M7 12h18M26 12h1M4 13h1M7 13h1M24 13h1M27 13h1M0 14h2M3 14h1M7 14h1M24 14h1M28 14h1M30 14h2M3 15h1M7 15h1M24 15h1M28 15h1M3 16h1M7 16h1M24 16h1M28 16h1M3 17h1M7 17h1M24 17h1M28 17h1M3 18h1M28 18h1M3 19h1M28 19h1M3 20h1M5 20h1M7 20h1M9 20h4M14 20h4M19 20h4M24 20h1M26 20h1M28 20h1M4 21h1M7 21h1M24 21h1M27 21h1M0 22h2M3 22h1M7 22h1M24 22h1M28 22h1M30 22h2M3 23h1M7 23h1M24 23h1M28 23h1M3 24h1M7 24h1M24 24h1M28 24h1M3 25h1M7 25h1M24 25h1M28 25h1M3 26h1M7 26h1M24 26h1M28 26h1M3 27h1M7 27h1M24 27h1M28 27h1M3 28h1M28 28h1M3 29h1M28 29h1"/><path stroke="#fff" d="M4 8h1M27 8h1M0 9h1M31 9h1M1 10h1M30 10h1M10 13h2M15 13h2M20 13h2M4 14h1M9 14h1M12 14h1M14 14h1M17 14h1M19 14h1M22 14h1M27 14h1M0 15h1M9 15h1M12 15h1M14 15h1M17 15h1M19 15h1M22 15h1M31 15h1M1 16h1M9 16h1M12 16h1M14 16h1M17 16h1M19 16h1M22 16h1M30 16h1M1 17h1M9 17h1M12 17h1M14 17h1M17 17h1M19 17h1M22 17h1M30 17h1M1 18h1M4 18h1M27 18h1M30 18h1M0 19h2M30 19h2M4 23h1M27 23h1M0 24h1M31 24h1M1 25h1M30 25h1M1 26h1M4 26h1M27 26h1M30 26h1M1 27h1M30 27h1M0 28h2M30 28h2"/><path stroke="#b0d3e0" d="M4 9h1M27 9h1M0 10h1M31 10h1M10 14h2M15 14h2M20 14h2M4 15h1M27 15h1M0 16h1M31 16h1"/><path stroke="#d9bd9c" d="M14 9h4M13 10h6M5 13h1M8 13h2M12 13h3M17 13h3M22 13h2M26 13h1M5 14h1M8 14h1M13 14h1M18 14h1M23 14h1M26 14h1M1 15h1M5 15h1M8 15h1M13 15h1M18 15h1M23 15h1M26 15h1M30 15h1M5 16h1M8 16h1M13 16h1M18 16h1M23 16h1M26 16h1M5 17h1M8 17h1M13 17h1M18 17h1M23 17h1M26 17h1M5 18h1M26 18h1M4 19h1M27 19h1M0 20h2M30 20h2M5 21h1M8 21h16M26 21h1M4 22h2M8 22h2M12 22h3M17 22h3M22 22h2M26 22h2M0 23h2M5 23h1M8 23h1M13 23h1M18 23h1M23 23h1M26 23h1M30 23h2M1 24h1M5 24h1M8 24h1M13 24h1M18 24h1M23 24h1M26 24h1M30 24h1M5 25h1M8 25h1M13 25h1M18 25h1M23 25h1M26 25h1M5 26h1M8 26h1M13 26h1M18 26h1M23 26h1M26 26h1M4 27h2M8 27h1M13 27h1M18 27h1M23 27h1M26 27h2M4 28h1M27 28h1M0 29h2M30 29h2"/><path stroke="#bae1ef" d="M10 15h2M15 15h2M20 15h2M4 16h1M10 16h2M15 16h2M20 16h2M27 16h1M0 17h1M4 17h1M10 17h2M15 17h2M20 17h2M27 17h1M31 17h1M0 18h1M31 18h1M4 24h1M27 24h1M0 25h1M4 25h1M27 25h1M31 25h1M0 26h1M31 26h1M0 27h1M31 27h1"/><path stroke="#aa967e" d="M7 18h18"/><path stroke="#796648" d="M10 22h2M15 22h2M20 22h2M9 23h1M12 23h1M14 23h1M17 23h1M19 23h1M22 23h1M9 24h1M12 24h1M14 24h1M17 24h1M19 24h1M22 24h1M9 25h1M12 25h1M14 25h1M17 25h1M19 25h1M22 25h1M9 26h1M12 26h1M14 26h1M17 26h1M19 26h1M22 26h1M9 27h1M12 27h1M14 27h1M17 27h1M19 27h1M22 27h1"/><path stroke="#6e6e6e" d="M10 23h2M15 23h2M20 23h2"/><path stroke="#888" d="M10 24h2M15 24h2M20 24h2M10 25h2M15 25h2M20 25h2M10 26h2M15 26h2M20 26h2M10 27h2M15 27h2M20 27h2"/><path stroke="#ebe5db" d="M5 29h22"/><path stroke="#d4cfc7" d="M4 30h24"/><path stroke="#3d3c07" d="M0 31h3M29 31h3"/><path stroke="#b8b4ae" d="M3 31h26"/></svg>