<svg xmlns="http://www.w3.org/2000/svg" id="pk-motorway-2" width="20" height="17" viewBox="0 0 20 17"><g><path d="M0,0 H20 V17 H0 Z" fill="none"/><path d="M3,1A2.006,2.006,0,0,0,1,3V8c0,8.5,9,8,9,8s9,.5,9-8V3a2.006,2.006,0,0,0-2-2Z" fill="none" stroke="hsl(140, 74%, 37%)" stroke-linejoin="round" stroke-miterlimit="4px" stroke-width="2"/><path d="M3,1A2.006,2.006,0,0,0,1,3V8c0,8.5,9,8,9,8s9,.5,9-8V3a2.006,2.006,0,0,0-2-2Z" fill="hsl(140, 74%, 37%)"/><path d="M0,5.5 H20 V11.5 H0 Z" fill="none" id="mapbox-text-placeholder"/></g></svg>