<svg xmlns="http://www.w3.org/2000/svg" viewBox="0 -0.5 32 32" shape-rendering="crispEdges"><metadata>Made with Pixels to Svg https://codepen.io/shshaw/pen/XbxvNj</metadata><path stroke="#fff" d="M0 0h32M0 1h32M0 2h19M27 2h5M0 3h14M31 3h1M0 4h9M0 5h3M17 6h2M20 6h1M14 7h2M17 7h1M21 7h1M11 8h2M14 8h2M11 9h1M0 20h1M23 20h4M0 21h2M9 21h5M21 21h5M0 22h2M9 22h6M22 22h3M0 23h3M31 23h1M0 24h3M30 24h2M0 25h2M29 25h3M0 26h1M28 26h4M0 27h1M31 27h1M0 28h1M0 29h2M0 30h3M14 30h18M0 31h32"/><path stroke="#20435a" d="M19 2h4M14 3h9M9 4h8M3 5h8M0 6h5M19 6h1M21 6h2M11 7h3M16 7h1M18 7h3M22 7h1M5 8h6M13 8h1M16 8h1M0 9h11M0 10h5M17 10h5M11 11h11M5 12h12M0 13h11M0 14h5M17 14h5M11 15h11M5 16h12M0 17h11M0 18h5M12 27h9M8 28h14M6 29h7"/><path stroke="#d4d5db" d="M23 2h2M25 3h2M29 3h2M23 4h2M27 4h2M31 4h1M25 5h2M29 5h2M23 6h2M27 6h2M31 6h1M25 7h2M29 7h2M23 8h2M27 8h2M31 8h1M22 9h1M25 9h2M29 9h2M23 10h2M27 10h2M31 10h1M22 11h1M25 11h2M29 11h2M23 12h2M27 12h2M31 12h1M22 13h1M25 13h2M29 13h2M23 14h2M27 14h2M31 14h1M22 15h1M25 15h2M29 15h2M27 16h2M31 16h1M29 17h2M31 18h1"/><path stroke="#e2e3e6" d="M25 2h2M23 3h2M27 3h2M25 4h2M29 4h2M23 5h2M27 5h2M31 5h1M25 6h2M29 6h2M23 7h2M27 7h2M31 7h1M25 8h2M29 8h2M23 9h2M27 9h2M31 9h1M22 10h1M25 10h2M29 10h2M23 11h2M27 11h2M31 11h1M22 12h1M25 12h2M29 12h2M23 13h2M27 13h2M31 13h1M22 14h1M25 14h2M29 14h2M23 15h2M27 15h2M31 15h1M25 16h2M29 16h2M28 17h1M31 17h1"/><path stroke="#162e3e" d="M17 4h6M11 5h12M5 6h12M0 7h11M0 8h5M17 8h6M12 9h10M5 10h12M0 11h11M0 12h5M17 12h5M11 13h11M5 14h12M0 15h11M0 16h5"/><path stroke="#777778" d="M17 16h5M11 17h6M6 18h5M0 19h7"/><path stroke="#6c6c6d" d="M22 16h3M17 17h11M5 18h1M11 18h10M7 19h9M9 20h2"/><path stroke="#666668" d="M21 18h10M16 19h12M1 20h1M11 20h2M20 20h3"/><path stroke="#d1d2d6" d="M28 19h4M2 20h6M13 20h5M27 20h5M2 21h6M14 21h5M26 21h5M2 22h6M15 22h5M25 22h5M3 23h5M16 23h5M24 23h5M3 24h4M17 24h5M23 24h5M3 25h4M18 25h9M11 26h15M7 27h5M21 27h7M5 28h3M22 28h8M3 29h3"/><path stroke="#9c9da0" d="M8 20h1M18 20h2M8 21h1M19 21h2M31 21h1M8 22h1M20 22h2M30 22h2M8 23h1M21 23h2M29 23h2M7 24h1M22 24h1M28 24h2M7 25h1M27 25h2M26 26h2M28 27h3M30 28h2"/><path stroke="#a3a4a8" d="M9 23h7M23 23h1M9 24h8"/><path stroke="#a4a5a8" d="M8 24h1"/><path stroke="#b9babf" d="M2 25h1M8 25h10M1 26h10M1 27h6M1 28h4M2 29h1"/><path stroke="#b9b9b9" d="M13 29h19M3 30h11"/></svg>