<svg xmlns="http://www.w3.org/2000/svg" id="qa-main-3" width="26" height="23" viewBox="0 0 26 23"><g><path d="M0,0 H26 V23 H0 Z" fill="none"/><path d="M3,1 H23 C23,1 25,1 25,3 V17 C25,17 25,19 23,19 H3 C3,19 1,19 1,17 V3 C1,3 1,1 3,1" fill="none" stroke="hsl(230, 57%, 54%)" stroke-linejoin="round" stroke-miterlimit="4px" stroke-width="2"/><path d="M3,1 H23 C23,1 25,1 25,3 V17 C25,17 25,19 23,19 H3 C3,19 1,19 1,17 V3 C1,3 1,1 3,1" fill="hsl(50, 100%, 70%)"/><path d="M21.6,10.865a2.5,2.5,0,0,0-.824-.154l.046-.009s-.653-.054-.635-.557c.008-.247.531-.3.513-1.063-.01-.411-.576-.408-.681-.95a.626.626,0,0,1,.207-.647l.1-.074.02-.012h-.006a4.814,4.814,0,0,0,1.071-1.024l.088-.388a1.483,1.483,0,0,0-.2-.916,1.362,1.362,0,0,1-.127-.387.034.034,0,0,0,0-.028,2.192,2.192,0,0,0-1.386-.7,4.009,4.009,0,0,0-1.189-.064,2.608,2.608,0,0,1-1.267-.126.4.4,0,0,1-.174-.389c-.03-.148-.218-.244-.56-.283-.2-.067-.2-.194-.171-.393s.05-.453-.382-.547l-1.634-.4a.1.1,0,0,0-.053,0l-.176.055a2.479,2.479,0,0,1-1.309.16.1.1,0,0,0-.092.016,2.587,2.587,0,0,1-1.687.727h-.06A2.008,2.008,0,0,0,9.253,3.742l-.472.246a2.169,2.169,0,0,1-.339.524,1.621,1.621,0,0,0-.353.6.044.044,0,0,0,.029.047l.3.147a.106.106,0,0,0,.089,0l.076-.038A.168.168,0,0,1,8.6,5.46a.6.6,0,0,1-.359.233c0-.145-.132-.274-.338-.318a.5.5,0,0,0-.479.217l-.226-.028a.078.078,0,0,0-.086.041v.06c0,.283.01.318.053.341.079.039.091.058.092.066v.007c-.4.086-.432.6-.41.8V6.9c.306.482,1.1.392,1.689.283l-.084.09c-.177.192-.307.3-.535.263a.6.6,0,0,0-.446-.074c-.3.091-.352.515-.373.741a.34.34,0,0,1-.269,0,.489.489,0,0,1-.272-.49c.137-.217.2-.367.118-.49-.066-.1-.219-.174-.513-.245A.1.1,0,0,0,6.067,7a.883.883,0,0,1-.681.294,1.546,1.546,0,0,0-.655.189.039.039,0,0,0-.022.044.059.059,0,0,0,.04.038,2.195,2.195,0,0,0,.392.062,1.066,1.066,0,0,1,.514.124.134.134,0,0,1,.028.144c-.272.31.014.693.241.968l-.337-.028V8.671a.038.038,0,0,0-.014-.028c-.277-.264-.457-.4-.673-.415H4.856a1.751,1.751,0,0,0-.832.373A.046.046,0,0,0,4,8.641a.052.052,0,0,0,.031.038l.236.112a1.981,1.981,0,0,1-.261.6.032.032,0,0,0,0,.03c.013.035.036.093.064.164a3.031,3.031,0,0,1,.244.792,1.685,1.685,0,0,0-.029,1.22.28.28,0,0,0,.048.456,1.642,1.642,0,0,0,.187.726.076.076,0,0,0,.056.03.764.764,0,0,1,.581.255.472.472,0,0,1-.2.567.037.037,0,0,0-.014.019c-.026.1.22.318.743.753.1.081.187.152.205.169a1.284,1.284,0,0,1,.121,1.457,1.054,1.054,0,0,1-.767.2.106.106,0,0,0-.068.024.036.036,0,0,0,0,.052,6.774,6.774,0,0,0,4.011,1.866,8.7,8.7,0,0,0,1.188.081,7.774,7.774,0,0,0,3.3-.7c.026-.013.037-.034.029-.055l-.036-.053a2.381,2.381,0,0,1,.837-.176c.164-.013.328-.034.488-.063l.021.117c0,.024.035.043.071.044a3.344,3.344,0,0,0,.347-.015c.307-.022.689-.05.831.077a.777.777,0,0,1-.176.24.872.872,0,0,0-.185.248.042.042,0,0,0,.021.049l.239.151a.1.1,0,0,0,.051.014.109.109,0,0,0,.059-.019,1.747,1.747,0,0,1,.335-.2.832.832,0,0,0,.521-.464,9.994,9.994,0,0,1,.967-.28.67.67,0,0,0,.428-.515.971.971,0,0,1,.113-.262c.343-.065.562-.5.743-.849a1.856,1.856,0,0,1,.2-.341c.056-.078.193-.1.337-.125a1.691,1.691,0,0,0,.214-.044A.061.061,0,0,0,20.171,15c.073-.183.629-.451.866-.565l.03-.015a.853.853,0,0,0,.428-.489c.088-.173.178-.353.333-.408.029-.01.045-.032.037-.054a2.229,2.229,0,0,1,.031-.958A1.647,1.647,0,0,0,21.6,10.865Z" fill="hsl(230, 57%, 54%)"/><path d="M0,8.5 H26 V14.5 H0 Z" fill="none" id="mapbox-text-placeholder"/></g></svg>