<svg xmlns="http://www.w3.org/2000/svg" id="qa-main-2" width="20" height="23" viewBox="0 0 20 23"><g><path d="M0,0 H20 V23 H0 Z" fill="none"/><path d="M3,1 H17 C17,1 19,1 19,3 V17 C19,17 19,19 17,19 H3 C3,19 1,19 1,17 V3 C1,3 1,1 3,1" fill="none" stroke="hsl(230, 57%, 54%)" stroke-linejoin="round" stroke-miterlimit="4px" stroke-width="2"/><path d="M3,1 H17 C17,1 19,1 19,3 V17 C19,17 19,19 17,19 H3 C3,19 1,19 1,17 V3 C1,3 1,1 3,1" fill="hsl(50, 100%, 70%)"/><path d="M15.8,10.865a1.21,1.21,0,0,0-.554-.154l.03-.01a.508.508,0,0,1-.427-.556c.006-.247.358-.306.345-1.063-.007-.412-.388-.409-.458-.95a.811.811,0,0,1,.14-.648l.065-.074.014-.012-.005,0a4.35,4.35,0,0,0,.721-1.024l.059-.388a2.088,2.088,0,0,0-.135-.916,1.9,1.9,0,0,1-.086-.387.045.045,0,0,0,0-.028,1.406,1.406,0,0,0-.933-.7,1.836,1.836,0,0,0-.8-.064c-.336.019-.684.038-.853-.126a.5.5,0,0,1-.117-.389c-.02-.148-.147-.244-.377-.283C12.3,3.028,12.3,2.9,12.311,2.7s.034-.453-.257-.547l-1.1-.4a.045.045,0,0,0-.036,0L10.8,1.81c-.267.119-.633.284-.881.16a.053.053,0,0,0-.062.016,1.552,1.552,0,0,1-1.136.727h-.04c-.707,0-1.063.692-1.194,1.029l-.318.246a2.49,2.49,0,0,1-.228.524,1.912,1.912,0,0,0-.238.6.049.049,0,0,0,.02.047l.2.147a.051.051,0,0,0,.06,0l.051-.038a.238.238,0,0,1,.01.192.433.433,0,0,1-.242.233.325.325,0,0,0-.227-.318c-.1-.022-.234.028-.323.217L6.1,5.564a.05.05,0,0,0-.057.041v.06c0,.283.007.318.036.341.053.039.061.058.062.066v.007c-.27.086-.291.6-.276.8V6.9c.206.482.743.392,1.137.283l-.057.09c-.119.192-.206.3-.36.263a.3.3,0,0,0-.3-.074c-.2.091-.237.515-.251.741a.161.161,0,0,1-.181,0,.57.57,0,0,1-.183-.49c.092-.217.134-.367.079-.49-.044-.1-.147-.174-.345-.245A.053.053,0,0,0,5.342,7a.535.535,0,0,1-.458.294.811.811,0,0,0-.441.189.049.049,0,0,0-.015.044.056.056,0,0,0,.027.038,1.046,1.046,0,0,0,.264.062c.143.022.29.044.346.124a.181.181,0,0,1,.019.144c-.183.31.009.693.162.968l-.227-.028V8.671a.047.047,0,0,0-.009-.028c-.187-.264-.308-.4-.453-.415h-.03c-.154,0-.309.138-.56.373a.054.054,0,0,0-.016.04.052.052,0,0,0,.021.038l.159.112a2.567,2.567,0,0,1-.176.6.051.051,0,0,0,0,.03c.009.035.024.093.043.164a4.189,4.189,0,0,1,.164.792,2.459,2.459,0,0,0-.019,1.22.364.364,0,0,0,.032.456,2.3,2.3,0,0,0,.126.726.051.051,0,0,0,.038.03.468.468,0,0,1,.391.255.608.608,0,0,1-.133.567.034.034,0,0,0-.009.019c-.018.1.148.318.5.753.068.081.126.152.138.169a1.806,1.806,0,0,1,.081,1.457.552.552,0,0,1-.516.2.06.06,0,0,0-.046.024.049.049,0,0,0,0,.052,4.18,4.18,0,0,0,2.7,1.866,3.977,3.977,0,0,0,.8.081,3.851,3.851,0,0,0,2.222-.7.051.051,0,0,0,.019-.055l-.024-.053a1.172,1.172,0,0,1,.563-.176,2.3,2.3,0,0,0,.329-.063l.014.117a.05.05,0,0,0,.048.044,1.512,1.512,0,0,0,.233-.015c.207-.022.464-.05.56.077a.854.854,0,0,1-.119.24.96.96,0,0,0-.124.248.05.05,0,0,0,.014.049l.161.151a.048.048,0,0,0,.034.014.063.063,0,0,0,.04-.019,1.19,1.19,0,0,1,.225-.2.718.718,0,0,0,.351-.464,5.126,5.126,0,0,1,.651-.28c.193-.091.243-.316.288-.515a1.249,1.249,0,0,1,.076-.262c.231-.065.378-.5.5-.849a2.2,2.2,0,0,1,.131-.341c.038-.078.13-.1.227-.125a.824.824,0,0,0,.144-.044A.049.049,0,0,0,14.836,15c.049-.183.423-.451.583-.565l.02-.015a.84.84,0,0,0,.288-.489c.059-.173.12-.353.224-.408a.048.048,0,0,0,.025-.054A3.273,3.273,0,0,1,16,12.509,2.3,2.3,0,0,0,15.8,10.865Z" fill="hsl(230, 57%, 54%)"/><path d="M0,8.5 H20 V14.5 H0 Z" fill="none" id="mapbox-text-placeholder"/></g></svg>