<svg xmlns="http://www.w3.org/2000/svg" id="qa-main-4" width="32" height="23" viewBox="0 0 32 23"><g><path d="M0,0 H32 V23 H0 Z" fill="none"/><path d="M3,1 H29 C29,1 31,1 31,3 V17 C31,17 31,19 29,19 H3 C3,19 1,19 1,17 V3 C1,3 1,1 3,1" fill="none" stroke="hsl(230, 57%, 54%)" stroke-linejoin="round" stroke-miterlimit="4px" stroke-width="2"/><path d="M3,1 H29 C29,1 31,1 31,3 V17 C31,17 31,19 29,19 H3 C3,19 1,19 1,17 V3 C1,3 1,1 3,1" fill="hsl(50, 100%, 70%)"/><path d="M27.465,10.865a4.318,4.318,0,0,0-1.1-.154l.06-.009s-.87-.054-.846-.557c.011-.247.708-.3.684-1.063-.013-.411-.768-.408-.908-.95a.551.551,0,0,1,.277-.647l.128-.074.027-.012h-.007A6.014,6.014,0,0,0,27.21,6.376l.117-.388a1.193,1.193,0,0,0-.268-.916,1.138,1.138,0,0,1-.17-.387.024.024,0,0,0,0-.028,3.327,3.327,0,0,0-1.848-.7,7.092,7.092,0,0,0-1.585-.064,4.572,4.572,0,0,1-1.69-.126c-.182-.107-.267-.249-.231-.389-.04-.148-.292-.244-.747-.283-.26-.067-.26-.194-.228-.393s.067-.453-.509-.547l-2.179-.4a.17.17,0,0,0-.071,0l-.234.055a4.333,4.333,0,0,1-1.745.16.177.177,0,0,0-.123.016,4.067,4.067,0,0,1-2.25.727H13.37A2.864,2.864,0,0,0,11,3.742l-.63.246a2.211,2.211,0,0,1-.451.524,1.609,1.609,0,0,0-.472.6c-.005.018.01.036.04.047l.4.147a.186.186,0,0,0,.119,0l.1-.038a.136.136,0,0,1,.02.192.849.849,0,0,1-.48.233c.008-.145-.176-.274-.449-.318a.773.773,0,0,0-.64.217l-.3-.028c-.054,0-.105.014-.114.041v.06c0,.283.014.318.071.341.105.039.121.058.123.066v.007a.678.678,0,0,0-.547.8V6.9c.409.482,1.472.392,2.253.283l-.113.09a.851.851,0,0,1-.713.263,1.027,1.027,0,0,0-.595-.074c-.4.091-.469.515-.5.741a.591.591,0,0,1-.358,0c-.271-.124-.406-.307-.363-.49.182-.217.266-.367.157-.49a1.27,1.27,0,0,0-.684-.245A.163.163,0,0,0,6.755,7a1.374,1.374,0,0,1-.907.294,2.594,2.594,0,0,0-.873.189c-.025.011-.036.028-.03.044A.073.073,0,0,0,5,7.563a3.854,3.854,0,0,0,.523.062,1.807,1.807,0,0,1,.686.124.11.11,0,0,1,.037.144c-.362.31.018.693.321.968l-.449-.028V8.671A.035.035,0,0,0,6.1,8.643a1.711,1.711,0,0,0-.9-.415H5.141A2.78,2.78,0,0,0,4.032,8.6c-.021.011-.033.025-.032.04s.017.029.042.038l.315.112a1.765,1.765,0,0,1-.349.6.027.027,0,0,0,0,.03l.085.164a2.5,2.5,0,0,1,.325.792A1.3,1.3,0,0,0,4.38,11.6c-.194.141-.167.33.064.456a1.328,1.328,0,0,0,.249.726.116.116,0,0,0,.076.03,1.192,1.192,0,0,1,.774.255c.109.2.01.413-.263.567a.036.036,0,0,0-.018.019c-.036.1.293.318.99.753.135.081.25.152.274.169a1.037,1.037,0,0,1,.16,1.457,1.761,1.761,0,0,1-1.022.2.172.172,0,0,0-.091.024.031.031,0,0,0,0,.052,10.517,10.517,0,0,0,5.348,1.866,15.432,15.432,0,0,0,1.585.081,13.359,13.359,0,0,0,4.4-.7c.034-.013.049-.034.038-.055l-.048-.053a4.1,4.1,0,0,1,1.116-.176q.33-.02.651-.063l.028.117c.006.024.046.043.095.044q.233,0,.462-.015a2.5,2.5,0,0,1,1.109.077.836.836,0,0,1-.236.24.957.957,0,0,0-.245.248c-.01.018,0,.036.027.049l.319.151a.155.155,0,0,0,.068.014.188.188,0,0,0,.079-.019,2.551,2.551,0,0,1,.446-.2,1.055,1.055,0,0,0,.7-.464q.626-.162,1.289-.28a.751.751,0,0,0,.571-.515.871.871,0,0,1,.15-.262c.458-.065.749-.5.991-.849a1.862,1.862,0,0,1,.259-.341.88.88,0,0,1,.45-.125,2.827,2.827,0,0,0,.285-.044A.08.08,0,0,0,25.562,15a3.471,3.471,0,0,1,1.155-.565l.039-.015a.981.981,0,0,0,.571-.489.849.849,0,0,1,.443-.408c.04-.01.06-.032.05-.054a1.692,1.692,0,0,1,.041-.958A1.34,1.34,0,0,0,27.465,10.865Z" fill="hsl(230, 57%, 54%)"/><path d="M0,8.5 H32 V14.5 H0 Z" fill="none" id="mapbox-text-placeholder"/></g></svg>