<svg xmlns="http://www.w3.org/2000/svg" id="sa-highway-2" width="20" height="20" viewBox="0 0 20 20"><g><path d="M0,0 H20 V20 H0 Z" fill="none"/><path d="M3,1 H17 C17,1 19,1 19,3 V17 C19,17 19,19 17,19 H3 C3,19 1,19 1,17 V3 C1,3 1,1 3,1" fill="none" stroke="hsl(0, 0%, 100%)" stroke-linejoin="round" stroke-miterlimit="4px" stroke-width="2"/><path d="M3,1 H17 C17,1 19,1 19,3 V17 C19,17 19,19 17,19 H3 C3,19 1,19 1,17 V3 C1,3 1,1 3,1" fill="hsl(140, 74%, 37%)"/><path d="M1.943,4.82a1.318,1.318,0,0,0,1.282-.491.6.6,0,0,0,.191-.573c-.066-.21-.4-.269-.3-.526.092-.223.346-.246.549-.287a.754.754,0,0,0,.323-.129c.1-.077.177-.19.3-.227A.992.992,0,0,1,4.9,2.74a5.412,5.412,0,0,1,.611.325,24.189,24.189,0,0,0,2.336,1.5,4.553,4.553,0,0,0,1.4.337,2.2,2.2,0,0,1,1.289.736l.627.586a4.468,4.468,0,0,1,.593.59,1.126,1.126,0,0,1,.179.569c.013.1.087.477.254.367.09-.058.038-.268.074-.356a.319.319,0,0,1,.487-.067c.347.287.08.863.393,1.18.192.2.437.074.673.079a1.137,1.137,0,0,0,.691-.077c.423-.248.577-.745.9-1.091.113-.122.3-.308.488-.267.269.061.25.389.26.594A1.522,1.522,0,0,0,16.8,8.816c.405.326.894.53,1.3.863.15.125.433.359.4.559a2.039,2.039,0,0,1-.4.741,3.109,3.109,0,0,1-.271.323c-.068.071-.291.205-.313.283a1.043,1.043,0,0,0,.043.13.568.568,0,0,1-.013.232,1.085,1.085,0,0,1-.171.356,7.178,7.178,0,0,1-.6.708c-.166.186-.39.427-.669.375.085.383-.311.662-.634.739a4.772,4.772,0,0,0-1.154.215.766.766,0,0,0-.325.295c-.1.173-.025.4-.147.553a1.133,1.133,0,0,1-.472.253l-.7.291a6.706,6.706,0,0,1-1.258.448,1.2,1.2,0,0,0-.539.162c-.133.1-.216.265-.379.327s-.38.031-.563.1a2.532,2.532,0,0,0-.52.286,1.53,1.53,0,0,1-1.034.364c-.414-.069-.566-.487-.718-.823a3.8,3.8,0,0,1-.475-1.236c-.011-.2.05-.4.035-.6a2.188,2.188,0,0,0-.176-.622c-.136-.348-.275-.7-.441-1.03a4.372,4.372,0,0,0-.619-.954c-.248-.282-.575-.46-.836-.725a1.7,1.7,0,0,1-.373-1.056A2.581,2.581,0,0,0,4.4,9.26,1.647,1.647,0,0,0,4,8.75c-.152-.1-.36-.106-.453-.284s-.065-.418-.164-.613a4.148,4.148,0,0,0-.394-.572,10.087,10.087,0,0,0-.878-1.134,1.564,1.564,0,0,0-.5-.32c-.059-.027-.074,0-.1-.06a.486.486,0,0,1,0-.19.915.915,0,0,1,.11-.36" fill="hsl(0, 0%, 100%)"/><path d="M0,7 H20 V13 H0 Z" fill="none" id="mapbox-text-placeholder"/></g></svg>