<svg xmlns="http://www.w3.org/2000/svg" id="sa-highway-3" width="26" height="20" viewBox="0 0 26 20"><g><path d="M0,0 H26 V20 H0 Z" fill="none"/><path d="M3,1 H23 C23,1 25,1 25,3 V17 C25,17 25,19 23,19 H3 C3,19 1,19 1,17 V3 C1,3 1,1 3,1" fill="none" stroke="hsl(0, 0%, 100%)" stroke-linejoin="round" stroke-miterlimit="4px" stroke-width="2"/><path d="M3,1 H23 C23,1 25,1 25,3 V17 C25,17 25,19 23,19 H3 C3,19 1,19 1,17 V3 C1,3 1,1 3,1" fill="hsl(140, 74%, 37%)"/><path d="M2.1,4.744a2.118,2.118,0,0,0,1.734-.5c.191-.154.348-.366.258-.582s-.547-.273-.4-.533c.125-.227.468-.25.743-.291a1.251,1.251,0,0,0,.437-.132,1.461,1.461,0,0,1,.412-.23,1.714,1.714,0,0,1,.821.155,8.847,8.847,0,0,1,.827.33C8,3.45,8.945,4.091,10.089,4.485a7.893,7.893,0,0,0,1.892.342,3.318,3.318,0,0,1,1.744.746l.849.6a5.557,5.557,0,0,1,.8.6.958.958,0,0,1,.242.578c.018.1.118.484.344.372.121-.059.051-.272.1-.361.107-.191.47-.185.658-.068.47.291.108.875.532,1.2.26.2.592.075.911.08a2.022,2.022,0,0,0,.934-.077c.573-.252.782-.757,1.215-1.108a.924.924,0,0,1,.659-.271c.364.062.339.395.352.6A1.552,1.552,0,0,0,22.2,8.8c.548.331,1.209.537,1.751.876.2.127.586.363.544.567a1.98,1.98,0,0,1-.54.752,3.629,3.629,0,0,1-.367.328c-.091.071-.393.207-.423.287a.978.978,0,0,0,.058.131.439.439,0,0,1-.017.235,1.03,1.03,0,0,1-.232.362,8.224,8.224,0,0,1-.806.718,1.187,1.187,0,0,1-.905.38c.115.389-.421.673-.857.751a8.34,8.34,0,0,0-1.561.218.984.984,0,0,0-.441.3c-.128.175-.033.4-.2.562a1.756,1.756,0,0,1-.638.256l-.943.295a11.271,11.271,0,0,1-1.7.455,2.051,2.051,0,0,0-.73.164c-.179.1-.292.27-.512.332-.241.068-.514.031-.762.1a3.918,3.918,0,0,0-.7.291,2.529,2.529,0,0,1-1.4.369c-.559-.07-.766-.494-.971-.835A3.36,3.36,0,0,1,9.2,15.436c-.015-.2.067-.4.047-.606a1.808,1.808,0,0,0-.238-.631,11.129,11.129,0,0,0-.6-1.045,4.572,4.572,0,0,0-.837-.968c-.336-.287-.779-.468-1.131-.736a1.479,1.479,0,0,1-.506-1.072,2.225,2.225,0,0,0-.524-1.129,1.829,1.829,0,0,0-.533-.517c-.206-.1-.487-.108-.612-.288s-.089-.425-.223-.622a4.389,4.389,0,0,0-.533-.581A11.273,11.273,0,0,0,2.329,6.09a2.308,2.308,0,0,0-.675-.325c-.08-.027-.1,0-.139-.06s-.009-.151,0-.193a.773.773,0,0,1,.15-.366" fill="hsl(0, 0%, 100%)"/><path d="M0,7 H26 V13 H0 Z" fill="none" id="mapbox-text-placeholder"/></g></svg>