<svg xmlns="http://www.w3.org/2000/svg" id="sa-highway-secondary-3" width="25" height="33" viewBox="0 0 25 33"><g><path d="M-0.5,-0.5 H25.5 V33 H-0.5 Z" fill="none"/><path d="M3,1 H22 C22,1 24,1 24,3 V21 C24,21 24,23 22,23 H3 C3,23 1,23 1,21 V3 C1,3 1,1 3,1" fill="none" stroke="hsl(0, 0%, 100%)" stroke-linejoin="round" stroke-miterlimit="4px" stroke-width="2"/><path d="M3,1 H22 C22,1 24,1 24,3 V21 C24,21 24,23 22,23 H3 C3,23 1,23 1,21 V3 C1,3 1,1 3,1" fill="hsl(140, 74%, 37%)"/><path d="M23,11a2.126,2.126,0,0,0-2-2,2.335,2.335,0,0,0-1.5.5h0a3.912,3.912,0,0,0,0-2.5c-.5-1-1-1.5-3.5-2.5A7.82,7.82,0,0,1,12.5,2,7.82,7.82,0,0,1,9,4.5C6.5,5.5,6,6,5.5,7a4.032,4.032,0,0,0,0,2.5h0A2.3,2.3,0,0,0,4,9a1.913,1.913,0,0,0-2,2H2v9.5A1.326,1.326,0,0,0,3.5,22h18A1.326,1.326,0,0,0,23,20.5V11Z" fill="hsl(0, 0%, 100%)"/><path d="M12.5,7.5 m-2.5,0 a2.5,2.5 0 1,0 5,0 a2.5,2.5 0 1,0 -5,0" fill="hsl(140, 74%, 37%)"/><path d="M0,13.5 H25 V19.5 H0 Z" fill="none" id="mapbox-text-placeholder"/></g></svg>