<svg xmlns="http://www.w3.org/2000/svg" id="traffic-signal" width="8" height="17" viewBox="0 0 8 17"><g><path d="M5,0H3A3.009,3.009,0,0,0,0,3V14a3.009,3.009,0,0,0,3,3H5a3.009,3.009,0,0,0,3-3V3A3.009,3.009,0,0,0,5,0Z" fill="hsl(30, 7%, 84%)"/><path d="M7,14a2,2,0,0,1-2,2H3a2,2,0,0,1-2-2V3A2,2,0,0,1,3,1H5A2,2,0,0,1,7,3Z" fill="hsl(230, 18%, 13%)"/><path d="M2.5,12.5a1.5,1.5,0,0,0,3,0h0a1.5,1.5,0,0,0-3,0h0" fill="hsl(180, 54%, 42%)"/><path d="M2.5,8.5A1.5,1.5,0,1,0,4,7,1.5,1.5,0,0,0,2.5,8.5" fill="hsl(50, 100%, 70%)"/><path d="M2.5,4.5A1.5,1.5,0,1,0,4,3,1.5,1.5,0,0,0,2.5,4.5" fill="hsl(0, 87%, 59%)"/></g></svg>