<svg xmlns="http://www.w3.org/2000/svg" id="us-state-colorado-2" width="20" height="26" viewBox="0 0 20 26"><g><path d="M0,0 H20 V26 H0 Z" fill="none"/><path d="M17 1H3C1.89543 1 1 1.89543 1 3V17C1 18.1046 1.89543 19 3 19H17C18.1046 19 19 18.1046 19 17V3C19 1.89543 18.1046 1 17 1Z" fill="none" stroke="hsl(0, 0%, 100%)" stroke-linejoin="round" stroke-miterlimit="4px" stroke-width="2"/><path d="M17 1H3C1.89543 1 1 1.89543 1 3V17C1 18.1046 1.89543 19 3 19H17C18.1046 19 19 18.1046 19 17V3C19 1.89543 18.1046 1 17 1Z" fill="hsl(230, 18%, 13%)"/><path d="M3 2C2.44772 2 2 2.44772 2 3V17C2 17.5523 2.44772 18 3 18H17C17.5523 18 18 17.5523 18 17V3C18 2.44772 17.5523 2 17 2H3Z" fill="hsl(0, 0%, 100%)"/><path d="M18 3C18 2.44772 17.5523 2 17 2H3C2.44772 2 2 2.44772 2 3V4H18V3Z M18 6H2V8H18V6Z" fill="hsl(230, 57%, 54%)"/><path d="M6 7C4.89543 7 4 6.10457 4 5C4 3.89543 4.89543 3 6 3C6.74028 3 7.38663 3.4022 7.73244 4L6 5L7.73244 6C7.38663 6.5978 6.74028 7 6 7Z" fill="hsl(0, 87%, 59%)"/><path d="M7 5C7 5.55228 6.55228 6 6 6C5.44772 6 5 5.55228 5 5C5 4.44772 5.44772 4 6 4C6.55228 4 7 4.44772 7 5Z" fill="hsl(50, 100%, 70%)"/><path d="M0,10 H20 V16 H0 Z" fill="none" id="mapbox-text-placeholder"/></g></svg>