<svg xmlns="http://www.w3.org/2000/svg" id="us-state-louisiana-3" width="26" height="22" viewBox="0 0 26 22"><g><path d="M0,0 H26 V22 H0 Z" fill="none"/><path d="M23 1H3C1.89543 1 1 1.89543 1 3V17C1 18.1046 1.89543 19 3 19H23C24.1046 19 25 18.1046 25 17V3C25 1.89543 24.1046 1 23 1Z" fill="none" stroke="hsl(0, 0%, 100%)" stroke-linejoin="round" stroke-miterlimit="4px" stroke-width="2"/><path d="M23 1H3C1.89543 1 1 1.89543 1 3V17C1 18.1046 1.89543 19 3 19H23C24.1046 19 25 18.1046 25 17V3C25 1.89543 24.1046 1 23 1Z" fill="hsl(230, 18%, 13%)"/><path d="M2 5.84861V3C2 2.44772 2.44772 2 3 2H13.191C13.3804 2 13.5535 2.107 13.6382 2.27639L14.3026 3.60521C14.4154 3.83075 14.3426 4.10497 14.1327 4.24484L13.2226 4.85157C13.0836 4.9443 13 5.10042 13 5.26759V5.5C13 5.77614 13.2239 6 13.5 6H22.5C22.7761 6 23 6.22386 23 6.5V9.95862C23 9.98616 23.0023 10.0137 23.0068 10.0408L23.911 15.466C23.9576 15.7455 23.742 16 23.4586 16C23.2053 16 23 16.2053 23 16.4586V16.5C23 16.7761 23.2239 17 23.5 17C23.7761 17 24 17.2239 24 17.5C24 17.7761 23.7761 18 23.5 18H23.191C23.0654 18 22.9415 17.9708 22.8292 17.9146L21.3223 17.1612C21.1298 17.0649 20.8974 17.1026 20.7452 17.2548L20.1464 17.8536C20.0527 17.9473 19.9255 18 19.7929 18H10.309C10.1196 18 9.9465 17.893 9.8618 17.7236L9.1382 16.2764C9.0535 16.107 8.88037 16 8.69098 16H8.06155C8.02067 16 7.97995 16.005 7.94028 16.0149L4.05972 16.9851C4.02005 16.995 3.97933 17 3.93845 17H2.5C2.22386 17 2 16.7761 2 16.5V16.0811C2 16.0274 2.00866 15.974 2.02566 15.923L2.96267 13.112C2.98722 13.0383 3.02858 12.9714 3.08346 12.9165L3.85355 12.1464C3.94732 12.0527 4 11.9255 4 11.7929V9.15139C4 9.05268 3.97078 8.95617 3.91603 8.87404L2.08397 6.12596C2.02922 6.04383 2 5.94732 2 5.84861Z" fill="hsl(0, 0%, 100%)"/><path d="M0,8 H26 V14 H0 Z" fill="none" id="mapbox-text-placeholder"/></g></svg>