<svg xmlns="http://www.w3.org/2000/svg" id="us-state-alaska-2" width="24" height="22" viewBox="0 0 24 22"><g><path d="M0,0 H24 V22 H0 Z" fill="none"/><path d="M17 3H3C1.89543 3 1 3.89543 1 5V19C1 20.1046 1.89543 21 3 21H17C18.1046 21 19 20.1046 19 19V5C19 3.89543 18.1046 3 17 3Z" fill="none" stroke="hsl(0, 0%, 100%)" stroke-linejoin="round" stroke-miterlimit="4px" stroke-width="2"/><path d="M17 3H3C1.89543 3 1 3.89543 1 5V19C1 20.1046 1.89543 21 3 21H17C18.1046 21 19 20.1046 19 19V5C19 3.89543 18.1046 3 17 3Z" fill="hsl(230, 18%, 13%)"/><path d="M17 20C17.5523 20 18 19.5523 18 19V5C18 4.44772 17.5523 4 17 4H3C2.44772 4 2 4.44772 2 5V19C2 19.5523 2.44772 20 3 20H17ZM16.252 5.65854L17 5.77236L16.4472 6.27642L16.5772 7L15.9106 6.65854L15.2439 7L15.374 6.27642L14.8374 5.76423L15.5854 5.65854L15.9187 5L16.252 5.65854ZM3.95448 14.0262L4.52628 14.1141L4.11157 14.51L4.21211 15.0692L3.69686 14.8053L3.18161 15.0692L3.27586 14.5037L2.86115 14.1079L3.43923 14.0262L3.69686 13.5172L3.95448 14.0262ZM5.71776 14.009L5.97539 14.518L6.54719 14.5996L6.13247 14.9955L6.23301 15.561L5.71776 15.2971L5.20251 15.561L5.29676 14.9955L4.88205 14.5996L5.46013 14.518L5.71776 14.009ZM8.12805 15.3288L8.69985 15.4104L8.28514 15.8063L8.38568 16.3655L7.87043 16.1016L7.35518 16.3655L7.44943 15.8063L7.03472 15.4104L7.6128 15.3288L7.87043 14.8198L8.12805 15.3288ZM9.73525 17.2818L9.22 17.5458L9.30797 16.9865L8.89325 16.5907L9.47134 16.509L9.72897 16L9.98659 16.509L10.5647 16.5907L10.15 16.9865L10.2505 17.5458L9.73525 17.2818ZM16.2512 16.0511L15.8239 16.4407L15.9244 17L15.4092 16.7361L14.8939 17L14.9945 16.4407L14.5797 16.0449L15.1578 15.9632L15.4155 15.4542L15.6731 15.9632L16.2512 16.0511ZM14.0708 17.4542L14.3284 17.9632L14.8939 18.0449L14.4792 18.4407L14.5797 19L14.0645 18.7361L13.5492 19L13.6498 18.4407L13.2351 18.0449L13.8132 17.9632L14.0708 17.4542ZM11.3438 17.9632L11.9094 18.0449L11.4946 18.4407L11.5952 19L11.0799 18.7361L10.5647 19L10.6652 18.4407L10.2505 18.0449L10.8286 17.9632L11.0862 17.4542L11.3438 17.9632Z" fill="hsl(0, 0%, 100%)"/><path d="M0,8 H24 V14 H0 Z" fill="none" id="mapbox-text-placeholder"/></g></svg>