<svg xmlns="http://www.w3.org/2000/svg" id="us-state-texas-farm-ranch-3" width="26" height="21" viewBox="0 0 26 21"><g><path d="M0,0 H26 V21 H0 Z" fill="none"/><path d="M23 2H3C1.89543 2 1 2.89543 1 4V18C1 19.1046 1.89543 20 3 20H23C24.1046 20 25 19.1046 25 18V4C25 2.89543 24.1046 2 23 2Z" fill="none" stroke="hsl(0, 0%, 100%)" stroke-linejoin="round" stroke-miterlimit="4px" stroke-width="2"/><path d="M23 2H3C1.89543 2 1 2.89543 1 4V18C1 19.1046 1.89543 20 3 20H23C24.1046 20 25 19.1046 25 18V4C25 2.89543 24.1046 2 23 2Z" fill="hsl(230, 18%, 13%)"/><path d="M4.5 6.5V3.5C4.5 3.22386 4.72386 3 5 3H8.63962C8.85484 3 9.04591 3.13772 9.11396 3.34189L9.40583 4.21748C9.46385 4.39156 9.61257 4.51987 9.79327 4.55175L17.9569 5.99239C17.9856 5.99745 18.0146 6 18.0438 6H18.7929C18.9255 6 19.0527 5.94732 19.1464 5.85355L19.8536 5.14645C19.9473 5.05268 20.0745 5 20.2071 5H21.3486C21.4473 5 21.5438 5.02922 21.626 5.08397L22.7773 5.85157C22.9164 5.9443 23 6.10042 23 6.26759V7.79289C23 7.9255 23.0527 8.05268 23.1464 8.14645L23.8536 8.85355C23.9473 8.94732 24 9.0745 24 9.20711V13.191C24 13.3804 23.893 13.5535 23.7236 13.6382L22.1056 14.4472C22.0361 14.4819 21.9596 14.5 21.882 14.5H21.5C21.2239 14.5 21 14.7239 21 15V15.2169C21 15.3925 20.9079 15.5553 20.7572 15.6457L18.7277 16.8634C18.5864 16.9481 18.5 17.1008 18.5 17.2655C18.5 17.4131 18.5695 17.5521 18.6876 17.6407L19.7 18.4C19.9563 18.5922 19.8203 19 19.5 19L15.6047 18.5131C15.5357 18.5045 15.4692 18.4815 15.4095 18.4457L10.6188 15.5713C10.541 15.5246 10.4521 15.5 10.3615 15.5H8C7.72386 15.5 7.5 15.7239 7.5 16V16.3063C7.5 16.6476 7.16565 16.8886 6.84189 16.7806L6.06352 16.5212C6.02136 16.5071 5.98126 16.4875 5.94429 16.4629L4.72265 15.6484C4.58355 15.5557 4.5 15.3996 4.5 15.2324V14.309C4.5 14.1196 4.393 13.9465 4.22361 13.8618L3.57257 13.5363C3.52451 13.5123 3.48063 13.4806 3.44263 13.4426L2.14645 12.1464C2.05268 12.0527 2 11.9255 2 11.7929V7.5C2 7.22386 2.22386 7 2.5 7H4C4.27614 7 4.5 6.77614 4.5 6.5Z" fill="hsl(0, 0%, 100%)"/><path d="M0,7.5 H26 V13.5 H0 Z" fill="none" id="mapbox-text-placeholder"/></g></svg>