<svg xmlns="http://www.w3.org/2000/svg" id="us-state-newyork-parkway-alt" width="20" height="19" viewBox="0 0 20 19"><g><path d="M0,0 H20 V19 H0 Z" fill="none"/><path d="M5.5 2.75C6.75 1.875 8 1 10 1C12 1 13.25 1.875 14.5 2.75C15.6967 3.5877 16.8934 4.4254 18.7483 4.4953C18.8862 4.5005 19 4.61193 19 4.75V13.1319C19 13.9567 18.4936 14.6969 17.7249 14.9959L10 18L2.27511 14.9959C1.50636 14.6969 1 13.9567 1 13.1319V4.75C1 4.61193 1.11377 4.5005 1.25175 4.4953C3.10657 4.4254 4.30329 3.5877 5.5 2.75Z" fill="none" stroke="hsl(0, 0%, 100%)" stroke-linejoin="round" stroke-miterlimit="4px" stroke-width="2"/><path d="M5.5 2.75C6.75 1.875 8 1 10 1C12 1 13.25 1.875 14.5 2.75C15.6967 3.5877 16.8934 4.4254 18.7483 4.4953C18.8862 4.5005 19 4.61193 19 4.75V13.1319C19 13.9567 18.4936 14.6969 17.7249 14.9959L10 18L2.27511 14.9959C1.50636 14.6969 1 13.9567 1 13.1319V4.75C1 4.61193 1.11377 4.5005 1.25175 4.4953C3.10657 4.4254 4.30329 3.5877 5.5 2.75Z" fill="hsl(140, 74%, 37%)"/><path d="M4.41004 9.64925H3.72002V12H3V7H4.50005C4.89506 7 5.21257 7.12189 5.45258 7.36567C5.69758 7.60945 5.82009 7.93284 5.82009 8.33582C5.81509 8.69403 5.69508 9.00249 5.46008 9.26119C5.23007 9.5199 4.88006 9.64925 4.41004 9.64925ZM9.30476 12H8.54724L7.66221 9.5597L7.2047 10.3284V12H6.48468V7H7.2047V9L8.38224 7H9.17726L8.14223 8.75373L9.30476 12ZM12.8455 7H13.5505L12.7405 12H12.1179L11.6454 9.38806L11.1654 12H10.5354L9.74036 7H10.4454L10.8729 9.66418L11.3604 7H11.9304L12.4029 9.66418L12.8455 7ZM17 7L15.7475 9.73881V12H15.0274V9.73881L13.7899 7H14.5474L15.395 8.80597L16.22 7H17ZM4.93506 7.86567C4.81506 7.75622 4.65755 7.70149 4.46254 7.70149H3.72002V8.93284H4.46254C4.64255 8.93284 4.79505 8.87313 4.92006 8.75373C5.05006 8.63433 5.11507 8.48756 5.11507 8.31343C5.11507 8.12438 5.05506 7.97512 4.93506 7.86567Z" fill="hsl(0, 0%, 100%)"/></g></svg>