<svg xmlns="http://www.w3.org/2000/svg" id="us-state-georgia-3" width="27" height="20" viewBox="0 0 27 20"><g><path d="M0,0 H27 V20 H0 Z" fill="none"/><path d="M24 1H4C2.89543 1 2 1.89543 2 3V17C2 18.1046 2.89543 19 4 19H24C25.1046 19 26 18.1046 26 17V3C26 1.89543 25.1046 1 24 1Z" fill="none" stroke="hsl(0, 0%, 100%)" stroke-linejoin="round" stroke-miterlimit="4px" stroke-width="2"/><path d="M24 1H4C2.89543 1 2 1.89543 2 3V17C2 18.1046 2.89543 19 4 19H24C25.1046 19 26 18.1046 26 17V3C26 1.89543 25.1046 1 24 1Z" fill="hsl(230, 18%, 13%)"/><path d="M3.18185 2.81806L3.85346 2.14645C3.94723 2.05268 4.07441 2 4.20702 2H18.7699C18.9159 2 19.0546 2.06378 19.1496 2.1746L24.8795 8.85957C24.9572 8.95019 24.9999 9.06561 24.9999 9.18496V10.9134C24.9999 10.9707 24.9901 11.0276 24.9708 11.0816L22.6184 17.6682C22.5473 17.8672 22.3589 18 22.1475 18H21.207C21.0744 18 20.9472 17.9473 20.8535 17.8536L20.1464 17.1464C20.0526 17.0527 19.9254 17 19.7928 17H4.99991C4.72377 17 4.49991 16.7761 4.49991 16.5V12.0414C4.49991 12.0138 4.49763 11.9863 4.49311 11.9592L3.04221 3.25381C3.01566 3.09453 3.06767 2.93224 3.18185 2.81806Z" fill="hsl(0, 0%, 100%)"/><path d="M0,7 H27 V13 H0 Z" fill="none" id="mapbox-text-placeholder"/></g></svg>