<svg xmlns="http://www.w3.org/2000/svg" id="us-state-ohio-4" width="32" height="20" viewBox="0 0 32 20"><g><path d="M0,0 H32 V20 H0 Z" fill="none"/><path d="M29 1H3C1.89543 1 1 1.89543 1 3V17C1 18.1046 1.89543 19 3 19H29C30.1046 19 31 18.1046 31 17V3C31 1.89543 30.1046 1 29 1Z" fill="none" stroke="hsl(0, 0%, 100%)" stroke-linejoin="round" stroke-miterlimit="4px" stroke-width="2"/><path d="M29 1H3C1.89543 1 1 1.89543 1 3V17C1 18.1046 1.89543 19 3 19H29C30.1046 19 31 18.1046 31 17V3C31 1.89543 30.1046 1 29 1Z" fill="hsl(230, 18%, 13%)"/><path d="M2 14.25V4C2 3.72386 2.22386 3.5 2.5 3.5H8.46447C8.48813 3.5 8.51175 3.50168 8.53518 3.50503L12.9648 3.99497C12.9882 3.99832 13.0119 4 13.0355 4H15.9586C15.9862 4 16.0137 4.00228 16.0408 4.0068L19.9592 4.4932C19.9863 4.49772 20.0138 4.5 20.0414 4.5H21.9093C21.9693 4.5 22.0288 4.48922 22.0849 4.46816L27.9151 3.03184C27.9712 3.01078 28.0307 3 28.0907 3H29.0399C29.3 3 29.5166 3.19933 29.5382 3.45848L30 9V9.84861C30 9.94732 29.9708 10.0438 29.916 10.126L29.084 11.374C29.0292 11.4562 29 11.5527 29 11.6514V13.7929C29 13.9255 28.9473 14.0527 28.8536 14.1464L27.1464 15.8536C27.0527 15.9473 26.9255 16 26.7929 16H25.118C25.0532 16 24.9892 16.0126 24.9294 16.0369C24.9057 16.0466 24.8822 16.0567 24.8579 16.0645L22.1421 16.9355C22.1178 16.9433 22.0943 16.9534 22.0706 16.9631C22.0108 16.9874 21.9468 17 21.882 17H20.118C20.0532 17 19.9892 17.0126 19.9294 17.0369C19.9057 17.0466 19.8822 17.0567 19.8579 17.0645L17.1421 17.9355C17.1178 17.9433 17.0943 17.9534 17.0706 17.9631C17.0108 17.9874 16.9468 18 16.882 18H14.07C14.0236 18 13.9773 17.9935 13.9327 17.9808L9.5 17L4.10527 16.0234C4.03589 16.008 3.97059 15.9779 3.91373 15.9353L2.2 14.65C2.0741 14.5556 2 14.4074 2 14.25Z" fill="hsl(0, 0%, 100%)"/><path d="M0,7 H32 V13 H0 Z" fill="none" id="mapbox-text-placeholder"/></g></svg>