<svg xmlns="http://www.w3.org/2000/svg" id="us-state-northdakota-4" width="34" height="24" viewBox="0 0 34 24"><g><path d="M0,0 H34 V24 H0 Z" fill="none"/><path d="M31 1H5C3.89543 1 3 1.89543 3 3V17C3 18.1046 3.89543 19 5 19H31C32.1046 19 33 18.1046 33 17V3C33 1.89543 32.1046 1 31 1Z" fill="none" stroke="hsl(0, 0%, 100%)" stroke-linejoin="round" stroke-miterlimit="4px" stroke-width="2"/><path d="M31 1H5C3.89543 1 3 1.89543 3 3V17C3 18.1046 3.89543 19 5 19H31C32.1046 19 33 18.1046 33 17V3C33 1.89543 32.1046 1 31 1Z" fill="hsl(230, 18%, 13%)"/><path d="M4 17L4.4783 6.4773C4.49044 6.21026 4.71048 6 4.97779 6H29.191C29.3804 6 29.5535 6.107 29.6382 6.27639L29.9472 6.89443C29.9819 6.96385 30 7.04041 30 7.11803V9.40371C30 9.46732 30.0121 9.53034 30.0358 9.5894L30.9642 11.9106C30.9879 11.9697 31 12.0327 31 12.0963V14.882C31 14.9596 31.0181 15.0361 31.0528 15.1056L31.9146 16.8292C31.9708 16.9415 32 17.0654 32 17.191C32 17.6378 31.6378 18 31.191 18H5C4.44772 18 4 17.5523 4 17Z" fill="hsl(0, 0%, 100%)"/><path d="M0,9 H34 V15 H0 Z" fill="none" id="mapbox-text-placeholder"/></g></svg>