<svg xmlns="http://www.w3.org/2000/svg" id="us-state-newyork-4" width="32" height="20" viewBox="0 0 32 20"><g><path d="M0,0 H32 V20 H0 Z" fill="none"/><path d="M29 1H3C1.89543 1 1 1.89543 1 3V17C1 18.1046 1.89543 19 3 19H29C30.1046 19 31 18.1046 31 17V3C31 1.89543 30.1046 1 29 1Z" fill="none" stroke="hsl(0, 0%, 100%)" stroke-linejoin="round" stroke-miterlimit="4px" stroke-width="2"/><path d="M29 1H3C1.89543 1 1 1.89543 1 3V17C1 18.1046 1.89543 19 3 19H29C30.1046 19 31 18.1046 31 17V3C31 1.89543 30.1046 1 29 1Z" fill="hsl(230, 18%, 13%)"/><path d="M16 2C8 2 6.5 5.5 2 5.5V14.1916C2 14.6631 2.3294 15.0706 2.79047 15.1694L16 18L29.2095 15.1694C29.6706 15.0706 30 14.6631 30 14.1916V5.5C25.5 5.5 24 2 16 2Z" fill="hsl(0, 0%, 100%)"/><path d="M0,7 H32 V13 H0 Z" fill="none" id="mapbox-text-placeholder"/></g></svg>