<svg xmlns="http://www.w3.org/2000/svg" id="us-state-utah-3" width="26" height="20" viewBox="0 0 26 20"><g><path d="M0,0 H26 V20 H0 Z" fill="none"/><path d="M23 1H3C1.89543 1 1 1.89543 1 3V17C1 18.1046 1.89543 19 3 19H23C24.1046 19 25 18.1046 25 17V3C25 1.89543 24.1046 1 23 1Z" fill="none" stroke="hsl(0, 0%, 100%)" stroke-linejoin="round" stroke-miterlimit="4px" stroke-width="2"/><path d="M23 1H3C1.89543 1 1 1.89543 1 3V17C1 18.1046 1.89543 19 3 19H23C24.1046 19 25 18.1046 25 17V3C25 1.89543 24.1046 1 23 1Z" fill="hsl(230, 18%, 13%)"/><path d="M13 2C11.7946 2 11.235 2.96419 11.0616 3.34291C11.0167 3.44107 11.0032 3.55584 11.0807 3.63105C11.2353 3.78116 11.6859 4 13 4C14.314 4 14.7647 3.78117 14.9193 3.63106C14.9967 3.55585 14.9833 3.44106 14.9383 3.3429C14.765 2.96416 14.2054 2 13 2Z M2.39684 15.0681L2.12403 15.3793C2.04408 15.4705 2 15.5876 2 15.7089V16.9999C2 17.5522 2.44772 17.9999 3 17.9999H23C23.5523 17.9999 24 17.5522 24 16.9999V15.7089C24 15.5876 23.9559 15.4705 23.876 15.3793L23.6032 15.0681C22.0001 16.9999 15.7136 16.9999 13.0003 16.9999C10.2869 16.9999 3.99994 16.9999 2.39684 15.0681Z M15.6737 4.30247C15.0664 4.97344 13.7951 4.99998 13 4.99998C12.2049 4.99998 10.9336 4.97344 10.3263 4.30248C10.122 4.07674 9.79929 3.91678 9.52928 4.05748C6 5.5 3 7 3 14C3 15.0642 5.72492 15.7921 10.1772 15.9869C10.3732 15.9955 10.5563 15.8874 10.644 15.7119L10.8292 15.3416C11.2403 14.5194 12.0807 14 13 14C13.9193 14 14.7597 14.5194 15.1708 15.3416L15.356 15.7119C15.4437 15.8874 15.6268 15.9955 15.8228 15.9869C20.2751 15.7921 23 15.0642 23 14C23 7 19.5 5.5 16.4707 4.05748C16.2007 3.91679 15.878 4.07674 15.6737 4.30247Z" fill="hsl(0, 0%, 100%)"/><path d="M0,7 H26 V13 H0 Z" fill="none" id="mapbox-text-placeholder"/></g></svg>