<svg xmlns="http://www.w3.org/2000/svg" id="us-state-maryland-4" width="32" height="24" viewBox="0 0 32 24"><g><path d="M0,0 H32 V24 H0 Z" fill="none"/><path d="M29 1H3C1.89543 1 1 1.89543 1 3V17C1 18.1046 1.89543 19 3 19H29C30.1046 19 31 18.1046 31 17V3C31 1.89543 30.1046 1 29 1Z" fill="none" stroke="hsl(0, 0%, 100%)" stroke-linejoin="round" stroke-miterlimit="4px" stroke-width="2"/><path d="M29 1H3C1.89543 1 1 1.89543 1 3V17C1 18.1046 1.89543 19 3 19H29C30.1046 19 31 18.1046 31 17V3C31 1.89543 30.1046 1 29 1Z" fill="hsl(230, 18%, 13%)"/><path d="M2 3C2 2.44772 2.44771 2 3 2H29C29.5523 2 30 2.44772 30 3V5H2V3Z M2 6V17C2 17.5523 2.44772 18 3 18H29C29.5523 18 30 17.5523 30 17V6H2Z" fill="hsl(0, 0%, 100%)"/><path d="M0,9 H32 V15 H0 Z" fill="none" id="mapbox-text-placeholder"/></g></svg>