<svg xmlns="http://www.w3.org/2000/svg" id="us-state-newyork-parkway-palisades" width="20" height="20" viewBox="0 0 20 20"><g><path d="M0,0 H20 V20 H0 Z" fill="none"/><path d="M19 10C19 14.9706 14.9706 19 10 19C5.02944 19 1 14.9706 1 10C1 5.02944 5.02944 1 10 1C14.9706 1 19 5.02944 19 10Z" fill="none" stroke="hsl(0, 0%, 100%)" stroke-linejoin="round" stroke-miterlimit="4px" stroke-width="2"/><path d="M19 10C19 14.9706 14.9706 19 10 19C5.02944 19 1 14.9706 1 10C1 5.02944 5.02944 1 10 1C14.9706 1 19 5.02944 19 10Z" fill="hsl(25, 34%, 34%)"/><path d="M8.80542 5.49583L9.69317 4.16421C9.82089 3.97263 10.0832 3.94868 10.2445 4.09237C10.2676 4.11289 10.2886 4.13684 10.3068 4.16421L11.1946 5.49583H12.0019C12.2055 5.49583 12.3706 5.66093 12.3706 5.86459V6.92195L11.9529 7.33965L12.1408 7.52751L13.4348 6.66483C13.6282 6.53591 13.8912 6.61585 13.9801 6.83058L14.3183 7.64757L15.3816 7.22147C15.7179 7.08672 16.0266 7.46691 15.8256 7.76833L15.1259 8.8179L15.7961 9.15298C16.0061 9.25798 16.0658 9.52986 15.9191 9.71318L14.0969 11.991L14.7573 12.3212C14.9509 12.418 15.0208 12.663 14.9023 12.8477C14.209 13.9274 13.2137 14.3291 12.2656 14.388C11.5218 14.4342 10.8033 14.2708 10.2634 14.0638L10.2634 15.7366C10.2634 15.8821 10.1455 16 10 16C9.85453 16 9.7366 15.8821 9.7366 15.7366V14.0638C9.1967 14.2708 8.47822 14.4342 7.73439 14.388C6.78629 14.3291 5.79105 13.9274 5.09774 12.8477C4.97916 12.663 5.04906 12.418 5.24273 12.3212L5.90315 11.991L4.08089 9.71318C3.93423 9.52986 3.99394 9.25798 4.20393 9.15298L4.87409 8.8179L4.17376 7.76742C3.97301 7.46629 4.28095 7.0863 4.61714 7.22032L5.6833 7.64531L6.01992 6.83085C6.10873 6.61597 6.37181 6.5359 6.56527 6.66487L7.85922 7.52751L8.04708 7.33965L7.73739 7.02996C7.66823 6.9608 7.62938 6.867 7.62938 6.7692V5.86459C7.62938 5.66093 7.79448 5.49583 7.99814 5.49583H8.80542ZM10 4.65368L9.16556 5.90534L9.16195 5.90294C9.09269 5.97858 8.99426 6.02264 8.89 6.02264H8.15619V6.70374L9.20979 7.75735V6.85648C9.20979 6.77091 9.23954 6.6884 9.29331 6.62278C9.30099 6.6134 9.30916 6.60437 9.3178 6.59573L9.73925 6.17429C9.86525 6.04828 10.0598 6.03253 10.2029 6.12703C10.2234 6.14053 10.2428 6.15628 10.2608 6.17429L10.6822 6.59573C10.7514 6.66489 10.7902 6.75868 10.7902 6.85648V7.75735L11.8438 6.70374V6.02264H10.9126L10 4.65368ZM10.495 13.5882C10.9707 13.7648 11.5957 13.9018 12.233 13.8622C13.0005 13.8146 13.7802 13.5129 14.3584 12.7108L13.2784 12.1708L15.3856 9.53674L14.7302 9.20903C14.5318 9.10983 14.4652 8.8592 14.5883 8.67464L15.1047 7.89996L14.3693 8.19469C14.1817 8.26983 13.9687 8.18011 13.8914 7.99346L13.5669 7.20988L12.3114 8.04687L12.3088 8.05217L11.6426 9.38468L12.9488 8.73158C13.131 8.6405 13.3525 8.71434 13.4435 8.8965L13.8839 9.77722C13.9636 9.93663 13.9179 10.1302 13.7753 10.2371L12.3706 11.2907H13.0146C13.2577 11.2907 13.463 11.5403 13.3487 11.7976C13.0523 12.4649 12.4247 12.7352 11.8434 12.9592C11.7869 12.9809 11.7306 13.0024 11.6745 13.0237C11.2546 13.1834 10.8489 13.3378 10.495 13.5882ZM11.7867 7.91846L11.5804 7.71215L10.2634 9.02916V6.92195L10 6.65855L9.7366 6.92195V9.02916L8.41959 7.71215L8.21328 7.91846L9.53538 10.5627L6.95697 9.27345L6.64627 9.89484L9.20979 11.8175H7.27194C7.49946 12.1112 7.86536 12.2824 8.34595 12.4676C8.40194 12.4892 8.45938 12.5109 8.51795 12.533C8.98926 12.7112 9.53476 12.9174 10 13.3051C10.4652 12.9174 11.0107 12.7112 11.482 12.533C11.5406 12.5109 11.5981 12.4892 11.654 12.4676C12.1346 12.2824 12.5005 12.1112 12.7281 11.8175H10.7902L13.3537 9.89484L13.043 9.27345L10.4646 10.5627L11.7867 7.91846ZM6.43324 7.20999L6.11055 7.99076C6.03345 8.1773 5.8207 8.26719 5.6332 8.19245L4.89376 7.8977L5.41172 8.67464C5.53476 8.8592 5.4682 9.10983 5.26981 9.20903L4.61438 9.53674L6.72159 12.1708L5.64155 12.7108C6.2198 13.5129 6.99946 13.8146 7.76704 13.8622C8.40427 13.9018 9.02927 13.7648 9.50499 13.5882C9.15113 13.3378 8.74538 13.1834 8.32553 13.0237C8.26943 13.0024 8.21308 12.9809 8.15656 12.9592C7.57526 12.7352 6.94766 12.4649 6.65131 11.7976C6.53703 11.5403 6.74226 11.2907 6.98535 11.2907H7.62938L6.22467 10.2371C6.0821 10.1302 6.0364 9.93663 6.1161 9.77722L6.55646 8.8965C6.64754 8.71434 6.86905 8.6405 7.05121 8.73158L8.35741 9.38468L7.69115 8.05217L7.68855 8.04687L6.43324 7.20999Z" fill="hsl(0, 0%, 100%)"/></g></svg>