<svg xmlns="http://www.w3.org/2000/svg" id="us-state-southdakota-3" width="26" height="21" viewBox="0 0 26 21"><g><path d="M0,0 H26 V21 H0 Z" fill="none"/><path d="M23 2H3C1.89543 2 1 2.89543 1 4V18C1 19.1046 1.89543 20 3 20H23C24.1046 20 25 19.1046 25 18V4C25 2.89543 24.1046 2 23 2Z" fill="none" stroke="hsl(0, 0%, 100%)" stroke-linejoin="round" stroke-miterlimit="4px" stroke-width="2"/><path d="M23 2H3C1.89543 2 1 2.89543 1 4V18C1 19.1046 1.89543 20 3 20H23C24.1046 20 25 19.1046 25 18V4C25 2.89543 24.1046 2 23 2Z" fill="hsl(140, 74%, 37%)"/><path d="M2.93062 3.97197L2.07657 15.9288C2.03522 16.5076 2.49368 17 3.07403 17H4.88202C4.95964 17 5.03619 17.0181 5.10562 17.0528L5.89448 17.4472C5.9639 17.4819 6.04046 17.5 6.11808 17.5H9.91891C9.97265 17.5 10.026 17.4913 10.077 17.4743L11.4231 17.0257C11.4741 17.0087 11.5274 17 11.5812 17H12.9189C12.9727 17 13.026 17.0087 13.077 17.0257L15.9231 17.9743C15.9741 17.9913 16.0274 18 16.0812 18H17.9587C17.9862 18 18.0137 17.9977 18.0409 17.9932L20.789 17.5352C20.9238 17.5127 21.0619 17.5464 21.1712 17.6284L22.8667 18.9C22.9533 18.9649 23.0585 19 23.1667 19H23.5C23.7762 19 24 18.7761 24 18.5V16.118C24 16.0404 23.982 15.9639 23.9473 15.8944L23.2237 14.4472C23.1002 14.2002 23.2003 13.8999 23.4473 13.7764L23.6122 13.6939C23.8347 13.5827 23.9416 13.3247 23.8629 13.0886L23.5359 12.1076C23.5123 12.0368 23.5049 11.9615 23.5141 11.8875L23.9562 8.35103C23.9825 8.14067 23.8733 7.9366 23.6836 7.84179L23.2764 7.6382C23.107 7.5535 23 7.38037 23 7.19098V5.41421C23 5.149 23.1054 4.89464 23.2929 4.70711L23.7929 4.20711C23.9256 4.0745 24 3.89464 24 3.70711C24 3.31658 23.6835 3 23.2929 3H23L15 3.5H14L3.97349 3.04425C3.43185 3.01963 2.96925 3.43114 2.93062 3.97197Z" fill="hsl(0, 0%, 100%)"/><path d="M0,7.5 H26 V13.5 H0 Z" fill="none" id="mapbox-text-placeholder"/></g></svg>