<svg xmlns="http://www.w3.org/2000/svg" id="us-state-wisconsin-2" width="20" height="20" viewBox="0 0 20 20"><g><path d="M0,0 H20 V20 H0 Z" fill="none"/><path d="M17 1H3C1.89543 1 1 1.89543 1 3V17C1 18.1046 1.89543 19 3 19H17C18.1046 19 19 18.1046 19 17V3C19 1.89543 18.1046 1 17 1Z" fill="none" stroke="hsl(0, 0%, 100%)" stroke-linejoin="round" stroke-miterlimit="4px" stroke-width="2"/><path d="M17 1H3C1.89543 1 1 1.89543 1 3V17C1 18.1046 1.89543 19 3 19H17C18.1046 19 19 18.1046 19 17V3C19 1.89543 18.1046 1 17 1Z" fill="hsl(230, 18%, 13%)"/><path d="M3 5H5L3.20711 3.20711C3.0745 3.0745 3 2.89464 3 2.70711C3 2.31658 3.31658 2 3.70711 2H16.2929C16.6834 2 17 2.31658 17 2.70711C17 2.89464 16.9255 3.0745 16.7929 3.20711L15 5H17C17.5523 5 18 5.44772 18 6V15.5C18 16.0523 17.5523 16.5 17 16.5H12.5704C11.9017 16.5 11.2772 16.8342 10.9063 17.3906L10.5 18H9.5L9.09373 17.3906C8.7228 16.8342 8.09834 16.5 7.42963 16.5H3C2.44772 16.5 2 16.0523 2 15.5V6C2 5.44772 2.44772 5 3 5Z" fill="hsl(0, 0%, 100%)"/><path d="M0,7 H20 V13 H0 Z" fill="none" id="mapbox-text-placeholder"/></g></svg>