<svg xmlns="http://www.w3.org/2000/svg" id="us-state-newmexico-2" width="21" height="21" viewBox="0 0 21 21"><g><path d="M0,0 H21 V21 H0 Z" fill="none"/><path d="M18 1H3C1.89543 1 1 1.89543 1 3V18C1 19.1046 1.89543 20 3 20H18C19.1046 20 20 19.1046 20 18V3C20 1.89543 19.1046 1 18 1Z" fill="none" stroke="hsl(0, 0%, 100%)" stroke-linejoin="round" stroke-miterlimit="4px" stroke-width="2"/><path d="M18 1H3C1.89543 1 1 1.89543 1 3V18C1 19.1046 1.89543 20 3 20H18C19.1046 20 20 19.1046 20 18V3C20 1.89543 19.1046 1 18 1Z" fill="hsl(230, 18%, 13%)"/><path d="M19 10.5C19 15.1944 15.1944 19 10.5 19C5.80558 19 2 15.1944 2 10.5C2 5.80558 5.80558 2 10.5 2C15.1944 2 19 5.80558 19 10.5Z" fill="hsl(0, 0%, 100%)"/><path d="M10 2.0144C10.1654 2.00476 10.3322 2 10.5 2C10.6678 2 10.8346 2.00476 11 2.0144V3.0164C11.34 3.03878 11.6739 3.08382 12 3.15003V2.13196C12.3408 2.19263 12.6746 2.27356 13 2.37354V3.42676C15.131 4.17998 16.82 5.86897 17.5732 8H18.6265C18.7264 8.32544 18.8074 8.65918 18.868 9H17.85C17.9162 9.32615 17.9612 9.65998 17.9836 10H18.9856C18.9952 10.1654 19 10.3322 19 10.5C19 10.6678 18.9952 10.8346 18.9856 11H17.9836C17.9612 11.34 17.9162 11.6739 17.85 12H18.868C18.8074 12.3408 18.7264 12.6746 18.6265 13H17.5732C16.82 15.131 15.131 16.82 13 17.5732V18.6265C12.6746 18.7264 12.3408 18.8074 12 18.868V17.85C11.6739 17.9162 11.34 17.9612 11 17.9836V18.9856C10.8346 18.9952 10.6678 19 10.5 19C10.3322 19 10.1654 18.9952 10 18.9856V17.9836C9.65998 17.9612 9.32615 17.9162 9 17.85V18.868C8.65918 18.8074 8.32544 18.7264 8 18.6265V17.5732C5.86897 16.82 4.17998 15.131 3.42676 13H2.37354C2.27356 12.6746 2.19263 12.3408 2.13196 12H3.15003C3.08382 11.6739 3.03878 11.34 3.0164 11H2.0144C2.00476 10.8346 2 10.6678 2 10.5C2 10.3322 2.00476 10.1654 2.0144 10H3.0164C3.03878 9.65998 3.08382 9.32615 3.15003 9H2.13196C2.19263 8.65918 2.27356 8.32544 2.37354 8H3.42676C4.17998 5.86897 5.86897 4.17998 8 3.42676V2.37354C8.32544 2.27356 8.65918 2.19263 9 2.13196V3.15003C9.32615 3.08382 9.65998 3.03878 10 3.0164V2.0144ZM17 10.5C17 6.91015 14.0899 4 10.5 4C6.91015 4 4 6.91015 4 10.5C4 14.0899 6.91015 17 10.5 17C14.0899 17 17 14.0899 17 10.5Z" fill="hsl(0, 87%, 59%)"/><path d="M0,7.5 H21 V13.5 H0 Z" fill="none" id="mapbox-text-placeholder"/></g></svg>