<svg xmlns="http://www.w3.org/2000/svg" id="us-state-maryland-2" width="20" height="24" viewBox="0 0 20 24"><g><path d="M0,0 H20 V24 H0 Z" fill="none"/><path d="M17 1H3C1.89543 1 1 1.89543 1 3V17C1 18.1046 1.89543 19 3 19H17C18.1046 19 19 18.1046 19 17V3C19 1.89543 18.1046 1 17 1Z" fill="none" stroke="hsl(0, 0%, 100%)" stroke-linejoin="round" stroke-miterlimit="4px" stroke-width="2"/><path d="M17 1H3C1.89543 1 1 1.89543 1 3V17C1 18.1046 1.89543 19 3 19H17C18.1046 19 19 18.1046 19 17V3C19 1.89543 18.1046 1 17 1Z" fill="hsl(230, 18%, 13%)"/><path d="M2 3C2 2.44772 2.44772 2 3 2H17C17.5523 2 18 2.44772 18 3V5H2V3Z M2 6V17C2 17.5523 2.44772 18 3 18H17C17.5523 18 18 17.5523 18 17V6H2Z" fill="hsl(0, 0%, 100%)"/><path d="M0,9 H20 V15 H0 Z" fill="none" id="mapbox-text-placeholder"/></g></svg>