<svg xmlns="http://www.w3.org/2000/svg" id="us-state-missouri-2" width="20" height="21" viewBox="0 0 20 21"><g><path d="M0,0 H20 V21 H0 Z" fill="none"/><path d="M17 2H3C1.89543 2 1 2.89543 1 4V18C1 19.1046 1.89543 20 3 20H17C18.1046 20 19 19.1046 19 18V4C19 2.89543 18.1046 2 17 2Z" fill="none" stroke="hsl(0, 0%, 100%)" stroke-linejoin="round" stroke-miterlimit="4px" stroke-width="2"/><path d="M17 2H3C1.89543 2 1 2.89543 1 4V18C1 19.1046 1.89543 20 3 20H17C18.1046 20 19 19.1046 19 18V4C19 2.89543 18.1046 2 17 2Z" fill="hsl(230, 18%, 13%)"/><path d="M16.9472 8.89443L14.1382 3.27639C14.0535 3.107 13.8804 3 13.691 3H3C2.44772 3 2 3.44772 2 4V5.92662C2 5.97528 2.0071 6.02368 2.02109 6.07029L3.47891 10.9297C3.4929 10.9763 3.5 11.0247 3.5 11.0734V16.5C3.5 16.7761 3.72386 17 4 17H13.5C13.7761 17 14 17.2239 14 17.5C14 17.7761 13.7761 18 13.5 18C13.2239 18 13 18.2239 13 18.5C13 18.7761 13.2239 19 13.5 19H15.7324C15.8996 19 16.0557 18.9164 16.1484 18.7774L17.916 16.126C17.9708 16.0438 18 15.9473 18 15.8486V14.118C18 14.0404 17.9819 13.9639 17.9472 13.8944L17.0528 12.1056C17.0181 12.0361 17 11.9596 17 11.882V9.11803C17 9.04041 16.9819 8.96385 16.9472 8.89443Z" fill="hsl(0, 0%, 100%)"/><path d="M0,7.5 H20 V13.5 H0 Z" fill="none" id="mapbox-text-placeholder"/></g></svg>