<svg xmlns="http://www.w3.org/2000/svg" id="us-state-virginia-4" width="32" height="23" viewBox="0 0 32 23"><g><path d="M0,0 H32 V23 H0 Z" fill="none"/><path d="M29 4H3C1.89543 4 1 4.89543 1 6V20C1 21.1046 1.89543 22 3 22H29C30.1046 22 31 21.1046 31 20V6C31 4.89543 30.1046 4 29 4Z" fill="none" stroke="hsl(0, 0%, 100%)" stroke-linejoin="round" stroke-miterlimit="4px" stroke-width="2"/><path d="M29 4H3C1.89543 4 1 4.89543 1 6V20C1 21.1046 1.89543 22 3 22H29C30.1046 22 31 21.1046 31 20V6C31 4.89543 30.1046 4 29 4Z" fill="hsl(230, 18%, 13%)"/><path d="M29 5.0001C29.5523 5.00011 30 5.44782 30 6.0001V10.0001C30 17.0001 19 21.0001 16 21.0001C13 21.0001 2 17.0001 2 10.0001V6C2 5.44771 2.44772 5 3.00001 5L29 5.0001Z" fill="hsl(0, 0%, 100%)"/><path d="M0,8.5 H32 V14.5 H0 Z" fill="none" id="mapbox-text-placeholder"/></g></svg>