<svg xmlns="http://www.w3.org/2000/svg" id="us-state-montana-alt-3" width="26" height="21" viewBox="0 0 26 21"><g><path d="M0,0 H26 V21 H0 Z" fill="none"/><path d="M23 2H3C1.89543 2 1 2.89543 1 4V18C1 19.1046 1.89543 20 3 20H23C24.1046 20 25 19.1046 25 18V4C25 2.89543 24.1046 2 23 2Z" fill="none" stroke="hsl(0, 0%, 100%)" stroke-linejoin="round" stroke-miterlimit="4px" stroke-width="2"/><path d="M23 2H3C1.89543 2 1 2.89543 1 4V18C1 19.1046 1.89543 20 3 20H23C24.1046 20 25 19.1046 25 18V4C25 2.89543 24.1046 2 23 2Z" fill="hsl(230, 18%, 13%)"/><path d="M4.5 4.13962V3.5C4.5 3.22386 4.72386 3 5 3H21C21.2761 3 21.5 3.22386 21.5 3.5V4.13962C21.5 4.35484 21.3623 4.5459 21.1581 4.61396L20.4743 4.84189C20.1911 4.93631 20 5.2014 20 5.5C20 5.7986 20.1911 6.06369 20.4743 6.15811L22.3162 6.77208C22.7246 6.90819 23 7.29033 23 7.72076V8C23 15 15.5 19 13 19C10.5 19 3 15 3 8V7.72076C3 7.29033 3.27543 6.90819 3.68377 6.77208L5.52566 6.15811C5.80893 6.06369 6 5.7986 6 5.5C6 5.2014 5.80893 4.93631 5.52566 4.84189L4.84189 4.61396C4.63772 4.5459 4.5 4.35484 4.5 4.13962Z" fill="hsl(0, 0%, 100%)"/><path d="M0,7.5 H26 V13.5 H0 Z" fill="none" id="mapbox-text-placeholder"/></g></svg>