<svg xmlns="http://www.w3.org/2000/svg" id="us-state-florida-2" width="21" height="23" viewBox="0 0 21 23"><g><path d="M0,0 H21 V23 H0 Z" fill="none"/><path d="M18 1H4C2.89543 1 2 1.89543 2 3V17C2 18.1046 2.89543 19 4 19H18C19.1046 19 20 18.1046 20 17V3C20 1.89543 19.1046 1 18 1Z" fill="none" stroke="hsl(0, 0%, 100%)" stroke-linejoin="round" stroke-miterlimit="4px" stroke-width="2"/><path d="M18 1H4C2.89543 1 2 1.89543 2 3V17C2 18.1046 2.89543 19 4 19H18C19.1046 19 20 18.1046 20 17V3C20 1.89543 19.1046 1 18 1Z" fill="hsl(230, 18%, 13%)"/><path d="M3 3C3 2.44772 3.44772 2 4 2H18C18.5523 2 19 2.44772 19 3V17C19 17.5523 18.5523 18 18 18H4C3.44772 18 3 17.5523 3 17V3ZM5 3C4.44772 3 4 3.44772 4 4V5C4 5.55228 4.44772 6 5 6H7.34861L8.59669 6.83205C8.76096 6.94156 8.95396 7 9.15139 7H11V6H9.15139L7.90331 5.16795C7.73904 5.05844 7.54604 5 7.34861 5H5V4H8.29289L9 4.70711C9.18754 4.89464 9.44189 5 9.70711 5H13.2929C13.5581 5 13.8125 4.89464 14 4.70711L14.7071 4H15.4517L17 6.32247V14.2929L15.2929 16H15V17H15.2929C15.5581 17 15.8125 16.8946 16 16.7071L17.7071 15C17.8946 14.8125 18 14.5581 18 14.2929V6.32247C18 6.12505 17.9416 5.93205 17.8321 5.76778L16.2838 3.44531C16.0983 3.16711 15.7861 3 15.4517 3H14.7071C14.4419 3 14.1875 3.10536 14 3.29289L13.2929 4H9.70711L9 3.29289C8.81246 3.10536 8.55811 3 8.29289 3H5Z" fill="hsl(0, 0%, 100%)"/><path d="M0,8.5 H21 V14.5 H0 Z" fill="none" id="mapbox-text-placeholder"/></g></svg>