<svg xmlns="http://www.w3.org/2000/svg" id="us-state-southcarolina-3" width="26" height="24" viewBox="0 0 26 24"><g><path d="M0,0 H26 V24 H0 Z" fill="none"/><path d="M23 1H3C1.89543 1 1 1.89543 1 3V17C1 18.1046 1.89543 19 3 19H23C24.1046 19 25 18.1046 25 17V3C25 1.89543 24.1046 1 23 1Z" fill="none" stroke="hsl(0, 0%, 100%)" stroke-linejoin="round" stroke-miterlimit="4px" stroke-width="2"/><path d="M23 1H3C1.89543 1 1 1.89543 1 3V17C1 18.1046 1.89543 19 3 19H23C24.1046 19 25 18.1046 25 17V3C25 1.89543 24.1046 1 23 1Z" fill="hsl(230, 57%, 54%)"/><path d="M11.3491 3.41156V3.44107C11.6063 3.8964 11.4208 4.26741 10.9402 4.38124L10.9191 4.41919C11.5684 4.64685 11.9731 3.81208 11.3491 3.41156Z M12.8357 2H11.0505C11.0169 2 10.9834 2.0033 10.9506 2.01031C10.3753 2.13309 9.80703 2.35218 9.41016 2.80078C9.1461 3.09925 8.99052 3.43206 8.99996 4C9.00352 4.21392 9.23669 4.45436 9.47695 4.7021C9.57252 4.80064 9.66923 4.90035 9.75303 5H3C2.44772 5 2 5.44772 2 6V17C2 17.5523 2.44772 18 3 18H23C23.5523 18 24 17.5523 24 17V6C24 5.44772 23.5523 5 23 5H17.253C17.2371 4.97615 17.219 4.95362 17.1989 4.93269L15.1555 2.79872C15.0611 2.70023 14.9307 2.64453 14.7943 2.64453H14.0393C13.9326 2.64453 13.8287 2.61039 13.7427 2.5471L13.1323 2.09743C13.0463 2.03414 12.9424 2 12.8357 2ZM12.6315 7.50652C12.5586 7.39367 12.3882 7.32481 12.3882 7.32481C12.3882 7.32481 12.3562 6.94002 12.2416 6.73005C12.1149 6.49806 11.763 6.25148 11.763 6.25148C11.763 6.25148 11.7158 6.06915 11.6547 5.96729C11.586 5.85275 11.4245 5.71435 11.4245 5.71435L10.8828 5.09589L10.6571 4.86113C10.6571 4.86113 10.5189 4.5008 10.3681 4.31038C10.2575 4.17059 10.0386 3.99435 10.0386 3.99435L9.83542 3.88591L9.79476 3.70997C9.79476 3.70997 9.86837 3.51992 9.95733 3.43015C10.0529 3.33371 10.2598 3.25863 10.2598 3.25863L11.1075 2.7671L12.8962 3.07791L12.9233 3.18625L13.158 3.25863L13.1851 3.64672L14.6839 3.70997L16.2052 5.17258C16.2052 5.17258 15.8108 5.41342 15.6139 5.62854C15.429 5.83053 15.2301 6.21541 15.2301 6.21541L15.3114 6.29215C15.3114 6.29215 15.1061 6.52538 14.9367 6.6217C14.8433 6.67479 14.6839 6.73005 14.6839 6.73005L14.5485 7.01897C14.5485 7.01897 14.381 7.09846 14.2821 7.16343C14.1327 7.26159 13.9345 7.46138 13.9345 7.46138L13.5372 7.50652H13.3887L13.4108 6.69393L13.465 6.39598L13.4876 6.35084L13.465 6.11609L13.7088 6.21541L13.8758 6.07546L14.1647 6.11609H14.2821L14.2234 5.86328L14.3679 5.71435L14.5123 5.62854L14.5485 5.4299L14.3679 5.12744L14.2234 5.05521H14.5801L14.6658 4.86113L14.5801 4.73469L14.2821 4.70309L14.1647 4.66697L14.3092 4.35548L14.2009 4.28776H13.9345L13.8758 4.10719L13.7765 4.03044L13.4876 4.10719L13.3792 3.97627H13.1084L12.9233 3.94919L12.7334 4.06656L12.6073 4.23359L12.4764 4.31038H12.21L12.1513 4.46135L11.9437 4.48243L11.8353 4.70309L11.7179 4.73469V4.93784L11.6547 5.19967L11.7179 5.2719H11.8353L11.9121 5.39379V5.48859H11.9933L11.9121 5.71435L11.9437 5.86328L12.1513 5.93551L12.21 6.11609H12.3003V6.25148L12.3882 6.35084L12.6315 6.37341L12.9233 6.07546L12.9549 6.18381L12.8962 6.39598L12.9233 6.48176L13.0316 6.6217V7.50652H12.6315Z" fill="hsl(0, 0%, 100%)"/><path d="M0,9 H26 V15 H0 Z" fill="none" id="mapbox-text-placeholder"/></g></svg>