<svg xmlns="http://www.w3.org/2000/svg" id="us-state-tennessee-3" width="26" height="24" viewBox="0 0 26 24"><g><path d="M0,0 H26 V24 H0 Z" fill="none"/><path d="M23 5H3C1.89543 5 1 5.89543 1 7V21C1 22.1046 1.89543 23 3 23H23C24.1046 23 25 22.1046 25 21V7C25 5.89543 24.1046 5 23 5Z" fill="none" stroke="hsl(0, 0%, 100%)" stroke-linejoin="round" stroke-miterlimit="4px" stroke-width="2"/><path d="M23 5H3C1.89543 5 1 5.89543 1 7V21C1 22.1046 1.89543 23 3 23H23C24.1046 23 25 22.1046 25 21V7C25 5.89543 24.1046 5 23 5Z" fill="hsl(230, 18%, 13%)"/><path d="M2 7C2 6.44772 2.44772 6 3 6H23C23.5523 6 24 6.44772 24 7V18H7.11803C6.96279 18 6.80968 18.0361 6.67082 18.1056L5.88197 18.5H4.70711C4.44189 18.5 4.18754 18.6054 4 18.7929L3.29289 19.5C3.10536 19.6875 3 19.9419 3 20.2071V20.7929L2.20711 21.5858C2.2037 21.5892 2.20034 21.5926 2.19701 21.5961C2.07324 21.4296 2 21.2234 2 21V7Z M3.20711 22H20.5V21.809C20.5 21.4302 20.714 21.084 21.0528 20.9146L21.5 20.691V20.309C21.5 19.9302 21.714 19.584 22.0528 19.4146L22.5 19.191V19H7.11803L6.32918 19.3944C6.19032 19.4639 6.03721 19.5 5.88197 19.5H4.70711L4 20.2071L4 20.7929C4 21.0581 3.89464 21.3125 3.70711 21.5L3.20711 22Z M21.5 22H23C23.5523 22 24 21.5523 24 21V19H23.5V19.191C23.5 19.5698 23.286 19.916 22.9472 20.0854L22.5 20.309V20.691C22.5 21.0698 22.286 21.416 21.9472 21.5854L21.5 21.809V22Z" fill="hsl(0, 0%, 100%)"/><path d="M0,9 H26 V15 H0 Z" fill="none" id="mapbox-text-placeholder"/></g></svg>