<svg xmlns="http://www.w3.org/2000/svg" id="us-state-texas-farm-ranch-2" width="20" height="21" viewBox="0 0 20 21"><g><path d="M0,0 H20 V21 H0 Z" fill="none"/><path d="M17 2H3C1.89543 2 1 2.89543 1 4V18C1 19.1046 1.89543 20 3 20H17C18.1046 20 19 19.1046 19 18V4C19 2.89543 18.1046 2 17 2Z" fill="none" stroke="hsl(0, 0%, 100%)" stroke-linejoin="round" stroke-miterlimit="4px" stroke-width="2"/><path d="M17 2H3C1.89543 2 1 2.89543 1 4V18C1 19.1046 1.89543 20 3 20H17C18.1046 20 19 19.1046 19 18V4C19 2.89543 18.1046 2 17 2Z" fill="hsl(230, 18%, 13%)"/><path d="M4 7.5V3.5C4 3.22386 4.22386 3 4.5 3H7.69098C7.88037 3 8.0535 3.107 8.1382 3.27639L8.87675 4.75351C8.95348 4.90695 9.10351 5.01035 9.27422 5.02742L13.7642 5.47642C13.9135 5.49135 14.0615 5.4385 14.1675 5.33246L14.3536 5.14645C14.4473 5.05268 14.5745 5 14.7071 5H15.4189C15.4726 5 15.526 5.00866 15.577 5.02566L16.6581 5.38604C16.8623 5.45409 17 5.64516 17 5.86038V7.29289C17 7.4255 17.0527 7.55268 17.1464 7.64645L17.8536 8.35355C17.9473 8.44732 18 8.5745 18 8.70711V13.191C18 13.3804 17.893 13.5535 17.7236 13.6382L17.1056 13.9472C17.0361 13.9819 16.9596 14 16.882 14H16.5C16.2239 14 16 14.2239 16 14.5V14.7597C16 14.9116 15.931 15.0552 15.8123 15.1501L13.6877 16.8499C13.569 16.9448 13.5 17.0884 13.5 17.2403V17.3486C13.5 17.4473 13.5292 17.5438 13.584 17.626L14.2366 18.6049C14.3492 18.7738 14.2281 19 14.0252 19C14.0084 19 13.9917 18.9983 13.9753 18.9951L11.5657 18.5131C11.5221 18.5044 11.4799 18.4899 11.4401 18.4701L10.5726 18.0363C10.5245 18.0123 10.4806 17.9806 10.4426 17.9426L8.14645 15.6464C8.05268 15.5527 7.9255 15.5 7.79289 15.5H6.75C6.61193 15.5 6.5 15.6119 6.5 15.75C6.5 15.8881 6.38807 16 6.25 16H6.125C6.04386 16 5.96491 15.9737 5.9 15.925L4.2 14.65C4.0741 14.5556 4 14.4074 4 14.25V13.2071C4 13.0745 3.94732 12.9473 3.85355 12.8536L2.14645 11.1464C2.05268 11.0527 2 10.9255 2 10.7929V8.5C2 8.22386 2.22386 8 2.5 8H3.5C3.77614 8 4 7.77614 4 7.5Z" fill="hsl(0, 0%, 100%)"/><path d="M0,7.5 H20 V13.5 H0 Z" fill="none" id="mapbox-text-placeholder"/></g></svg>