<svg xmlns="http://www.w3.org/2000/svg" id="us-state-arizona-3" width="26" height="21" viewBox="0 0 26 21"><g><path d="M0,0 H26 V21 H0 Z" fill="none"/><path d="M23 2H3C1.89543 2 1 2.89543 1 4V18C1 19.1046 1.89543 20 3 20H23C24.1046 20 25 19.1046 25 18V4C25 2.89543 24.1046 2 23 2Z" fill="none" stroke="hsl(0, 0%, 100%)" stroke-linejoin="round" stroke-miterlimit="4px" stroke-width="2"/><path d="M23 2H3C1.89543 2 1 2.89543 1 4V18C1 19.1046 1.89543 20 3 20H23C24.1046 20 25 19.1046 25 18V4C25 2.89543 24.1046 2 23 2Z" fill="hsl(230, 18%, 13%)"/><path d="M24 17C24 17.5523 23.5523 18 23 18H15.1139C15.0382 18 14.9628 17.9914 14.889 17.9744L2.77514 15.1789C2.32141 15.0742 2 14.6701 2 14.2045V6.5C2 6.22386 2.22386 6 2.5 6H4.5C4.77614 6 5 5.77614 5 5.5V3.5C5 3.22386 5.22386 3 5.5 3H23C23.5523 3 24 3.44772 24 4V17Z" fill="hsl(0, 0%, 100%)"/><path d="M0,7.5 H26 V13.5 H0 Z" fill="none" id="mapbox-text-placeholder"/></g></svg>