<svg xmlns="http://www.w3.org/2000/svg" id="us-state-vermont-4" width="32" height="24" viewBox="0 0 32 24"><g><path d="M0,0 H32 V24 H0 Z" fill="none"/><path d="M29 1H3C1.89543 1 1 1.89543 1 3V17C1 18.1046 1.89543 19 3 19H29C30.1046 19 31 18.1046 31 17V3C31 1.89543 30.1046 1 29 1Z" fill="none" stroke="hsl(0, 0%, 100%)" stroke-linejoin="round" stroke-miterlimit="4px" stroke-width="2"/><path d="M29 1H3C1.89543 1 1 1.89543 1 3V17C1 18.1046 1.89543 19 3 19H29C30.1046 19 31 18.1046 31 17V3C31 1.89543 30.1046 1 29 1Z" fill="hsl(140, 74%, 37%)"/><path d="M3 2C2.44772 2 2 2.44772 2 3V4C2 4.55228 2.44772 5 3 5H29C29.5523 5 30 4.55228 30 4V3C30 2.44772 29.5523 2 29 2H3Z M5.30278 6C5.10535 6 4.91355 6.05706 4.7599 6.18103C4.04832 6.75514 2 8.69479 2 12C2 15.3052 4.04832 17.2449 4.7599 17.819C4.91356 17.9429 5.10535 18 5.30278 18H26.6972C26.8946 18 27.0864 17.9429 27.2401 17.819C27.9517 17.2449 30 15.3052 30 12C30 8.69479 27.9517 6.75514 27.2401 6.18103C27.0864 6.05706 26.8946 6 26.6972 6H5.30278Z" fill="hsl(0, 0%, 100%)"/><path d="M0,9 H32 V15 H0 Z" fill="none" id="mapbox-text-placeholder"/></g></svg>