<svg xmlns="http://www.w3.org/2000/svg" id="us-state-texas-farm-ranch-4" width="32" height="21" viewBox="0 0 32 21"><g><path d="M0,0 H32 V21 H0 Z" fill="none"/><path d="M29 2H3C1.89543 2 1 2.89543 1 4V18C1 19.1046 1.89543 20 3 20H29C30.1046 20 31 19.1046 31 18V4C31 2.89543 30.1046 2 29 2Z" fill="none" stroke="hsl(0, 0%, 100%)" stroke-linejoin="round" stroke-miterlimit="4px" stroke-width="2"/><path d="M29 2H3C1.89543 2 1 2.89543 1 4V18C1 19.1046 1.89543 20 3 20H29C30.1046 20 31 19.1046 31 18V4C31 2.89543 30.1046 2 29 2Z" fill="hsl(230, 18%, 13%)"/><path d="M4.5 6.5V3.5C4.5 3.22386 4.72386 3 5 3H8.63962C8.85484 3 9.04591 3.13772 9.11396 3.34189L9.40583 4.21748C9.46385 4.39156 9.61257 4.51987 9.79327 4.55175L23.9569 5.99239C23.9856 5.99745 24.0146 6 24.0438 6H24.7929C24.9255 6 25.0527 5.94732 25.1464 5.85355L25.8536 5.14645C25.9473 5.05268 26.0745 5 26.2071 5H27.3486C27.4473 5 27.5438 5.02922 27.626 5.08397L28.7773 5.85157C28.9164 5.9443 29 6.10042 29 6.26759V7.79289C29 7.9255 29.0527 8.05268 29.1464 8.14645L29.8536 8.85355C29.9473 8.94732 30 9.0745 30 9.20711V13.191C30 13.3804 29.893 13.5535 29.7236 13.6382L28.1056 14.4472C28.0361 14.4819 27.9596 14.5 27.882 14.5H27.5C27.2239 14.5 27 14.7239 27 15V15.2169C27 15.3925 26.9079 15.5553 26.7572 15.6457L24.7277 16.8634C24.5864 16.9481 24.5 17.1008 24.5 17.2655C24.5 17.4131 24.5695 17.5521 24.6876 17.6407L25.7 18.4C25.9563 18.5922 25.8203 19 25.5 19L21.6047 18.5131C21.5591 18.5074 21.5145 18.4954 21.4723 18.4776C21.4292 18.4594 21.3866 18.4396 21.3414 18.4276L10.6869 15.5894C10.6417 15.5774 10.599 15.5575 10.556 15.5394C10.4946 15.5135 10.4285 15.5 10.3615 15.5H8C7.72386 15.5 7.5 15.7239 7.5 16V16.3063C7.5 16.6476 7.16565 16.8886 6.84189 16.7806L6.06352 16.5212C6.02136 16.5071 5.98126 16.4875 5.94429 16.4629L4.72265 15.6484C4.58355 15.5557 4.5 15.3996 4.5 15.2324V14.309C4.5 14.1196 4.393 13.9465 4.22361 13.8618L3.57257 13.5363C3.52451 13.5123 3.48063 13.4806 3.44263 13.4426L2.14645 12.1464C2.05268 12.0527 2 11.9255 2 11.7929V7.5C2 7.22386 2.22386 7 2.5 7H4C4.27614 7 4.5 6.77614 4.5 6.5Z" fill="hsl(0, 0%, 100%)"/><path d="M0,7.5 H32 V13.5 H0 Z" fill="none" id="mapbox-text-placeholder"/></g></svg>