<svg xmlns="http://www.w3.org/2000/svg" id="us-state-nebraska-3" width="26" height="25" viewBox="0 0 26 25"><g><path d="M0,0 H26 V25 H0 Z" fill="none"/><path d="M23 6H3C1.89543 6 1 6.89543 1 8V22C1 23.1046 1.89543 24 3 24H23C24.1046 24 25 23.1046 25 22V8C25 6.89543 24.1046 6 23 6Z" fill="none" stroke="hsl(0, 0%, 100%)" stroke-linejoin="round" stroke-miterlimit="4px" stroke-width="2"/><path d="M23 6H3C1.89543 6 1 6.89543 1 8V22C1 23.1046 1.89543 24 3 24H23C24.1046 24 25 23.1046 25 22V8C25 6.89543 24.1046 6 23 6Z" fill="hsl(230, 18%, 13%)"/><path d="M2.90991 7C2.40747 7 2 7.40735 2 7.90991C2.00099 7.97003 2.00634 8.02918 2.01758 8.08838L4.89722 22.4858C4.95312 22.7657 5.23169 22.942 5.50879 22.8728L9.69189 22.5771L9.69531 22.5781L10.0115 22.5026C10.0281 22.5009 10.0449 22.5 10.0615 22.5H10.4255L10.3435 22.321L10.2678 22.2562L10.218 22.1903H10.1465L10.075 22.1733L9.96338 22.2854L9.91138 22.3984L9.68774 22.4393L9.64575 22.3568V22.2568L9.80103 21.9912L9.75635 21.7493L9.59058 21.5468L9.43799 21.473L9.44922 21.3789H9.45312L9.58667 21.1438L9.66748 21.1041L9.71973 20.9004V20.8145L9.66748 20.8257L9.50293 21.1396L9.51465 21.1437L9.50781 21.1484L9.43945 21.2925L9.33911 21.3792H9.10034L9.08374 21.3508L9.11597 21.3031L9.1853 21.3134H9.28052L9.31982 21.2479L9.29224 21.1647L9.31934 21.0929H9.33862L9.35352 21.0106L9.33984 20.9149L9.44873 20.8743L9.46387 20.8145L9.50293 20.6799L9.46387 20.5865H9.45312V20.5378L9.59644 20.4744L9.52905 20.437H9.35352L9.30859 20.452V20.5211L9.33984 20.5341V20.5865H9.23022L9.1853 20.693V20.7285L9.26562 20.7379L9.31982 20.65H9.38525L9.41138 20.6799L9.38525 20.8032L9.28052 20.8369L9.17603 20.8032L9.1106 20.7566V20.8257L9.21143 20.8743L9.29297 20.9006L9.28052 20.9415L9.26562 21.063L9.28052 21.0929H9.29517L9.28101 21.1611L9.23022 21.177V21.2592H9.1853V21.2144L9.12109 21.1792L9.14014 21.1036L9.14233 21.1041V20.9266L9.12939 20.9154L9.08447 21.0405V21.0732L9.05078 21.1406L9.04883 21.1396L9.03394 21.1583V21.2144L9.04883 21.2592L9.03516 21.2853L8.9751 21.2732L8.95776 21.1945L8.9751 21.1079L9.07886 20.9779L9.10034 20.8761L9.05957 20.7787L9.07886 20.6553L9.01831 20.6141L8.91431 20.4647L8.89258 20.2893L8.9751 20.2006H9.01831L8.9751 20.3369L9.04639 20.4474L9.10034 20.4647L9.21094 20.4474L9.3042 20.4127L9.43799 20.3954H9.60083L9.64575 20.4323L9.70703 20.4127L9.75635 20.3954L9.87378 20.376L9.90405 20.3109L9.81519 20.2006L9.85205 20.1572L9.91919 20.1724L9.98413 20.2611V20.4474L10.075 20.4127L10.1812 20.35L10.2305 20.3008H10.2383L10.271 20.2595L10.2737 20.2524L10.3811 20.1361H10.5212L10.512 20.2109L10.4504 20.2296L10.3379 20.3336L10.2205 20.3828L10.1216 20.437L10.1042 20.4531H10.1016L10.0466 20.5081L10.0281 20.4968L9.98633 20.5508L9.87231 20.5173L9.77393 20.6183L9.81323 20.6799L9.93457 20.7285L9.87671 20.6313V20.5977H9.97607L10.0281 20.6313L10.0747 20.6183L10.0635 20.6799L10.0505 20.7191H10.1755L10.1345 20.6313L10.1226 20.559L10.1653 20.4799L10.2429 20.4631L10.2915 20.4893L10.3979 20.4033L10.4634 20.3716L10.512 20.3511V20.3435L10.6035 20.2555L10.71 20.2109L10.7754 20.1361L10.811 20.0502H10.7007L10.4766 20.0782L10.4934 19.9811H10.4316L10.3586 20.0315L10.2905 20.2085L10.2346 20.25L10.218 20.2286L10.2678 20.1421L10.231 20.077L10.1465 19.9688L10.1228 19.7935L10.231 19.7068L10.3435 19.6505L10.3608 19.6765L10.3328 19.7241L10.2959 19.7804L10.2786 19.8497V19.958L10.3435 19.9688L10.4888 19.9276L10.7095 19.8951H10.8677L10.8894 19.9276L10.9727 19.9125V19.9363H10.9661L10.8838 19.9811L10.9529 20.0315L10.9119 20.0502L10.9343 20.1082L10.9941 20.1361L11.0613 20.0969V20.0148L11.0195 19.9363V19.9021L11.1038 19.8822L11.1687 19.7804L11.1274 19.6765L11.0344 19.6267L11.0798 19.5985L11.1924 19.6505L11.2617 19.7415V19.8173L11.24 19.8951L11.1687 19.9927L11.1274 20.049H11.2725L11.2942 20.0078H11.3831L11.3569 20.077H11.4414L11.4761 20.1096L11.5195 20.2611V20.2893L11.9417 20.4323H12.0977L11.8755 20.1572L11.6431 19.7068L11.5664 19.4994L11.5195 19.2379V18.9633L11.5664 18.6938L11.7751 18.2871L11.9758 18.0494L12.2849 17.7906L12.7866 17.574L13.1379 17.5265H13.4102L13.6821 17.6084L13.9277 17.7589L14.1233 17.9755L14.2341 18.2026L14.2686 18.3638V18.4192L14.3557 18.517C14.3557 18.517 14.385 18.5149 14.427 18.5138L14.4451 18.5134C14.4658 18.5131 14.4888 18.5129 14.5122 18.5135C14.5662 18.5148 14.6233 18.519 14.6643 18.53C14.7205 18.545 14.7747 18.5804 14.8186 18.6163C14.8784 18.665 14.9192 18.7146 14.9192 18.7146L15.0181 18.8944L15.1235 19.1215L15.3574 19.1035L15.5193 19.1552L15.6946 19.308L15.7913 19.4541L15.8384 19.6699L15.8789 19.7239L16.1035 19.7441L16.27 19.8677L16.3621 20.0386V20.061H16.5486L16.679 20.115L16.8274 20.2881L16.9194 20.5443V20.7668L16.8274 21.0231L16.7104 21.2344L16.4619 21.5179L16.2871 21.6292L16.2634 21.6178L16.4563 21.4779L16.7388 21.1515L16.8704 20.829V20.5465L16.7712 20.2983L16.5518 20.1284H16.4104V20.1953L16.4314 20.2449H16.5898L16.5518 20.2983H16.4448L16.3933 20.3231L16.4104 20.4014L16.5193 20.4301L16.6072 20.3899L16.6587 20.3804L16.5898 20.451L16.4314 20.4606L16.4448 20.5216L16.5518 20.5465L16.7502 20.4606L16.7712 20.4701L16.6587 20.5465L16.5002 20.6208L16.3457 20.5941L16.3037 20.7144H16.5193L16.7234 20.6743L16.4697 20.8003H16.5898L16.7942 20.7621L16.6453 20.829L16.3457 20.8958H16.2693L16.2939 20.9282H16.6587L16.5383 20.9645H16.2693L16.2004 21.0083V21.058L16.3247 21.119L16.4697 21.1515H16.5518L16.4104 21.2412L16.0383 21.266L16.0994 21.3004L16.3037 21.3767L16.4697 21.3405L16.3933 21.3862L16.2463 21.4282H15.9448L15.9143 21.4501L15.8213 21.4054L15.9963 21.2183L16.2166 20.8594L16.3232 20.5437L16.3596 20.2371L16.3232 20.0781L16.2166 19.9009L16.0461 19.7965H15.9575L15.8645 19.8782L15.9758 19.9781L16.1733 20.0099L15.9575 20.0463L15.8645 20.0326L15.9575 20.0985L16.0461 20.1212H16.2415L16.1211 20.1689L15.8962 20.1893H15.8213L15.9326 20.2552H16.1506L16.0166 20.303L15.8328 20.2756L15.9758 20.3893H16.1506L15.9963 20.4756L15.7646 20.446L15.9326 20.5437L16.0461 20.5596L15.9758 20.6073L15.6919 20.5596L15.658 20.5754L15.7463 20.6322L15.8486 20.6731H16.0872L15.8962 20.7435L15.6169 20.7708L15.5784 20.7889L15.658 20.8594L15.8486 20.923L16.0166 20.8776L15.8962 20.9547H15.6282L15.4443 20.9071L15.4058 20.9821V21.0547L15.4988 21.1138L15.6919 21.2023L15.8962 21.1887L15.8213 21.2183L15.4761 21.2318L15.4133 21.2094L15.1851 21.0997L15.1874 21.0923L15.4421 20.8066L15.5613 20.5908L15.7598 20.1716L15.8018 19.8318L15.7598 19.6011C15.7598 19.6011 15.7046 19.3506 15.5859 19.2588C15.4846 19.1804 15.271 19.1671 15.271 19.1671L15.1917 19.2266L15.3306 19.2986H15.4744L15.3132 19.3804H15.1223V19.4176L15.3132 19.4995H15.3777L15.5613 19.4548L15.3975 19.5813L15.2883 19.6011H15.1223L15.0901 19.7003H15.2139L15.3975 19.7103L15.1445 19.7971L15.0901 19.8467V19.9187L15.2139 19.9484L15.2883 19.9633L15.6455 19.8938L15.5859 19.9484L15.2883 20.0228L14.9883 19.9856L14.9634 20.0575V20.0923L15.0156 20.1121H15.1445L15.2512 20.1444L14.894 20.2113L15.0156 20.2808L15.2883 20.3303L15.5266 20.256L15.4421 20.3303L15.2512 20.3949L14.9363 20.3303H14.8296L14.7773 20.3949L14.8296 20.499L15.1223 20.5908L15.3132 20.5437H15.3528L15.3132 20.5908L15.0403 20.6305L14.7229 20.5908L14.6907 20.6504L14.9883 20.7396L14.8296 20.7719L14.9363 20.8413L15.0403 20.9158L15.1445 21.01L15.157 21.0464L15.1383 21.0772L15.0903 21.0542L15.0933 21.0227L14.5449 20.6681L14.5508 20.6249L14.7998 20.1855L14.9128 19.8882L15.0527 19.3844L15.0396 19.0959C14.998 18.7452 14.6895 18.5526 14.5247 18.5842L14.4158 18.6942L14.5444 18.7452L14.6643 18.6831L14.5112 18.823H14.325L14.4158 18.8917H14.5112L14.7908 18.823L14.5247 18.9961L14.4158 19.0205L14.4958 19.0493H14.6001L14.6934 19.0205L14.4958 19.1647H14.3381L14.2649 19.2268L14.325 19.3223L14.4958 19.3689L14.8152 19.2446L14.5444 19.4465L14.2849 19.4976H14.2205L14.2073 19.5353L14.325 19.5597H14.4292L14.2649 19.644L14.1184 19.6619H14.0984V19.7018L14.325 19.7506H14.5112L14.7754 19.6619L14.7908 19.684L14.4958 19.8394L14.1494 19.8727L14.2449 19.9215L14.3738 19.9503L14.6799 19.8505L14.6934 19.8727L14.4958 19.9948L14.3071 20.0724L14.0474 20.0325H14.0076V20.0857L14.1384 20.1855H14.2849L14.4514 20.1278L14.2073 20.2765L13.981 20.2477L14.0298 20.2876L14.3999 20.5382L14.4326 20.5955L13.7539 20.1566V20.1484H13.6995L13.2764 20.251L13.3535 20.1738L13.4136 20.1536L13.4771 20.0306L13.5552 19.9152L13.5757 19.703L13.3894 19.7141L13.3596 19.6918L13.3057 19.6602L13.2998 19.6666L13.2622 19.6256L13.2646 19.6211L13.2603 19.6233L13.2256 19.5856L13.2686 19.5223H13.4192L13.436 19.4851L13.4695 19.3511L13.4509 19.2784L13.397 19.2263L13.1978 19.2784L13.2146 19.3344V19.4851L13.1326 19.636H13.1177L13.1064 19.6173L13.0618 19.4851L13.071 19.4553V19.4237L13.0879 19.3344V19.2784L13.1587 19.2468V19.2263H13.1064L13.0413 19.3027L13.019 19.4851L13.0618 19.6173L13.1155 19.6675L13.0227 19.6453L13.0059 19.6769L13.1157 19.7161L13.0396 19.7756H13.1064L13.189 19.746L13.208 19.7656L13.1064 19.8129H13.0208L12.9724 19.796L12.9502 19.7626L12.9128 19.7719L12.8738 19.9152V19.9785L12.9258 20.0306L12.9502 20.0902L12.749 20.3453L12.8979 20.3174L12.9724 20.1536L13.0078 20.1069V20.0697H13.0916L13.1772 20.0027L13.1978 20.0697H13.2703L13.2593 20.2057L13.2671 20.203L13.2527 20.2568L12.5554 20.4304L12.5322 20.3937L12.5422 20.3807V20.3677L12.4697 20.3099L12.5071 20.2485L12.4827 20.1125L12.5071 20.0344L12.5422 20.2727L12.5889 20.3099L12.6335 20.2355V19.9692L12.5422 19.999L12.5403 19.9886L12.5535 19.9639V19.9749L12.613 19.9302L12.7156 19.9407V19.9469L12.6782 19.9562V20.1982L12.6616 20.3099L12.7993 20.0958L12.7732 20.2485L12.7993 20.2355L12.8794 20.0642L12.8328 19.999V19.8352L12.7253 19.8265L12.6345 19.7513L12.613 19.7123L12.5776 19.6881L12.5479 19.6912L12.5354 19.6461L12.7024 19.5503V19.5243L12.5776 19.5894L12.5422 19.5243L12.5051 19.4368L12.4641 19.4871L12.4419 19.5392L12.4846 19.634L12.386 19.6956L12.3972 19.7253L12.4951 19.6692L12.5088 19.6952L12.5051 19.6956L12.5422 19.7719L12.613 19.8538L12.6531 19.8313L12.665 19.8647L12.5627 19.8948H12.5535V19.9209L12.5293 19.9299L12.52 19.8799L12.4082 19.9692L12.3635 20.2485L12.457 20.396V20.455L12.3557 20.4802L12.335 20.4023H12.2727L12.2856 20.3427L12.2336 20.2389L12.0857 20.1844L12.187 20.1455L12.1533 20.0209L11.9717 19.9535H12.1272L12.0496 19.803L11.9016 19.7407L11.7329 19.5798L11.8574 19.6525L12.0105 19.6785L11.9717 19.3826L11.8704 19.4319L11.7329 19.3256L11.6265 19.1958L11.8418 19.3256L11.9016 19.3074L11.9717 19.2788V19.1101L11.7639 19.0193L11.7017 18.8325L11.79 18.9388L11.9717 19.0011L12.104 18.6949L12.0496 18.6274L11.8574 18.5366L12.187 18.599L12.3557 18.4589L12.1272 18.2019L12.4465 18.368L12.6567 18.2772L12.5503 17.9398L12.7551 18.2408H12.833L12.9238 17.9036L12.9524 18.2019L13.1602 18.163L13.3521 17.7738L13.3313 18.0618L13.2976 18.2019L13.5337 18.3914L13.6401 18.189L13.7673 17.9709L13.731 18.163L13.6064 18.4744L13.6997 18.7468L14.0449 18.5186L13.7126 18.8325L13.7517 19.0193L13.8657 18.9388L14.0942 18.8325L13.9099 18.9856L13.7517 19.1101L13.6997 19.3826L13.8943 19.3074L14.0786 19.2269L14.0112 19.3074L13.7126 19.4734L13.6609 19.5798L13.8943 19.5149L14.0112 19.5383L13.9099 19.5798L13.6609 19.6525L13.5881 19.8652L13.8789 19.7874L13.5881 19.9664L13.4973 20.1455L13.7673 20.0909L13.9099 19.912L14.1357 19.4579L14.2603 18.7183L14.2031 18.3914L14.0942 18.106L13.9619 17.9218L13.731 17.7219L13.5181 17.6285L13.1602 17.5947L12.8564 17.6622L12.4102 17.8257L12.0676 18.0229L11.8186 18.3473L11.6265 18.7781L11.5771 19.1101L11.6265 19.4865L11.79 19.8834L12.0676 20.309L12.2856 20.5243L12.3162 20.5581L12.3958 20.667H12.333L12.2422 20.7809L12.0483 20.5553L11.947 20.6122H11.7847L11.6433 20.5173L11.5254 20.4962L11.3672 20.6354L11.2471 20.667V20.7999L11.1775 21.0066L11.0908 21.0887L10.9897 21.0466L11.0066 21.2216L11.0508 21.2343L11.1458 21.1901L11.1311 21.5273L11.0256 21.6665L11.072 21.8268L11.1311 21.9745L11.0508 22.2612L11.0166 22.4453H10.9316L11.0024 22.1006L10.8462 22.084L10.7095 22.0613H10.6189L10.5847 22.1903L10.614 22.4648H10.5938L10.5344 22.3872L10.5081 22.3149V22.1886L10.4529 22.0956V22.0137L10.3997 21.9561L10.2778 21.7478V21.5551L10.3066 21.5129L10.3333 21.5994L10.4219 21.7478L10.4971 21.8718L10.5747 21.8231L10.6389 21.7234L10.5303 21.2804H10.5967V21.1586C10.9548 21.1178 11.1387 20.7207 11.186 20.5272H11.3235L11.3545 20.4785L11.4763 20.2172L11.4165 20.1263L11.1372 20.1396V20.1772L11.062 20.3567V20.3751H11.2781V20.4272L11.062 20.4194V20.4275L11.0996 20.494C11.0535 20.8342 10.7659 21.0094 10.6277 21.0544L10.5747 20.8706V20.7678L10.7021 20.7191H10.7268L10.9026 20.5529L10.9194 20.4033L10.8689 20.3361H10.7886L10.6765 20.3828L10.667 20.437L10.5549 20.5679L10.4504 20.6183L10.4316 20.6313H10.5212L10.5857 20.6642L10.5312 20.7188V20.7643H10.4705L10.384 20.8573L10.3997 20.9791L10.4417 21.1586L10.3198 21.1298L10.198 21.0013L10.1736 20.8706L10.1382 20.8374L10.043 21.0544L9.94556 21.2671L9.88794 21.4354L9.80811 21.1586L9.77051 21.1785L9.80811 21.4709H9.67749L9.61108 21.4531L9.51367 21.3092V21.4531L9.59326 21.5129L9.82153 21.5439L9.87231 21.6991L9.90332 21.7633L10.0874 21.3712L10.0718 21.6193L10.1494 21.9338L10.3665 22.2241L10.5029 22.5H10.5754L10.574 22.4961H10.6172L10.6177 22.5H10.9204L10.9211 22.4961H11.0195L11.0398 22.4851L11.0544 22.4812L11.0769 22.4744L11.2344 22.4219L11.3494 22.3821L11.5725 22.3092L11.5195 22.1267L11.3569 22.0477V22.2931L11.2964 22.322L11.3167 22.2612V22.179L11.3018 22.0145V21.8079L11.2615 21.8186V22.0544L11.2261 22.1532H11.1907L11.1758 21.7081L11.2615 21.6449L11.3672 21.5907L11.375 21.5859L11.3774 21.5907H11.4094L11.5442 21.4052L11.592 21.2596L11.5559 21.2145L11.5352 21.3042L11.4067 21.4475L11.3657 21.4587L11.3376 21.4214L11.3284 21.1366L11.4941 21.1273H11.5762L11.6235 21.2354L11.6265 21.2343V21.4261L11.8542 21.4684H11.9744L12.0989 21.2216L12.1558 21.2343L12.0735 21.4493L12.1558 21.5907L12.333 21.7194H12.4827L12.5732 21.7847L12.637 21.9026L12.5862 21.9288L12.4641 21.8367L12.2852 21.8203H12.1028L12.0977 21.812L12.0212 21.7461L11.6431 21.6501L11.5833 21.6907L11.7258 22.0613L11.7749 22.2417L11.9626 22.1791L11.9973 22.0273L12.0903 21.8904L12.3469 21.8627L12.3225 21.9391L12.2705 21.9856L12.1831 22.1006L12.2019 22.0994L12.4187 22.0271L12.4165 22.0186L12.5095 22.0034C12.5347 22.0016 12.5579 22 12.5811 22L13.9243 22.0016L14.0231 22.011L14.0266 22.0113L14.0301 22.0116L14.0312 22.0117L14.0466 21.9921L14.1865 21.8265L14.1521 21.7866L14.0033 21.9827L13.9498 21.971L13.9275 21.9391L13.8828 21.8273L14.1122 21.7276L14.1006 21.6846L13.8735 21.7733L13.8643 21.6616L13.8735 21.5574L14.0986 21.6046L14.1084 21.5598L13.8828 21.5109L13.9275 21.4047L13.9627 21.3304L13.9316 21.2962L13.9016 21.3469L13.8401 21.4811L13.8196 21.6523L13.8401 21.8273L13.9005 21.9708L13.8833 21.9756L13.8345 21.9645L13.7861 21.8069V21.4996L13.8643 21.3135L13.9321 21.2224L13.9626 21.2438L13.959 21.2499L13.9888 21.2751L13.991 21.2706L14.1733 21.5109L14.139 21.5665L14.1267 21.6105L14.1306 21.6113V21.6729L14.1254 21.6749L14.1367 21.717L14.1399 21.7156L14.155 21.7548L14.2175 21.8069H14.2776L14.3408 21.7733L14.4004 21.6523V21.5667L14.3894 21.4811L14.3186 21.4177L14.2852 21.4296V21.3086H14.2749L14.2776 21.3004V21.105H14.2498V21.3086H14.2461V21.4434L14.2292 21.4493L14.1919 21.4811L14.0151 21.2018L14.0046 21.2057L13.9719 21.1692L14.0059 21.1235L14.0671 21.0677L13.9424 21.1143L13.7861 21.2837L13.7283 21.4177L13.6948 21.6523L13.7061 21.8367L13.7476 21.9534H13.7002L13.6819 21.8888H13.626L13.6331 21.9534H13.5825L13.5439 21.8367H13.4602L13.4851 21.9534H13.4277C13.426 21.9454 13.4243 21.9374 13.4231 21.9291C13.4199 21.9093 13.4182 21.8885 13.4177 21.8662L13.4175 21.8438C13.4172 21.8336 13.4175 21.823 13.418 21.812L13.137 21.7461C13.1338 21.8254 13.1245 21.884 13.0942 21.9414H12.9346L12.8198 21.8215L12.8787 21.7939L13.0078 21.9259L13.0581 21.7622L12.8989 21.7368L12.8772 21.6788L13.5439 21.6355V21.5481L12.7695 21.6113V21.6858L12.8037 21.6836L12.863 21.7311L12.8477 21.7286V21.7598L12.8049 21.8154L12.7695 21.8367L12.8389 21.9531H12.7114L12.7 21.8627V21.7488L12.624 21.6265H12.4995L12.4341 21.5759V21.3925L12.3877 21.3165L12.3225 21.2216L12.4468 21.1057L12.5977 21.0582V21.1721L12.5815 21.2465V21.4493H12.6355L12.6616 21.0677L12.6223 21.0583L12.6208 21.0646L12.6165 21.0522L12.6345 21.0466V20.9412L12.417 20.5619L12.8721 20.4673L12.8384 21.0433L12.9316 21.0251L12.9731 20.4413L13.217 20.3634L13.2041 21.007L13.2793 20.9913L13.3184 20.3634L13.5881 20.309L13.5181 21.0251L12.719 21.1445L12.6968 21.3469L12.8125 21.3368V21.3754L12.7305 21.3823L12.751 21.5109L13.0356 21.4922V21.4047H12.8711V21.3317L13.5681 21.2706L13.5906 21.1757L12.7539 21.2767V21.2271L13.5881 21.0927L13.6841 20.2773H13.7256L13.6353 21.1096L13.8181 21.2081L13.8672 21.1271L13.6992 21.0575L13.7844 20.2885L14.1177 20.4884L14.0295 21.0575L14.1165 21.0227L14.1785 20.5319L14.5959 20.8014L14.5396 21.1271L14.5415 21.1293L14.52 21.2419L14.501 21.2147L14.4172 21.1143L14.3799 21.1235L14.5159 21.3004L14.594 21.5387L14.5681 21.7399L14.46 21.9856L14.3479 22.116L14.4062 22.1354L14.46 22.0861L14.4634 22.0807L14.516 22.0739L14.5403 22.138L14.5154 22.1719L14.7512 22.2504L14.7511 22.2483L14.7539 22.25H14.7783V22.2574L14.8994 22.2686V21.9576L14.9517 21.7864L15.0427 21.6355L15.1843 21.4996L15.2998 21.4177H15.2253L15.0112 21.5387L14.8789 21.7286L14.7783 21.9856V22.1988L14.7469 22.1863L14.7429 22.1267L14.5866 22.1034L14.5781 22.0876V22.0704L14.6426 22.0042L14.728 21.8069L14.7429 21.6729L14.7461 21.6716V21.585L14.728 21.5084L14.6426 21.2327L14.6128 21.266L14.728 21.5759L14.7095 21.7399L14.5528 22.0456L14.5262 22.0565L14.4832 22.0477L14.5493 21.9391L14.6277 21.751L14.6575 21.6002L14.6277 21.4587L14.594 21.3469L14.5681 21.2837L14.6128 21.2058L14.615 21.2081L14.6157 21.204L14.6162 21.2017L14.6799 20.8594L15.0249 21.0623L14.9756 21.3918L14.728 21.2706L14.7783 21.4177L14.7932 21.5574L14.8005 21.5632L14.7947 21.5722L14.8203 21.5938L14.8313 21.5872L14.8789 21.6244L14.9583 21.5084L14.9541 21.5356L15.0554 21.4342L15.085 21.114L15.3545 21.2434L15.7646 21.4658L15.781 21.4482L15.9048 21.5084L15.9182 21.514L16.282 21.6886L16.2834 21.6907L16.2361 21.7654L16.1931 21.7445L16.2083 21.7286L15.9998 21.6244V21.6355L15.9458 21.6877L16.1023 21.7733L16.0686 21.913L16.1301 21.8925L16.1538 21.8246L16.1606 21.8342L16.1194 22.084V22.1267L16.0857 22.212H15.9307L15.8594 22.4375H15.7832L15.8098 22.384L15.8713 22.1941V21.7733L15.7893 21.6355L15.7305 21.5905V21.5468L15.8098 21.6002L15.8936 21.6989L15.8286 21.5481L15.7205 21.4717L15.6497 21.4493V21.4922L15.6602 21.4993V21.5367L15.5752 21.4717L15.687 21.6244L15.7297 21.7156L15.5665 21.8866L15.6004 21.926L15.7727 21.7733L15.8098 21.8776V21.9949L15.6561 22.0106L15.6717 22.0488H15.8098L15.7893 22.1625L15.6736 22.1346L15.6642 22.1882L15.7727 22.2369L15.7297 22.3505L15.5901 22.2202L15.6147 22.1883L15.6298 22.124L15.6274 22.1234V22.0488H15.6319L15.6149 21.9914L15.5809 21.9545L15.5302 21.9222H15.5V21.7572L15.5325 21.4811L15.4617 21.4996L15.4412 21.8776H15.4531V21.9275L15.4243 21.9454L15.3806 21.887L15.2588 21.6244L15.2029 21.6729L15.3091 21.8273L15.1304 21.751L15.0986 21.8273L15.3262 21.9066L15.3838 21.9705L15.3445 21.9949L15.3276 22.1345L15.4041 22.2369L15.4858 22.2686L15.5454 22.2574L15.7 22.4249L15.6953 22.4375H15.6072L15.5454 22.3337H15.5046V22.4286L15.4072 22.3821L15.4282 22.3188L15.3799 22.3021L15.345 22.3525L15.2603 22.3121L15.2998 22.2686L15.2849 22.2202H14.9832L15.002 22.2778L15.158 22.3286L15.3101 22.4032L15.3162 22.4062L15.332 22.4141L15.5547 22.5078L15.6985 22.5H18.4189C18.4727 22.5 18.5259 22.5087 18.5769 22.5256L20.4626 22.8209C20.748 22.916 21.052 22.7395 21.1111 22.4446L23.9824 8.08838C23.9943 8.02936 23.9986 7.96989 24 7.90991C24 7.40735 23.5925 7 23.0901 7H2.90991Z" fill="hsl(0, 0%, 100%)"/><path d="M0,9.5 H26 V15.5 H0 Z" fill="none" id="mapbox-text-placeholder"/></g></svg>