<svg xmlns="http://www.w3.org/2000/svg" id="us-state-california-2" width="20" height="23" viewBox="0 0 20 23"><g><path d="M0,0 H20 V23 H0 Z" fill="none"/><path d="M19 15.5V13C19 5.5 13 1 10 1C7 1 1 5.5 1 13V15.4762C1 19 5.5 20 10 20C14.5 20 19 19.0238 19 15.5Z" fill="none" stroke="hsl(140, 74%, 37%)" stroke-linejoin="round" stroke-miterlimit="4px" stroke-width="2"/><path d="M19 15.5V13C19 5.5 13 1 10 1C7 1 1 5.5 1 13V15.4762C1 19 5.5 20 10 20C14.5 20 19 19.0238 19 15.5Z" fill="hsl(0, 0%, 100%)"/><path d="M18 13V15.5C18 16.1479 17.8003 16.6417 17.4603 17.0473C17.1053 17.4706 16.5585 17.8418 15.8116 18.1448C14.3026 18.7569 12.2056 19 10 19C7.79641 19 5.69992 18.7513 4.1912 18.134C3.44431 17.8284 2.89675 17.4546 2.54094 17.0286C2.19983 16.6202 2 16.1242 2 15.4762V13C2 9.52999 3.38502 6.76309 5.11494 4.86017C5.98165 3.90679 6.9262 3.18054 7.80844 2.69741C8.70565 2.20608 9.47515 2 10 2C10.5248 2 11.2943 2.20608 12.1916 2.69741C13.0738 3.18054 14.0183 3.90679 14.8851 4.86017C16.615 6.76309 18 9.52999 18 13Z" fill="hsl(140, 74%, 37%)"/><path d="M0,8.5 H20 V14.5 H0 Z" fill="none" id="mapbox-text-placeholder"/></g></svg>