<svg xmlns="http://www.w3.org/2000/svg" id="us-state-oklahoma-2" width="20" height="23" viewBox="0 0 20 23"><g><path d="M0,0 H20 V23 H0 Z" fill="none"/><path d="M17 1H3C1.89543 1 1 1.89543 1 3V17C1 18.1046 1.89543 19 3 19H17C18.1046 19 19 18.1046 19 17V3C19 1.89543 18.1046 1 17 1Z" fill="none" stroke="hsl(0, 0%, 100%)" stroke-linejoin="round" stroke-miterlimit="4px" stroke-width="2"/><path d="M17 1H3C1.89543 1 1 1.89543 1 3V17C1 18.1046 1.89543 19 3 19H17C18.1046 19 19 18.1046 19 17V3C19 1.89543 18.1046 1 17 1Z" fill="hsl(230, 18%, 13%)"/><path d="M2 3C2 2.44772 2.44772 2 3 2H17C17.5523 2 18 2.44772 18 3V17C18 17.5523 17.5523 18 17 18H3C2.44772 18 2 17.5523 2 17V3ZM4 3C3.44772 3 3 3.44771 3 4V5C3 5.55228 3.44772 6 4 6H8V7H9V6C9 5.44772 8.55228 5 8 5H4V4H15.1533L16 6.26161V10.691L15.2764 11.0528L15.7236 11.9472L16.4472 11.5854C16.786 11.416 17 11.0698 17 10.691V6.26161C17 6.14188 16.9785 6.02313 16.9365 5.911L16.0898 3.64939C15.9436 3.25882 15.5703 3 15.1533 3H4Z" fill="hsl(0, 0%, 100%)"/><path d="M0,8.5 H20 V14.5 H0 Z" fill="none" id="mapbox-text-placeholder"/></g></svg>