<svg xmlns="http://www.w3.org/2000/svg" id="us-state-oregon-3" width="26" height="21" viewBox="0 0 26 21"><g><path d="M0,0 H26 V21 H0 Z" fill="none"/><path d="M23 2H3C1.89543 2 1 2.89543 1 4V18C1 19.1046 1.89543 20 3 20H23C24.1046 20 25 19.1046 25 18V4C25 2.89543 24.1046 2 23 2Z" fill="none" stroke="hsl(0, 0%, 100%)" stroke-linejoin="round" stroke-miterlimit="4px" stroke-width="2"/><path d="M23 2H3C1.89543 2 1 2.89543 1 4V18C1 19.1046 1.89543 20 3 20H23C24.1046 20 25 19.1046 25 18V4C25 2.89543 24.1046 2 23 2Z" fill="hsl(230, 18%, 13%)"/><path d="M24 8C24 14.5 18.5 19 13 19C7.5 19 2 14.5 2 8C2 4.5 6.125 3 13 3C19.875 3 24 4.5 24 8Z" fill="hsl(0, 0%, 100%)"/><path d="M0,7.5 H26 V13.5 H0 Z" fill="none" id="mapbox-text-placeholder"/></g></svg>