<svg xmlns="http://www.w3.org/2000/svg" id="us-state-vermont-3" width="26" height="24" viewBox="0 0 26 24"><g><path d="M0,0 H26 V24 H0 Z" fill="none"/><path d="M23 1H3C1.89543 1 1 1.89543 1 3V17C1 18.1046 1.89543 19 3 19H23C24.1046 19 25 18.1046 25 17V3C25 1.89543 24.1046 1 23 1Z" fill="none" stroke="hsl(0, 0%, 100%)" stroke-linejoin="round" stroke-miterlimit="4px" stroke-width="2"/><path d="M23 1H3C1.89543 1 1 1.89543 1 3V17C1 18.1046 1.89543 19 3 19H23C24.1046 19 25 18.1046 25 17V3C25 1.89543 24.1046 1 23 1Z" fill="hsl(140, 74%, 37%)"/><path d="M3 2C2.44772 2 2 2.44772 2 3V4C2 4.55228 2.44772 5 3 5H23C23.5523 5 24 4.55228 24 4V3C24 2.44772 23.5523 2 23 2H3Z M5.30278 6C5.10535 6 4.91355 6.05706 4.7599 6.18103C4.04832 6.75514 2 8.69479 2 12C2 15.3052 4.04832 17.2449 4.7599 17.819C4.91356 17.9429 5.10535 18 5.30278 18H20.6972C20.8946 18 21.0864 17.9429 21.2401 17.819C21.9517 17.2449 24 15.3052 24 12C24 8.69479 21.9517 6.75514 21.2401 6.18103C21.0864 6.05706 20.8946 6 20.6972 6H5.30278Z" fill="hsl(0, 0%, 100%)"/><path d="M0,9 H26 V15 H0 Z" fill="none" id="mapbox-text-placeholder"/></g></svg>