<svg xmlns="http://www.w3.org/2000/svg" id="us-state-pennsylvania-3" width="26" height="21" viewBox="0 0 26 21"><g><path d="M0,0 H26 V21 H0 Z" fill="none"/><path d="M23 1H3C1.89543 1 1 1.89543 1 3V17C1 18.1046 1.89543 19 3 19H23C24.1046 19 25 18.1046 25 17V3C25 1.89543 24.1046 1 23 1Z" fill="none" stroke="hsl(0, 0%, 100%)" stroke-linejoin="round" stroke-miterlimit="4px" stroke-width="2"/><path d="M23 1H3C1.89543 1 1 1.89543 1 3V17C1 18.1046 1.89543 19 3 19H23C24.1046 19 25 18.1046 25 17V3C25 1.89543 24.1046 1 23 1Z" fill="hsl(230, 18%, 13%)"/><path d="M5.39787 18C5.16504 18 4.96302 17.8393 4.91067 17.6124L2.14144 5.61243C2.06914 5.29912 2.30709 5 2.62863 5H4.90988C5.21885 5 5.45387 4.72257 5.40308 4.4178L5.09714 2.5822C5.04635 2.27743 5.28137 2 5.59034 2H20.4099C20.7188 2 20.9539 2.27743 20.9031 2.5822L20.5971 4.4178C20.5463 4.72257 20.7814 5 21.0903 5H23.3716C23.6931 5 23.9311 5.29912 23.8588 5.61243L21.0895 17.6124C21.0372 17.8393 20.8352 18 20.6024 18H5.39787Z" fill="hsl(0, 0%, 100%)"/><path d="M0,7.5 H26 V13.5 H0 Z" fill="none" id="mapbox-text-placeholder"/></g></svg>