<svg xmlns="http://www.w3.org/2000/svg" id="us-state-arkansas-4" width="32" height="21" viewBox="0 0 32 21"><g><path d="M0,0 H32 V21 H0 Z" fill="none"/><path d="M29 2H3C1.89543 2 1 2.89543 1 4V18C1 19.1046 1.89543 20 3 20H29C30.1046 20 31 19.1046 31 18V4C31 2.89543 30.1046 2 29 2Z" fill="none" stroke="hsl(0, 0%, 100%)" stroke-linejoin="round" stroke-miterlimit="4px" stroke-width="2"/><path d="M29 2H3C1.89543 2 1 2.89543 1 4V18C1 19.1046 1.89543 20 3 20H29C30.1046 20 31 19.1046 31 18V4C31 2.89543 30.1046 2 29 2Z" fill="hsl(230, 18%, 13%)"/><path d="M2.51954 3C2.23586 3 2.00901 3.23575 2.01991 3.51922L2.48145 15.5192C2.49177 15.7877 2.71241 16 2.98108 16H4.49994C4.77608 16 4.99994 16.2239 4.99994 16.5V18.5C4.99994 18.7761 5.2238 19 5.49994 19H27.4999C27.7761 19 27.9999 18.7761 27.9999 18.5V16.1026C27.9999 16.0349 28.0137 15.9679 28.0404 15.9057L29.9595 9.09433C29.9862 9.03209 29.9999 8.96508 29.9999 8.89737V6.16877C29.9999 6.05929 29.964 5.95284 29.8977 5.86575L27.8643 3.19698C27.7697 3.07285 27.6226 3 27.4666 3H2.51954Z" fill="hsl(0, 0%, 100%)"/><path d="M0,7.5 H32 V13.5 H0 Z" fill="none" id="mapbox-text-placeholder"/></g></svg>