<svg xmlns="http://www.w3.org/2000/svg" id="us-state-newhampshire-turnpike-spaulding" width="20" height="24" viewBox="0 0 20 24"><g><path d="M0,0 H20 V24 H0 Z" fill="none"/><path d="M1 3C1 1.89543 1.89543 1 3 1H17C18.1046 1 19 1.89543 19 3V16.8445C19 17.6078 18.8627 18.3723 18.4324 19.0027C17.4361 20.4623 14.9869 23 10 23C5.01312 23 2.56389 20.4623 1.5676 19.0027C1.13727 18.3723 1 17.6078 1 16.8445V3Z" fill="none" stroke="hsl(0, 0%, 100%)" stroke-linejoin="round" stroke-miterlimit="4px" stroke-width="2"/><path d="M1 3C1 1.89543 1.89543 1 3 1H17C18.1046 1 19 1.89543 19 3V16.8445C19 17.6078 18.8627 18.3723 18.4324 19.0027C17.4361 20.4623 14.9869 23 10 23C5.01312 23 2.56389 20.4623 1.5676 19.0027C1.13727 18.3723 1 17.6078 1 16.8445V3Z" fill="hsl(230, 57%, 54%)"/><path d="M8.5532 4.86567C8.67342 4.97512 8.73353 5.12438 8.73353 5.31343C8.73353 5.48756 8.66841 5.63433 8.53818 5.75373C8.41295 5.87313 8.26018 5.93284 8.07985 5.93284H7.74174V4.70149H8.07985C8.2752 4.70149 8.43299 4.75622 8.5532 4.86567Z M17 2H3C2.44772 2 2 2.44772 2 3V16.8445C2 17.5032 2.12097 18.0397 2.39353 18.439C3.25257 19.6975 5.42203 22 10 22C14.578 22 16.7474 19.6975 17.6065 18.439C17.879 18.0397 18 17.5032 18 16.8445V3C18 2.44772 17.5523 2 17 2ZM10 10C12.7614 10 15 12.2386 15 15C15 17.7614 12.7614 20 10 20C7.23858 20 5 17.7614 5 15C5 12.2386 7.23858 10 10 10ZM5.64547 4.67164V9H4.91665V4.67164H4V4H6.56212V4.67164H5.64547ZM7.74174 6.64925V9H7.02044V4H8.11742C8.51313 4 8.8312 4.12189 9.07164 4.36567C9.31708 4.60945 9.4398 4.93284 9.4398 5.33582C9.43479 5.69403 9.31458 6.00249 9.07915 6.26119C8.84874 6.5199 8.49811 6.64925 8.02726 6.64925H7.74174ZM12.866 9H12.1071L11.2205 6.5597L10.7622 7.32836V9H10.0409V4H10.7622V6L11.9418 4H12.7382L11.7014 5.75373L12.866 9ZM13.4379 9V4H15.8046V4.70149H14.1592V5.96269H15.2036V6.64925H14.1592V8.29851H16V9H13.4379Z" fill="hsl(0, 0%, 100%)"/></g></svg>