<svg xmlns="http://www.w3.org/2000/svg" id="us-state-oklahoma-turnpike" width="20" height="20" viewBox="0 0 20 20"><g><path d="M0,0 H20 V20 H0 Z" fill="none"/><path d="M17 1H3C1.89543 1 1 1.89543 1 3V17C1 18.1046 1.89543 19 3 19H17C18.1046 19 19 18.1046 19 17V3C19 1.89543 18.1046 1 17 1Z" fill="none" stroke="hsl(0, 0%, 100%)" stroke-linejoin="round" stroke-miterlimit="4px" stroke-width="2"/><path d="M17 1H3C1.89543 1 1 1.89543 1 3V17C1 18.1046 1.89543 19 3 19H17C18.1046 19 19 18.1046 19 17V3C19 1.89543 18.1046 1 17 1Z" fill="hsl(230, 18%, 13%)"/><path d="M10 3.5C6.41015 3.5 3.5 6.41015 3.5 10C3.5 12.4059 4.80715 14.5065 6.75 15.6304L10 10L13.25 15.6304C15.1929 14.5065 16.5 12.4059 16.5 10C16.5 6.41015 13.5899 3.5 10 3.5Z M10 16.5C9.68792 16.5 9.38098 16.478 9.08065 16.4355L9.21429 15.5H10.7938L10.9286 16.4342C10.6253 16.4776 10.3153 16.5 10 16.5Z M9.71429 12H10.2886L10.1296 10.898H9.87172L9.71429 12Z M10.4182 12.8978H9.58603L9.37109 14.4024H10.6353L10.4182 12.8978Z M2 3C2 2.44772 2.44772 2 3 2H17C17.5523 2 18 2.44772 18 3V17C18 17.5523 17.5523 18 17 18H3C2.44772 18 2 17.5523 2 17V3ZM2.5 10C2.5 14.1421 5.85786 17.5 10 17.5C14.1421 17.5 17.5 14.1421 17.5 10C17.5 5.85786 14.1421 2.5 10 2.5C5.85786 2.5 2.5 5.85786 2.5 10Z" fill="hsl(0, 0%, 100%)"/><path d="M3.5 10C3.5 6.41015 6.41015 3.5 10 3.5C13.5899 3.5 16.5 6.41015 16.5 10C16.5 11.381 16.0693 12.6614 15.3349 13.7143L10 10L4.66507 13.7143C3.93069 12.6614 3.5 11.381 3.5 10Z" fill="hsl(140, 74%, 37%)"/></g></svg>