<svg xmlns="http://www.w3.org/2000/svg" id="us-state-southcarolina-2" width="20" height="24" viewBox="0 0 20 24"><g><path d="M0,0 H20 V24 H0 Z" fill="none"/><path d="M17 1H3C1.89543 1 1 1.89543 1 3V17C1 18.1046 1.89543 19 3 19H17C18.1046 19 19 18.1046 19 17V3C19 1.89543 18.1046 1 17 1Z" fill="none" stroke="hsl(0, 0%, 100%)" stroke-linejoin="round" stroke-miterlimit="4px" stroke-width="2"/><path d="M17 1H3C1.89543 1 1 1.89543 1 3V17C1 18.1046 1.89543 19 3 19H17C18.1046 19 19 18.1046 19 17V3C19 1.89543 18.1046 1 17 1Z" fill="hsl(230, 57%, 54%)"/><path d="M8.34915 3.41156V3.44107C8.60633 3.8964 8.42082 4.26741 7.9402 4.38124L7.91912 4.41919C8.56838 4.64685 8.97312 3.81208 8.34915 3.41156Z M9.83573 2H8.05046C8.01691 2 7.98342 2.0033 7.9506 2.01031C7.3753 2.13309 6.80703 2.35218 6.41016 2.80078C6.1461 3.09925 5.99052 3.43206 5.99996 4C6.00352 4.21392 6.23669 4.45436 6.47695 4.7021C6.57252 4.80064 6.66923 4.90035 6.75303 5H3C2.44772 5 2 5.44772 2 6V17C2 17.5523 2.44772 18 3 18H17C17.5523 18 18 17.5523 18 17V6C18 5.44772 17.5523 5 17 5H14.253C14.2371 4.97615 14.219 4.95362 14.1989 4.93269L12.1555 2.79872C12.0611 2.70023 11.9307 2.64453 11.7943 2.64453H11.0393C10.9326 2.64453 10.8287 2.61039 10.7427 2.5471L10.1323 2.09743C10.0463 2.03414 9.94244 2 9.83573 2ZM9.63145 7.50652C9.55857 7.39367 9.38822 7.32481 9.38822 7.32481C9.38822 7.32481 9.35619 6.94002 9.24157 6.73005C9.11493 6.49806 8.76303 6.25148 8.76303 6.25148C8.76303 6.25148 8.71575 6.06915 8.65466 5.96729C8.58597 5.85275 8.42449 5.71435 8.42449 5.71435L7.88276 5.09589L7.65707 4.86113C7.65707 4.86113 7.51892 4.5008 7.36815 4.31038C7.25746 4.17059 7.0386 3.99435 7.0386 3.99435L6.83542 3.88591L6.79476 3.70997C6.79476 3.70997 6.86837 3.51992 6.95733 3.43015C7.05292 3.33371 7.2598 3.25863 7.2598 3.25863L8.10753 2.7671L9.8962 3.07791L9.92328 3.18625L10.158 3.25863L10.1851 3.64672L11.6839 3.70997L13.2052 5.17258C13.2052 5.17258 12.8108 5.41342 12.6139 5.62854C12.429 5.83053 12.2301 6.21541 12.2301 6.21541L12.3114 6.29215C12.3114 6.29215 12.1061 6.52538 11.9367 6.6217C11.8433 6.67479 11.6839 6.73005 11.6839 6.73005L11.5485 7.01897C11.5485 7.01897 11.381 7.09846 11.2821 7.16343C11.1327 7.26159 10.9345 7.46138 10.9345 7.46138L10.5372 7.50652H10.395L10.4108 6.69393L10.465 6.39598L10.4876 6.35084L10.465 6.11609L10.7088 6.21541L10.8758 6.07546L11.1647 6.11609H11.2821L11.2234 5.86328L11.3679 5.71435L11.5123 5.62854L11.5485 5.4299L11.3679 5.12744L11.2234 5.05521H11.5801L11.6658 4.86113L11.5801 4.73469L11.2821 4.70309L11.1647 4.66697L11.3092 4.35548L11.2009 4.28776H10.9345L10.8758 4.10719L10.7765 4.03044L10.4876 4.10719L10.3792 3.97627H10.1084L9.92328 3.94919L9.73343 4.06656L9.60728 4.23359L9.47636 4.31038H9.21001L9.15132 4.46135L8.94366 4.48243L8.83532 4.70309L8.71794 4.73469V4.93784L8.65466 5.19967L8.71794 5.2719H8.83532L8.91206 5.39379V5.48859H8.99332L8.91206 5.71435L8.94366 5.86328L9.15132 5.93551L9.21001 6.11609H9.3003V6.25148L9.38822 6.35084L9.63145 6.37341L9.92328 6.07546L9.95488 6.18381L9.8962 6.39598L9.92328 6.48176L10.0316 6.6217V7.50652H9.63145Z" fill="hsl(0, 0%, 100%)"/><path d="M0,9 H20 V15 H0 Z" fill="none" id="mapbox-text-placeholder"/></g></svg>