<svg xmlns="http://www.w3.org/2000/svg" id="us-state-northcarolina-parkway-blueridge" width="20" height="17" viewBox="0 0 20 17"><g><path d="M0,0 H20 V17 H0 Z" fill="none"/><path d="M17 1H3C1.89543 1 1 1.89543 1 3V14C1 15.1046 1.89543 16 3 16H17C18.1046 16 19 15.1046 19 14V3C19 1.89543 18.1046 1 17 1Z" fill="none" stroke="hsl(25, 34%, 34%)" stroke-linejoin="round" stroke-miterlimit="4px" stroke-width="2"/><path d="M17 1H3C1.89543 1 1 1.89543 1 3V14C1 15.1046 1.89543 16 3 16H17C18.1046 16 19 15.1046 19 14V3C19 1.89543 18.1046 1 17 1Z" fill="hsl(0, 0%, 100%)"/><path d="M15.3824 8.52941L15.3571 8H14.0308C14.0103 8 13.99 8.00251 13.9701 8.00746L12.1373 8.46567C12.0521 8.48697 11.962 8.46201 11.8999 8.39991L11.5732 8.07322C11.5263 8.02634 11.4628 8 11.3964 8H10.25C10.1119 8 10 7.88807 10 7.75V7.69519C10 7.58048 10.0781 7.48048 10.1894 7.45266L12 7L13.4309 6.52302C13.476 6.50799 13.5245 6.50612 13.5706 6.51766L15.3072 6.95181L15.2805 6.39024L14.5528 6.02639C14.5181 6.00904 14.4798 6 14.441 6H13.25C13.1119 6 13 5.88807 13 5.75V5.65451C13 5.55982 13.0535 5.47325 13.1382 5.4309L13.9472 5.02639C13.9819 5.00904 14.0202 5 14.059 5H15.2143L15.1842 4.36842L15.0691 4.1382C15.0268 4.0535 14.9402 4 14.8455 4H13.059C13.0202 4 12.9819 3.99096 12.9472 3.97361L12.1382 3.5691C12.0535 3.52675 12 3.44018 12 3.34549V3.19519C12 3.08048 12.0781 2.98048 12.1894 2.95266L13.9701 2.50746C13.99 2.50251 14.0103 2.5 14.0308 2.5H14.833C14.9758 2.5 15.0896 2.38069 15.0828 2.23811L15 0.5H15.5L15.6869 2.46206C15.695 2.54787 15.7468 2.62342 15.8239 2.66197L16.3388 2.91942C16.4351 2.96754 16.5513 2.94868 16.6274 2.87259L16.9268 2.57322C16.9737 2.52634 17.0372 2.5 17.1036 2.5H17.25C17.3881 2.5 17.5 2.61193 17.5 2.75V2.84549C17.5 2.94018 17.4465 3.02675 17.3618 3.0691L16.792 3.35402C16.6483 3.42584 16.6173 3.61726 16.7308 3.73082C16.8545 3.85449 16.8048 4.06507 16.6389 4.12038L15.8692 4.37692L15.9211 4.92105L16.4268 5.42678C16.4737 5.47366 16.5372 5.5 16.6036 5.5H17.25C17.3881 5.5 17.5 5.61193 17.5 5.75C17.5 5.88807 17.3881 6 17.25 6H17.059C17.0202 6 16.9819 6.00904 16.9472 6.02639L16.0682 6.46591L16.075 6.5375L16.9472 6.97361C16.9819 6.99096 17.0202 7 17.059 7H18.25C18.3881 7 18.5 7.11193 18.5 7.25V7.28822C18.5 7.41043 18.4116 7.51473 18.2911 7.53482L16.2031 7.88281L16.2442 8.31395L17.4701 8.00746C17.49 8.00251 17.5103 8 17.5308 8H18.25C18.3881 8 18.5 8.11193 18.5 8.25C18.5 8.38807 18.3881 8.5 18.25 8.5H18.1036C18.0372 8.5 17.9737 8.52634 17.9268 8.57322L17.5417 8.95827C17.5143 8.98571 17.4808 9.00639 17.444 9.01866L16.3462 9.38461L16.4463 10.4362C17.2058 10.2003 18.1229 10 19 10V14H1V11L2.94721 10.0264C2.98193 10.009 3.02021 10 3.05902 10H4.39645C4.46275 10 4.52634 9.97366 4.57322 9.92678L5.32322 9.17678C5.42085 9.07915 5.57915 9.07915 5.67678 9.17678L5.82322 9.32322C5.92085 9.42085 6.07915 9.42085 6.17678 9.32322L6.82322 8.67678C6.92085 8.57915 7.07915 8.57915 7.17678 8.67678L8.42678 9.92678C8.47366 9.97366 8.53725 10 8.60355 10H9.97525C9.99171 10 10.0081 10.0016 10.0243 10.0049L15 11C11.134 11 8 11.9477 8 12.5C8 13.1559 9.3483 13.3816 11.3671 13.4593C12.5 12 15 11 15 11C15.1271 10.9364 15.2931 10.8607 15.4895 10.7798L15.4286 9.5H14.1036C14.0372 9.5 13.9737 9.47366 13.9268 9.42678L13.8122 9.31222C13.6748 9.17481 13.7398 8.94004 13.9284 8.89291L15.3824 8.52941Z" fill="hsl(25, 34%, 34%)"/></g></svg>