<svg xmlns="http://www.w3.org/2000/svg" id="us-state-newmexico-4" width="33" height="21" viewBox="0 0 33 21"><g><path d="M0,0 H33 V21 H0 Z" fill="none"/><path d="M30 1H3C1.89543 1 1 1.89543 1 3V18C1 19.1046 1.89543 20 3 20H30C31.1046 20 32 19.1046 32 18V3C32 1.89543 31.1046 1 30 1Z" fill="none" stroke="hsl(0, 0%, 100%)" stroke-linejoin="round" stroke-miterlimit="4px" stroke-width="2"/><path d="M30 1H3C1.89543 1 1 1.89543 1 3V18C1 19.1046 1.89543 20 3 20H30C31.1046 20 32 19.1046 32 18V3C32 1.89543 31.1046 1 30 1Z" fill="hsl(230, 18%, 13%)"/><path d="M31 10.5C31 16 26 19 16.5 19C7 19 2 16 2 10.5C2 5 7 2 16.5 2C26 2 31 5 31 10.5Z" fill="hsl(0, 0%, 100%)"/><path d="M17 18.9972C16.8347 18.9991 16.6681 19 16.5 19C16.3319 19 16.1653 18.9991 16 18.9972V17.9971C15.6598 17.9932 15.3264 17.9851 15 17.9732V18.9738C14.6602 18.9617 14.3269 18.9453 14 18.9247V17.9226C10.5862 17.7012 7.99442 17.012 6.19549 15.9511C4.87704 15.1736 3.97269 14.1926 3.47115 13H2.40051C2.28869 12.6788 2.20015 12.3455 2.13506 12H3.1555C3.085 11.6796 3.03855 11.3463 3.01599 11H2.01415C2.00472 10.8357 2 10.669 2 10.5C2 10.331 2.00472 10.1643 2.01415 10H3.01599C3.03855 9.65371 3.085 9.32042 3.1555 9H2.13506C2.20015 8.65455 2.28869 8.32116 2.40051 8H3.47115C3.97269 6.80736 4.87704 5.82641 6.19549 5.04887C7.99442 3.98795 10.5862 3.2988 14 3.07738V2.07532C14.3269 2.05473 14.6602 2.03835 15 2.02618V3.02685C15.3264 3.01485 15.6598 3.00684 16 3.00288V2.00281C16.1653 2.00094 16.3319 2 16.5 2C16.6681 2 16.8347 2.00094 17 2.00281V3.00288C17.3402 3.00684 17.6736 3.01485 18 3.02685V2.02618C18.3398 2.03835 18.6731 2.05473 19 2.07532V3.07738C22.4138 3.2988 25.0056 3.98795 26.8045 5.04887C28.123 5.82641 29.0273 6.80736 29.5289 8H30.5995C30.7113 8.32116 30.7998 8.65455 30.8649 9H29.8445C29.915 9.32042 29.9615 9.65371 29.984 10H30.9858C30.9953 10.1643 31 10.331 31 10.5C31 10.669 30.9953 10.8357 30.9858 11H29.984C29.9615 11.3463 29.915 11.6796 29.8445 12H30.8649C30.7998 12.3455 30.7113 12.6788 30.5995 13H29.5289C29.0273 14.1926 28.123 15.1736 26.8045 15.9511C25.0056 17.012 22.4138 17.7012 19 17.9226V18.9247C18.6731 18.9453 18.3398 18.9617 18 18.9738V17.9732C17.6736 17.9851 17.3402 17.9932 17 17.9971V18.9972ZM6.70347 15.0898C8.69567 16.2647 11.904 17 16.5 17C21.096 17 24.3043 16.2647 26.2965 15.0898C28.1522 13.9954 29 12.5102 29 10.5C29 8.48981 28.1522 7.00461 26.2965 5.91023C24.3043 4.73534 21.096 4 16.5 4C11.904 4 8.69567 4.73534 6.70347 5.91023C4.84778 7.00461 4 8.48981 4 10.5C4 12.5102 4.84778 13.9954 6.70347 15.0898Z" fill="hsl(0, 87%, 59%)"/><path d="M0,7.5 H33 V13.5 H0 Z" fill="none" id="mapbox-text-placeholder"/></g></svg>