<svg xmlns="http://www.w3.org/2000/svg" id="us-state-kansas-2" width="20" height="20" viewBox="0 0 20 20"><g><path d="M0,0 H20 V20 H0 Z" fill="none"/><path d="M17 1H3C1.89543 1 1 1.89543 1 3V17C1 18.1046 1.89543 19 3 19H17C18.1046 19 19 18.1046 19 17V3C19 1.89543 18.1046 1 17 1Z" fill="none" stroke="hsl(0, 0%, 100%)" stroke-linejoin="round" stroke-miterlimit="4px" stroke-width="2"/><path d="M17 1H3C1.89543 1 1 1.89543 1 3V17C1 18.1046 1.89543 19 3 19H17C18.1046 19 19 18.1046 19 17V3C19 1.89543 18.1046 1 17 1Z" fill="hsl(230, 18%, 13%)"/><path d="M9.6345 2.39172C9.83217 2.17989 10.1679 2.17989 10.3656 2.39172L11.2652 3.35571C11.4053 3.50582 11.6229 3.55504 11.8139 3.47983L13.057 2.99041C13.3284 2.88358 13.6332 3.0307 13.7184 3.3096L14.0942 4.54015C14.1551 4.73931 14.3329 4.87991 14.5408 4.8931L15.864 4.97707C16.1593 4.99581 16.3738 5.26547 16.3256 5.55742L16.1199 6.80478C16.0855 7.01389 16.1866 7.22203 16.3723 7.3242L17.5074 7.94877C17.7696 8.09305 17.8472 8.43384 17.6733 8.67742L16.9363 9.70941C16.8121 9.88324 16.8121 10.1167 16.9363 10.2906L17.6733 11.3226C17.8472 11.5661 17.7696 11.9069 17.5074 12.0512L16.3723 12.6758C16.1866 12.778 16.0855 12.9861 16.1199 13.1952L16.3256 14.4426C16.3738 14.7345 16.1593 15.0042 15.864 15.0229L14.5408 15.1069C14.3329 15.1201 14.1551 15.2607 14.0942 15.4598L13.7184 16.6904C13.6332 16.9693 13.3284 17.1164 13.057 17.0096L11.8139 16.5202C11.6229 16.4449 11.4053 16.4942 11.2652 16.6443L10.3656 17.6083C10.1679 17.8201 9.83217 17.8201 9.6345 17.6083L8.73491 16.6443C8.59483 16.4942 8.37723 16.4449 8.18619 16.5202L6.94307 17.0096C6.67171 17.1164 6.36689 16.9693 6.28171 16.6904L5.90588 15.4598C5.84505 15.2607 5.66717 15.1201 5.45935 15.1069L4.13615 15.0229C3.84085 15.0042 3.62634 14.7345 3.67448 14.4426L3.88016 13.1952C3.91465 12.9861 3.81354 12.778 3.62785 12.6758L2.4927 12.0512C2.23047 11.9069 2.15289 11.5661 2.32684 11.3226L3.06383 10.2906C3.18798 10.1167 3.18798 9.88324 3.06383 9.70941L2.32684 8.67742C2.15289 8.43384 2.23047 8.09305 2.4927 7.94877L3.62785 7.3242C3.81354 7.22203 3.91465 7.01389 3.88016 6.80478L3.67448 5.55742C3.62634 5.26547 3.84085 4.99581 4.13615 4.97707L5.45935 4.8931C5.66717 4.87991 5.84505 4.73931 5.90588 4.54015L6.28171 3.3096C6.36689 3.0307 6.67171 2.88358 6.94307 2.99041L8.18619 3.47983C8.37723 3.55504 8.59483 3.50582 8.73491 3.35571L9.6345 2.39172Z" fill="hsl(50, 100%, 70%)"/><path d="M0,7 H20 V13 H0 Z" fill="none" id="mapbox-text-placeholder"/></g></svg>