<svg xmlns="http://www.w3.org/2000/svg" id="us-state-southdakota-2" width="20" height="21" viewBox="0 0 20 21"><g><path d="M0,0 H20 V21 H0 Z" fill="none"/><path d="M17 2H3C1.89543 2 1 2.89543 1 4V18C1 19.1046 1.89543 20 3 20H17C18.1046 20 19 19.1046 19 18V4C19 2.89543 18.1046 2 17 2Z" fill="none" stroke="hsl(0, 0%, 100%)" stroke-linejoin="round" stroke-miterlimit="4px" stroke-width="2"/><path d="M17 2H3C1.89543 2 1 2.89543 1 4V18C1 19.1046 1.89543 20 3 20H17C18.1046 20 19 19.1046 19 18V4C19 2.89543 18.1046 2 17 2Z" fill="hsl(140, 74%, 37%)"/><path d="M2.92992 3.98181L2.07657 15.9288C2.03522 16.5076 2.49368 17 3.07403 17H3.88202C3.95964 17 4.03619 17.0181 4.10562 17.0528L4.89448 17.4472C4.9639 17.4819 5.04046 17.5 5.11808 17.5H8.79294C8.92555 17.5 9.05273 17.4473 9.1465 17.3536L9.3536 17.1464C9.44737 17.0527 9.57455 17 9.70716 17H10.882C10.9596 17 11.0362 17.0181 11.1056 17.0528L12.8945 17.9472C12.9639 17.9819 13.0405 18 13.1181 18H13.882C13.9596 18 14.0362 17.9819 14.1056 17.9472L14.7237 17.6382C14.893 17.5535 15.0958 17.5718 15.2473 17.6854L16.8667 18.9C16.9533 18.9649 17.0585 19 17.1667 19H17.5C17.7762 19 18 18.7761 18 18.5V16.118C18 16.0404 17.982 15.9639 17.9473 15.8944L17.2237 14.4472C17.1002 14.2002 17.2003 13.8999 17.4473 13.7764L17.6122 13.6939C17.8347 13.5827 17.9416 13.3247 17.8629 13.0886L17.5359 12.1076C17.5123 12.0368 17.5049 11.9615 17.5141 11.8875L17.9562 8.35103C17.9825 8.14067 17.8733 7.9366 17.6836 7.84179L17.2764 7.6382C17.1071 7.5535 17 7.38037 17 7.19098V5.41421C17 5.149 17.1054 4.89464 17.2929 4.70711L17.7929 4.20711C17.9256 4.0745 18 3.89464 18 3.70711C18 3.31658 17.6835 3 17.2929 3H17L13 3.5H12L3.98285 3.0546C3.43757 3.02431 2.96883 3.43708 2.92992 3.98181Z" fill="hsl(0, 0%, 100%)"/><path d="M0,7.5 H20 V13.5 H0 Z" fill="none" id="mapbox-text-placeholder"/></g></svg>