<svg xmlns="http://www.w3.org/2000/svg" id="us-state-square-4" width="32" height="20" viewBox="0 0 32 20"><g><path d="M0,0 H32 V20 H0 Z" fill="none"/><path d="M29 1H3C1.89543 1 1 1.89543 1 3V17C1 18.1046 1.89543 19 3 19H29C30.1046 19 31 18.1046 31 17V3C31 1.89543 30.1046 1 29 1Z" fill="none" stroke="hsl(0, 0%, 100%)" stroke-linejoin="round" stroke-miterlimit="4px" stroke-width="2"/><path d="M29 1H3C1.89543 1 1 1.89543 1 3V17C1 18.1046 1.89543 19 3 19H29C30.1046 19 31 18.1046 31 17V3C31 1.89543 30.1046 1 29 1Z" fill="hsl(230, 18%, 13%)"/><path d="M3 2C2.44771 2 2 2.44772 2 3V17C2 17.5523 2.44772 18 3 18H29C29.5523 18 30 17.5523 30 17V3C30 2.44772 29.5523 2 29 2H3Z" fill="hsl(0, 0%, 100%)"/><path d="M0,7 H32 V13 H0 Z" fill="none" id="mapbox-text-placeholder"/></g></svg>