<svg xmlns="http://www.w3.org/2000/svg" id="us-state-kentucky-highway-aa" width="20" height="18" viewBox="0 0 20 18"><g><path d="M0,0 H20 V18 H0 Z" fill="none"/><path d="M17 1H3C1.89543 1 1 1.89543 1 3V15C1 16.1046 1.89543 17 3 17H17C18.1046 17 19 16.1046 19 15V3C19 1.89543 18.1046 1 17 1Z" fill="none" stroke="hsl(0, 0%, 100%)" stroke-linejoin="round" stroke-miterlimit="4px" stroke-width="2"/><path d="M17 1H3C1.89543 1 1 1.89543 1 3V15C1 16.1046 1.89543 17 3 17H17C18.1046 17 19 16.1046 19 15V3C19 1.89543 18.1046 1 17 1Z" fill="hsl(230, 18%, 13%)"/><path d="M3 2C2.44772 2 2 2.44772 2 3V15C2 15.5523 2.44772 16 3 16H17C17.5523 16 18 15.5523 18 15V3C18 2.44772 17.5523 2 17 2H3Z" fill="hsl(0, 0%, 100%)"/><path d="M7.01987 4H5.98013L3.5 11H4.89269L5.30286 9.76124H7.70668L8.10731 11H9.5L7.01987 4ZM6.50477 6.07444L7.33466 8.61096H5.66534L6.50477 6.07444Z M2 13H18V15C18 15.5523 17.5523 16 17 16H3C2.44772 16 2 15.5523 2 15V13Z M12.9801 4H14.0199L16.5 11H15.1073L14.7067 9.76124H12.3029L11.8927 11H10.5L12.9801 4ZM14.3347 8.61096L13.5048 6.07444L12.6653 8.61096H14.3347Z" fill="hsl(230, 57%, 54%)"/></g></svg>