<svg xmlns="http://www.w3.org/2000/svg" id="us-state-wisconsin-3" width="26" height="20" viewBox="0 0 26 20"><g><path d="M0,0 H26 V20 H0 Z" fill="none"/><path d="M23 1H3C1.89543 1 1 1.89543 1 3V17C1 18.1046 1.89543 19 3 19H23C24.1046 19 25 18.1046 25 17V3C25 1.89543 24.1046 1 23 1Z" fill="none" stroke="hsl(0, 0%, 100%)" stroke-linejoin="round" stroke-miterlimit="4px" stroke-width="2"/><path d="M23 1H3C1.89543 1 1 1.89543 1 3V17C1 18.1046 1.89543 19 3 19H23C24.1046 19 25 18.1046 25 17V3C25 1.89543 24.1046 1 23 1Z" fill="hsl(230, 18%, 13%)"/><path d="M3 5H5L3.20711 3.20711C3.0745 3.0745 3 2.89464 3 2.70711C3 2.31658 3.31658 2 3.70711 2H22.2929C22.6834 2 23 2.31658 23 2.70711C23 2.89464 22.9255 3.0745 22.7929 3.20711L21 5H23C23.5523 5 24 5.44772 24 6V15.5C24 16.0523 23.5523 16.5 23 16.5H15.5704C14.9017 16.5 14.2772 16.8342 13.9063 17.3906L13.5 18H12.5L12.0937 17.3906C11.7228 16.8342 11.0983 16.5 10.4296 16.5H3C2.44772 16.5 2 16.0523 2 15.5V6C2 5.44772 2.44772 5 3 5Z" fill="hsl(0, 0%, 100%)"/><path d="M0,7 H26 V13 H0 Z" fill="none" id="mapbox-text-placeholder"/></g></svg>