<svg xmlns="http://www.w3.org/2000/svg" id="us-state-pennsylvania-turnpike" width="20" height="21" viewBox="0 0 20 21"><g><path d="M0,0 H20 V21 H0 Z" fill="none"/><path d="M4.19888 20C4.08246 20 3.98146 19.9196 3.95528 19.8062L1.0064 7.02774C1.00215 7.00931 1 6.99045 1 6.97153V5.25C1 5.11193 1.11193 5 1.25 5H3.75C3.88807 5 4 4.88807 4 4.75V1.25C4 1.11193 4.11193 1 4.25 1H15.75C15.8881 1 16 1.11193 16 1.25V4.75C16 4.88807 16.1119 5 16.25 5H18.75C18.8881 5 19 5.11193 19 5.25V6.97153C19 6.99045 18.9979 7.00931 18.9936 7.02774L16.0447 19.8062C16.0185 19.9196 15.9175 20 15.8011 20H4.19888Z" fill="none" stroke="hsl(0, 0%, 100%)" stroke-linejoin="round" stroke-miterlimit="4px" stroke-width="2"/><path d="M4.19888 20C4.08246 20 3.98146 19.9196 3.95528 19.8062L1.0064 7.02774C1.00215 7.00931 1 6.99045 1 6.97153V5.25C1 5.11193 1.11193 5 1.25 5H3.75C3.88807 5 4 4.88807 4 4.75V1.25C4 1.11193 4.11193 1 4.25 1H15.75C15.8881 1 16 1.11193 16 1.25V4.75C16 4.88807 16.1119 5 16.25 5H18.75C18.8881 5 19 5.11193 19 5.25V6.97153C19 6.99045 18.9979 7.00931 18.9936 7.02774L16.0447 19.8062C16.0185 19.9196 15.9175 20 15.8011 20H4.19888Z" fill="hsl(140, 74%, 37%)"/><path d="M5.43129 7H3V7.61966H3.88497V10.558H4.54632V7.61966H5.43129V7Z M8.41112 7H7.74977V9.31371C7.74977 9.71849 7.51663 9.96835 7.15979 9.96835C6.80294 9.96835 6.57932 9.71849 6.57932 9.31371V7H5.91797V9.3387C5.91797 10.0933 6.46513 10.588 7.15979 10.588C7.8592 10.588 8.41112 10.0933 8.41112 9.3387V7Z M9.14845 7V10.558H9.8098V9.13881H10.2856L10.9469 10.558H11.713L10.9565 9.02388C11.2847 8.90394 11.575 8.58912 11.575 8.08939C11.575 7.49473 11.1706 7 10.4759 7H9.14845ZM10.4378 7.61966C10.7281 7.61966 10.9136 7.80955 10.9136 8.0844C10.9136 8.36424 10.7281 8.55414 10.4378 8.55414H9.8098V7.61966H10.4378Z M14.8546 7H14.1932V9.17379L12.8515 7H12.2615V10.558H12.9229V8.38423L14.2694 10.558H14.8546V7Z M17 8.82399H15.5346V9.43365H17V8.82399Z M5.21759 11.442V15H5.87894V13.6607H6.53078C7.23495 13.6607 7.64889 13.156 7.64889 12.5514C7.64889 11.9467 7.23495 11.442 6.53078 11.442H5.21759ZM6.49747 12.0616C6.79722 12.0616 6.98754 12.2565 6.98754 12.5514C6.98754 12.8412 6.79722 13.0411 6.49747 13.0411H5.87894V12.0616H6.49747Z M8.86658 11.442H8.20523V15H8.86658V11.442Z M12.3287 11.442H11.5199L10.3209 12.9911V11.442H9.65955V15H10.3209V13.9306L10.7634 13.3809L11.6341 15H12.4096L11.2059 12.8562L12.3287 11.442Z M15.0599 11.442H12.8284V15H15.0599V14.3803H13.4897V13.5158H14.8315V12.8962H13.4897V12.0616H15.0599V11.442Z" fill="hsl(0, 0%, 100%)"/></g></svg>