<svg xmlns="http://www.w3.org/2000/svg" id="us-state-dc-4" width="32" height="32" viewBox="0 0 32 32"><g><path d="M0,0 H32 V32 H0 Z" fill="none"/><path d="M29 1H3C1.89543 1 1 1.89543 1 3V22C1 23.1046 1.89543 24 3 24H29C30.1046 24 31 23.1046 31 22V3C31 1.89543 30.1046 1 29 1Z" fill="none" stroke="hsl(0, 0%, 100%)" stroke-linejoin="round" stroke-miterlimit="4px" stroke-width="2"/><path d="M29 1H3C1.89543 1 1 1.89543 1 3V22C1 23.1046 1.89543 24 3 24H29C30.1046 24 31 23.1046 31 22V3C31 1.89543 30.1046 1 29 1Z" fill="hsl(230, 18%, 13%)"/><path d="M12.7681 5.71823C13.0114 5.71823 13.1874 5.80111 13.3064 5.96133C13.441 6.1326 13.4566 6.38122 13.4566 7C13.4566 7.62431 13.441 7.8674 13.3064 8.03867C13.1874 8.1989 13.0114 8.28177 12.7681 8.28177H12.2195V5.71823H12.7681Z M14.8514 2H13.1754L6 7.74031V8.23241L8.65139 10H9.75C10.0648 10 10.3611 10.1482 10.55 10.4L11 11H8.65139C8.45396 11 8.26095 10.9416 8.09669 10.8321L5.4453 9.06446C5.1671 8.87899 5 8.56676 5 8.23241V7.74031C5 7.43653 5.13809 7.14922 5.37531 6.95944L11.5746 2H3C2.44771 2 2 2.44772 2 3V22C2 22.5523 2.44772 23 3 23H10.5V21H11.5V23H15.7555L17.311 21H18.5779L17.0223 23H29C29.5523 23 30 22.5523 30 22V3C30 2.44772 29.5523 2 29 2H16.682L26.5463 8.43324C26.8293 8.61784 27 8.93291 27 9.27085V9.82845C27 10.0508 26.9259 10.2669 26.7894 10.4424L26.3557 11H25.0888L26 9.82845V9.27085L14.8514 2ZM15 7C15 6.24862 15.0052 5.80663 15.3727 5.41436C15.6263 5.14917 15.9369 5 16.3613 5C17.0497 5 17.5829 5.41989 17.7123 6.24309H16.9824C16.91 5.92265 16.7185 5.68508 16.3613 5.68508C16.1646 5.68508 16.0042 5.76243 15.9006 5.8895C15.7661 6.05525 15.7195 6.24862 15.7195 7C15.7195 7.75138 15.7661 7.94475 15.9006 8.1105C16.0042 8.23757 16.1646 8.31492 16.3613 8.31492C16.7185 8.31492 16.91 8.07735 16.9824 7.75691H17.7123C17.5829 8.58011 17.0497 9 16.3613 9C15.9369 9 15.6263 8.85083 15.3727 8.58564C15.0052 8.19337 15 7.75138 15 7ZM12.8303 8.96685H11.5V5.03315H12.8303C13.3323 5.03315 13.6895 5.23204 13.9431 5.60773C14.1709 5.94475 14.176 6.34807 14.176 7C14.176 7.65193 14.1709 8.05525 13.9431 8.39227C13.6895 8.76796 13.3323 8.96685 12.8303 8.96685Z" fill="hsl(0, 0%, 100%)"/><path d="M0,13 H32 V19 H0 Z" fill="none" id="mapbox-text-placeholder"/></g></svg>