<svg xmlns="http://www.w3.org/2000/svg" id="us-state-kansas-3" width="26" height="20" viewBox="0 0 26 20"><g><path d="M0,0 H26 V20 H0 Z" fill="none"/><path d="M23 1H3C1.89543 1 1 1.89543 1 3V17C1 18.1046 1.89543 19 3 19H23C24.1046 19 25 18.1046 25 17V3C25 1.89543 24.1046 1 23 1Z" fill="none" stroke="hsl(0, 0%, 100%)" stroke-linejoin="round" stroke-miterlimit="4px" stroke-width="2"/><path d="M23 1H3C1.89543 1 1 1.89543 1 3V17C1 18.1046 1.89543 19 3 19H23C24.1046 19 25 18.1046 25 17V3C25 1.89543 24.1046 1 23 1Z" fill="hsl(230, 18%, 13%)"/><path d="M12.7388 2.16127C12.8995 2.06237 13.1022 2.06237 13.2629 2.16127L14.9366 3.19125C15.0425 3.2564 15.1688 3.27978 15.291 3.25682L17.4245 2.85584C17.6282 2.81755 17.8344 2.90895 17.9429 3.0856L18.7632 4.42144C18.8408 4.54789 18.9706 4.63332 19.1175 4.65463L21.1365 4.94752C21.3895 4.98423 21.5741 5.20597 21.5643 5.4615L21.5166 6.70605C21.5093 6.89532 21.6097 7.07244 21.7757 7.16356L23.2091 7.95005C23.4711 8.09378 23.5493 8.43367 23.3766 8.67747L22.6443 9.71094C22.5216 9.88412 22.5216 10.1159 22.6443 10.2891L23.3766 11.3225C23.5493 11.5663 23.4711 11.9062 23.2091 12.05L21.7757 12.8365C21.6097 12.9276 21.5093 13.1047 21.5166 13.294L21.5643 14.5385C21.5741 14.794 21.3895 15.0158 21.1365 15.0525L19.1175 15.3454C18.9706 15.3667 18.8408 15.4521 18.7632 15.5786L17.9429 16.9144C17.8344 17.0911 17.6282 17.1825 17.4245 17.1442L15.291 16.7432C15.1688 16.7202 15.0425 16.7436 14.9366 16.8088L13.2629 17.8387C13.1022 17.9376 12.8995 17.9376 12.7388 17.8387L11.0651 16.8088C10.9592 16.7436 10.8328 16.7202 10.7107 16.7432L8.57719 17.1442C8.37345 17.1825 8.16722 17.0911 8.05875 16.9144L7.23847 15.5786C7.16082 15.4521 7.03102 15.3667 6.88417 15.3454L4.86518 15.0525C4.61211 15.0158 4.42753 14.794 4.43733 14.5385L4.48505 13.294C4.49231 13.1047 4.392 12.9276 4.22594 12.8365L2.79253 12.05C2.53058 11.9062 2.45233 11.5663 2.62508 11.3225L3.35736 10.2891C3.48006 10.1159 3.48006 9.88412 3.35736 9.71094L2.62508 8.67747C2.45233 8.43367 2.53058 8.09378 2.79253 7.95005L4.22594 7.16356C4.392 7.07244 4.49231 6.89532 4.48505 6.70605L4.43733 5.4615C4.42753 5.20597 4.61211 4.98423 4.86518 4.94752L6.88417 4.65463C7.03102 4.63332 7.16082 4.54789 7.23847 4.42144L8.05875 3.0856C8.16722 2.90895 8.37345 2.81755 8.57719 2.85584L10.7107 3.25682C10.8328 3.27978 10.9592 3.2564 11.0651 3.19125L12.7388 2.16127Z" fill="hsl(50, 100%, 70%)"/><path d="M0,7 H26 V13 H0 Z" fill="none" id="mapbox-text-placeholder"/></g></svg>