<svg xmlns="http://www.w3.org/2000/svg" id="us-state-vermont-2" width="20" height="24" viewBox="0 0 20 24"><g><path d="M0,0 H20 V24 H0 Z" fill="none"/><path d="M17 1H3C1.89543 1 1 1.89543 1 3V17C1 18.1046 1.89543 19 3 19H17C18.1046 19 19 18.1046 19 17V3C19 1.89543 18.1046 1 17 1Z" fill="none" stroke="hsl(0, 0%, 100%)" stroke-linejoin="round" stroke-miterlimit="4px" stroke-width="2"/><path d="M17 1H3C1.89543 1 1 1.89543 1 3V17C1 18.1046 1.89543 19 3 19H17C18.1046 19 19 18.1046 19 17V3C19 1.89543 18.1046 1 17 1Z" fill="hsl(140, 74%, 37%)"/><path d="M3 2C2.44772 2 2 2.44772 2 3V4C2 4.55228 2.44772 5 3 5H17C17.5523 5 18 4.55228 18 4V3C18 2.44772 17.5523 2 17 2H3Z M5.30278 6C5.10535 6 4.91355 6.05706 4.7599 6.18103C4.04832 6.75514 2 8.69479 2 12C2 15.3052 4.04832 17.2449 4.7599 17.819C4.91356 17.9429 5.10535 18 5.30278 18H14.6972C14.8946 18 15.0864 17.9429 15.2401 17.819C15.9517 17.2449 18 15.3052 18 12C18 8.69479 15.9517 6.75514 15.2401 6.18103C15.0864 6.05706 14.8946 6 14.6972 6H5.30278Z" fill="hsl(0, 0%, 100%)"/><path d="M0,9 H20 V15 H0 Z" fill="none" id="mapbox-text-placeholder"/></g></svg>