<svg xmlns="http://www.w3.org/2000/svg" id="us-state-florida-toll-3" width="26" height="29" viewBox="0 0 26 29"><g><path d="M0,0 H26 V29 H0 Z" fill="none"/><path d="M23 1C24.1046 1 25 1.89543 25 3L25 11C25.0001 17.6274 19.6274 23 13 23C6.37259 23 0.999984 17.6274 1 11L1.00002 3C1.00002 1.89543 1.89545 1 3.00002 1H23Z" fill="none" stroke="hsl(0, 0%, 100%)" stroke-linejoin="round" stroke-miterlimit="4px" stroke-width="2"/><path d="M23 1C24.1046 1 25 1.89543 25 3L25 11C25.0001 17.6274 19.6274 23 13 23C6.37259 23 0.999984 17.6274 1 11L1.00002 3C1.00002 1.89543 1.89545 1 3.00002 1H23Z" fill="hsl(230, 18%, 13%)"/><path d="M3 2C2.44772 2 2 2.44771 2 3V11C2 17.0751 6.92487 22 13 22C19.0751 22 24 17.0751 24 11V3C24 2.44772 23.5523 2 23 2H3ZM4 6H7.29289C7.55811 6 7.81246 6.10536 8 6.29289L8.70711 7H17.2929L18 6.29289C18.1875 6.10536 18.4419 6 18.7071 6H19.4517C19.7861 6 20.0983 6.16711 20.2838 6.44531L21.8321 8.76778C21.9416 8.93205 22 9.12505 22 9.32247V15H21V9.32247L19.4517 7H18.7071L18 7.70711C17.8125 7.89464 17.5581 8 17.2929 8H8.70711C8.44189 8 8.18754 7.89464 8 7.70711L7.29289 7H4V8H6.34861C6.54604 8 6.73904 8.05844 6.90331 8.16795L8.15139 9H10V10H8.15139C7.95396 10 7.76096 9.94156 7.59669 9.83205L6.34861 9H4C3.44772 9 3 8.55228 3 8V7C3 6.44772 3.44772 6 4 6Z" fill="hsl(0, 0%, 100%)"/><path d="M2 3C2 2.44772 2.44772 2 3 2H23C23.5523 2 24 2.44772 24 3V5H2V3Z" fill="hsl(50, 100%, 70%)"/><path d="M0,11.5 H26 V17.5 H0 Z" fill="none" id="mapbox-text-placeholder"/></g></svg>