<svg xmlns="http://www.w3.org/2000/svg" id="us-state-missouri-4" width="32" height="21" viewBox="0 0 32 21"><g><path d="M0,0 H32 V21 H0 Z" fill="none"/><path d="M29 2H3C1.89543 2 1 2.89543 1 4V18C1 19.1046 1.89543 20 3 20H29C30.1046 20 31 19.1046 31 18V4C31 2.89543 30.1046 2 29 2Z" fill="none" stroke="hsl(0, 0%, 100%)" stroke-linejoin="round" stroke-miterlimit="4px" stroke-width="2"/><path d="M29 2H3C1.89543 2 1 2.89543 1 4V18C1 19.1046 1.89543 20 3 20H29C30.1046 20 31 19.1046 31 18V4C31 2.89543 30.1046 2 29 2Z" fill="hsl(230, 18%, 13%)"/><path d="M28.9472 8.89443L26.1382 3.27639C26.0535 3.107 25.8804 3 25.691 3H3C2.44772 3 2 3.44772 2 4V5.92662C2 5.97528 2.0071 6.02368 2.02109 6.07029L3.47891 10.9297C3.4929 10.9763 3.5 11.0247 3.5 11.0734V16.5C3.5 16.7761 3.72386 17 4 17H25.5C25.7761 17 26 17.2239 26 17.5C26 17.7761 25.7761 18 25.5 18C25.2239 18 25 18.2239 25 18.5C25 18.7761 25.2239 19 25.5 19H27.7324C27.8996 19 28.0557 18.9164 28.1484 18.7774L29.916 16.126C29.9708 16.0438 30 15.9473 30 15.8486V14.118C30 14.0404 29.9819 13.9639 29.9472 13.8944L29.0528 12.1056C29.0181 12.0361 29 11.9596 29 11.882V9.11803C29 9.04041 28.9819 8.96385 28.9472 8.89443Z" fill="hsl(0, 0%, 100%)"/><path d="M0,7.5 H32 V13.5 H0 Z" fill="none" id="mapbox-text-placeholder"/></g></svg>