<svg xmlns="http://www.w3.org/2000/svg" id="us-state-newjersey-toll-turnpike" width="20" height="20" viewBox="0 0 20 20"><g><path d="M0,0 H20 V20 H0 Z" fill="none"/><path d="M1 6.07037C1 5.40166 1.3342 4.7772 1.8906 4.40627L6.49615 1.3359C6.82469 1.11688 7.2107 1 7.60555 1H17C18.1046 1 19 1.89543 19 3V13.9296C19 14.5983 18.6658 15.2228 18.1094 15.5937L13.5038 18.6641C13.1753 18.8831 12.7893 19 12.3944 19H3C1.89543 19 1 18.1046 1 17V6.07037Z" fill="none" stroke="hsl(0, 0%, 100%)" stroke-linejoin="round" stroke-miterlimit="4px" stroke-width="2"/><path d="M1 6.07037C1 5.40166 1.3342 4.7772 1.8906 4.40627L6.49615 1.3359C6.82469 1.11688 7.2107 1 7.60555 1H17C18.1046 1 19 1.89543 19 3V13.9296C19 14.5983 18.6658 15.2228 18.1094 15.5937L13.5038 18.6641C13.1753 18.8831 12.7893 19 12.3944 19H3C1.89543 19 1 18.1046 1 17V6.07037Z" fill="hsl(140, 74%, 37%)"/><path d="M10.5001 3.49999C10.5001 3.22385 10.7239 3 11.0001 3L12.5 3.00001C14.7091 3.00001 16.5 4.79088 16.5 7.00002C16.5 9.04017 14.9727 10.7236 12.999 10.9692C12.725 11.0033 12.5 11.2239 12.5 11.5L12.5 14.5C12.5 14.7761 12.2762 15 12 15H11C10.7239 15 10.5 14.7762 10.5 14.5V9.5C10.5 9.22386 10.7239 9 11 9H12.5C13.6046 9 14.5 8.10459 14.5 7.00002C14.5 5.97996 13.7364 5.13826 12.7496 5.01544C12.6125 4.99838 12.5 5.11195 12.5 5.25002L12.5 7.50001C12.5 7.77614 12.2761 8 12 8H9.5V16.5C9.5 16.7761 9.27614 17 9 17H8C7.72386 17 7.5 16.7761 7.5 16.5V8H4.5C4.22386 8 4 7.77614 4 7.5V6.5C4 6.22386 4.22386 6 4.5 6H10.5L10.5001 3.49999Z M3.81981 10C3.92742 10 4.02295 10.0689 4.05698 10.1709L5 13V10.25C5 10.1119 5.11193 10 5.25 10H5.75C5.88807 10 6 10.1119 6 10.25V15.75C6 15.8881 5.88807 16 5.75 16H5.18062C5.07302 16 4.9775 15.9312 4.94346 15.8291L4 13V15.75C4 15.8881 3.88807 16 3.75 16H3.25C3.11193 16 3 15.8881 3 15.75V10.25C3 10.1119 3.11193 10 3.25 10H3.81981Z M16 13.5V10.25C16 10.1119 16.1119 10 16.25 10H16.75C16.8881 10 17 10.1119 17 10.25V13.5C17 14.3284 16.3284 15 15.5 15C14.6716 15 14 14.3284 14 13.5V13.25C14 13.1119 14.1119 13 14.25 13H14.75C14.8881 13 15 13.1119 15 13.25V13.5C15 13.7761 15.2239 14 15.5 14C15.7761 14 16 13.7761 16 13.5Z" fill="hsl(0, 0%, 100%)"/></g></svg>