<svg xmlns="http://www.w3.org/2000/svg" id="us-state-northdakota-3" width="28" height="24" viewBox="0 0 28 24"><g><path d="M0,0 H28 V24 H0 Z" fill="none"/><path d="M25 1H5C3.89543 1 3 1.89543 3 3V17C3 18.1046 3.89543 19 5 19H25C26.1046 19 27 18.1046 27 17V3C27 1.89543 26.1046 1 25 1Z" fill="none" stroke="hsl(0, 0%, 100%)" stroke-linejoin="round" stroke-miterlimit="4px" stroke-width="2"/><path d="M25 1H5C3.89543 1 3 1.89543 3 3V17C3 18.1046 3.89543 19 5 19H25C26.1046 19 27 18.1046 27 17V3C27 1.89543 26.1046 1 25 1Z" fill="hsl(230, 18%, 13%)"/><path d="M4 17L4.4783 6.4773C4.49044 6.21026 4.71047 6 4.97779 6H23.191C23.3804 6 23.5535 6.107 23.6382 6.27639L23.9472 6.89443C23.9819 6.96385 24 7.04041 24 7.11803V9.40371C24 9.46732 24.0121 9.53034 24.0358 9.5894L24.9642 11.9106C24.9879 11.9697 25 12.0327 25 12.0963V14.882C25 14.9596 25.0181 15.0361 25.0528 15.1056L25.9146 16.8292C25.9708 16.9415 26 17.0654 26 17.191C26 17.6378 25.6378 18 25.191 18H5C4.44772 18 4 17.5523 4 17Z" fill="hsl(0, 0%, 100%)"/><path d="M0,9 H28 V15 H0 Z" fill="none" id="mapbox-text-placeholder"/></g></svg>