<svg xmlns="http://www.w3.org/2000/svg" id="us-state-dc-3" width="26" height="32" viewBox="0 0 26 32"><g><path d="M0,0 H26 V32 H0 Z" fill="none"/><path d="M23 1H3C1.89543 1 1 1.89543 1 3V22C1 23.1046 1.89543 24 3 24H23C24.1046 24 25 23.1046 25 22V3C25 1.89543 24.1046 1 23 1Z" fill="none" stroke="hsl(0, 0%, 100%)" stroke-linejoin="round" stroke-miterlimit="4px" stroke-width="2"/><path d="M23 1H3C1.89543 1 1 1.89543 1 3V22C1 23.1046 1.89543 24 3 24H23C24.1046 24 25 23.1046 25 22V3C25 1.89543 24.1046 1 23 1Z" fill="hsl(230, 18%, 13%)"/><path d="M9.76814 5.71823C10.0114 5.71823 10.1874 5.80111 10.3064 5.96133C10.441 6.1326 10.4566 6.38122 10.4566 7C10.4566 7.62431 10.441 7.8674 10.3064 8.03867C10.1874 8.1989 10.0114 8.28177 9.76814 8.28177H9.21947V5.71823H9.76814Z M11.8398 2H10.1955L4 7.71892V8.23241L6.65139 10H7.75C8.06476 10 8.36115 10.1482 8.55 10.4L9 11H6.65139C6.45396 11 6.26095 10.9416 6.09669 10.8321L3.4453 9.06446C3.1671 8.87899 3 8.56676 3 8.23241V7.71892C3 7.43982 3.11664 7.17342 3.32172 6.98411L8.72117 2H3C2.44772 2 2 2.44772 2 3V22C2 22.5523 2.44772 23 3 23H8.5V21H9.5V23H11.7555L13.311 21H14.5779L13.0223 23H23C23.5523 23 24 22.5523 24 22V3C24 2.44772 23.5523 2 23 2H13.5602L22.5812 8.44357C22.844 8.63129 23 8.93436 23 9.25731V9.82845C23 10.0508 22.9259 10.2669 22.7894 10.4424L22.3557 11H21.0888L22 9.82845V9.25731L11.8398 2ZM12 7C12 6.24862 12.0052 5.80663 12.3727 5.41436C12.6263 5.14917 12.9369 5 13.3613 5C14.0497 5 14.5829 5.41989 14.7123 6.24309H13.9824C13.91 5.92265 13.7185 5.68508 13.3613 5.68508C13.1646 5.68508 13.0042 5.76243 12.9006 5.8895C12.7661 6.05525 12.7195 6.24862 12.7195 7C12.7195 7.75138 12.7661 7.94475 12.9006 8.1105C13.0042 8.23757 13.1646 8.31492 13.3613 8.31492C13.7185 8.31492 13.91 8.07735 13.9824 7.75691H14.7123C14.5829 8.58011 14.0497 9 13.3613 9C12.9369 9 12.6263 8.85083 12.3727 8.58564C12.0052 8.19337 12 7.75138 12 7ZM9.83025 8.96685H8.5V5.03315H9.83025C10.3323 5.03315 10.6895 5.23204 10.9431 5.60773C11.1709 5.94475 11.176 6.34807 11.176 7C11.176 7.65193 11.1709 8.05525 10.9431 8.39227C10.6895 8.76796 10.3323 8.96685 9.83025 8.96685Z" fill="hsl(0, 0%, 100%)"/><path d="M0,13 H26 V19 H0 Z" fill="none" id="mapbox-text-placeholder"/></g></svg>