<svg xmlns="http://www.w3.org/2000/svg" id="us-state-idaho-2" width="25" height="25" viewBox="0 0 25 25"><g><path d="M0,0 H25 V25 H0 Z" fill="none"/><path d="M17 6H3C1.89543 6 1 6.89543 1 8V22C1 23.1046 1.89543 24 3 24H17C18.1046 24 19 23.1046 19 22V8C19 6.89543 18.1046 6 17 6Z" fill="none" stroke="hsl(0, 0%, 100%)" stroke-linejoin="round" stroke-miterlimit="4px" stroke-width="2"/><path d="M17 6H3C1.89543 6 1 6.89543 1 8V22C1 23.1046 1.89543 24 3 24H17C18.1046 24 19 23.1046 19 22V8C19 6.89543 18.1046 6 17 6Z" fill="hsl(230, 18%, 13%)"/><path d="M2 13V8C2 7.44772 2.44772 7 3 7H3.5C3.77614 7 4 7.22386 4 7.5V10.2929C4 10.4255 4.05268 10.5527 4.14645 10.6464L5.91219 12.4122C5.96985 12.4699 6.01254 12.5407 6.03652 12.6187L7.65284 17.8717C7.83457 18.4624 8.50313 18.7484 9.05584 18.4721L9.27639 18.3618C9.60884 18.1956 10 18.4373 10 18.809V22.5C10 22.7761 9.77614 23 9.5 23H3C2.44772 23 2 22.5523 2 22V17C2 16.6852 2.14819 16.3889 2.4 16.2L3.73333 15.2C3.9012 15.0741 4 14.8765 4 14.6667C4 14.2985 3.70152 14 3.33333 14H3C2.44772 14 2 13.5523 2 13Z" fill="hsl(0, 0%, 100%)"/><path d="M0,9.5 H25 V15.5 H0 Z" fill="none" id="mapbox-text-placeholder"/></g></svg>