<svg xmlns="http://www.w3.org/2000/svg" id="us-state-california-3" width="26" height="23" viewBox="0 0 26 23"><g><path d="M0,0 H26 V23 H0 Z" fill="none"/><path d="M25 16V14C25 6 16.5001 1 13 1C9.5 1 1 5 1 14V16C1 19.5238 7.15005 20 13 20C18.85 20 25 19.5 25 16Z" fill="none" stroke="hsl(140, 74%, 37%)" stroke-linejoin="round" stroke-miterlimit="4px" stroke-width="2"/><path d="M25 16V14C25 6 16.5001 1 13 1C9.5 1 1 5 1 14V16C1 19.5238 7.15005 20 13 20C18.85 20 25 19.5 25 16Z" fill="hsl(0, 0%, 100%)"/><path d="M24 14V16C24 16.5301 23.7877 16.9457 23.3196 17.3234C22.8148 17.7308 22.0246 18.0762 20.9531 18.3419C18.8142 18.8722 15.923 19 13 19C10.0752 19 7.18455 18.878 5.04572 18.3505C3.97452 18.0863 3.18523 17.7417 2.68115 17.334C2.21437 16.9566 2 16.5383 2 16V14C2 9.8534 3.94572 6.86851 6.32584 4.89476C8.74815 2.88602 11.5295 2 13 2C13.6739 2 14.7117 2.25185 15.9333 2.81453C17.1359 3.36849 18.445 4.19098 19.6527 5.25144C22.0763 7.37946 24 10.3767 24 14Z" fill="hsl(140, 74%, 37%)"/><path d="M0,8.5 H26 V14.5 H0 Z" fill="none" id="mapbox-text-placeholder"/></g></svg>