<svg xmlns="http://www.w3.org/2000/svg" id="us-state-arizona-2" width="20" height="21" viewBox="0 0 20 21"><g><path d="M0,0 H20 V21 H0 Z" fill="none"/><path d="M17 2H3C1.89543 2 1 2.89543 1 4V18C1 19.1046 1.89543 20 3 20H17C18.1046 20 19 19.1046 19 18V4C19 2.89543 18.1046 2 17 2Z" fill="none" stroke="hsl(0, 0%, 100%)" stroke-linejoin="round" stroke-miterlimit="4px" stroke-width="2"/><path d="M17 2H3C1.89543 2 1 2.89543 1 4V18C1 19.1046 1.89543 20 3 20H17C18.1046 20 19 19.1046 19 18V4C19 2.89543 18.1046 2 17 2Z" fill="hsl(230, 18%, 13%)"/><path d="M18 17C18 17.5523 17.5523 18 17 18H13.1339C13.045 18 12.9566 17.9881 12.8708 17.9648L2.73688 15.201C2.30182 15.0823 2 14.6872 2 14.2362V6.5C2 6.22386 2.22386 6 2.5 6H4.5C4.77614 6 5 5.77614 5 5.5V3.5C5 3.22386 5.22386 3 5.5 3H17C17.5523 3 18 3.44772 18 4V17Z" fill="hsl(0, 0%, 100%)"/><path d="M0,7.5 H20 V13.5 H0 Z" fill="none" id="mapbox-text-placeholder"/></g></svg>