<svg xmlns="http://www.w3.org/2000/svg" id="us-state-louisiana-2" width="20" height="22" viewBox="0 0 20 22"><g><path d="M0,0 H20 V22 H0 Z" fill="none"/><path d="M17 1H3C1.89543 1 1 1.89543 1 3V17C1 18.1046 1.89543 19 3 19H17C18.1046 19 19 18.1046 19 17V3C19 1.89543 18.1046 1 17 1Z" fill="none" stroke="hsl(0, 0%, 100%)" stroke-linejoin="round" stroke-miterlimit="4px" stroke-width="2"/><path d="M17 1H3C1.89543 1 1 1.89543 1 3V17C1 18.1046 1.89543 19 3 19H17C18.1046 19 19 18.1046 19 17V3C19 1.89543 18.1046 1 17 1Z" fill="hsl(230, 18%, 13%)"/><path d="M2 5.84861V3C2 2.44772 2.44772 2 3 2H10.191C10.3804 2 10.5535 2.107 10.6382 2.27639L11.3026 3.60521C11.4154 3.83075 11.3426 4.10497 11.1327 4.24484L10.2226 4.85157C10.0836 4.9443 10 5.10042 10 5.26759V5.5C10 5.77614 10.2239 6 10.5 6H16.5C16.7761 6 17 6.22386 17 6.5V9.95862C17 9.98616 17.0023 10.0137 17.0068 10.0408L17.911 15.466C17.9576 15.7455 17.742 16 17.4586 16C17.2053 16 17 16.2053 17 16.4586V16.5C17 16.7761 17.2239 17 17.5 17C17.7761 17 18 17.2239 18 17.5C18 17.7761 17.7761 18 17.5 18H17.191C17.0654 18 16.9415 17.9708 16.8292 17.9146L15.3223 17.1612C15.1298 17.0649 14.8974 17.1026 14.7452 17.2548L14.1464 17.8536C14.0527 17.9473 13.9255 18 13.7929 18H10.309C10.1196 18 9.9465 17.893 9.8618 17.7236L9.1382 16.2764C9.0535 16.107 8.88037 16 8.69098 16H8.06155C8.02067 16 7.97995 16.005 7.94028 16.0149L4.05972 16.9851C4.02005 16.995 3.97933 17 3.93845 17H2.5C2.22386 17 2 16.7761 2 16.5V16.0811C2 16.0274 2.00866 15.974 2.02566 15.923L2.96267 13.112C2.98722 13.0383 3.02858 12.9714 3.08346 12.9165L3.85355 12.1464C3.94732 12.0527 4 11.9255 4 11.7929V9.15139C4 9.05268 3.97078 8.95617 3.91603 8.87404L2.08397 6.12596C2.02922 6.04383 2 5.94732 2 5.84861Z" fill="hsl(0, 0%, 100%)"/><path d="M0,8 H20 V14 H0 Z" fill="none" id="mapbox-text-placeholder"/></g></svg>