<svg xmlns="http://www.w3.org/2000/svg" id="us-state-missouri-3" width="26" height="21" viewBox="0 0 26 21"><g><path d="M0,0 H26 V21 H0 Z" fill="none"/><path d="M23 2H3C1.89543 2 1 2.89543 1 4V18C1 19.1046 1.89543 20 3 20H23C24.1046 20 25 19.1046 25 18V4C25 2.89543 24.1046 2 23 2Z" fill="none" stroke="hsl(0, 0%, 100%)" stroke-linejoin="round" stroke-miterlimit="4px" stroke-width="2"/><path d="M23 2H3C1.89543 2 1 2.89543 1 4V18C1 19.1046 1.89543 20 3 20H23C24.1046 20 25 19.1046 25 18V4C25 2.89543 24.1046 2 23 2Z" fill="hsl(230, 18%, 13%)"/><path d="M22.9472 8.89443L20.1382 3.27639C20.0535 3.107 19.8804 3 19.691 3H3C2.44772 3 2 3.44772 2 4V5.92662C2 5.97528 2.0071 6.02368 2.02109 6.07029L3.47891 10.9297C3.4929 10.9763 3.5 11.0247 3.5 11.0734V16.5C3.5 16.7761 3.72386 17 4 17H19.5C19.7761 17 20 17.2239 20 17.5C20 17.7761 19.7761 18 19.5 18C19.2239 18 19 18.2239 19 18.5C19 18.7761 19.2239 19 19.5 19H21.7324C21.8996 19 22.0557 18.9164 22.1484 18.7774L23.916 16.126C23.9708 16.0438 24 15.9473 24 15.8486V14.118C24 14.0404 23.9819 13.9639 23.9472 13.8944L23.0528 12.1056C23.0181 12.0361 23 11.9596 23 11.882V9.11803C23 9.04041 22.9819 8.96385 22.9472 8.89443Z" fill="hsl(0, 0%, 100%)"/><path d="M0,7.5 H26 V13.5 H0 Z" fill="none" id="mapbox-text-placeholder"/></g></svg>