<svg xmlns="http://www.w3.org/2000/svg" id="us-state-louisiana-4" width="32" height="22" viewBox="0 0 32 22"><g><path d="M0,0 H32 V22 H0 Z" fill="none"/><path d="M29 1H3C1.89543 1 1 1.89543 1 3V17C1 18.1046 1.89543 19 3 19H29C30.1046 19 31 18.1046 31 17V3C31 1.89543 30.1046 1 29 1Z" fill="none" stroke="hsl(0, 0%, 100%)" stroke-linejoin="round" stroke-miterlimit="4px" stroke-width="2"/><path d="M29 1H3C1.89543 1 1 1.89543 1 3V17C1 18.1046 1.89543 19 3 19H29C30.1046 19 31 18.1046 31 17V3C31 1.89543 30.1046 1 29 1Z" fill="hsl(230, 18%, 13%)"/><path d="M2 5.84861V3C2 2.44772 2.44772 2 3 2H13.191C13.3804 2 13.5535 2.107 13.6382 2.27639L14.3026 3.60521C14.4154 3.83075 14.3426 4.10497 14.1327 4.24484L13.2226 4.85157C13.0836 4.9443 13 5.10042 13 5.26759V5.5C13 5.77614 13.2239 6 13.5 6H28.5C28.7761 6 29 6.22386 29 6.5V9.95862C29 9.98616 29.0023 10.0137 29.0068 10.0408L29.911 15.466C29.9576 15.7455 29.742 16 29.4586 16C29.2053 16 29 16.2053 29 16.4586V16.5C29 16.7761 29.2239 17 29.5 17C29.7761 17 30 17.2239 30 17.5C30 17.7761 29.7761 18 29.5 18H29.191C29.0654 18 28.9415 17.9708 28.8292 17.9146L27.3223 17.1612C27.1298 17.0649 26.8974 17.1026 26.7452 17.2548L26.1464 17.8536C26.0527 17.9473 25.9255 18 25.7929 18H10.309C10.1196 18 9.9465 17.893 9.8618 17.7236L9.1382 16.2764C9.0535 16.107 8.88037 16 8.69098 16H8.06155C8.02067 16 7.97995 16.005 7.94028 16.0149L4.05972 16.9851C4.02005 16.995 3.97933 17 3.93845 17H2.5C2.22386 17 2 16.7761 2 16.5V16.0811C2 16.0274 2.00866 15.974 2.02566 15.923L2.96267 13.112C2.98722 13.0383 3.02858 12.9714 3.08346 12.9165L3.85355 12.1464C3.94732 12.0527 4 11.9255 4 11.7929V9.15139C4 9.05268 3.97078 8.95617 3.91603 8.87404L2.08397 6.12596C2.02922 6.04383 2 5.94732 2 5.84861Z" fill="hsl(0, 0%, 100%)"/><path d="M0,8 H32 V14 H0 Z" fill="none" id="mapbox-text-placeholder"/></g></svg>