<svg xmlns="http://www.w3.org/2000/svg" id="us-state-alabama-3" width="26" height="23" viewBox="0 0 26 23"><g><path d="M0,0 H26 V23 H0 Z" fill="none"/><path d="M23 4H3C1.89543 4 1 4.89543 1 6V20C1 21.1046 1.89543 22 3 22H23C24.1046 22 25 21.1046 25 20V6C25 4.89543 24.1046 4 23 4Z" fill="none" stroke="hsl(0, 0%, 100%)" stroke-linejoin="round" stroke-miterlimit="4px" stroke-width="2"/><path d="M23 4H3C1.89543 4 1 4.89543 1 6V20C1 21.1046 1.89543 22 3 22H23C24.1046 22 25 21.1046 25 20V6C25 4.89543 24.1046 4 23 4Z" fill="hsl(230, 18%, 13%)"/><path d="M6.30901 21C6.13835 21 6 20.8616 6 20.691C6 20.5739 6.06613 20.4669 6.17082 20.4146L6.61213 20.1939C6.83469 20.0827 6.94155 19.8247 6.86286 19.5886L6.11396 17.3419C6.0459 17.1377 5.85483 17 5.63962 17H5.5C5.22385 17 5 17.2239 5 17.5V19.1399C5 19.6149 4.61492 20 4.13991 20C3.76008 20 3.42523 19.7509 3.31609 19.3871L2.03215 15.1072C2.01098 15.0366 2.00566 14.9622 2.01659 14.8893L3.4361 5.42583C3.47281 5.18107 3.68307 5 3.93057 5H21.5989C21.8332 5 22.0361 5.16277 22.087 5.39153L23.9881 13.9464C23.996 13.982 24 14.0184 24 14.0549L24 16.5C24 16.7761 23.7761 17 23.5 17H11.309C11.1196 17 10.9465 17.107 10.8618 17.2764L9.13819 20.7236C9.0535 20.893 8.88036 21 8.69098 21H6.30901Z" fill="hsl(0, 0%, 100%)"/><path d="M0,8.5 H26 V14.5 H0 Z" fill="none" id="mapbox-text-placeholder"/></g></svg>