<svg xmlns="http://www.w3.org/2000/svg" id="us-state-newmexico-3" width="27" height="21" viewBox="0 0 27 21"><g><path d="M0,0 H27 V21 H0 Z" fill="none"/><path d="M24 1H3C1.89543 1 1 1.89543 1 3V18C1 19.1046 1.89543 20 3 20H24C25.1046 20 26 19.1046 26 18V3C26 1.89543 25.1046 1 24 1Z" fill="none" stroke="hsl(0, 0%, 100%)" stroke-linejoin="round" stroke-miterlimit="4px" stroke-width="2"/><path d="M24 1H3C1.89543 1 1 1.89543 1 3V18C1 19.1046 1.89543 20 3 20H24C25.1046 20 26 19.1046 26 18V3C26 1.89543 25.1046 1 24 1Z" fill="hsl(230, 18%, 13%)"/><path d="M25 10.5C25 16 20.4 19 13.5 19C6.6 19 2 16 2 10.5C2 5 6.6 2 13.5 2C20.4 2 25 5 25 10.5Z" fill="hsl(0, 0%, 100%)"/><path d="M13 3.00556V2.00537C13.1653 2.00183 13.3319 2 13.5 2C13.6681 2 13.8347 2.00183 14 2.00537V3.00556C14.3409 3.01321 14.6743 3.02873 15 3.0519V2.04956C15.3401 2.07263 15.6736 2.10364 16 2.14258V3.15001C18.1677 3.42376 19.9439 4.0638 21.2563 5.00123C22.3416 5.7765 23.1377 6.77303 23.5848 8H24.6396C24.7391 8.32117 24.8186 8.65454 24.8773 9H23.861C23.9234 9.32014 23.9651 9.65343 23.9855 10H24.9871C24.9901 10.0569 24.9926 10.1141 24.9945 10.1716C24.9982 10.28 25 10.3895 25 10.5C25 10.6691 24.9957 10.8357 24.9871 11H23.9855C23.9651 11.3466 23.9234 11.6799 23.861 12H24.8773C24.8186 12.3455 24.7391 12.6788 24.6396 13H23.5848C23.1377 14.227 22.3416 15.2235 21.2563 15.9988C19.9439 16.9362 18.1677 17.5762 16 17.85V18.8574C15.6736 18.8964 15.3401 18.9274 15 18.9504V17.9481C14.6743 17.9713 14.3409 17.9868 14 17.9944V18.9946C13.8347 18.9982 13.6681 19 13.5 19C13.3319 19 13.1653 18.9982 13 18.9946V17.9944C12.6591 17.9868 12.3257 17.9713 12 17.9481V18.9504C11.6599 18.9274 11.3264 18.8964 11 18.8574V17.85C8.83233 17.5762 7.05615 16.9362 5.74374 15.9988C4.65837 15.2235 3.86229 14.227 3.41516 13H2.36035C2.26086 12.6788 2.1814 12.3455 2.12268 12H3.13899C3.07663 11.6799 3.03487 11.3466 3.01448 11H2.01294C2.00427 10.8357 2 10.6691 2 10.5C2 10.4413 2.00049 10.3829 2.00159 10.3248C2.00354 10.2156 2.00732 10.1073 2.01294 10H3.01448C3.03487 9.65343 3.07663 9.32014 3.13899 9H2.12268C2.1814 8.65454 2.26086 8.32117 2.36035 8H3.41516C3.86229 6.77303 4.65837 5.7765 5.74374 5.00123C7.05615 4.0638 8.83233 3.42376 11 3.15001V2.14258C11.3264 2.10364 11.6599 2.07263 12 2.04956V3.0519C12.3257 3.02873 12.6591 3.01321 13 3.00556ZM20.675 15.185C22.1552 14.1278 23 12.6124 23 10.5C23 8.38755 22.1552 6.87222 20.675 5.81497C19.1142 4.70006 16.6967 4 13.5 4C10.3033 4 7.88584 4.70006 6.32498 5.81497C4.84483 6.87222 4 8.38755 4 10.5C4 12.6124 4.84483 14.1278 6.32498 15.185C7.88584 16.2999 10.3033 17 13.5 17C16.6967 17 19.1142 16.2999 20.675 15.185Z" fill="hsl(0, 87%, 59%)"/><path d="M0,7.5 H27 V13.5 H0 Z" fill="none" id="mapbox-text-placeholder"/></g></svg>