<svg xmlns="http://www.w3.org/2000/svg" id="us-state-florida-3" width="27" height="23" viewBox="0 0 27 23"><g><path d="M0,0 H27 V23 H0 Z" fill="none"/><path d="M24 1H4C2.89543 1 2 1.89543 2 3V17C2 18.1046 2.89543 19 4 19H24C25.1046 19 26 18.1046 26 17V3C26 1.89543 25.1046 1 24 1Z" fill="none" stroke="hsl(0, 0%, 100%)" stroke-linejoin="round" stroke-miterlimit="4px" stroke-width="2"/><path d="M24 1H4C2.89543 1 2 1.89543 2 3V17C2 18.1046 2.89543 19 4 19H24C25.1046 19 26 18.1046 26 17V3C26 1.89543 25.1046 1 24 1Z" fill="hsl(230, 18%, 13%)"/><path d="M3 3C3 2.44772 3.44772 2 4 2H24C24.5523 2 25 2.44772 25 3V17C25 17.5523 24.5523 18 24 18H4C3.44772 18 3 17.5523 3 17V3ZM5 3C4.44772 3 4 3.44772 4 4V5C4 5.55228 4.44772 6 5 6H7.34861L8.59669 6.83205C8.76096 6.94156 8.95396 7 9.15139 7H11V6H9.15139L7.90331 5.16795C7.73904 5.05844 7.54604 5 7.34861 5H5V4H8.29289L9 4.70711C9.18754 4.89464 9.44189 5 9.70711 5H19.2929C19.5581 5 19.8125 4.89464 20 4.70711L20.7071 4H21.4517L23 6.32247V14.2929L21.2929 16H21V17H21.2929C21.5581 17 21.8125 16.8946 22 16.7071L23.7071 15C23.8946 14.8125 24 14.5581 24 14.2929V6.32247C24 6.12505 23.9416 5.93205 23.8321 5.76778L22.2838 3.44531C22.0983 3.16711 21.7861 3 21.4517 3H20.7071C20.4419 3 20.1875 3.10536 20 3.29289L19.2929 4H9.70711L9 3.29289C8.81246 3.10536 8.55811 3 8.29289 3H5Z" fill="hsl(0, 0%, 100%)"/><path d="M0,8.5 H27 V14.5 H0 Z" fill="none" id="mapbox-text-placeholder"/></g></svg>