<svg xmlns="http://www.w3.org/2000/svg" id="us-state-oklahoma-4" width="32" height="23" viewBox="0 0 32 23"><g><path d="M0,0 H32 V23 H0 Z" fill="none"/><path d="M29 1H3C1.89543 1 1 1.89543 1 3V17C1 18.1046 1.89543 19 3 19H29C30.1046 19 31 18.1046 31 17V3C31 1.89543 30.1046 1 29 1Z" fill="none" stroke="hsl(0, 0%, 100%)" stroke-linejoin="round" stroke-miterlimit="4px" stroke-width="2"/><path d="M29 1H3C1.89543 1 1 1.89543 1 3V17C1 18.1046 1.89543 19 3 19H29C30.1046 19 31 18.1046 31 17V3C31 1.89543 30.1046 1 29 1Z" fill="hsl(230, 18%, 13%)"/><path d="M2 3C2 2.44772 2.44772 2 3 2H29C29.5523 2 30 2.44772 30 3V17C30 17.5523 29.5523 18 29 18H3C2.44772 18 2 17.5523 2 17V3ZM4 3C3.44772 3 3 3.44771 3 4V5C3 5.55228 3.44772 6 4 6H8V7H9V6C9 5.44772 8.55228 5 8 5H4V4H27.1533L28 6.26161V10.691L27.2764 11.0528L27.7236 11.9472L28.4472 11.5854C28.786 11.416 29 11.0698 29 10.691V6.26161C29 6.14188 28.9785 6.02313 28.9365 5.911L28.0898 3.64939C27.9436 3.25882 27.5703 3 27.1533 3H4Z" fill="hsl(0, 0%, 100%)"/><path d="M0,8.5 H32 V14.5 H0 Z" fill="none" id="mapbox-text-placeholder"/></g></svg>