<svg xmlns="http://www.w3.org/2000/svg" id="us-state-colorado-toll" width="20" height="20" viewBox="0 0 20 20"><g><path d="M0,0 H20 V20 H0 Z" fill="none"/><path d="M17 1H3C1.89543 1 1 1.89543 1 3V17C1 18.1046 1.89543 19 3 19H17C18.1046 19 19 18.1046 19 17V3C19 1.89543 18.1046 1 17 1Z" fill="none" stroke="hsl(0, 0%, 100%)" stroke-linejoin="round" stroke-miterlimit="4px" stroke-width="2"/><path d="M17 1H3C1.89543 1 1 1.89543 1 3V17C1 18.1046 1.89543 19 3 19H17C18.1046 19 19 18.1046 19 17V3C19 1.89543 18.1046 1 17 1Z" fill="hsl(230, 18%, 13%)"/><path d="M14.9613 13.6133C15.1326 13.6133 15.3204 13.7127 15.3204 13.9945C15.3204 14.0552 15.3094 14.1271 15.2983 14.1878L14.9724 15.8398C14.884 16.2762 14.6298 16.3867 14.4033 16.3867C14.232 16.3867 14.0442 16.2873 14.0442 16.0055C14.0442 15.9563 14.055 15.8999 14.065 15.8479L14.0718 15.8122L14.3922 14.1602C14.4806 13.7238 14.7348 13.6133 14.9613 13.6133Z M2 3C2 2.44772 2.44772 2 3 2H17C17.5523 2 18 2.44772 18 3V17C18 17.5523 17.5523 18 17 18H3C2.44772 18 2 17.5523 2 17V3ZM9.23227 13L7.38398 15.7584L7.25476 16.4157H8.8334L8.72104 16.9999H9.38395L9.50193 16.4157H9.85585L9.99068 15.7584H9.62552L9.77158 15.0168H9.10867L8.95699 15.7584H8.16486L10.0075 13H9.23227ZM4.80336 13.0001L4 17H6.53367L6.66289 16.3483H4.87639L5.08426 15.309H6.59547L6.72468 14.6573H5.21347L5.41571 13.6517H7.1685L7.29771 13.0001H4.80336ZM10.9399 13L10.6984 14.2359H11.3613L11.4849 13.6236H12.4961L10.6253 16.9999H11.395L13.2714 13.6236L13.395 13H10.9399ZM15.0221 13C14.4917 13 13.8895 13.2762 13.7127 14.1823L13.3922 15.7845C13.3757 15.8674 13.3646 15.9834 13.3646 16.0552C13.3646 16.6077 13.7514 17 14.348 17C14.8784 17 15.4806 16.7238 15.6574 15.8177L15.9724 14.2155C15.9889 14.1326 16 14.0166 16 13.9448C16 13.3923 15.6188 13 15.0221 13Z" fill="hsl(0, 0%, 100%)"/><path d="M4.66667 10L3 12H15.5L17 10H4.66667Z" fill="hsl(0, 87%, 59%)"/><path d="M9.76523 7.78676L10.6014 6.78333L13.5883 10H16.9999L10.4999 3L7.9978 6.00255L9.76523 7.78676Z" fill="hsl(244, 28%, 67%)"/><path d="M4.66846 10L7.51086 6.58911L10.9218 10H4.66846Z" fill="hsl(282, 58%, 32%)"/></g></svg>