<svg xmlns="http://www.w3.org/2000/svg" id="us-state-nevada-2" width="20" height="24" viewBox="0 0 20 24"><g><path d="M0,0 H20 V24 H0 Z" fill="none"/><path d="M17 5H3C1.89543 5 1 5.89543 1 7V21C1 22.1046 1.89543 23 3 23H17C18.1046 23 19 22.1046 19 21V7C19 5.89543 18.1046 5 17 5Z" fill="none" stroke="hsl(0, 0%, 100%)" stroke-linejoin="round" stroke-miterlimit="4px" stroke-width="2"/><path d="M17 5H3C1.89543 5 1 5.89543 1 7V21C1 22.1046 1.89543 23 3 23H17C18.1046 23 19 22.1046 19 21V7C19 5.89543 18.1046 5 17 5Z" fill="hsl(230, 18%, 13%)"/><path d="M17 6H3C2.44772 6 2 6.44771 2 7V16.6396C2 16.8548 2.13771 17.0459 2.34189 17.114L16.8675 21.9558C16.9553 21.9851 17.0471 22 17.1396 22H17.25C17.6642 22 18 21.6642 18 21.25C18 21.0877 17.9474 20.9298 17.85 20.8L16.7 19.2667C16.5702 19.0936 16.5 18.883 16.5 18.6667V18.5C16.5 18.2239 16.7239 18 17 18H17.5C17.7761 18 18 17.7761 18 17.5V7C18 6.44772 17.5523 6 17 6Z" fill="hsl(0, 0%, 100%)"/><path d="M0,9 H20 V15 H0 Z" fill="none" id="mapbox-text-placeholder"/></g></svg>