<svg xmlns="http://www.w3.org/2000/svg" id="us-state-circle-4" width="32" height="20" viewBox="0 0 32 20"><g><path d="M0,0 H32 V20 H0 Z" fill="none"/><path d="M28.5,1H3.5c-1.38,0-2.5,.895-2.5,2v14c0,1.105,1.119,2,2.5,2H28.5c1.381,0,2.5-.895,2.5-2V3c0-1.105-1.119-2-2.5-2Z" fill="none" stroke="hsl(0, 0%, 100%)" stroke-linejoin="round" stroke-miterlimit="4px" stroke-width="2"/><path d="M28.5,1H3.5c-1.38,0-2.5,.895-2.5,2v14c0,1.105,1.119,2,2.5,2H28.5c1.381,0,2.5-.895,2.5-2V3c0-1.105-1.119-2-2.5-2Z" fill="hsl(230, 18%, 13%)"/><path d="M30,10c0,5-5.727,8-14,8S2,15,2,10,7.727,2,16,2s14,3,14,8Z" fill="hsl(0, 0%, 100%)"/><path d="M0,7 H32 V13 H0 Z" fill="none" id="mapbox-text-placeholder"/></g></svg>