<svg xmlns="http://www.w3.org/2000/svg" id="us-state-oklahoma-3" width="26" height="23" viewBox="0 0 26 23"><g><path d="M0,0 H26 V23 H0 Z" fill="none"/><path d="M23 1H3C1.89543 1 1 1.89543 1 3V17C1 18.1046 1.89543 19 3 19H23C24.1046 19 25 18.1046 25 17V3C25 1.89543 24.1046 1 23 1Z" fill="none" stroke="hsl(0, 0%, 100%)" stroke-linejoin="round" stroke-miterlimit="4px" stroke-width="2"/><path d="M23 1H3C1.89543 1 1 1.89543 1 3V17C1 18.1046 1.89543 19 3 19H23C24.1046 19 25 18.1046 25 17V3C25 1.89543 24.1046 1 23 1Z" fill="hsl(230, 18%, 13%)"/><path d="M2 3C2 2.44772 2.44772 2 3 2H23C23.5523 2 24 2.44772 24 3V17C24 17.5523 23.5523 18 23 18H3C2.44772 18 2 17.5523 2 17V3ZM4 3C3.44772 3 3 3.44771 3 4V5C3 5.55228 3.44772 6 4 6H8V7H9V6C9 5.44772 8.55228 5 8 5H4V4H21.1533L22 6.26161V10.691L21.2764 11.0528L21.7236 11.9472L22.4472 11.5854C22.786 11.416 23 11.0698 23 10.691V6.26161C23 6.14188 22.9785 6.02313 22.9365 5.911L22.0898 3.64939C21.9436 3.25882 21.5703 3 21.1533 3H4Z" fill="hsl(0, 0%, 100%)"/><path d="M0,8.5 H26 V14.5 H0 Z" fill="none" id="mapbox-text-placeholder"/></g></svg>