<svg xmlns="http://www.w3.org/2000/svg" id="us-state-newhampshire-4" width="34" height="21" viewBox="0 0 34 21"><g><path d="M0,0 H34 V21 H0 Z" fill="none"/><path d="M29 2H3C1.89543 2 1 2.89543 1 4V18C1 19.1046 1.89543 20 3 20H29C30.1046 20 31 19.1046 31 18V4C31 2.89543 30.1046 2 29 2Z" fill="none" stroke="hsl(0, 0%, 100%)" stroke-linejoin="round" stroke-miterlimit="4px" stroke-width="2"/><path d="M29 2H3C1.89543 2 1 2.89543 1 4V18C1 19.1046 1.89543 20 3 20H29C30.1046 20 31 19.1046 31 18V4C31 2.89543 30.1046 2 29 2Z" fill="hsl(230, 18%, 13%)"/><path d="M30 18V4C30 3.44772 29.5523 3 29 3H7.57338C7.52472 3 7.47632 3.0071 7.42971 3.02109L3.21265 4.2862C2.78967 4.4131 2.5 4.80242 2.5 5.24403V5.40328C2.5 5.76899 2.70662 6.10331 3.03372 6.26686C3.28524 6.39262 3.37647 6.70589 3.23178 6.94703L2.22717 8.62138C2.1272 8.78801 2.24722 9 2.44155 9H3.09549C3.28134 9 3.40221 9.19558 3.3191 9.3618L2.54271 10.9146C2.51462 10.9708 2.5 11.0327 2.5 11.0955C2.5 11.3189 2.6811 11.5 2.90451 11.5H4C4.27614 11.5 4.5 11.7239 4.5 12V12.882C4.5 12.9596 4.48193 13.0361 4.44721 13.1056L2.08541 17.8292C2.02924 17.9415 2 18.0654 2 18.191C2 18.6378 2.36221 19 2.80902 19H29C29.5523 19 30 18.5523 30 18Z" fill="hsl(0, 0%, 100%)"/><path d="M0,7.5 H34 V13.5 H0 Z" fill="none" id="mapbox-text-placeholder"/></g></svg>