<svg xmlns="http://www.w3.org/2000/svg" id="us-state-nebraska-2" width="20" height="25" viewBox="0 0 20 25"><g><path d="M0,0 H20 V25 H0 Z" fill="none"/><path d="M17 6H3C1.89543 6 1 6.89543 1 8V22C1 23.1046 1.89543 24 3 24H17C18.1046 24 19 23.1046 19 22V8C19 6.89543 18.1046 6 17 6Z" fill="none" stroke="hsl(0, 0%, 100%)" stroke-linejoin="round" stroke-miterlimit="4px" stroke-width="2"/><path d="M17 6H3C1.89543 6 1 6.89543 1 8V22C1 23.1046 1.89543 24 3 24H17C18.1046 24 19 23.1046 19 22V8C19 6.89543 18.1046 6 17 6Z" fill="hsl(230, 18%, 13%)"/><path d="M2.90991 7C2.40747 7 2 7.40735 2 7.90991C2.00099 7.97003 2.00634 8.02918 2.01758 8.08838L4.89722 22.4858C4.95312 22.7657 5.23169 22.942 5.50879 22.8728L6.69189 22.5771L6.69531 22.5781L7.01147 22.5026C7.02808 22.5009 7.04492 22.5 7.06152 22.5H7.42554L7.34351 22.321L7.26782 22.2562L7.21802 22.1903H7.14648L7.07495 22.1733L6.96338 22.2854L6.91138 22.3984L6.68774 22.4393L6.64575 22.3568V22.2568L6.80103 21.9912L6.75635 21.7493L6.59058 21.5468L6.43799 21.473L6.44922 21.3789H6.45312L6.58667 21.1438L6.66748 21.1041L6.71973 20.9004V20.8145L6.66748 20.8257L6.50293 21.1396L6.51465 21.1437L6.50781 21.1484L6.43945 21.2925L6.33911 21.3792H6.10034L6.08374 21.3508L6.11597 21.3031L6.1853 21.3134H6.28052L6.31982 21.2479L6.29224 21.1647L6.31934 21.0929H6.33862L6.35352 21.0106L6.33984 20.9149L6.44873 20.8743L6.46387 20.8145L6.50293 20.6799L6.46387 20.5865H6.45312V20.5378L6.59644 20.4744L6.52905 20.437H6.35352L6.30859 20.452V20.5211L6.33984 20.5341V20.5865H6.23022L6.1853 20.693V20.7285L6.26562 20.7379L6.31982 20.65H6.38525L6.41138 20.6799L6.38525 20.8032L6.28052 20.8369L6.17603 20.8032L6.1106 20.7566V20.8257L6.21143 20.8743L6.29297 20.9006L6.28052 20.9415L6.26562 21.063L6.28052 21.0929H6.29517L6.28101 21.1611L6.23022 21.177V21.2592H6.1853V21.2144L6.12109 21.1792L6.14014 21.1036L6.14233 21.1041V20.9266L6.12939 20.9154L6.08447 21.0405V21.0732L6.05078 21.1406L6.04883 21.1396L6.03394 21.1583V21.2144L6.04883 21.2592L6.03516 21.2853L5.9751 21.2732L5.95776 21.1945L5.9751 21.1079L6.07886 20.9779L6.10034 20.8761L6.05957 20.7787L6.07886 20.6553L6.01831 20.6141L5.91431 20.4647L5.89258 20.2893L5.9751 20.2006H6.01831L5.9751 20.3369L6.04639 20.4474L6.10034 20.4647L6.21094 20.4474L6.3042 20.4127L6.43799 20.3954H6.60083L6.64575 20.4323L6.70703 20.4127L6.75635 20.3954L6.87378 20.376L6.90405 20.3109L6.81519 20.2006L6.85205 20.1572L6.91919 20.1724L6.98413 20.2611V20.4474L7.07495 20.4127L7.18115 20.35L7.23047 20.3008H7.23828L7.271 20.2595L7.27368 20.2524L7.3811 20.1361H7.52124L7.51196 20.2109L7.45044 20.2296L7.33789 20.3336L7.22046 20.3828L7.12158 20.437L7.10425 20.4531H7.10156L7.04663 20.5081L7.02808 20.4968L6.98633 20.5508L6.87231 20.5173L6.77393 20.6183L6.81323 20.6799L6.93457 20.7285L6.87671 20.6313V20.5977H6.97607L7.02808 20.6313L7.07471 20.6183L7.06348 20.6799L7.05054 20.7191H7.17554L7.13452 20.6313L7.12256 20.559L7.16528 20.4799L7.24292 20.4631L7.2915 20.4893L7.39795 20.4033L7.46338 20.3716L7.51196 20.3511V20.3435L7.60352 20.2555L7.70996 20.2109L7.77539 20.1361L7.81104 20.0502H7.70068L7.47656 20.0782L7.49341 19.9811H7.43164L7.35864 20.0315L7.29053 20.2085L7.23462 20.25L7.21802 20.2286L7.26782 20.1421L7.23096 20.077L7.14648 19.9688L7.1228 19.7935L7.23096 19.7068L7.34351 19.6505L7.36084 19.6765L7.33276 19.7241L7.2959 19.7804L7.27856 19.8497V19.958L7.34351 19.9688L7.48877 19.9276L7.70947 19.8951H7.86768L7.8894 19.9276L7.97266 19.9125V19.9363H7.96606L7.88379 19.9811L7.95288 20.0315L7.91187 20.0502L7.93433 20.1082L7.99414 20.1361L8.06128 20.0969V20.0148L8.01953 19.9363V19.9021L8.10376 19.8822L8.1687 19.7804L8.12744 19.6765L8.03442 19.6267L8.07983 19.5985L8.19238 19.6505L8.26172 19.7415V19.8173L8.23999 19.8951L8.1687 19.9927L8.12744 20.049H8.27246L8.29419 20.0078H8.38306L8.35693 20.077H8.44141L8.47607 20.1096L8.51953 20.2611V20.2893L8.94165 20.4323H9.09766L8.87549 20.1572L8.64307 19.7068L8.56641 19.4994L8.51953 19.2379V18.9633L8.56641 18.6938L8.77515 18.2871L8.97583 18.0494L9.28491 17.7906L9.78662 17.574L10.1379 17.5265H10.4102L10.6821 17.6084L10.9277 17.7589L11.1233 17.9755L11.2341 18.2026L11.2686 18.3638V18.4192L11.3557 18.517C11.3557 18.517 11.385 18.5149 11.427 18.5138L11.4451 18.5134C11.4658 18.5131 11.4888 18.5129 11.5122 18.5135C11.5662 18.5148 11.6233 18.519 11.6643 18.53C11.7205 18.545 11.7747 18.5804 11.8186 18.6163C11.8784 18.665 11.9192 18.7146 11.9192 18.7146L12.0181 18.8944L12.1235 19.1215L12.3574 19.1035L12.5193 19.1552L12.6946 19.308L12.7913 19.4541L12.8384 19.6699L12.8789 19.7239L13.1035 19.7441L13.27 19.8677L13.3621 20.0386V20.061H13.5486L13.679 20.115L13.8274 20.2881L13.9194 20.5443V20.7668L13.8274 21.0231L13.7104 21.2344L13.4619 21.5179L13.2871 21.6292L13.2634 21.6178L13.4563 21.4779L13.7388 21.1515L13.8704 20.829V20.5465L13.7712 20.2983L13.5518 20.1284H13.4104V20.1953L13.4314 20.2449H13.5898L13.5518 20.2983H13.4448L13.3933 20.3231L13.4104 20.4014L13.5193 20.4301L13.6072 20.3899L13.6587 20.3804L13.5898 20.451L13.4314 20.4606L13.4448 20.5216L13.5518 20.5465L13.7502 20.4606L13.7712 20.4701L13.6587 20.5465L13.5002 20.6208L13.3457 20.5941L13.3037 20.7144H13.5193L13.7234 20.6743L13.4697 20.8003H13.5898L13.7942 20.7621L13.6453 20.829L13.3457 20.8958H13.2693L13.2939 20.9282H13.6587L13.5383 20.9645H13.2693L13.2004 21.0083V21.058L13.3247 21.119L13.4697 21.1515H13.5518L13.4104 21.2412L13.0383 21.266L13.0994 21.3004L13.3037 21.3767L13.4697 21.3405L13.3933 21.3862L13.2463 21.4282H12.9448L12.9143 21.4501L12.8213 21.4054L12.9963 21.2183L13.2166 20.8594L13.3232 20.5437L13.3596 20.2371L13.3232 20.0781L13.2166 19.9009L13.0461 19.7965H12.9575L12.8645 19.8782L12.9758 19.9781L13.1733 20.0099L12.9575 20.0463L12.8645 20.0326L12.9575 20.0985L13.0461 20.1212H13.2415L13.1211 20.1689L12.8962 20.1893H12.8213L12.9326 20.2552H13.1506L13.0166 20.303L12.8328 20.2756L12.9758 20.3893H13.1506L12.9963 20.4756L12.7646 20.446L12.9326 20.5437L13.0461 20.5596L12.9758 20.6073L12.6919 20.5596L12.658 20.5754L12.7463 20.6322L12.8486 20.6731H13.0872L12.8962 20.7435L12.6169 20.7708L12.5784 20.7889L12.658 20.8594L12.8486 20.923L13.0166 20.8776L12.8962 20.9547H12.6282L12.4443 20.9071L12.4058 20.9821V21.0547L12.4988 21.1138L12.6919 21.2023L12.8962 21.1887L12.8213 21.2183L12.4761 21.2318L12.4133 21.2094L12.1851 21.0997L12.1874 21.0923L12.4421 20.8066L12.5613 20.5908L12.7598 20.1716L12.8018 19.8318L12.7598 19.6011C12.7598 19.6011 12.7046 19.3506 12.5859 19.2588C12.4846 19.1804 12.271 19.1671 12.271 19.1671L12.1917 19.2266L12.3306 19.2986H12.4744L12.3132 19.3804H12.1223V19.4176L12.3132 19.4995H12.3777L12.5613 19.4548L12.3975 19.5813L12.2883 19.6011H12.1223L12.0901 19.7003H12.2139L12.3975 19.7103L12.1445 19.7971L12.0901 19.8467V19.9187L12.2139 19.9484L12.2883 19.9633L12.6455 19.8938L12.5859 19.9484L12.2883 20.0228L11.9883 19.9856L11.9634 20.0575V20.0923L12.0156 20.1121H12.1445L12.2512 20.1444L11.894 20.2113L12.0156 20.2808L12.2883 20.3303L12.5266 20.256L12.4421 20.3303L12.2512 20.3949L11.9363 20.3303H11.8296L11.7773 20.3949L11.8296 20.499L12.1223 20.5908L12.3132 20.5437H12.3528L12.3132 20.5908L12.0403 20.6305L11.7229 20.5908L11.6907 20.6504L11.9883 20.7396L11.8296 20.7719L11.9363 20.8413L12.0403 20.9158L12.1445 21.01L12.157 21.0464L12.1383 21.0772L12.0903 21.0542L12.0933 21.0227L11.5449 20.6681L11.5508 20.6249L11.7998 20.1855L11.9128 19.8882L12.0527 19.3844L12.0396 19.0959C11.998 18.7452 11.6895 18.5526 11.5247 18.5842L11.4158 18.6942L11.5444 18.7452L11.6643 18.6831L11.5112 18.823H11.325L11.4158 18.8917H11.5112L11.7908 18.823L11.5247 18.9961L11.4158 19.0205L11.4958 19.0493H11.6001L11.6934 19.0205L11.4958 19.1647H11.3381L11.2649 19.2268L11.325 19.3223L11.4958 19.3689L11.8152 19.2446L11.5444 19.4465L11.2849 19.4976H11.2205L11.2073 19.5353L11.325 19.5597H11.4292L11.2649 19.644L11.1184 19.6619H11.0984V19.7018L11.325 19.7506H11.5112L11.7754 19.6619L11.7908 19.684L11.4958 19.8394L11.1494 19.8727L11.2449 19.9215L11.3738 19.9503L11.6799 19.8505L11.6934 19.8727L11.4958 19.9948L11.3071 20.0724L11.0474 20.0325H11.0076V20.0857L11.1384 20.1855H11.2849L11.4514 20.1278L11.2073 20.2765L10.981 20.2477L11.0298 20.2876L11.3999 20.5382L11.4326 20.5955L10.7539 20.1566V20.1484H10.6995L10.2764 20.251L10.3535 20.1738L10.4136 20.1536L10.4771 20.0306L10.5552 19.9152L10.5757 19.703L10.3894 19.7141L10.3596 19.6918L10.3057 19.6602L10.2998 19.6666L10.2622 19.6256L10.2646 19.6211L10.2603 19.6233L10.2256 19.5856L10.2686 19.5223H10.4192L10.436 19.4851L10.4695 19.3511L10.4509 19.2784L10.397 19.2263L10.1978 19.2784L10.2146 19.3344V19.4851L10.1326 19.636H10.1177L10.1064 19.6173L10.0618 19.4851L10.071 19.4553V19.4237L10.0879 19.3344V19.2784L10.1587 19.2468V19.2263H10.1064L10.0413 19.3027L10.019 19.4851L10.0618 19.6173L10.1155 19.6675L10.0227 19.6453L10.0059 19.6769L10.1157 19.7161L10.0396 19.7756H10.1064L10.189 19.746L10.208 19.7656L10.1064 19.8129H10.0208L9.97241 19.796L9.9502 19.7626L9.91284 19.7719L9.87378 19.9152V19.9785L9.92578 20.0306L9.9502 20.0902L9.74902 20.3453L9.89795 20.3174L9.97241 20.1536L10.0078 20.1069V20.0697H10.0916L10.1772 20.0027L10.1978 20.0697H10.2703L10.2593 20.2057L10.2671 20.203L10.2527 20.2568L9.55542 20.4304L9.53223 20.3937L9.54224 20.3807V20.3677L9.46973 20.3099L9.50708 20.2485L9.48267 20.1125L9.50708 20.0344L9.54224 20.2727L9.58887 20.3099L9.63354 20.2355V19.9692L9.54224 19.999L9.54028 19.9886L9.55347 19.9639V19.9749L9.61304 19.9302L9.71558 19.9407V19.9469L9.67822 19.9562V20.1982L9.66162 20.3099L9.79932 20.0958L9.77319 20.2485L9.79932 20.2355L9.87939 20.0642L9.83276 19.999V19.8352L9.72534 19.8265L9.63452 19.7513L9.61304 19.7123L9.57764 19.6881L9.54785 19.6912L9.5354 19.6461L9.70239 19.5503V19.5243L9.57764 19.5894L9.54224 19.5243L9.50513 19.4368L9.46411 19.4871L9.44189 19.5392L9.48462 19.634L9.38599 19.6956L9.39722 19.7253L9.49512 19.6692L9.50879 19.6952L9.50513 19.6956L9.54224 19.7719L9.61304 19.8538L9.65308 19.8313L9.66504 19.8647L9.56274 19.8948H9.55347V19.9209L9.5293 19.9299L9.52002 19.8799L9.4082 19.9692L9.36353 20.2485L9.45703 20.396V20.455L9.35571 20.4802L9.33496 20.4023H9.27271L9.28564 20.3427L9.23364 20.2389L9.08569 20.1844L9.18701 20.1455L9.15332 20.0209L8.97168 19.9535H9.1272L9.04956 19.803L8.90161 19.7407L8.73291 19.5798L8.85742 19.6525L9.0105 19.6785L8.97168 19.3826L8.87036 19.4319L8.73291 19.3256L8.62646 19.1958L8.8418 19.3256L8.90161 19.3074L8.97168 19.2788V19.1101L8.76392 19.0193L8.70166 18.8325L8.79004 18.9388L8.97168 19.0011L9.104 18.6949L9.04956 18.6274L8.85742 18.5366L9.18701 18.599L9.35571 18.4589L9.1272 18.2019L9.44653 18.368L9.65674 18.2772L9.55029 17.9398L9.75513 18.2408H9.83301L9.92383 17.9036L9.95239 18.2019L10.1602 18.163L10.3521 17.7738L10.3313 18.0618L10.2976 18.2019L10.5337 18.3914L10.6401 18.189L10.7673 17.9709L10.731 18.163L10.6064 18.4744L10.6997 18.7468L11.0449 18.5186L10.7126 18.8325L10.7517 19.0193L10.8657 18.9388L11.0942 18.8325L10.9099 18.9856L10.7517 19.1101L10.6997 19.3826L10.8943 19.3074L11.0786 19.2269L11.0112 19.3074L10.7126 19.4734L10.6609 19.5798L10.8943 19.5149L11.0112 19.5383L10.9099 19.5798L10.6609 19.6525L10.5881 19.8652L10.8789 19.7874L10.5881 19.9664L10.4973 20.1455L10.7673 20.0909L10.9099 19.912L11.1357 19.4579L11.2603 18.7183L11.2031 18.3914L11.0942 18.106L10.9619 17.9218L10.731 17.7219L10.5181 17.6285L10.1602 17.5947L9.85645 17.6622L9.41016 17.8257L9.06763 18.0229L8.8186 18.3473L8.62646 18.7781L8.57715 19.1101L8.62646 19.4865L8.79004 19.8834L9.06763 20.309L9.28564 20.5243L9.31616 20.5581L9.39575 20.667H9.33301L9.24219 20.7809L9.04834 20.5553L8.94702 20.6122H8.78467L8.64331 20.5173L8.52539 20.4962L8.36719 20.6354L8.24707 20.667V20.7999L8.17749 21.0066L8.09082 21.0887L7.98975 21.0466L8.00659 21.2216L8.05078 21.2343L8.14575 21.1901L8.1311 21.5273L8.02563 21.6665L8.07202 21.8268L8.1311 21.9745L8.05078 22.2612L8.0166 22.4453H7.93164L8.00244 22.1006L7.84619 22.084L7.70947 22.0613H7.6189L7.58472 22.1903L7.61401 22.4648H7.59375L7.53442 22.3872L7.50806 22.3149V22.1886L7.45288 22.0956V22.0137L7.39966 21.9561L7.27783 21.7478V21.5551L7.30664 21.5129L7.33325 21.5994L7.42188 21.7478L7.49707 21.8718L7.57471 21.8231L7.63892 21.7234L7.53027 21.2804H7.59668V21.1586C7.95483 21.1178 8.13867 20.7207 8.18604 20.5272H8.32349L8.35449 20.4785L8.47632 20.2172L8.4165 20.1263L8.13721 20.1396V20.1772L8.06201 20.3567V20.3751H8.27808V20.4272L8.06201 20.4194V20.4275L8.09961 20.494C8.05347 20.8342 7.76587 21.0094 7.62769 21.0544L7.57471 20.8706V20.7678L7.70215 20.7191H7.72681L7.90259 20.5529L7.91943 20.4033L7.8689 20.3361H7.78857L7.67651 20.3828L7.66699 20.437L7.55493 20.5679L7.45044 20.6183L7.43164 20.6313H7.52124L7.58569 20.6642L7.53125 20.7188V20.7643H7.47046L7.38403 20.8573L7.39966 20.9791L7.44165 21.1586L7.31982 21.1298L7.198 21.0013L7.17358 20.8706L7.13818 20.8374L7.04297 21.0544L6.94556 21.2671L6.88794 21.4354L6.80811 21.1586L6.77051 21.1785L6.80811 21.4709H6.67749L6.61108 21.4531L6.51367 21.3092V21.4531L6.59326 21.5129L6.82153 21.5439L6.87231 21.6991L6.90332 21.7633L7.0874 21.3712L7.07178 21.6193L7.14941 21.9338L7.36646 22.2241L7.50293 22.5H7.57544L7.57397 22.4961H7.61719L7.61768 22.5H7.92041L7.92114 22.4961H8.01953L8.03979 22.4851L8.05444 22.4812L8.0769 22.4744L8.23438 22.4219L8.34937 22.3821L8.57251 22.3092L8.51953 22.1267L8.35693 22.0477V22.2931L8.29639 22.322L8.31665 22.2612V22.179L8.30176 22.0145V21.8079L8.26147 21.8186V22.0544L8.22607 22.1532H8.19067L8.17578 21.7081L8.26147 21.6449L8.36719 21.5907L8.375 21.5859L8.37744 21.5907H8.40942L8.54419 21.4052L8.59204 21.2596L8.55591 21.2145L8.53516 21.3042L8.40674 21.4475L8.36572 21.4587L8.33765 21.4214L8.32837 21.1366L8.49414 21.1273H8.57617L8.62354 21.2354L8.62646 21.2343V21.4261L8.85425 21.4684H8.97437L9.09888 21.2216L9.15576 21.2343L9.07349 21.4493L9.15576 21.5907L9.33301 21.7194H9.48267L9.57324 21.7847L9.63696 21.9026L9.58618 21.9288L9.46411 21.8367L9.28516 21.8203H9.10278L9.09766 21.812L9.02124 21.7461L8.64307 21.6501L8.58325 21.6907L8.72583 22.0613L8.7749 22.2417L8.96265 22.1791L8.99731 22.0273L9.09033 21.8904L9.34692 21.8627L9.32251 21.9391L9.27051 21.9856L9.18311 22.1006L9.2019 22.0994L9.4187 22.0271L9.4165 22.0186L9.50952 22.0034C9.53467 22.0016 9.55786 22 9.58105 22L10.9243 22.0016L11.0231 22.011L11.0266 22.0113L11.0301 22.0116L11.0312 22.0117L11.0466 21.9921L11.1865 21.8265L11.1521 21.7866L11.0033 21.9827L10.9498 21.971L10.9275 21.9391L10.8828 21.8273L11.1122 21.7276L11.1006 21.6846L10.8735 21.7733L10.8643 21.6616L10.8735 21.5574L11.0986 21.6046L11.1084 21.5598L10.8828 21.5109L10.9275 21.4047L10.9627 21.3304L10.9316 21.2962L10.9016 21.3469L10.8401 21.4811L10.8196 21.6523L10.8401 21.8273L10.9005 21.9708L10.8833 21.9756L10.8345 21.9645L10.7861 21.8069V21.4996L10.8643 21.3135L10.9321 21.2224L10.9626 21.2438L10.959 21.2499L10.9888 21.2751L10.991 21.2706L11.1733 21.5109L11.139 21.5665L11.1267 21.6105L11.1306 21.6113V21.6729L11.1254 21.6749L11.1367 21.717L11.1399 21.7156L11.155 21.7548L11.2175 21.8069H11.2776L11.3408 21.7733L11.4004 21.6523V21.5667L11.3894 21.4811L11.3186 21.4177L11.2852 21.4296V21.3086H11.2749L11.2776 21.3004V21.105H11.2498V21.3086H11.2461V21.4434L11.2292 21.4493L11.1919 21.4811L11.0151 21.2018L11.0046 21.2057L10.9719 21.1692L11.0059 21.1235L11.0671 21.0677L10.9424 21.1143L10.7861 21.2837L10.7283 21.4177L10.6948 21.6523L10.7061 21.8367L10.7476 21.9534H10.7002L10.6819 21.8888H10.626L10.6331 21.9534H10.5825L10.5439 21.8367H10.4602L10.4851 21.9534H10.4277C10.426 21.9454 10.4243 21.9374 10.4231 21.9291C10.4199 21.9093 10.4182 21.8885 10.4177 21.8662L10.4175 21.8438C10.4172 21.8336 10.4175 21.823 10.418 21.812L10.137 21.7461C10.1338 21.8254 10.1245 21.884 10.0942 21.9414H9.93457L9.81982 21.8215L9.87866 21.7939L10.0078 21.9259L10.0581 21.7622L9.89893 21.7368L9.8772 21.6788L10.5439 21.6355V21.5481L9.76953 21.6113V21.6858L9.80371 21.6836L9.86304 21.7311L9.84766 21.7286V21.7598L9.80493 21.8154L9.76953 21.8367L9.83887 21.9531H9.71143L9.69995 21.8627V21.7488L9.62402 21.6265H9.49951L9.43408 21.5759V21.3925L9.3877 21.3165L9.32251 21.2216L9.44678 21.1057L9.59766 21.0582V21.1721L9.58154 21.2465V21.4493H9.6355L9.66162 21.0677L9.62231 21.0583L9.62085 21.0646L9.61646 21.0522L9.63452 21.0466V20.9412L9.41699 20.5619L9.87207 20.4673L9.83838 21.0433L9.93164 21.0251L9.97314 20.4413L10.217 20.3634L10.2041 21.007L10.2793 20.9913L10.3184 20.3634L10.5881 20.309L10.5181 21.0251L9.71899 21.1445L9.69678 21.3469L9.8125 21.3368V21.3754L9.73047 21.3823L9.75098 21.5109L10.0356 21.4922V21.4047H9.87109V21.3317L10.5681 21.2706L10.5906 21.1757L9.75391 21.2767V21.2271L10.5881 21.0927L10.6841 20.2773H10.7256L10.6353 21.1096L10.8181 21.2081L10.8672 21.1271L10.6992 21.0575L10.7844 20.2885L11.1177 20.4884L11.0295 21.0575L11.1165 21.0227L11.1785 20.5319L11.5959 20.8014L11.5396 21.1271L11.5415 21.1293L11.52 21.2419L11.501 21.2147L11.4172 21.1143L11.3799 21.1235L11.5159 21.3004L11.594 21.5387L11.5681 21.7399L11.46 21.9856L11.3479 22.116L11.4062 22.1354L11.46 22.0861L11.4634 22.0807L11.516 22.0739L11.5403 22.138L11.5154 22.1719L11.7512 22.2504L11.7511 22.2483L11.7539 22.25H11.7783V22.2574L11.8994 22.2686V21.9576L11.9517 21.7864L12.0427 21.6355L12.1843 21.4996L12.2998 21.4177H12.2253L12.0112 21.5387L11.8789 21.7286L11.7783 21.9856V22.1988L11.7469 22.1863L11.7429 22.1267L11.5866 22.1034L11.5781 22.0876V22.0704L11.6426 22.0042L11.728 21.8069L11.7429 21.6729L11.7461 21.6716V21.585L11.728 21.5084L11.6426 21.2327L11.6128 21.266L11.728 21.5759L11.7095 21.7399L11.5528 22.0456L11.5262 22.0565L11.4832 22.0477L11.5493 21.9391L11.6277 21.751L11.6575 21.6002L11.6277 21.4587L11.594 21.3469L11.5681 21.2837L11.6128 21.2058L11.615 21.2081L11.6157 21.204L11.6162 21.2017L11.6799 20.8594L12.0249 21.0623L11.9756 21.3918L11.728 21.2706L11.7783 21.4177L11.7932 21.5574L11.8005 21.5632L11.7947 21.5722L11.8203 21.5938L11.8313 21.5872L11.8789 21.6244L11.9583 21.5084L11.9541 21.5356L12.0554 21.4342L12.085 21.114L12.3545 21.2434L12.7646 21.4658L12.781 21.4482L12.9048 21.5084L12.9182 21.514L13.282 21.6886L13.2834 21.6907L13.2361 21.7654L13.1931 21.7445L13.2083 21.7286L12.9998 21.6244V21.6355L12.9458 21.6877L13.1023 21.7733L13.0686 21.913L13.1301 21.8925L13.1538 21.8246L13.1606 21.8342L13.1194 22.084V22.1267L13.0857 22.212H12.9307L12.8594 22.4375H12.7832L12.8098 22.384L12.8713 22.1941V21.7733L12.7893 21.6355L12.7305 21.5905V21.5468L12.8098 21.6002L12.8936 21.6989L12.8286 21.5481L12.7205 21.4717L12.6497 21.4493V21.4922L12.6602 21.4993V21.5367L12.5752 21.4717L12.687 21.6244L12.7297 21.7156L12.5665 21.8866L12.6004 21.926L12.7727 21.7733L12.8098 21.8776V21.9949L12.6561 22.0106L12.6717 22.0488H12.8098L12.7893 22.1625L12.6736 22.1346L12.6642 22.1882L12.7727 22.2369L12.7297 22.3505L12.5901 22.2202L12.6147 22.1883L12.6298 22.124L12.6274 22.1234V22.0488H12.6319L12.6149 21.9914L12.5809 21.9545L12.5302 21.9222H12.5V21.7572L12.5325 21.4811L12.4617 21.4996L12.4412 21.8776H12.4531V21.9275L12.4243 21.9454L12.3806 21.887L12.2588 21.6244L12.2029 21.6729L12.3091 21.8273L12.1304 21.751L12.0986 21.8273L12.3262 21.9066L12.3838 21.9705L12.3445 21.9949L12.3276 22.1345L12.4041 22.2369L12.4858 22.2686L12.5454 22.2574L12.7 22.4249L12.6953 22.4375H12.6072L12.5454 22.3337H12.5046V22.4286L12.4072 22.3821L12.4282 22.3188L12.3799 22.3021L12.345 22.3525L12.2603 22.3121L12.2998 22.2686L12.2849 22.2202H11.9832L12.002 22.2778L12.158 22.3286L12.3101 22.4032L12.3162 22.4062L12.332 22.4141L12.5547 22.5078L12.6985 22.5H13.4189C13.4727 22.5 13.5259 22.5087 13.5769 22.5256L14.4626 22.8209C14.748 22.916 15.052 22.7395 15.1111 22.4446L17.9824 8.08838C17.9943 8.02936 17.9986 7.96989 18 7.90991C18 7.40735 17.5925 7 17.0901 7H2.90991Z" fill="hsl(0, 0%, 100%)"/><path d="M0,9.5 H20 V15.5 H0 Z" fill="none" id="mapbox-text-placeholder"/></g></svg>