<svg xmlns="http://www.w3.org/2000/svg" id="us-state-kentucky-parkway-purchase" width="20" height="18" viewBox="0 0 20 18"><g><path d="M0,0 H20 V18 H0 Z" fill="none"/><path d="M17 1H3C1.89543 1 1 1.89543 1 3V15C1 16.1046 1.89543 17 3 17H17C18.1046 17 19 16.1046 19 15V3C19 1.89543 18.1046 1 17 1Z" fill="none" stroke="hsl(0, 0%, 100%)" stroke-linejoin="round" stroke-miterlimit="4px" stroke-width="2"/><path d="M17 1H3C1.89543 1 1 1.89543 1 3V15C1 16.1046 1.89543 17 3 17H17C18.1046 17 19 16.1046 19 15V3C19 1.89543 18.1046 1 17 1Z" fill="hsl(230, 57%, 54%)"/><path d="M4.46254 6.70149C4.65755 6.70149 4.81506 6.75622 4.93506 6.86567C5.05506 6.97512 5.11507 7.12438 5.11507 7.31343C5.11507 7.48756 5.05006 7.63433 4.92006 7.75373C4.79505 7.87313 4.64255 7.93284 4.46254 7.93284H3.72002V6.70149H4.46254Z M1 4H19V13H1V4ZM3.72002 8.64925H4.41004C4.88006 8.64925 5.23007 8.5199 5.46008 8.26119C5.69508 8.00249 5.81509 7.69403 5.82009 7.33582C5.82009 6.93284 5.69758 6.60945 5.45258 6.36567C5.21257 6.12189 4.89506 6 4.50005 6H3V11H3.72002V8.64925ZM8.54724 11H9.30476L8.14223 7.75373L9.17726 6H8.38224L7.2047 8V6H6.48468V11H7.2047V9.32836L7.66221 8.5597L8.54724 11ZM13.5505 6H12.8455L12.4029 8.66418L11.9304 6H11.3604L10.8729 8.66418L10.4454 6H9.74036L10.5354 11H11.1654L11.6454 8.38806L12.1179 11H12.7405L13.5505 6ZM15.7475 8.73881L17 6H16.22L15.395 7.80597L14.5474 6H13.7899L15.0274 8.73881V11H15.7475V8.73881Z" fill="hsl(0, 0%, 100%)"/></g></svg>