<svg xmlns="http://www.w3.org/2000/svg" id="us-state-northdakota-2" width="22" height="24" viewBox="0 0 22 24"><g><path d="M0,0 H22 V24 H0 Z" fill="none"/><path d="M19 1H5C3.89543 1 3 1.89543 3 3V17C3 18.1046 3.89543 19 5 19H19C20.1046 19 21 18.1046 21 17V3C21 1.89543 20.1046 1 19 1Z" fill="none" stroke="hsl(0, 0%, 100%)" stroke-linejoin="round" stroke-miterlimit="4px" stroke-width="2"/><path d="M19 1H5C3.89543 1 3 1.89543 3 3V17C3 18.1046 3.89543 19 5 19H19C20.1046 19 21 18.1046 21 17V3C21 1.89543 20.1046 1 19 1Z" fill="hsl(230, 18%, 13%)"/><path d="M4 17L4.4783 6.4773C4.49044 6.21026 4.71047 6 4.97779 6H17.191C17.3804 6 17.5535 6.107 17.6382 6.27639L17.9472 6.89443C17.9819 6.96385 18 7.04041 18 7.11803V9.40371C18 9.46732 18.0121 9.53034 18.0358 9.5894L18.9642 11.9106C18.9879 11.9697 19 12.0327 19 12.0963V14.882C19 14.9596 19.0181 15.0361 19.0528 15.1056L19.9146 16.8292C19.9708 16.9415 20 17.0654 20 17.191C20 17.6378 19.6378 18 19.191 18H5C4.44772 18 4 17.5523 4 17Z" fill="hsl(0, 0%, 100%)"/><path d="M0,9 H22 V15 H0 Z" fill="none" id="mapbox-text-placeholder"/></g></svg>