<svg xmlns="http://www.w3.org/2000/svg" id="us-state-dc-2" width="20" height="32" viewBox="0 0 20 32"><g><path d="M0,0 H20 V32 H0 Z" fill="none"/><path d="M17 1H3C1.89543 1 1 1.89543 1 3V22C1 23.1046 1.89543 24 3 24H17C18.1046 24 19 23.1046 19 22V3C19 1.89543 18.1046 1 17 1Z" fill="none" stroke="hsl(0, 0%, 100%)" stroke-linejoin="round" stroke-miterlimit="4px" stroke-width="2"/><path d="M17 1H3C1.89543 1 1 1.89543 1 3V22C1 23.1046 1.89543 24 3 24H17C18.1046 24 19 23.1046 19 22V3C19 1.89543 18.1046 1 17 1Z" fill="hsl(230, 18%, 13%)"/><path d="M7.26814 5.71823C7.51141 5.71823 7.6874 5.80111 7.80645 5.96133C7.94103 6.1326 7.95656 6.38122 7.95656 7C7.95656 7.62431 7.94103 7.8674 7.80645 8.03867C7.6874 8.1989 7.51141 8.28177 7.26814 8.28177H6.71947V5.71823H7.26814Z M8.82642 2H8.19549L2 7.71892V8.23241L4.65139 10H5.75C6.06476 10 6.36115 10.1482 6.55 10.4L7 11H4.65139C4.45396 11 4.26095 10.9416 4.09669 10.8321L2 9.43426V22C2 22.5523 2.44772 23 3 23H6.5V21H7.5V23H7.75546L9.31101 21H10.5779L9.02232 23H17C17.5523 23 18 22.5523 18 22V11H17.0888L18 9.82845V9.2423L8.82642 2ZM9.28774 7C9.28774 6.24862 9.29291 5.80663 9.66041 5.41436C9.91404 5.14917 10.2246 5 10.649 5C11.3375 5 11.8706 5.41989 12 6.24309H11.2702C11.1977 5.92265 11.0062 5.68508 10.649 5.68508C10.4524 5.68508 10.2919 5.76243 10.1884 5.8895C10.0538 6.05525 10.0072 6.24862 10.0072 7C10.0072 7.75138 10.0538 7.94475 10.1884 8.1105C10.2919 8.23757 10.4524 8.31492 10.649 8.31492C11.0062 8.31492 11.1977 8.07735 11.2702 7.75691H12C11.8706 8.58011 11.3375 9 10.649 9C10.2246 9 9.91404 8.85083 9.66041 8.58564C9.29291 8.19337 9.28774 7.75138 9.28774 7ZM7.33025 8.96685H6V5.03315H7.33025C7.83233 5.03315 8.18948 5.23204 8.44311 5.60773C8.67085 5.94475 8.67603 6.34807 8.67603 7C8.67603 7.65193 8.67085 8.05525 8.44311 8.39227C8.18948 8.76796 7.83233 8.96685 7.33025 8.96685Z M10.4402 2L18 7.96823V3C18 2.44772 17.5523 2 17 2H10.4402Z M2 6.35801L6.72117 2H3C2.44772 2 2 2.44772 2 3V6.35801Z" fill="hsl(0, 0%, 100%)"/><path d="M0,13 H20 V19 H0 Z" fill="none" id="mapbox-text-placeholder"/></g></svg>