<svg xmlns="http://www.w3.org/2000/svg" id="us-state-ohio-turnpike" width="20" height="20" viewBox="0 0 20 20"><g><path d="M0,0 H20 V20 H0 Z" fill="none"/><path d="M17 1H3C1.89543 1 1 1.89543 1 3V17C1 18.1046 1.89543 19 3 19H17C18.1046 19 19 18.1046 19 17V3C19 1.89543 18.1046 1 17 1Z" fill="none" stroke="hsl(0, 0%, 100%)" stroke-linejoin="round" stroke-miterlimit="4px" stroke-width="2"/><path d="M17 1H3C1.89543 1 1 1.89543 1 3V17C1 18.1046 1.89543 19 3 19H17C18.1046 19 19 18.1046 19 17V3C19 1.89543 18.1046 1 17 1Z" fill="hsl(140, 74%, 37%)"/><path d="M10.9136 7.0844C10.9136 6.80955 10.7281 6.61966 10.4378 6.61966H9.8098V7.55414H10.4378C10.7281 7.55414 10.9136 7.36424 10.9136 7.0844Z M6.49747 11.0616C6.79722 11.0616 6.98754 11.2565 6.98754 11.5514C6.98754 11.8412 6.79722 12.0411 6.49747 12.0411H5.87894V11.0616H6.49747Z M3 3H6.79289C6.9255 3 7.05268 3.05268 7.14645 3.14645L7.85355 3.85355C7.94732 3.94732 8.0745 4 8.20711 4H8.88197C8.95959 4 9.03615 3.98193 9.10557 3.94721L9.89443 3.55279C9.96385 3.51807 10.0404 3.5 10.118 3.5H10.882C10.9596 3.5 11.0361 3.51807 11.1056 3.55279L11.8944 3.94721C11.9639 3.98193 12.0404 4 12.118 4H12.882C12.9596 4 13.0361 3.98193 13.1056 3.94721L14.8466 3.07672C14.946 3.027 15.0592 3.01184 15.1682 3.03364L17.2155 3.44309C17.3914 3.47828 17.535 3.60505 17.5918 3.77527L17.9743 4.92302C17.9913 4.97401 18 5.0274 18 5.08114V13.7929C18 13.9255 17.9473 14.0527 17.8536 14.1464L16.1464 15.8536C16.0527 15.9473 15.9255 16 15.7929 16H13.8604C13.6452 16 13.4541 16.1377 13.386 16.3419L13.114 17.1581C13.0459 17.3623 12.8548 17.5 12.6396 17.5H11.5811C11.5274 17.5 11.474 17.5087 11.423 17.5257L10.077 17.9743C10.026 17.9913 9.9726 18 9.91886 18H9.20711C9.0745 18 8.94732 17.9473 8.85355 17.8536L8.1133 17.1133C8.03961 17.0396 7.94474 16.9908 7.84195 16.9737L5.15805 16.5263C5.05526 16.5092 4.96039 16.4604 4.8867 16.3867L4.05737 15.5574C4.01937 15.5194 3.97549 15.4877 3.92743 15.4637L2.27639 14.6382C2.107 14.5535 2 14.3804 2 14.191V4C2 3.44772 2.44772 3 3 3ZM5.43129 6H3V6.61966H3.88497V9.55802H4.54632V6.61966H5.43129V6ZM8.41112 6H7.74977V8.31371C7.74977 8.71849 7.51663 8.96835 7.15979 8.96835C6.80294 8.96835 6.57932 8.71849 6.57932 8.31371V6H5.91797V8.3387C5.91797 9.09328 6.46513 9.58801 7.15979 9.58801C7.8592 9.58801 8.41112 9.09328 8.41112 8.3387V6ZM9.14845 9.55802H9.8098V8.13881H10.2856L10.9469 9.55802H11.713L10.9565 8.02388C11.2847 7.90394 11.575 7.58912 11.575 7.08939C11.575 6.49472 11.1706 6 10.4759 6H9.14845V9.55802ZM14.8546 6H14.1932V8.17379L12.8515 6H12.2615V9.55802H12.9229V7.38423L14.2694 9.55802H14.8546V6ZM15.5346 7.82399V8.43365H17V7.82399H15.5346ZM5.21759 10.442V14H5.87894V12.6607H6.53078C7.23495 12.6607 7.64889 12.156 7.64889 11.5514C7.64889 10.9467 7.23495 10.442 6.53078 10.442H5.21759ZM8.20523 10.442V14H8.86658V10.442H8.20523ZM12.3287 10.442H11.5199L10.3209 11.9911V10.442H9.65955V14H10.3209V12.9306L10.7634 12.3809L11.6341 14H12.4096L11.2059 11.8562L12.3287 10.442ZM12.8284 10.442V14H15.0599V13.3803H13.4897V12.5158H14.8315V11.8962H13.4897V11.0616H15.0599V10.442H12.8284Z" fill="hsl(0, 0%, 100%)"/></g></svg>