<svg xmlns="http://www.w3.org/2000/svg" id="us-state-newjersey-expressway-atlantic" width="20" height="20" viewBox="0 0 20 20"><g><path d="M0,0 H20 V20 H0 Z" fill="none"/><path d="M19 10C19 14.9706 14.9706 19 10 19C5.02944 19 1 14.9706 1 10C1 5.02944 5.02944 1 10 1C14.9706 1 19 5.02944 19 10Z" fill="none" stroke="hsl(230, 57%, 54%)" stroke-linejoin="round" stroke-miterlimit="4px" stroke-width="2"/><path d="M19 10C19 14.9706 14.9706 19 10 19C5.02944 19 1 14.9706 1 10C1 5.02944 5.02944 1 10 1C14.9706 1 19 5.02944 19 10Z" fill="hsl(0, 0%, 100%)"/><path d="M9 18.9448V16.5077C9 16.1985 9.27813 15.9647 9.5866 15.9857C9.7232 15.995 9.86105 15.9998 10 15.9998C10.139 15.9998 10.2768 15.995 10.4134 15.9857C10.7219 15.9647 11 16.1985 11 16.5077V18.9448C11.3394 18.9073 11.6731 18.8509 12 18.7767V17.9417C12 17.8277 12.0775 17.7284 12.1872 17.6973C14.8472 16.943 16.9431 14.847 17.6974 12.187C17.7285 12.0772 17.8277 11.9998 17.9418 11.9998H18.777C18.8512 11.6728 18.9076 11.3391 18.9451 10.9998H16.5079C16.1987 10.9998 15.965 10.7216 15.986 10.4132C15.9953 10.2766 16 10.1387 16 9.99976C16 9.8608 15.9953 9.72295 15.986 9.58636C15.965 9.27788 16.1987 8.99976 16.5079 8.99976H18.9451C18.9076 8.66038 18.8512 8.32669 18.777 7.99976H17.9417C17.8276 7.99976 17.7284 7.92231 17.6973 7.81257C16.9429 5.15277 14.847 3.05698 12.1872 2.30265C12.0775 2.27153 12 2.1723 12 2.05823V1.22278C11.6731 1.14859 11.3394 1.0922 11 1.05469V3.49185C11 3.80103 10.7219 4.03477 10.4134 4.01378C10.2768 4.00448 10.139 3.99976 10 3.99976C9.86105 3.99976 9.7232 4.00448 9.5866 4.01378C9.27813 4.03477 9 3.80103 9 3.49185V1.05469C8.66062 1.0922 8.32693 1.14859 8 1.22278V2.05822C8 2.17229 7.92255 2.27152 7.8128 2.30265C5.15297 3.05696 3.05711 5.15276 2.30271 7.81257C2.27159 7.92231 2.17235 7.99976 2.05829 7.99976H1.22302C1.14883 8.32669 1.09245 8.66038 1.05493 8.99976H3.49209C3.80128 8.99976 4.03501 9.27788 4.01402 9.58636C4.00473 9.72295 4 9.8608 4 9.99976C4 10.1387 4.00473 10.2766 4.01402 10.4132C4.03501 10.7216 3.80128 10.9998 3.49209 10.9998H1.05493C1.09245 11.3391 1.14883 11.6728 1.22302 11.9998H2.05816C2.17223 11.9998 2.27147 12.0772 2.30259 12.187C3.05688 14.847 5.15282 16.943 7.8128 17.6973C7.92255 17.7285 8 17.8277 8 17.9418V18.7767C8.32693 18.8509 8.66062 18.9073 9 18.9448ZM8 4.16438C8 4.27033 7.933 4.3643 7.8342 4.40256C6.26264 5.01108 5.01132 6.2624 4.4028 7.83396C4.36454 7.93276 4.27057 7.99976 4.16462 7.99976H3.62519C3.45795 7.99976 3.33794 7.83857 3.39333 7.68077C4.09553 5.68036 5.68058 4.09536 7.68103 3.39324C7.83883 3.33785 8 3.45787 8 3.6251V4.16438ZM4.4028 12.1656C4.51915 12.466 4.659 12.7548 4.8201 13.0296C4.92867 13.2148 5.19658 13.1643 5.24575 12.9553L7 5.49976V7.99976C7 9.19652 6.36345 12.9395 6.10608 14.4039C6.09083 14.4907 6.12208 14.5792 6.19011 14.6351C6.67931 15.0377 7.23335 15.3643 7.8342 15.597C7.93301 15.6352 8 15.7292 8 15.8351V16.3749C8 16.5421 7.83883 16.6621 7.68103 16.6067C5.68042 15.9046 4.09528 14.3194 3.39316 12.3187C3.33778 12.1609 3.45779 11.9998 3.62503 11.9998H4.16462C4.27057 11.9998 4.36454 12.0667 4.4028 12.1656ZM12.1658 15.597C13.7374 14.9884 14.9887 13.7371 15.5972 12.1656C15.6355 12.0668 15.7294 11.9998 15.8354 11.9998H16.3749C16.5422 11.9998 16.6622 12.1609 16.6068 12.3187C15.9047 14.3194 14.3196 15.9045 12.319 16.6067C12.1612 16.6621 12 16.5421 12 16.3749V15.8351C12 15.7292 12.067 15.6352 12.1658 15.597ZM15.5972 7.83395C14.9887 6.2624 13.7374 5.01108 12.1658 4.40256C12.067 4.3643 12 4.27033 12 4.16438V3.62511C12 3.45787 12.1612 3.33786 12.319 3.39325C14.3194 4.09538 15.9045 5.68037 16.6066 7.68077C16.662 7.83857 16.542 7.99976 16.3748 7.99976H15.8354C15.7294 7.99976 15.6355 7.93276 15.5972 7.83395Z" fill="hsl(230, 57%, 54%)"/><path d="M14 12.4998C11.5 13.4998 10.2078 11.9998 7 11.6783C7.5 9.50006 7.5 8.50006 7.49998 5.51289C10.4387 5.42754 12.2708 7.98381 14.9999 8.49983L12.9999 10.4998C13.3197 11.1324 14 12.4998 14 12.4998Z" fill="hsl(0, 87%, 59%)"/></g></svg>