<svg xmlns="http://www.w3.org/2000/svg" id="us-state-washington-3" width="26" height="23" viewBox="0 0 26 23"><g><path d="M0,0 H26 V23 H0 Z" fill="none"/><path d="M23 4H3C1.89543 4 1 4.89543 1 6V20C1 21.1046 1.89543 22 3 22H23C24.1046 22 25 21.1046 25 20V6C25 4.89543 24.1046 4 23 4Z" fill="none" stroke="hsl(0, 0%, 100%)" stroke-linejoin="round" stroke-miterlimit="4px" stroke-width="2"/><path d="M23 4H3C1.89543 4 1 4.89543 1 6V20C1 21.1046 1.89543 22 3 22H23C24.1046 22 25 21.1046 25 20V6C25 4.89543 24.1046 4 23 4Z" fill="hsl(230, 18%, 13%)"/><path d="M8.58102 5H18.3819C18.4595 5 18.536 5.01807 18.6055 5.05279L19.4017 5.45089C19.4664 5.48324 19.5233 5.52926 19.5685 5.58575L21.4536 7.37335C21.4843 7.41171 21.5092 7.45439 21.5274 7.5L22.4618 10.4047C22.4869 10.4676 22.5246 10.5247 22.5725 10.5726L23.7997 11.7998C23.9239 11.924 23.9738 12.1043 23.9312 12.2746L23.5408 13.8363C23.5143 13.9425 23.4536 14.037 23.3681 14.1054L21.1875 15.8499C21.0689 15.9448 20.9999 16.0884 20.9999 16.2403V16.691C20.9999 17.0627 21.391 17.3044 21.7235 17.1382L21.8943 17.0528C21.9637 17.0181 22.0403 17 22.1179 17H22.1909C22.5626 17 22.8043 17.3912 22.6381 17.7236L22.2235 18.5528C22.1 18.7998 22.2001 19.1001 22.4471 19.2236L23.6582 19.8292C23.8676 19.9339 23.9999 20.1479 23.9999 20.382C23.9999 20.7233 23.7232 21 23.3819 21H3.63267C3.28319 21 2.99989 20.7167 2.99989 20.3672C2.99989 20.1401 3.12156 19.9305 3.31872 19.8178L6.12235 18.2157C6.35581 18.0823 6.49989 17.8341 6.49989 17.5652C6.49989 17.2306 6.27812 16.9366 5.95645 16.8447L3.36252 16.1036C3.14787 16.0423 2.99989 15.8461 2.99989 15.6228V15.5656C2.99989 15.5221 3.00558 15.4787 3.01683 15.4366L3.17694 14.8373C3.20112 14.7468 3.1994 14.6514 3.17197 14.5618L3.02181 14.0716C3.00727 14.0241 2.99989 13.9748 2.99989 13.9251V13.4058C2.99989 13.1817 2.81822 13 2.59413 13C2.30844 13 2.11221 12.7126 2.21622 12.4465L2.69895 11.2115C2.73177 11.1275 2.7867 11.054 2.85791 10.9987L3.30661 10.6501C3.42855 10.5554 3.49989 10.4097 3.49989 10.2553V10.0616C3.49989 10.0207 3.5049 9.97995 3.51481 9.94029L3.9663 8.13436C3.98828 8.04644 4.03373 7.96615 4.09781 7.90207L4.94251 7.05737C4.98051 7.01937 5.01214 6.97549 5.03617 6.92743L5.40726 6.18524C5.46657 6.06663 5.57056 5.97644 5.69636 5.93451L8.42291 5.02566C8.47389 5.00866 8.52728 5 8.58102 5Z" fill="hsl(0, 0%, 100%)"/><path d="M0,8.5 H26 V14.5 H0 Z" fill="none" id="mapbox-text-placeholder"/></g></svg>