<svg xmlns="http://www.w3.org/2000/svg" id="us-state-arkansas-3" width="26" height="21" viewBox="0 0 26 21"><g><path d="M0,0 H26 V21 H0 Z" fill="none"/><path d="M23 2H3C1.89543 2 1 2.89543 1 4V18C1 19.1046 1.89543 20 3 20H23C24.1046 20 25 19.1046 25 18V4C25 2.89543 24.1046 2 23 2Z" fill="none" stroke="hsl(0, 0%, 100%)" stroke-linejoin="round" stroke-miterlimit="4px" stroke-width="2"/><path d="M23 2H3C1.89543 2 1 2.89543 1 4V18C1 19.1046 1.89543 20 3 20H23C24.1046 20 25 19.1046 25 18V4C25 2.89543 24.1046 2 23 2Z" fill="hsl(230, 18%, 13%)"/><path d="M2.51954 3C2.23586 3 2.00901 3.23575 2.01991 3.51922L2.48145 15.5192C2.49177 15.7877 2.71241 16 2.98108 16H4.49994C4.77608 16 4.99994 16.2239 4.99994 16.5V18.5C4.99994 18.7761 5.2238 19 5.49994 19H21.4999C21.7761 19 21.9999 18.7761 21.9999 18.5V16.1026C21.9999 16.0349 22.0137 15.9679 22.0404 15.9057L23.9595 9.09433C23.9862 9.03209 23.9999 8.96508 23.9999 8.89737V6.16877C23.9999 6.05929 23.964 5.95284 23.8977 5.86575L21.8643 3.19698C21.7697 3.07285 21.6226 3 21.4666 3H2.51954Z" fill="hsl(0, 0%, 100%)"/><path d="M0,7.5 H26 V13.5 H0 Z" fill="none" id="mapbox-text-placeholder"/></g></svg>