<svg xmlns="http://www.w3.org/2000/svg" id="us-state-alaska-3" width="30" height="22" viewBox="0 0 30 22"><g><path d="M0,0 H30 V22 H0 Z" fill="none"/><path d="M23 3H3C1.89543 3 1 3.89543 1 5V19C1 20.1046 1.89543 21 3 21H23C24.1046 21 25 20.1046 25 19V5C25 3.89543 24.1046 3 23 3Z" fill="none" stroke="hsl(0, 0%, 100%)" stroke-linejoin="round" stroke-miterlimit="4px" stroke-width="2"/><path d="M23 3H3C1.89543 3 1 3.89543 1 5V19C1 20.1046 1.89543 21 3 21H23C24.1046 21 25 20.1046 25 19V5C25 3.89543 24.1046 3 23 3Z" fill="hsl(230, 18%, 13%)"/><path d="M23 20C23.5523 20 24 19.5523 24 19V5C24 4.44772 23.5523 4 23 4H3C2.44772 4 2 4.44772 2 5V19C2 19.5523 2.44772 20 3 20H23ZM22.252 5.65854L23 5.77236L22.4472 6.27642L22.5772 7L21.9106 6.65854L21.2439 7L21.374 6.27642L20.8374 5.76423L21.5854 5.65854L21.9187 5L22.252 5.65854ZM4.09334 14.0165L4.66514 14.1045L4.25043 14.5003L4.35096 15.0596L3.83571 14.7957L3.32046 15.0596L3.41471 14.4941L3 14.0982L3.57809 14.0165L3.83571 13.5075L4.09334 14.0165ZM6.83571 14.0165L7.09334 14.5255L7.66514 14.6072L7.25043 15.003L7.35096 15.5685L6.83571 15.3046L6.32046 15.5685L6.41471 15.003L6 14.6072L6.57809 14.5255L6.83571 14.0165ZM10.0933 15.3456L10.6651 15.4273L10.2504 15.8232L10.351 16.3824L9.83571 16.1185L9.32046 16.3824L9.41471 15.8232L9 15.4273L9.57809 15.3456L9.83571 14.8366L10.0933 15.3456ZM12.342 17.2812L11.8267 17.5452L11.9147 16.9859L11.5 16.5901L12.0781 16.5084L12.3357 15.9994L12.5933 16.5084L13.1714 16.5901L12.7567 16.9859L12.8572 17.5452L12.342 17.2812ZM22.2512 16.0511L21.8239 16.4407L21.9244 17L21.4092 16.7361L20.8939 17L20.9945 16.4407L20.5797 16.0449L21.1578 15.9632L21.4155 15.4542L21.6731 15.9632L22.2512 16.0511ZM19.0708 17.4542L19.3284 17.9632L19.8939 18.0449L19.4792 18.4407L19.5797 19L19.0645 18.7361L18.5492 19L18.6498 18.4407L18.2351 18.0449L18.8132 17.9632L19.0708 17.4542ZM15.0933 17.9632L15.6589 18.0449L15.2441 18.4407L15.3447 19L14.8294 18.7361L14.3142 19L14.4147 18.4407L14 18.0449L14.5781 17.9632L14.8357 17.4542L15.0933 17.9632Z" fill="hsl(0, 0%, 100%)"/><path d="M0,8 H30 V14 H0 Z" fill="none" id="mapbox-text-placeholder"/></g></svg>