<svg xmlns="http://www.w3.org/2000/svg" id="us-state-southdakota-4" width="32" height="21" viewBox="0 0 32 21"><g><path d="M0,0 H32 V21 H0 Z" fill="none"/><path d="M29 2H3C1.89543 2 1 2.89543 1 4V18C1 19.1046 1.89543 20 3 20H29C30.1046 20 31 19.1046 31 18V4C31 2.89543 30.1046 2 29 2Z" fill="none" stroke="hsl(0, 0%, 100%)" stroke-linejoin="round" stroke-miterlimit="4px" stroke-width="2"/><path d="M29 2H3C1.89543 2 1 2.89543 1 4V18C1 19.1046 1.89543 20 3 20H29C30.1046 20 31 19.1046 31 18V4C31 2.89543 30.1046 2 29 2Z" fill="hsl(140, 74%, 37%)"/><path d="M2.9313 3.96256L2.07657 15.9288C2.03522 16.5076 2.49368 17 3.07403 17H4.88202C4.95964 17 5.03619 17.0181 5.10562 17.0528L5.89448 17.4472C5.9639 17.4819 6.04046 17.5 6.11808 17.5H10.9505C10.9835 17.5 11.0163 17.4967 11.0486 17.4903L13.4515 17.0097C13.4838 17.0033 13.5166 17 13.5496 17H15.9385C15.9794 17 16.0201 17.005 16.0598 17.0149L19.9403 17.9851C19.98 17.995 20.0207 18 20.0616 18H23L26.7996 17.5251C26.9282 17.509 27.058 17.5434 27.1616 17.6212L28.8667 18.9C28.9533 18.9649 29.0585 19 29.1667 19H29.5C29.7762 19 30 18.7761 30 18.5V16.118C30 16.0404 29.982 15.9639 29.9473 15.8944L29.2237 14.4472C29.1002 14.2002 29.2003 13.8999 29.4473 13.7764L29.6122 13.6939C29.8347 13.5827 29.9416 13.3247 29.8629 13.0886L29.5359 12.1076C29.5123 12.0368 29.5049 11.9615 29.5141 11.8875L29.9562 8.35103C29.9825 8.14067 29.8733 7.9366 29.6836 7.84179L29.2764 7.6382C29.107 7.5535 29 7.38037 29 7.19098V5.41421C29 5.149 29.1054 4.89464 29.2929 4.70711L29.7929 4.20711C29.9256 4.0745 30 3.89464 30 3.70711C30 3.31658 29.6835 3 29.2929 3H29L19 3.5H17L3.96445 3.03444C3.42636 3.01523 2.96966 3.4255 2.9313 3.96256Z" fill="hsl(0, 0%, 100%)"/><path d="M0,7.5 H32 V13.5 H0 Z" fill="none" id="mapbox-text-placeholder"/></g></svg>