<svg xmlns="http://www.w3.org/2000/svg" id="us-state-georgia-2" width="21" height="20" viewBox="0 0 21 20"><g><path d="M0,0 H21 V20 H0 Z" fill="none"/><path d="M18 1H4C2.89543 1 2 1.89543 2 3V17C2 18.1046 2.89543 19 4 19H18C19.1046 19 20 18.1046 20 17V3C20 1.89543 19.1046 1 18 1Z" fill="none" stroke="hsl(0, 0%, 100%)" stroke-linejoin="round" stroke-miterlimit="4px" stroke-width="2"/><path d="M18 1H4C2.89543 1 2 1.89543 2 3V17C2 18.1046 2.89543 19 4 19H18C19.1046 19 20 18.1046 20 17V3C20 1.89543 19.1046 1 18 1Z" fill="hsl(230, 18%, 13%)"/><path d="M3.18185 2.81806L3.85346 2.14645C3.94723 2.05268 4.07441 2 4.20702 2H12.7699C12.9159 2 13.0546 2.06378 13.1496 2.1746L18.8795 8.85957C18.9572 8.95019 18.9999 9.06561 18.9999 9.18496V10.9134C18.9999 10.9707 18.9901 11.0276 18.9708 11.0816L16.6184 17.6682C16.5473 17.8672 16.3589 18 16.1475 18H15.207C15.0744 18 14.9472 17.9473 14.8535 17.8536L14.1464 17.1464C14.0526 17.0527 13.9254 17 13.7928 17H4.99991C4.72377 17 4.49991 16.7761 4.49991 16.5V12.0414C4.49991 12.0138 4.49763 11.9863 4.49311 11.9592L3.04221 3.25381C3.01566 3.09453 3.06767 2.93224 3.18185 2.81806Z" fill="hsl(0, 0%, 100%)"/><path d="M0,7 H21 V13 H0 Z" fill="none" id="mapbox-text-placeholder"/></g></svg>