<svg xmlns="http://www.w3.org/2000/svg" id="us-state-minnesota-2" width="20" height="25" viewBox="0 0 20 25"><g><path d="M0,0 H20 V25 H0 Z" fill="none"/><path d="M17 1H3C1.89543 1 1 1.89543 1 3V17C1 18.1046 1.89543 19 3 19H17C18.1046 19 19 18.1046 19 17V3C19 1.89543 18.1046 1 17 1Z" fill="none" stroke="hsl(230, 57%, 54%)" stroke-linejoin="round" stroke-miterlimit="4px" stroke-width="2"/><path d="M17 1H3C1.89543 1 1 1.89543 1 3V17C1 18.1046 1.89543 19 3 19H17C18.1046 19 19 18.1046 19 17V3C19 1.89543 18.1046 1 17 1Z" fill="hsl(50, 100%, 70%)"/><path d="M2 2.92356V2.96026C2 2.98671 2.00219 3.01311 2.00653 3.0392L2.43037 5.5822C2.47055 5.82329 2.67914 6 2.92356 6H5.22654C5.37757 6 5.5 5.87757 5.5 5.72654C5.5 5.58149 5.44238 5.44238 5.33981 5.33981L5.25 5.25C5.08993 5.08993 5 4.87282 5 4.64645V4.20711C5 4.0745 5.05268 3.94732 5.14645 3.85355L5.8839 3.1161C5.95824 3.04176 6 2.94094 6 2.8358C6 2.64203 5.85991 2.47665 5.66876 2.44479L3.0754 2.01257C3.02522 2.0042 2.97443 2 2.92356 2C2.41349 2 2 2.41349 2 2.92356Z M18 7H2V17C2 17.5523 2.44772 18 3 18H17C17.5523 18 18 17.5523 18 17V7Z" fill="hsl(230, 57%, 54%)"/><path d="M0,9.5 H20 V15.5 H0 Z" fill="none" id="mapbox-text-placeholder"/></g></svg>