<svg xmlns="http://www.w3.org/2000/svg" id="us-state-nevada-3" width="26" height="24" viewBox="0 0 26 24"><g><path d="M0,0 H26 V24 H0 Z" fill="none"/><path d="M23 5H3C1.89543 5 1 5.89543 1 7V21C1 22.1046 1.89543 23 3 23H23C24.1046 23 25 22.1046 25 21V7C25 5.89543 24.1046 5 23 5Z" fill="none" stroke="hsl(0, 0%, 100%)" stroke-linejoin="round" stroke-miterlimit="4px" stroke-width="2"/><path d="M23 5H3C1.89543 5 1 5.89543 1 7V21C1 22.1046 1.89543 23 3 23H23C24.1046 23 25 22.1046 25 21V7C25 5.89543 24.1046 5 23 5Z" fill="hsl(230, 18%, 13%)"/><path d="M23 6H3C2.44772 6 2 6.44771 2 7V16.6051C2 16.8366 2.15896 17.0378 2.38419 17.0915L22.8978 21.9757C22.9657 21.9918 23.0353 22 23.1051 22H23.25C23.6642 22 24 21.6642 24 21.25C24 21.0877 23.9474 20.9298 23.85 20.8L22.7 19.2667C22.5702 19.0936 22.5 18.883 22.5 18.6667V18.5C22.5 18.2239 22.7239 18 23 18H23.5C23.7761 18 24 17.7761 24 17.5V7C24 6.44772 23.5523 6 23 6Z" fill="hsl(0, 0%, 100%)"/><path d="M0,9 H26 V15 H0 Z" fill="none" id="mapbox-text-placeholder"/></g></svg>