<svg xmlns="http://www.w3.org/2000/svg" id="us-state-ohio-3" width="26" height="20" viewBox="0 0 26 20"><g><path d="M0,0 H26 V20 H0 Z" fill="none"/><path d="M23 1H3C1.89543 1 1 1.89543 1 3V17C1 18.1046 1.89543 19 3 19H23C24.1046 19 25 18.1046 25 17V3C25 1.89543 24.1046 1 23 1Z" fill="none" stroke="hsl(0, 0%, 100%)" stroke-linejoin="round" stroke-miterlimit="4px" stroke-width="2"/><path d="M23 1H3C1.89543 1 1 1.89543 1 3V17C1 18.1046 1.89543 19 3 19H23C24.1046 19 25 18.1046 25 17V3C25 1.89543 24.1046 1 23 1Z" fill="hsl(230, 18%, 13%)"/><path d="M2 14.25V4C2 3.72386 2.22386 3.5 2.5 3.5H7.46447C7.48813 3.5 7.51175 3.50168 7.53518 3.50503L10.9648 3.99497C10.9882 3.99832 11.0119 4 11.0355 4H13.9586C13.9862 4 14.0137 4.00228 14.0408 4.0068L16.9592 4.4932C16.9863 4.49772 17.0138 4.5 17.0414 4.5H17.9093C17.9693 4.5 18.0288 4.48922 18.0849 4.46816L21.9151 3.03184C21.9712 3.01078 22.0307 3 22.0907 3H23.0399C23.3 3 23.5166 3.19933 23.5382 3.45848L24 9V9.84861C24 9.94732 23.9708 10.0438 23.916 10.126L23.084 11.374C23.0292 11.4562 23 11.5527 23 11.6514V13.7929C23 13.9255 22.9473 14.0527 22.8536 14.1464L21.1464 15.8536C21.0527 15.9473 20.9255 16 20.7929 16H20.118C20.0404 16 19.9639 16.0181 19.8944 16.0528L18.1056 16.9472C18.0361 16.9819 17.9596 17 17.882 17H17.118C17.0404 17 16.9639 17.0181 16.8944 17.0528L15.1056 17.9472C15.0361 17.9819 14.9596 18 14.882 18H12.07C12.0236 18 11.9773 17.9935 11.9327 17.9808L8.5 17L4.10527 16.0234C4.03589 16.008 3.97059 15.9779 3.91373 15.9353L2.2 14.65C2.0741 14.5556 2 14.4074 2 14.25Z" fill="hsl(0, 0%, 100%)"/><path d="M0,7 H26 V13 H0 Z" fill="none" id="mapbox-text-placeholder"/></g></svg>