<svg xmlns="http://www.w3.org/2000/svg" id="us-state-florida-turnpike" width="20" height="22" viewBox="0 0 20 22"><g><path d="M0,0 H20 V22 H0 Z" fill="none"/><path d="M17 1H3C1.89543 1 1 1.89543 1 3V19C1 20.1046 1.89543 21 3 21H17C18.1046 21 19 20.1046 19 19V3C19 1.89543 18.1046 1 17 1Z" fill="none" stroke="hsl(0, 0%, 100%)" stroke-linejoin="round" stroke-miterlimit="4px" stroke-width="2"/><path d="M17 1H3C1.89543 1 1 1.89543 1 3V19C1 20.1046 1.89543 21 3 21H17C18.1046 21 19 20.1046 19 19V3C19 1.89543 18.1046 1 17 1Z" fill="hsl(140, 74%, 37%)"/><path d="M7.19098 4H3.5C3.22386 4 3 4.22386 3 4.5V4.79289C3 4.9255 3.05268 5.05268 3.14645 5.14645L3.35355 5.35355C3.44732 5.44732 3.5745 5.5 3.70711 5.5H5.29289C5.4255 5.5 5.55268 5.55268 5.64645 5.64645L5.85355 5.85355C5.94732 5.94732 6.0745 6 6.20711 6H6.29289C6.4255 6 6.55268 6.05268 6.64645 6.14645L6.94263 6.44263C6.98063 6.48063 7.01225 6.52451 7.03629 6.57257L7.36612 7.23224C7.44817 7.39634 7.61589 7.5 7.79936 7.5C7.92783 7.5 8.05103 7.44897 8.14187 7.35813L9.17794 6.32206C9.29679 6.20321 9.5 6.28739 9.5 6.45546C9.5 6.48475 9.50682 6.51364 9.51992 6.53983L10.3618 8.22361C10.4465 8.393 10.6196 8.5 10.809 8.5H11.1396C11.3548 8.5 11.5459 8.63771 11.614 8.84189L11.9473 9.84189C11.9815 9.94452 11.9815 10.0555 11.9473 10.1581L11.6371 11.0886C11.5584 11.3247 11.6653 11.5827 11.8879 11.6939L12.0528 11.7764C12.2998 11.8999 12.3999 12.2002 12.2764 12.4472L12.0528 12.8944C12.0181 12.9639 12 13.0404 12 13.118V13.7929C12 13.9255 12.0527 14.0527 12.1464 14.1464L12.3536 14.3536C12.4344 14.4344 12.5656 14.4344 12.6464 14.3536C12.7769 14.2231 13 14.3155 13 14.5V14.75C13 14.8881 13.1119 15 13.25 15C13.3881 15 13.5 15.1119 13.5 15.25V16.2929C13.5 16.4255 13.5527 16.5527 13.6464 16.6464L13.8581 16.8581C13.949 16.949 14.0722 17 14.2006 17C14.3841 17 14.5518 17.1037 14.6339 17.2678L15.3618 18.7236C15.4465 18.893 15.6196 19 15.809 19H16C16.2761 19 16.5 18.7761 16.5 18.5V15.118C16.5 15.0404 16.5181 14.9639 16.5528 14.8944L16.8882 14.2236C16.9586 14.0828 16.9586 13.9172 16.8882 13.7764L15.1118 10.2236C15.0414 10.0828 15.0414 9.91716 15.1118 9.77639L15.4025 9.19502C15.4647 9.07066 15.4723 8.92603 15.4234 8.79585L14.1217 5.32444C14.0485 5.12929 13.8619 5 13.6535 5H13.5C13.2239 5 13 5.22386 13 5.5V5.69098C13 5.86165 12.8616 6 12.691 6C12.5739 6 12.4669 5.93387 12.4146 5.82918L12.1382 5.27639C12.0535 5.107 11.8804 5 11.691 5H8.30902C8.11963 5 7.9465 4.893 7.8618 4.72361L7.6382 4.27639C7.5535 4.107 7.38037 4 7.19098 4Z" fill="hsl(0, 0%, 100%)"/></g></svg>