<svg xmlns="http://www.w3.org/2000/svg" id="us-state-newjersey-parkway-garden" width="20" height="20" viewBox="0 0 20 20"><g><path d="M0,0 H20 V20 H0 Z" fill="none"/><path d="M19 10C19 14.9706 14.9706 19 10 19C5.02944 19 1 14.9706 1 10C1 5.02944 5.02944 1 10 1C14.9706 1 19 5.02944 19 10Z" fill="none" stroke="hsl(50, 100%, 70%)" stroke-linejoin="round" stroke-miterlimit="4px" stroke-width="2"/><path d="M19 10C19 14.9706 14.9706 19 10 19C5.02944 19 1 14.9706 1 10C1 5.02944 5.02944 1 10 1C14.9706 1 19 5.02944 19 10Z" fill="hsl(140, 74%, 37%)"/><path d="M9.48219 3.01886C5.85799 3.28386 3 6.30817 3 10C3 13.5649 5.66482 16.5074 9.11111 16.9441V16.7649C9.11111 16.6515 9.0677 16.5423 8.98978 16.4598L8.88889 16.3529C8.76827 16.2252 8.56507 16.2252 8.44444 16.3529C8.32382 16.4807 8.12062 16.4807 8 16.3529L6.13649 14.3798C6.04883 14.287 6 14.1642 6 14.0365V13.4929C6 13.3652 6.04883 13.2424 6.13649 13.1496L6.31594 12.9596C6.39847 12.8722 6.44444 12.7566 6.44444 12.6364C6.44444 12.462 6.54083 12.3019 6.69494 12.2203L8.14931 11.4504C8.19759 11.4248 8.24136 11.3915 8.27887 11.3518L8.96313 10.6273C9.05758 10.5273 9.18907 10.4706 9.32663 10.4706H9.35271C9.48218 10.4706 9.60594 10.4172 9.69483 10.3231C9.86612 10.1418 9.86612 9.85824 9.69483 9.67688L9.68722 9.66882C9.60266 9.57929 9.55556 9.4608 9.55556 9.33765V9.25761C9.55556 9.12994 9.50672 9.00711 9.41906 8.9143L9.20303 8.68556C9.14436 8.62344 9.06269 8.58823 8.97724 8.58823C8.80571 8.58823 8.66667 8.44919 8.66667 8.27766V7.84585C8.66667 7.71818 8.61783 7.59535 8.53017 7.50253L8.31414 7.2738C8.25547 7.21167 8.1738 7.17647 8.08835 7.17647C7.91683 7.17647 7.77778 7.03742 7.77778 6.8659V6.43408C7.77778 6.30642 7.82661 6.18358 7.91427 6.09077L8.44444 5.52941C8.56917 5.39734 8.56917 5.19089 8.44444 5.05882C8.31971 4.92675 8.31971 4.7203 8.44444 4.58823L8.61203 4.41079C8.64823 4.37246 8.67813 4.32865 8.70065 4.28098L9.07713 3.48372C9.09964 3.43605 9.12955 3.39224 9.16575 3.35391L9.48219 3.01886Z M9.87074 16.9988C9.91373 16.9996 9.95682 17 10 17C13.866 17 17 13.866 17 10C17 7.62117 15.8134 5.51949 13.9998 4.25456C13.9979 4.32368 13.9817 4.39171 13.9521 4.45432L13.5556 5.29412L13.1827 6.47843C13.1401 6.6138 13.0146 6.70588 12.8727 6.70588C12.7469 6.70588 12.6324 6.77842 12.5787 6.89214L12.259 7.56911C12.2348 7.62044 12.2222 7.67649 12.2222 7.73325C12.2222 7.94555 12.3943 8.11765 12.6066 8.11765H12.8956C13.0332 8.11765 13.1646 8.17432 13.2591 8.27433L13.4191 8.44371C13.5067 8.53653 13.5556 8.65936 13.5556 8.78702V8.9467C13.5556 9.02053 13.5392 9.09345 13.5077 9.16021L13.159 9.89861C13.1275 9.96537 13.1111 10.0383 13.1111 10.1121V10.8291C13.1111 10.9029 13.0948 10.9758 13.0632 11.0426L12.7145 11.781C12.683 11.8477 12.6667 11.9206 12.6667 11.9945V12.6247C12.6667 12.7524 12.6178 12.8752 12.5302 12.9681L11.9143 13.6202C11.8266 13.713 11.7778 13.8358 11.7778 13.9635V14.5071C11.7778 14.6348 11.7289 14.7576 11.6413 14.8504L10.0789 16.5047C10.027 16.5597 9.9882 16.6257 9.96549 16.6979L9.87074 16.9988Z" fill="hsl(50, 100%, 70%)"/></g></svg>