<svg xmlns="http://www.w3.org/2000/svg" id="us-state-montana-alt-2" width="20" height="21" viewBox="0 0 20 21"><g><path d="M0,0 H20 V21 H0 Z" fill="none"/><path d="M17 2H3C1.89543 2 1 2.89543 1 4V18C1 19.1046 1.89543 20 3 20H17C18.1046 20 19 19.1046 19 18V4C19 2.89543 18.1046 2 17 2Z" fill="none" stroke="hsl(0, 0%, 100%)" stroke-linejoin="round" stroke-miterlimit="4px" stroke-width="2"/><path d="M17 2H3C1.89543 2 1 2.89543 1 4V18C1 19.1046 1.89543 20 3 20H17C18.1046 20 19 19.1046 19 18V4C19 2.89543 18.1046 2 17 2Z" fill="hsl(230, 18%, 13%)"/><path d="M3.5 4.13962V3.5C3.5 3.22386 3.72386 3 4 3H16C16.2761 3 16.5 3.22386 16.5 3.5V4.13962C16.5 4.35484 16.3623 4.5459 16.1581 4.61396L15.4743 4.84189C15.1911 4.93631 15 5.2014 15 5.5C15 5.7986 15.1911 6.06369 15.4743 6.15811L17.3162 6.77208C17.7246 6.90819 18 7.29033 18 7.72076V8C18 15 12.5 19 10 19C7.5 19 2 15 2 8V7.72076C2 7.29033 2.27543 6.90819 2.68377 6.77208L4.52566 6.15811C4.80893 6.06369 5 5.7986 5 5.5C5 5.2014 4.80893 4.93631 4.52566 4.84189L3.84189 4.61396C3.63771 4.5459 3.5 4.35484 3.5 4.13962Z" fill="hsl(0, 0%, 100%)"/><path d="M0,7.5 H20 V13.5 H0 Z" fill="none" id="mapbox-text-placeholder"/></g></svg>