<svg xmlns="http://www.w3.org/2000/svg" id="us-state-florida-toll-2" width="21" height="29" viewBox="0 0 21 29"><g><path d="M0,0 H21 V29 H0 Z" fill="none"/><path d="M18 1C19.1046 1 20 1.89543 20 3L20.0001 14C20.0001 18.9705 15.9706 23 11 23C6.02944 23 1.99999 18.9705 2 14L2.00002 3C2.00003 1.89543 2.89546 1 4.00002 1H18Z" fill="none" stroke="hsl(0, 0%, 100%)" stroke-linejoin="round" stroke-miterlimit="4px" stroke-width="2"/><path d="M18 1C19.1046 1 20 1.89543 20 3L20.0001 14C20.0001 18.9705 15.9706 23 11 23C6.02944 23 1.99999 18.9705 2 14L2.00002 3C2.00003 1.89543 2.89546 1 4.00002 1H18Z" fill="hsl(230, 18%, 13%)"/><path d="M4 2C3.44772 2 3 2.44771 3 3V14C3 18.4183 6.58172 22 11 22C15.4183 22 19 18.4183 19 14V3C19 2.44772 18.5523 2 18 2H4ZM5 6H8.29289C8.55811 6 8.81246 6.10536 9 6.29289L9.70711 7H13.2929L14 6.29289C14.1875 6.10536 14.4419 6 14.7071 6H15.4517C15.7861 6 16.0983 6.16711 16.2838 6.44531L17.8321 8.76778C17.9416 8.93205 18 9.12505 18 9.32247V15H17V9.32247L15.4517 7H14.7071L14 7.70711C13.8125 7.89464 13.5581 8 13.2929 8H9.70711C9.44189 8 9.18754 7.89464 9 7.70711L8.29289 7H5V8H7.34861C7.54604 8 7.73904 8.05844 7.90331 8.16795L9.15139 9H11V10H9.15139C8.95396 10 8.76096 9.94156 8.59669 9.83205L7.34861 9H5C4.44772 9 4 8.55228 4 8V7C4 6.44772 4.44772 6 5 6Z" fill="hsl(0, 0%, 100%)"/><path d="M3 3C3 2.44772 3.44772 2 4 2H18C18.5523 2 19 2.44772 19 3V5H3V3Z" fill="hsl(50, 100%, 70%)"/><path d="M0,11.5 H21 V17.5 H0 Z" fill="none" id="mapbox-text-placeholder"/></g></svg>