<svg xmlns="http://www.w3.org/2000/svg" id="us-state-newyork-parkway" width="20" height="18" viewBox="0 0 20 18"><g><path d="M0,0 H20 V18 H0 Z" fill="none"/><path d="M17 1H3C1.89543 1 1 1.89543 1 3V15C1 16.1046 1.89543 17 3 17H17C18.1046 17 19 16.1046 19 15V3C19 1.89543 18.1046 1 17 1Z" fill="none" stroke="hsl(0, 0%, 100%)" stroke-linejoin="round" stroke-miterlimit="4px" stroke-width="2"/><path d="M17 1H3C1.89543 1 1 1.89543 1 3V15C1 16.1046 1.89543 17 3 17H17C18.1046 17 19 16.1046 19 15V3C19 1.89543 18.1046 1 17 1Z" fill="hsl(230, 18%, 13%)"/><path d="M5.77728 12.5001H6.72275C6.86399 12.4997 6.97763 12.3824 6.97259 12.2412L6.91902 10.7412C6.91421 10.6066 6.80377 10.5001 6.66918 10.5001H5.83085C5.69625 10.5001 5.58581 10.6066 5.58101 10.7412L5.52744 12.2412C5.52239 12.3824 5.63603 12.4997 5.77728 12.5001Z M5.99996 5.50008C6.05519 5.50008 6.09996 5.45531 6.09996 5.40008V5.00023C6.09996 4.945 6.05519 4.90023 5.99996 4.90023H5.85C5.79477 4.90023 5.75 4.945 5.75 5.00023V5.40008C5.75 5.45531 5.79477 5.50008 5.85 5.50008H5.99996Z M6.65 5.50008C6.70523 5.50008 6.75 5.45531 6.75 5.40008V5.00023C6.75 4.945 6.70523 4.90023 6.65 4.90023H6.49996C6.44473 4.90023 6.39996 4.945 6.39996 5.00023V5.40008C6.39996 5.45531 6.44473 5.50008 6.49996 5.50008H6.65Z M5.90228 9.00008C5.76071 9.00008 5.64738 8.88264 5.65244 8.74116L5.70601 7.24116C5.71081 7.10665 5.82125 7.00008 5.95585 7.00008H6.54418C6.67878 7.00008 6.78921 7.10665 6.79402 7.24116L6.84759 8.74116C6.85264 8.88264 6.73932 9.00008 6.59775 9.00008H5.90228Z M2 3C2 2.44772 2.44772 2 3 2H17C17.5523 2 18 2.44772 18 3V15C18 15.5523 17.5523 16 17 16H3C2.44772 16 2 15.5523 2 15V3ZM6.17929 4.07079L5.57322 4.67686C5.52634 4.72374 5.5 4.78733 5.5 4.85364V5.40008C5.5 5.45531 5.45523 5.50008 5.4 5.50008H5.1C5.04477 5.50008 5 5.54485 5 5.60008V5.70866C5 5.73518 5.01054 5.76062 5.02929 5.77937L5.17305 5.92313C5.22213 5.97221 5.24859 6.03948 5.24612 6.10883L5.01786 12.5001H3.25C3.11193 12.5001 3 12.612 3 12.7501V13.7501C3 13.8882 3.11193 14.0001 3.25 14.0001H16.75C16.8881 14.0001 17 13.8882 17 13.7501C17 13.7501 17 13.6149 17 12.5001C17 12.7762 16.7761 13.0001 16.5 13.0001C16.2239 13.0001 16 12.7762 16 12.5001C16 12.7762 15.7761 13.0001 15.5 13.0001C15.2239 13.0001 15 12.7762 15 12.5001C15 12.7762 14.7761 13.0001 14.5 13.0001C14.2239 13.0001 14 12.7762 14 12.5001C14 12.7762 13.7761 13.0001 13.5 13.0001C13.2239 13.0001 13 12.7762 13 12.5001C13 12.7762 12.7761 13.0001 12.5 13.0001C12.3107 13.0001 12.146 12.8949 12.0611 12.7398C11.9948 12.6187 11.8881 12.5001 11.75 12.5001H11.6036C11.5372 12.5001 11.4737 12.4737 11.4268 12.4269L11.1274 12.1275C11.0513 12.0514 10.9351 12.0325 10.8388 12.0807L10.0528 12.4737C10.0181 12.491 9.97979 12.5001 9.94098 12.5001H9.75C9.61193 12.5001 9.5 12.3882 9.5 12.2501V11.1202C9.5 11.0443 9.46548 10.9725 9.40617 10.925L8.40617 10.125C8.31487 10.052 8.18513 10.052 8.09383 10.125L7.41667 10.6667L7.25388 6.10883C7.25141 6.03948 7.27787 5.97221 7.32695 5.92313L7.47071 5.77937C7.48946 5.76062 7.5 5.73518 7.5 5.70866V5.60008C7.5 5.54485 7.45523 5.50008 7.4 5.50008H7.1C7.04477 5.50008 7 5.45531 7 5.40008V4.85364C7 4.78733 6.97366 4.72374 6.92678 4.67686L6.32071 4.07079C6.28166 4.03174 6.21834 4.03174 6.17929 4.07079Z" fill="hsl(0, 0%, 100%)"/></g></svg>