<svg xmlns="http://www.w3.org/2000/svg" id="us-state-utah-2" width="20" height="20" viewBox="0 0 20 20"><g><path d="M0,0 H20 V20 H0 Z" fill="none"/><path d="M17 1H3C1.89543 1 1 1.89543 1 3V17C1 18.1046 1.89543 19 3 19H17C18.1046 19 19 18.1046 19 17V3C19 1.89543 18.1046 1 17 1Z" fill="none" stroke="hsl(0, 0%, 100%)" stroke-linejoin="round" stroke-miterlimit="4px" stroke-width="2"/><path d="M17 1H3C1.89543 1 1 1.89543 1 3V17C1 18.1046 1.89543 19 3 19H17C18.1046 19 19 18.1046 19 17V3C19 1.89543 18.1046 1 17 1Z" fill="hsl(230, 18%, 13%)"/><path d="M10 2C9 2 8.5 3.5 8.5 3.5C8.5 3.5 9.02222 4 10 4C10.9778 4 11.5 3.5 11.5 3.5C11.5 3.5 11 2 10 2Z M2.34037 15.1325L2.12403 15.3793C2.04408 15.4705 2 15.5876 2 15.7089V16.9999C2 17.5522 2.44772 17.9999 3 17.9999H17C17.5523 17.9999 18 17.5522 18 16.9999V15.7089C18 15.5876 17.9559 15.4705 17.876 15.3793L17.4807 14.9285C17.0588 15.4553 16.4194 15.8609 15.7124 16.1505C14.4054 16.686 12.5101 16.9999 9.99999 16.9999C7.53007 16.9999 5.66159 16.8176 4.37938 16.433C3.73873 16.2409 3.16529 15.9756 2.73723 15.5903C2.58371 15.4521 2.4501 15.299 2.34037 15.1325Z M7.16251 4.26246C4.9451 6.09122 3 7.5 3 14C3 15.0581 4.4715 15.7435 7.80249 15.941C7.97348 15.9511 8.12558 15.8332 8.15986 15.6653L8.19982 15.4697C8.37453 14.6143 9.12699 14 10 14C10.873 14 11.6255 14.6143 11.8002 15.4697L11.8341 15.6356C11.8685 15.8041 12.0235 15.9209 12.1947 15.9048C15.5277 15.5926 17 14.5584 17 13.5C17 7.5 15.0531 6.05743 12.8373 4.25856C12.6468 4.10391 12.3702 4.12602 12.1711 4.26945C11.76 4.56563 10.9886 5 10 5C9.01316 5 8.24273 4.56718 7.83109 4.27103C7.63098 4.12707 7.3527 4.10561 7.16251 4.26246Z" fill="hsl(0, 0%, 100%)"/><path d="M0,7 H20 V13 H0 Z" fill="none" id="mapbox-text-placeholder"/></g></svg>