<svg xmlns="http://www.w3.org/2000/svg" id="us-state-louisiana-6" width="44" height="22" viewBox="0 0 44 22"><g><path d="M0,0 H44 V22 H0 Z" fill="none"/><path d="M41 1H3C1.89543 1 1 1.89543 1 3V17C1 18.1046 1.89543 19 3 19H41C42.1046 19 43 18.1046 43 17V3C43 1.89543 42.1046 1 41 1Z" fill="none" stroke="hsl(0, 0%, 100%)" stroke-linejoin="round" stroke-miterlimit="4px" stroke-width="2"/><path d="M41 1H3C1.89543 1 1 1.89543 1 3V17C1 18.1046 1.89543 19 3 19H41C42.1046 19 43 18.1046 43 17V3C43 1.89543 42.1046 1 41 1Z" fill="hsl(230, 18%, 13%)"/><path d="M2 5.84861V3C2 2.44772 2.44772 2 3 2H13.191C13.3804 2 13.5535 2.107 13.6382 2.27639L14.3026 3.60521C14.4154 3.83075 14.3426 4.10497 14.1327 4.24484L13.2226 4.85157C13.0836 4.9443 13 5.10042 13 5.26759V5.5C13 5.77614 13.2239 6 13.5 6H40.5C40.7761 6 41 6.22386 41 6.5V9.95862C41 9.98616 41.0023 10.0137 41.0068 10.0408L41.911 15.466C41.9576 15.7455 41.742 16 41.4586 16C41.2053 16 41 16.2053 41 16.4586V16.5C41 16.7761 41.2239 17 41.5 17C41.7761 17 42 17.2239 42 17.5C42 17.7761 41.7761 18 41.5 18H41.191C41.0654 18 40.9415 17.9708 40.8292 17.9146L39.3223 17.1612C39.1298 17.0649 38.8974 17.1026 38.7452 17.2548L38.1464 17.8536C38.0527 17.9473 37.9255 18 37.7929 18H10.309C10.1196 18 9.9465 17.893 9.8618 17.7236L9.1382 16.2764C9.0535 16.107 8.88037 16 8.69098 16H8.06155C8.02067 16 7.97995 16.005 7.94028 16.0149L4.05972 16.9851C4.02005 16.995 3.97933 17 3.93845 17H2.5C2.22386 17 2 16.7761 2 16.5V16.0811C2 16.0274 2.00866 15.974 2.02566 15.923L2.96267 13.112C2.98722 13.0383 3.02858 12.9714 3.08346 12.9165L3.85355 12.1464C3.94732 12.0527 4 11.9255 4 11.7929V9.15139C4 9.05268 3.97078 8.95617 3.91603 8.87404L2.08397 6.12596C2.02922 6.04383 2 5.94732 2 5.84861Z" fill="hsl(0, 0%, 100%)"/><path d="M0,8 H44 V14 H0 Z" fill="none" id="mapbox-text-placeholder"/></g></svg>