<svg xmlns="http://www.w3.org/2000/svg" id="us-state-newyork-parkway-ontario" width="20" height="20" viewBox="0 0 20 20"><g><path d="M0,0 H20 V20 H0 Z" fill="none"/><path d="M19 10C19 14.9706 14.9706 19 10 19C5.02944 19 1 14.9706 1 10C1 5.02944 5.02944 1 10 1C14.9706 1 19 5.02944 19 10Z" fill="none" stroke="hsl(140, 74%, 37%)" stroke-linejoin="round" stroke-miterlimit="4px" stroke-width="2"/><path d="M19 10C19 14.9706 14.9706 19 10 19C5.02944 19 1 14.9706 1 10C1 5.02944 5.02944 1 10 1C14.9706 1 19 5.02944 19 10Z" fill="hsl(0, 0%, 100%)"/><path d="M6.38219 8.69254C6.4679 8.7801 6.51076 8.8995 6.51076 9.05075C6.51076 9.19005 6.46433 9.30746 6.37147 9.40298C6.28218 9.49851 6.17325 9.54627 6.04467 9.54627H5.5143V8.56119H6.04467C6.18396 8.56119 6.29647 8.60498 6.38219 8.69254Z M10 17C13.866 17 17 13.866 17 10C17 6.13401 13.866 3 10 3C6.13401 3 3 6.13401 3 10C3 13.866 6.13401 17 10 17ZM5.5143 10.1194V12H5V8H6.07146C6.35361 8 6.58041 8.09751 6.75184 8.29254C6.92685 8.48756 7.01435 8.74627 7.01435 9.06866C7.01078 9.35522 6.92506 9.60199 6.7572 9.80896C6.59291 10.0159 6.3429 10.1194 6.00717 10.1194H5.5143ZM8.96232 12L8.33015 10.0478L8.00336 10.6627V12H7.48906V8H8.00336V9.6L8.84445 8H9.41233L8.67302 9.40298L9.5034 12H8.96232ZM12.0325 8H12.5361L11.9575 12H11.5128L11.1753 9.91045L10.8324 12H10.3824L9.81455 8H10.3181L10.6235 10.1313L10.9717 8H11.3789L11.7164 10.1313L12.0325 8ZM14.1053 10.191V12H13.591V10.191L12.7071 8H13.2482L13.8535 9.44478L14.4428 8H15L14.1053 10.191Z" fill="hsl(140, 74%, 37%)"/></g></svg>