<svg xmlns="http://www.w3.org/2000/svg" id="us-state-virginia-3" width="26" height="23" viewBox="0 0 26 23"><g><path d="M0,0 H26 V23 H0 Z" fill="none"/><path d="M23 4H3C1.89543 4 1 4.89543 1 6V20C1 21.1046 1.89543 22 3 22H23C24.1046 22 25 21.1046 25 20V6C25 4.89543 24.1046 4 23 4Z" fill="none" stroke="hsl(0, 0%, 100%)" stroke-linejoin="round" stroke-miterlimit="4px" stroke-width="2"/><path d="M23 4H3C1.89543 4 1 4.89543 1 6V20C1 21.1046 1.89543 22 3 22H23C24.1046 22 25 21.1046 25 20V6C25 4.89543 24.1046 4 23 4Z" fill="hsl(230, 18%, 13%)"/><path d="M23 5.0001C23.5523 5.00011 24 5.44782 24 6.0001V10.0001C24 17.0001 15 21.0001 13 21.0001C11 21.0001 2 17.0001 2 10.0001V6C2 5.44771 2.44772 5 3.00001 5L23 5.0001Z" fill="hsl(0, 0%, 100%)"/><path d="M0,8.5 H26 V14.5 H0 Z" fill="none" id="mapbox-text-placeholder"/></g></svg>