<svg xmlns="http://www.w3.org/2000/svg" id="us-state-connecticut-parkway-merrit" width="20" height="19" viewBox="0 0 20 19"><g><path d="M0,0 H20 V19 H0 Z" fill="none"/><path d="M10.0064 17.9938C10.0024 17.9976 9.99747 17.9976 9.99345 17.9938C9.9035 17.9089 8.86167 16.977 5.99992 16.5C2.51249 15.9188 0.200971 12.0196 2.49898 8C4.42598 4.62934 1.71481 3.57732 1.51181 3.50417C1.50539 3.50186 1.50413 3.49437 1.50821 3.48891L2.98702 1.50924C2.99066 1.50436 2.99786 1.50392 3.00218 1.50821C4.50581 2.99859 6.498 2.99635 7.4971 1.00563C7.4988 1.00224 7.50231 1 7.5061 1H12.4937C12.4975 1 12.501 1.00224 12.5027 1.00563C13.5018 2.99635 15.494 2.99859 16.9977 1.50821C17.002 1.50392 17.0092 1.50436 17.0128 1.50924L18.4916 3.48891C18.4957 3.49437 18.4944 3.50186 18.488 3.50417C18.285 3.57732 15.5739 4.62934 17.5009 8C19.7989 12.0196 17.4873 15.9188 13.9999 16.5C11.1382 16.977 10.0963 17.9089 10.0064 17.9938Z" fill="none" stroke="hsl(0, 0%, 100%)" stroke-linejoin="round" stroke-miterlimit="4px" stroke-width="2"/><path d="M10.1934 17.8429C10.0818 17.9242 9.91805 17.9242 9.80642 17.8429C9.39219 17.5414 8.26726 16.8779 5.99991 16.5C2.51248 15.9188 0.200965 12.0196 2.49898 8C4.08609 5.22386 2.52691 4.02056 1.81409 3.64159C1.6636 3.56158 1.60507 3.35922 1.70707 3.22268L2.82142 1.73092C2.91246 1.60904 3.09038 1.59691 3.20464 1.69735C4.64539 2.96383 6.45442 2.91152 7.42788 1.1375C7.47344 1.05448 7.55973 1 7.65442 1H12.3454C12.4401 1 12.5264 1.05448 12.5719 1.1375C13.5454 2.91152 15.3544 2.96383 16.7952 1.69735C16.9094 1.59691 17.0874 1.60904 17.1784 1.73092L18.2928 3.22268C18.3948 3.35922 18.3362 3.56158 18.1857 3.64159C17.4729 4.02056 15.9137 5.22386 17.5008 8C19.7989 12.0196 17.4873 15.9188 13.9999 16.5C11.7326 16.8779 10.6076 17.5414 10.1934 17.8429Z" fill="hsl(230, 57%, 54%)"/><path d="M12 7.00001L10.5 7.50001C9 5.50004 7 4.50001 4.5 4.99995C5.15575 6.96719 6.75214 7.50112 7.85725 7.53792C5.14589 7.86724 4.15499 10.2601 4 11.5C7.6 12.7 9.16667 11 9.5 10H12C12.8 12.4 15 13.3333 16 13.5C16 9.5 13.3333 7.5 12 7.00001Z M13 5.5C12.5 5.5 12 5 12 5C12 5 12.5 5.5 12.5 6C12.5 6.5 12 6.5 12 6.5L12.5 7C12.5 7 12.5 6.5 13 6.5C13.5 6.5 14 7 14 7C14 7 13.5 6.5 13.5 6C13.5 5.5 14 5 14 5C14 5 13.5 5.5 13 5.5Z" fill="hsl(140, 74%, 37%)"/><path d="M6.93414 7.80261L6.64517 6.93568C6.57372 6.72134 6.73326 6.5 6.95919 6.5C6.98626 6.5 7.01322 6.49668 7.03947 6.49012L8.73123 6.06718C8.90706 6.02322 9.06764 5.9323 9.1958 5.80414L9.32317 5.67678C9.43635 5.56359 9.58987 5.5 9.74994 5.5H9.83737C9.94146 5.5 10.0413 5.54135 10.1149 5.61495C10.3043 5.80438 10.6237 5.75256 10.7435 5.51295L10.8881 5.22361C10.9567 5.08657 11.0967 5 11.2499 5C11.4032 5 11.5432 5.08657 11.6117 5.22361L11.8291 5.65836C11.9338 5.86774 12.1478 6 12.3819 6H12.6464C12.8417 6 12.9999 6.15829 12.9999 6.35355V6.39645C12.9999 6.46275 12.9736 6.52634 12.9267 6.57322C12.7692 6.73071 12.8808 7 13.1035 7H13.207C13.3688 7 13.4999 7.13113 13.4999 7.29289V7.35355C13.4999 7.44732 13.4627 7.53725 13.3964 7.60355L13.3175 7.68248C13.1278 7.8721 13.0808 8.16178 13.2008 8.40164L13.2952 8.59042C13.4241 8.84826 13.4241 9.15174 13.2952 9.40958L13.0725 9.85485C13.0244 9.95099 12.9612 10.0387 12.8852 10.1147L12.6147 10.3853C12.5387 10.4613 12.4509 10.5245 12.3548 10.5726L11.6451 10.9274C11.549 10.9755 11.4612 11.0387 11.3852 11.1147L10.9301 11.5698C10.6925 11.8074 10.3073 11.8074 10.0698 11.5698C10.0235 11.5236 9.98503 11.4702 9.95579 11.4117L9.77634 11.0528C9.60694 10.714 9.26068 10.5 8.88191 10.5H8.28072C7.63015 10.5 7.15279 9.88861 7.31058 9.25746L7.37891 8.98414C7.454 8.68378 7.36599 8.36605 7.14707 8.14713C7.05031 8.05037 6.97741 7.93242 6.93414 7.80261Z" fill="hsl(0, 0%, 100%)"/><path d="M12.0692 10.7155L11.4698 10.1161C11.3292 9.97546 11.2502 9.7847 11.2502 9.58579V8.51591C11.2502 8.34966 11.3328 8.19428 11.4706 8.10134L11.7085 7.94098L11.979 8.92329C11.9926 8.9728 12.0235 9.01583 12.066 9.04465C12.1668 9.11298 12.3041 9.08445 12.3694 8.98161L12.4235 8.89632C12.4722 8.81948 12.4852 8.72528 12.4591 8.63812L12.2676 7.999C12.256 7.96046 12.2492 7.92067 12.2471 7.8805L12.2166 7.27133C12.2075 7.09073 12.016 6.97889 11.8543 7.05976C11.7883 7.09276 11.7401 7.15319 11.7228 7.22492L11.6715 7.43677C11.627 7.62056 11.4625 7.75 11.2734 7.75C11.1648 7.75 11.0606 7.70685 10.9838 7.63003L10.8966 7.54289C10.8028 7.44913 10.7502 7.32195 10.7502 7.18934V6.75227C10.7502 6.61295 10.6372 6.5 10.4979 6.5C10.2913 6.5 10.1723 6.7348 10.2944 6.90144L10.55 7.25H8.80294C8.55616 7.25 8.3149 7.32305 8.10957 7.45994L7.12061 8.11925C7.12929 8.12872 7.13818 8.13802 7.14729 8.14713C7.26028 8.26012 7.3384 8.39943 7.37722 8.54909L8.38692 7.87596C8.51012 7.79383 8.65487 7.75 8.80294 7.75L10.7133 7.5L9.58635 8.54126C9.37032 8.77273 9.25017 9.07755 9.25017 9.39417V10.5702C9.45713 10.6521 9.63396 10.8021 9.74816 11H9.75017V9.39417C9.75017 9.2042 9.82226 9.0213 9.95188 8.88242L10.9611 7.75L10.7502 9.58579C10.7502 9.91731 10.8819 10.2352 11.1163 10.4697L11.5988 10.9522C11.6141 10.9436 11.6296 10.9353 11.6453 10.9274L12.0692 10.7155Z" fill="hsl(25, 100%, 63%)"/><path d="M8.96383 6.48186L8.84733 6.42361C8.63629 6.31808 8.71138 6 8.94733 6C8.98204 6 9.01628 6.00808 9.04733 6.02361L9.83895 6.41942C9.9352 6.46754 10.0514 6.44868 10.1275 6.37259L10.3445 6.1556C10.4335 6.06664 10.5729 6.06101 10.6809 6.12546C10.8943 6.25275 11.0618 6.2644 11.2678 6.15628C11.3683 6.10356 11.5001 6.16681 11.5001 6.28028C11.5001 6.38122 11.6064 6.44688 11.6966 6.40174L12.1383 6.1809C12.3045 6.09779 12.5001 6.21866 12.5001 6.40451V7.94098C12.5001 7.97979 12.5092 8.01807 12.5265 8.05279L13.0001 9C13.1795 9.3652 13.1653 9.54622 13.0001 9.96001L12.077 9.07379C12.0279 9.02665 12.0001 8.96152 12.0001 8.89345V8.05902C12.0001 8.02021 11.9911 7.98193 11.9737 7.94721L11.5692 7.1382C11.5269 7.0535 11.4405 7 11.3458 7H10.5001C9.64089 7 9.1508 6.63086 9.02984 6.52694C9.00946 6.50942 8.98786 6.49387 8.96383 6.48186Z" fill="hsl(30, 7%, 84%)"/></g></svg>