<svg xmlns="http://www.w3.org/2000/svg" id="us-state-ohio-2" width="20" height="20" viewBox="0 0 20 20"><g><path d="M0,0 H20 V20 H0 Z" fill="none"/><path d="M17 1H3C1.89543 1 1 1.89543 1 3V17C1 18.1046 1.89543 19 3 19H17C18.1046 19 19 18.1046 19 17V3C19 1.89543 18.1046 1 17 1Z" fill="none" stroke="hsl(0, 0%, 100%)" stroke-linejoin="round" stroke-miterlimit="4px" stroke-width="2"/><path d="M17 1H3C1.89543 1 1 1.89543 1 3V17C1 18.1046 1.89543 19 3 19H17C18.1046 19 19 18.1046 19 17V3C19 1.89543 18.1046 1 17 1Z" fill="hsl(230, 18%, 13%)"/><path d="M2 14.25V4C2 3.72386 2.22386 3.5 2.5 3.5H6.41886C6.4726 3.5 6.52599 3.50866 6.57697 3.52566L7.92303 3.97434C7.97401 3.99134 8.0274 4 8.08114 4H9.93845C9.97933 4 10.0201 4.00501 10.0597 4.01493L11.9403 4.48507C11.9799 4.49499 12.0207 4.5 12.0616 4.5H12.882C12.9596 4.5 13.0361 4.48193 13.1056 4.44721L15.8944 3.05279C15.9639 3.01807 16.0404 3 16.118 3H17.0399C17.3 3 17.5166 3.19933 17.5382 3.45848L18 9V9.84861C18 9.94732 17.9708 10.0438 17.916 10.126L17.084 11.374C17.0292 11.4562 17 11.5527 17 11.6514V13.7929C17 13.9255 16.9473 14.0527 16.8536 14.1464L15.1464 15.8536C15.0527 15.9473 14.9255 16 14.7929 16H14.2071C14.0745 16 13.9473 16.0527 13.8536 16.1464L13.1464 16.8536C13.0527 16.9473 12.9255 17 12.7929 17H12.118C12.0404 17 11.9639 17.0181 11.8944 17.0528L10.1056 17.9472C10.0361 17.9819 9.95959 18 9.88197 18H9.15139C9.05268 18 8.95617 17.9708 8.87404 17.916L7.56494 17.0433C7.52191 17.0146 7.47468 16.9928 7.42495 16.9786L4.08878 16.0254C4.03009 16.0086 3.97497 15.9812 3.92614 15.9446L2.2 14.65C2.0741 14.5556 2 14.4074 2 14.25Z" fill="hsl(0, 0%, 100%)"/><path d="M0,7 H20 V13 H0 Z" fill="none" id="mapbox-text-placeholder"/></g></svg>