<svg xmlns="http://www.w3.org/2000/svg" id="us-state-tennessee-2" width="20" height="24" viewBox="0 0 20 24"><g><path d="M0,0 H20 V24 H0 Z" fill="none"/><path d="M17 5H3C1.89543 5 1 5.89543 1 7V21C1 22.1046 1.89543 23 3 23H17C18.1046 23 19 22.1046 19 21V7C19 5.89543 18.1046 5 17 5Z" fill="none" stroke="hsl(0, 0%, 100%)" stroke-linejoin="round" stroke-miterlimit="4px" stroke-width="2"/><path d="M17 5H3C1.89543 5 1 5.89543 1 7V21C1 22.1046 1.89543 23 3 23H17C18.1046 23 19 22.1046 19 21V7C19 5.89543 18.1046 5 17 5Z" fill="hsl(230, 18%, 13%)"/><path d="M2 7C2 6.44772 2.44772 6 3 6H17C17.5523 6 18 6.44772 18 7V18H7.11803C6.96279 18 6.80968 18.0361 6.67082 18.1056L5.88197 18.5H4.70711C4.44189 18.5 4.18754 18.6054 4 18.7929L3.29289 19.5C3.10536 19.6875 3 19.9419 3 20.2071V20.7929L2.20711 21.5858C2.2037 21.5892 2.20034 21.5926 2.19701 21.5961C2.07324 21.4296 2 21.2234 2 21V7Z M3.20711 22H14.5V21.809C14.5 21.4302 14.714 21.084 15.0528 20.9146L15.5 20.691V20.309C15.5 19.9302 15.714 19.584 16.0528 19.4146L16.5 19.191V19H7.11803L6.32918 19.3944C6.19032 19.4639 6.03721 19.5 5.88197 19.5H4.70711L4 20.2071L4 20.7929C4 21.0581 3.89464 21.3125 3.70711 21.5L3.20711 22Z M15.5 22H17C17.5523 22 18 21.5523 18 21V19H17.5V19.191C17.5 19.5698 17.286 19.916 16.9472 20.0854L16.5 20.309V20.691C16.5 21.0698 16.286 21.416 15.9472 21.5854L15.5 21.809V22Z" fill="hsl(0, 0%, 100%)"/><path d="M0,9 H20 V15 H0 Z" fill="none" id="mapbox-text-placeholder"/></g></svg>