<svg xmlns="http://www.w3.org/2000/svg" id="us-state-alabama-2" width="20" height="23" viewBox="0 0 20 23"><g><path d="M0,0 H20 V23 H0 Z" fill="none"/><path d="M17 4H3C1.89543 4 1 4.89543 1 6V20C1 21.1046 1.89543 22 3 22H17C18.1046 22 19 21.1046 19 20V6C19 4.89543 18.1046 4 17 4Z" fill="none" stroke="hsl(0, 0%, 100%)" stroke-linejoin="round" stroke-miterlimit="4px" stroke-width="2"/><path d="M17 4H3C1.89543 4 1 4.89543 1 6V20C1 21.1046 1.89543 22 3 22H17C18.1046 22 19 21.1046 19 20V6C19 4.89543 18.1046 4 17 4Z" fill="hsl(230, 18%, 13%)"/><path d="M5.30902 21C5.13836 21 5 20.8616 5 20.691C5 20.5739 5.06613 20.4669 5.17082 20.4146L5.61214 20.1939C5.83469 20.0827 5.94156 19.8247 5.86287 19.5886L5.11397 17.3419C5.04591 17.1377 4.85484 17 4.63962 17H4.5C4.22386 17 4 17.2239 4 17.5V19.5C4 19.7761 3.77615 20 3.5 20H3.40109C3.16674 20 2.96383 19.8372 2.913 19.6085L2.01977 15.589C2.0067 15.5301 2.00437 15.4694 2.01289 15.4098L3.43865 5.42929C3.47384 5.18297 3.6848 5 3.93363 5H15.5989C15.8332 5 16.0361 5.16277 16.087 5.39153L17.9881 13.9464C17.996 13.982 18 14.0184 18 14.0549L18 16.5C18 16.7761 17.7761 17 17.5 17H10.309C10.1196 17 9.9465 17.107 9.86181 17.2764L8.1382 20.7236C8.0535 20.893 7.88037 21 7.69099 21H5.30902Z" fill="hsl(0, 0%, 100%)"/><path d="M0,8.5 H20 V14.5 H0 Z" fill="none" id="mapbox-text-placeholder"/></g></svg>