<svg xmlns="http://www.w3.org/2000/svg" id="us-state-wyoming-3" width="24" height="18" viewBox="0 0 24 18"><g><path d="M0,0 H24 V18 H0 Z" fill="none"/><path d="M21 1H3C1.89543 1 1 1.89543 1 3V15C1 16.1046 1.89543 17 3 17H21C22.1046 17 23 16.1046 23 15V3C23 1.89543 22.1046 1 21 1Z" fill="none" stroke="hsl(230, 18%, 13%)" stroke-linejoin="round" stroke-miterlimit="4px" stroke-width="2"/><path d="M21 1H3C1.89543 1 1 1.89543 1 3V15C1 16.1046 1.89543 17 3 17H21C22.1046 17 23 16.1046 23 15V3C23 1.89543 22.1046 1 21 1Z" fill="hsl(50, 100%, 70%)"/><path d="M0,6 H24 V12 H0 Z" fill="none" id="mapbox-text-placeholder"/></g></svg>