<svg xmlns="http://www.w3.org/2000/svg" id="us-state-arizona-historic-2" width="20" height="21" viewBox="0 0 20 21"><g><path d="M0,0 H20 V21 H0 Z" fill="none"/><path d="M17 1H3C1.89543 1 1 1.89543 1 3V17C1 18.1046 1.89543 19 3 19H17C18.1046 19 19 18.1046 19 17V3C19 1.89543 18.1046 1 17 1Z" fill="none" stroke="hsl(0, 0%, 100%)" stroke-linejoin="round" stroke-miterlimit="4px" stroke-width="2"/><path d="M17 1H3C1.89543 1 1 1.89543 1 3V17C1 18.1046 1.89543 19 3 19H17C18.1046 19 19 18.1046 19 17V3C19 1.89543 18.1046 1 17 1Z" fill="hsl(25, 34%, 34%)"/><path d="M9.62409 17.6694C9.84273 17.8381 10.1555 17.8382 10.3742 17.6696C12.3159 16.1726 14.7095 17.3938 16.5 15.6477C18.4399 13.5935 18.0644 11.6618 17 9.50001C16.3031 8.2723 16.6348 6.4316 17.5609 5.39563C17.7673 5.16479 17.8002 4.80024 17.5812 4.58129L15.9076 2.90769C15.6925 2.69253 15.3378 2.72082 15.1251 2.93832C13.7611 4.33251 11.8196 4.35362 10.4376 3.00164C10.1993 2.76854 9.79908 2.76866 9.56089 3.00185C8.1801 4.35362 6.23877 4.33244 4.87492 2.93832C4.66214 2.72082 4.3075 2.69254 4.09234 2.90769L2.36125 4.63878C2.16301 4.83702 2.16819 5.15804 2.35075 5.37081C3.05053 6.18639 3.89679 7.67909 2.99996 9.50001C1.93556 11.6618 1.55657 13.5935 3.49999 15.6477C5.29075 17.3936 7.684 16.1726 9.62409 17.6694Z" fill="hsl(0, 0%, 100%)"/><path d="M0,7.5 H20 V13.5 H0 Z" fill="none" id="mapbox-text-placeholder"/></g></svg>