<svg xmlns="http://www.w3.org/2000/svg" id="us-state-virginia-2" width="20" height="23" viewBox="0 0 20 23"><g><path d="M0,0 H20 V23 H0 Z" fill="none"/><path d="M17 4H3C1.89543 4 1 4.89543 1 6V20C1 21.1046 1.89543 22 3 22H17C18.1046 22 19 21.1046 19 20V6C19 4.89543 18.1046 4 17 4Z" fill="none" stroke="hsl(0, 0%, 100%)" stroke-linejoin="round" stroke-miterlimit="4px" stroke-width="2"/><path d="M17 4H3C1.89543 4 1 4.89543 1 6V20C1 21.1046 1.89543 22 3 22H17C18.1046 22 19 21.1046 19 20V6C19 4.89543 18.1046 4 17 4Z" fill="hsl(230, 18%, 13%)"/><path d="M17 5.0001C17.5523 5.0001 18 5.44782 18 6.0001V10.0001C18 17.0001 12 21.0001 10 21.0001C8 21.0001 2 17.0001 2 10.0001V6C2 5.44771 2.44772 5 3.00001 5L17 5.0001Z" fill="hsl(0, 0%, 100%)"/><path d="M0,8.5 H20 V14.5 H0 Z" fill="none" id="mapbox-text-placeholder"/></g></svg>