<svg xmlns="http://www.w3.org/2000/svg" id="us-state-maryland-3" width="26" height="24" viewBox="0 0 26 24"><g><path d="M0,0 H26 V24 H0 Z" fill="none"/><path d="M23 1H3C1.89543 1 1 1.89543 1 3V17C1 18.1046 1.89543 19 3 19H23C24.1046 19 25 18.1046 25 17V3C25 1.89543 24.1046 1 23 1Z" fill="none" stroke="hsl(0, 0%, 100%)" stroke-linejoin="round" stroke-miterlimit="4px" stroke-width="2"/><path d="M23 1H3C1.89543 1 1 1.89543 1 3V17C1 18.1046 1.89543 19 3 19H23C24.1046 19 25 18.1046 25 17V3C25 1.89543 24.1046 1 23 1Z" fill="hsl(230, 18%, 13%)"/><path d="M2 3C2 2.44772 2.44772 2 3 2H23C23.5523 2 24 2.44772 24 3V5H2V3Z M2 6V17C2 17.5523 2.44772 18 3 18H23C23.5523 18 24 17.5523 24 17V6H2Z" fill="hsl(0, 0%, 100%)"/><path d="M0,9 H26 V15 H0 Z" fill="none" id="mapbox-text-placeholder"/></g></svg>