<svg xmlns="http://www.w3.org/2000/svg" id="us-state-washington-2" width="20" height="23" viewBox="0 0 20 23"><g><path d="M0,0 H20 V23 H0 Z" fill="none"/><path d="M17 4H3C1.89543 4 1 4.89543 1 6V20C1 21.1046 1.89543 22 3 22H17C18.1046 22 19 21.1046 19 20V6C19 4.89543 18.1046 4 17 4Z" fill="none" stroke="hsl(0, 0%, 100%)" stroke-linejoin="round" stroke-miterlimit="4px" stroke-width="2"/><path d="M17 4H3C1.89543 4 1 4.89543 1 6V20C1 21.1046 1.89543 22 3 22H17C18.1046 22 19 21.1046 19 20V6C19 4.89543 18.1046 4 17 4Z" fill="hsl(230, 18%, 13%)"/><path d="M5.03617 6.92743L5.40726 6.18524C5.46657 6.06663 5.57056 5.97644 5.69636 5.93451L8.42291 5.02566C8.47389 5.00866 8.52728 5 8.58102 5H12.3819C12.4595 5 12.536 5.01807 12.6055 5.05279L13.4017 5.45089C13.4664 5.48324 13.5233 5.52926 13.5685 5.58575L15.4536 7.5C15.4843 7.53836 15.5092 7.58104 15.5274 7.62665L16.4618 10.4047C16.4869 10.4676 16.5246 10.5247 16.5725 10.5726L17.7997 11.7998C17.9239 11.924 17.9738 12.1043 17.9312 12.2746L17.5408 13.8363C17.5143 13.9425 17.4536 14.037 17.3681 14.1054L15.1875 15.8499C15.0689 15.9448 14.9999 16.0884 14.9999 16.2403V16.691C14.9999 17.0627 15.391 17.3044 15.7235 17.1382L15.8943 17.0528C15.9637 17.0181 16.0403 17 16.1179 17H16.1909C16.5626 17 16.8043 17.3912 16.6381 17.7236L16.2235 18.5528C16.1 18.7998 16.2001 19.1001 16.4471 19.2236L17.6582 19.8292C17.8676 19.9339 17.9999 20.1479 17.9999 20.382C17.9999 20.7233 17.7232 21 17.3819 21H3.63267C3.28319 21 2.99989 20.7167 2.99989 20.3672C2.99989 20.1401 3.12156 19.9305 3.31872 19.8178L6.12235 18.2157C6.35581 18.0823 6.49989 17.8341 6.49989 17.5652C6.49989 17.2306 6.27812 16.9366 5.95645 16.8447L3.36252 16.1036C3.14787 16.0423 2.99989 15.8461 2.99989 15.6228V15.5656C2.99989 15.5221 3.00558 15.4787 3.01683 15.4366L3.17694 14.8373C3.20112 14.7468 3.1994 14.6514 3.17197 14.5618L3.02181 14.0716C3.00727 14.0241 2.99989 13.9748 2.99989 13.9251V13.4058C2.99989 13.1817 2.81822 13 2.59413 13C2.30844 13 2.11221 12.7126 2.21622 12.4465L2.69895 11.2115C2.73177 11.1275 2.7867 11.054 2.85791 10.9987L3.30661 10.6501C3.42855 10.5554 3.49989 10.4097 3.49989 10.2553V10.0616C3.49989 10.0207 3.5049 9.97995 3.51481 9.94029L3.9663 8.13436C3.98828 8.04644 4.03373 7.96615 4.09781 7.90207L4.94251 7.05737C4.98051 7.01937 5.01214 6.97549 5.03617 6.92743Z" fill="hsl(0, 0%, 100%)"/><path d="M0,8.5 H20 V14.5 H0 Z" fill="none" id="mapbox-text-placeholder"/></g></svg>