<svg xmlns="http://www.w3.org/2000/svg" viewBox="0 -0.5 32 32" shape-rendering="crispEdges"><metadata>Made with Pixels to Svg https://codepen.io/shshaw/pen/XbxvNj</metadata><path stroke="#dee9f5" d="M0 0h1M3 0h4M27 0h2M31 0h1M0 1h2M0 2h3M0 3h3M28 4h3"/><path stroke="#fff7d3" d="M1 0h2M9 0h2M15 0h2M21 0h2M29 0h2M2 1h3M10 1h1M15 1h2M21 1h1M27 1h3M4 2h2M10 2h3M15 2h2M19 2h3M26 2h2M5 3h2M12 3h8M25 3h2M0 4h1M6 4h2M11 4h10M24 4h2M31 4h1M0 5h3M7 5h6M19 5h6M29 5h3M1 6h5M8 6h3M21 6h3M26 6h5M5 7h5M22 7h5M7 8h2M23 8h2M2 9h6M24 9h6M0 10h3M6 10h1M25 10h1M29 10h3"/><path stroke="#c0d6ec" d="M7 0h2M23 0h4M5 1h4M24 1h3M30 1h2M3 2h1M6 2h2M3 3h2M27 3h5M1 4h4M27 4h1M28 5h1"/><path stroke="#88b1dc" d="M11 0h4M17 0h4M9 1h1M11 1h4M17 1h4M22 1h2M8 2h2M13 2h2M17 2h2M22 2h4M28 2h4M7 3h5M20 3h5M5 4h1M8 4h3M21 4h3M26 4h1M3 5h4M25 5h3M0 6h1M6 6h2M24 6h2M31 6h1M0 7h5M27 7h5M0 8h7M25 8h7M0 9h2M30 9h2M3 10h3M26 10h3M0 11h2M30 11h2"/><path stroke="#fff" d="M13 5h6M11 6h10M10 7h12M11 8h10M12 9h8"/><path stroke="#8c9496" d="M9 8h2M21 8h2M8 9h1M11 9h1M20 9h1M23 9h1M7 10h1M9 10h2M21 10h2M24 10h1M6 11h1M8 11h1M23 11h1M25 11h1M5 12h1M7 12h1M24 12h1M26 12h1M4 13h1M6 13h1M25 13h1M27 13h1M3 14h2M27 14h2M3 15h3M26 15h3M2 16h1M4 16h1M27 16h1M29 16h1M2 17h1M4 17h1M27 17h1M29 17h1M1 18h1M30 18h1M1 19h1M30 19h1M0 20h1M31 20h1"/><path stroke="#b6bec1" d="M9 9h2M21 9h2M8 10h1M23 10h1M7 11h1M24 11h1M6 12h1M25 12h1M5 13h1M26 13h1M5 14h1M26 14h1"/><path stroke="#69728c" d="M11 10h1M13 10h1M15 10h2M10 11h1M12 11h1M14 11h1M17 11h1M19 11h1M21 11h1M9 12h1M11 12h1M13 12h1M15 12h2M18 12h1M8 13h1M10 13h1M14 13h1M17 13h1M21 13h1M23 13h1M7 14h1M9 14h1M11 14h1M13 14h1M15 14h2M18 14h1M6 15h1M8 15h1M10 15h1M12 15h1M14 15h1M17 15h1M19 15h1M21 15h1M23 15h1M25 15h1M5 16h1M7 16h1M9 16h1M13 16h1M15 16h2M18 16h1M6 17h1M8 17h1M10 17h1M12 17h1M14 17h1M17 17h1M19 17h1M21 17h1M23 17h1M25 17h1M4 19h1M6 19h1M8 19h1M12 19h1M14 19h1M17 19h1M19 19h1M23 19h1M25 19h1M27 19h1M3 20h1M5 20h1M7 20h1M11 20h1M13 20h1M15 20h2M18 20h1M20 20h1M2 21h1M4 21h1M6 21h1M8 21h1M10 21h1M12 21h1M14 21h1M17 21h1M19 21h1M21 21h1M23 21h1M25 21h1M27 21h1M29 21h1M1 22h1M3 22h1M5 22h1M7 22h1M9 22h1M11 22h1M13 22h1M15 22h2M18 22h1M20 22h1M22 22h1M0 23h1M2 23h1M4 23h1M6 23h1M10 23h1M12 23h1M14 23h1M17 23h1M19 23h1M21 23h1M25 23h1M27 23h1M29 23h1M31 23h1M1 24h1M3 24h1M5 24h1M9 24h1M11 24h1M13 24h1M15 24h2M18 24h1M20 24h1M22 24h1M0 25h1M2 25h1M4 25h1M6 25h1M8 25h1M10 25h1M12 25h1M14 25h1M17 25h1M19 25h1M21 25h1M23 25h1M25 25h1M27 25h1M29 25h1M31 25h1"/><path stroke="#575e74" d="M12 10h1M9 11h1M11 11h1M15 11h2M20 11h1M22 11h1M8 12h1M10 12h1M14 12h1M17 12h1M7 13h1M9 13h1M11 13h1M13 13h1M15 13h2M18 13h1M20 13h1M22 13h1M24 13h1M6 14h1M8 14h1M10 14h1M14 14h1M17 14h1M7 15h1M9 15h1M13 15h1M15 15h2M18 15h1M22 15h1M24 15h1M6 16h1M8 16h1M10 16h1M12 16h1M14 16h1M17 16h1M19 16h1M5 17h1M7 17h1M9 17h1M13 17h1M15 17h2M18 17h1M22 17h1M24 17h1M26 17h1M3 19h1M5 19h1M7 19h1M9 19h1M11 19h1M13 19h1M15 19h2M18 19h1M20 19h1M22 19h1M24 19h1M26 19h1M28 19h1M2 20h1M4 20h1M6 20h1M8 20h1M10 20h1M12 20h1M14 20h1M17 20h1M19 20h1M21 20h1M1 21h1M3 21h1M5 21h1M7 21h1M11 21h1M13 21h1M15 21h2M18 21h1M20 21h1M24 21h1M26 21h1M28 21h1M30 21h1M0 22h1M2 22h1M4 22h1M6 22h1M10 22h1M12 22h1M14 22h1M17 22h1M19 22h1M21 22h1M1 23h1M3 23h1M5 23h1M7 23h1M9 23h1M11 23h1M13 23h1M15 23h2M18 23h1M20 23h1M22 23h1M24 23h1M26 23h1M28 23h1M30 23h1M0 24h1M2 24h1M4 24h1M6 24h1M8 24h1M10 24h1M12 24h1M14 24h1M17 24h1M19 24h1M21 24h1M23 24h1M1 25h1M3 25h1M5 25h1M9 25h1M11 25h1M13 25h1M15 25h2M18 25h1M20 25h1M22 25h1M26 25h1M28 25h1M30 25h1"/><path stroke="#424758" d="M14 10h1M17 10h1M13 11h1M18 11h1M12 12h1M19 12h1M12 13h1M19 13h1M12 14h1M19 14h1M11 15h1M20 15h1M11 16h1M20 16h1M11 17h1M20 17h1M10 18h1M21 18h1M10 19h1M21 19h1M9 20h1M22 20h1M9 21h1M22 21h1M8 22h1M23 22h1M8 23h1M23 23h1M7 24h1M24 24h1M7 25h1M24 25h1"/><path stroke="#7c86a4" d="M18 10h3M20 12h4M20 14h6M21 16h6M4 18h6M11 18h10M22 18h6M23 20h7M24 22h8M25 24h7"/><path stroke="#384918" d="M2 11h1M5 11h1M26 11h1M29 11h1M0 13h1M2 13h1M29 13h1M31 13h1M1 15h1M30 15h1M0 17h1M3 17h1M28 17h1M31 17h1"/><path stroke="#5a7428" d="M3 11h2M27 11h2M0 12h5M27 12h5M1 13h1M3 13h1M28 13h1M30 13h1M0 14h3M29 14h3M0 15h1M2 15h1M29 15h1M31 15h1M0 16h2M3 16h1M28 16h1M30 16h2M1 17h1M30 17h1M0 18h1M31 18h1"/><path stroke="#636569" d="M2 18h2M28 18h2M0 19h1M2 19h1M29 19h1M31 19h1M1 20h1M30 20h1M0 21h1M31 21h1M0 27h32M0 28h32M0 29h32M0 30h32M0 31h32"/><path stroke="#989eb0" d="M0 26h32"/></svg>