<svg width="32" height="32" viewBox="0 0 32 32" fill="none" xmlns="http://www.w3.org/2000/svg"><g clip-path="url(#clip0_104_579)"><path d="M0 6L5.5 0.5H13.5L14.5 2.5H16.5L19 0.5H26.5L32 6V18L26 24L25 24.5L24 26L21 29L20 31L19 32H13L11.5 30.5V29.5L11 29L8.5 26.5H7.5L0 19V6Z" fill="#A9A6A6"/><rect x="5" width="9" height="1" fill="#000"/><rect x="5" width="9" height="1" fill="#000"/><rect x="5" width="9" height="1" fill="#000"/><rect x="5" width="9" height="1" fill="#000"/><rect x="4" y="1" width="1" height="1" fill="#000"/><rect x="4" y="1" width="1" height="1" fill="#000"/><rect x="4" y="1" width="1" height="1" fill="#000"/><rect x="4" y="1" width="1" height="1" fill="#000"/><rect x="3" y="2" width="1" height="1" fill="#000"/><rect x="3" y="2" width="1" height="1" fill="#000"/><rect x="3" y="2" width="1" height="1" fill="#000"/><rect x="3" y="2" width="1" height="1" fill="#000"/><path d="M2 3H3V4H2V3Z" fill="#000"/><path d="M2 3H3V4H2V3Z" fill="#000"/><path d="M2 3H3V4H2V3Z" fill="#000"/><path d="M2 3H3V4H2V3Z" fill="#000"/><path d="M1 4H2V5H1V4Z" fill="#000"/><path d="M1 4H2V5H1V4Z" fill="#000"/><path d="M1 4H2V5H1V4Z" fill="#000"/><path d="M1 4H2V5H1V4Z" fill="#000"/><path d="M0 5H1V6H0V5Z" fill="#000"/><path d="M0 5H1V6H0V5Z" fill="#000"/><path d="M0 5H1V6H0V5Z" fill="#000"/><path d="M0 5H1V6H0V5Z" fill="#000"/><rect width="1" height="1" transform="matrix(1 0 0 -1 6 26)" fill="#000"/><rect width="1" height="1" transform="matrix(1 0 0 -1 6 26)" fill="#000"/><rect width="1" height="1" transform="matrix(1 0 0 -1 6 26)" fill="#000"/><rect width="1" height="1" transform="matrix(1 0 0 -1 6 26)" fill="#000"/><rect width="1" height="1" transform="matrix(1 0 0 -1 5 25)" fill="#000"/><rect width="1" height="1" transform="matrix(1 0 0 -1 5 25)" fill="#000"/><rect width="1" height="1" transform="matrix(1 0 0 -1 5 25)" fill="#000"/><rect width="1" height="1" transform="matrix(1 0 0 -1 5 25)" fill="#000"/><rect x="7" y="26" width="1" height="1" fill="#000"/><rect x="7" y="26" width="1" height="1" fill="#000"/><rect x="7" y="26" width="1" height="1" fill="#000"/><rect x="7" y="26" width="1" height="1" fill="#000"/><rect x="7" y="27" width="1" height="1" fill="#000"/><rect x="7" y="27" width="1" height="1" fill="#000"/><rect x="7" y="27" width="1" height="1" fill="#000"/><rect x="7" y="27" width="1" height="1" fill="#000"/><path d="M7 28H8V29H7V28Z" fill="#000"/><path d="M7 28H8V29H7V28Z" fill="#000"/><path d="M7 28H8V29H7V28Z" fill="#000"/><path d="M7 28H8V29H7V28Z" fill="#000"/><path d="M8 29H9V30H8V29Z" fill="#000"/><path d="M8 29H9V30H8V29Z" fill="#000"/><path d="M8 29H9V30H8V29Z" fill="#000"/><path d="M8 29H9V30H8V29Z" fill="#000"/><path d="M8 30H9V31H8V30Z" fill="#000"/><path d="M8 30H9V31H8V30Z" fill="#000"/><path d="M8 30H9V31H8V30Z" fill="#000"/><path d="M8 30H9V31H8V30Z" fill="#000"/><path d="M9 31H10V32H9V31Z" fill="#000"/><path d="M9 31H10V32H9V31Z" fill="#000"/><path d="M9 31H10V32H9V31Z" fill="#000"/><path d="M9 31H10V32H9V31Z" fill="#000"/><rect width="1" height="2" transform="matrix(-1 0 0 1 25 26)" fill="#000"/><rect width="1" height="2" transform="matrix(-1 0 0 1 25 26)" fill="#000"/><rect width="1" height="2" transform="matrix(-1 0 0 1 25 26)" fill="#000"/><rect width="1" height="2" transform="matrix(-1 0 0 1 25 26)" fill="#000"/><path d="M25 28H24V29H25V28Z" fill="#000"/><path d="M25 28H24V29H25V28Z" fill="#000"/><path d="M25 28H24V29H25V28Z" fill="#000"/><path d="M25 28H24V29H25V28Z" fill="#000"/><path d="M24 29H23V30H24V29Z" fill="#000"/><path d="M24 29H23V30H24V29Z" fill="#000"/><path d="M24 29H23V30H24V29Z" fill="#000"/><path d="M24 29H23V30H24V29Z" fill="#000"/><path d="M24 30H23V31H24V30Z" fill="#000"/><path d="M24 30H23V31H24V30Z" fill="#000"/><path d="M24 30H23V31H24V30Z" fill="#000"/><path d="M24 30H23V31H24V30Z" fill="#000"/><path d="M23 31H22V32H23V31Z" fill="#000"/><path d="M23 31H22V32H23V31Z" fill="#000"/><path d="M23 31H22V32H23V31Z" fill="#000"/><path d="M23 31H22V32H23V31Z" fill="#000"/><path d="M4 24H5V23H4V24Z" fill="#000"/><path d="M4 24H5V23H4V24Z" fill="#000"/><path d="M4 24H5V23H4V24Z" fill="#000"/><path d="M4 24H5V23H4V24Z" fill="#000"/><path d="M3 23H4V22H3V23Z" fill="#000"/><path d="M3 23H4V22H3V23Z" fill="#000"/><path d="M3 23H4V22H3V23Z" fill="#000"/><path d="M3 23H4V22H3V23Z" fill="#000"/><rect width="1" height="1" transform="matrix(1 0 0 -1 2 22)" fill="#000"/><rect width="1" height="1" transform="matrix(1 0 0 -1 2 22)" fill="#000"/><rect width="1" height="1" transform="matrix(1 0 0 -1 2 22)" fill="#000"/><rect width="1" height="1" transform="matrix(1 0 0 -1 2 22)" fill="#000"/><path d="M1 21H2V20H1V21Z" fill="#000"/><path d="M1 21H2V20H1V21Z" fill="#000"/><path d="M1 21H2V20H1V21Z" fill="#000"/><path d="M1 21H2V20H1V21Z" fill="#000"/><path d="M0 20H1V19H0V20Z" fill="#000"/><path d="M0 20H1V19H0V20Z" fill="#000"/><path d="M0 20H1V19H0V20Z" fill="#000"/><path d="M0 20H1V19H0V20Z" fill="#000"/><rect x="26" y="25" width="1" height="1" transform="rotate(180 26 25)" fill="#000"/><rect x="26" y="25" width="1" height="1" transform="rotate(180 26 25)" fill="#000"/><rect x="26" y="25" width="1" height="1" transform="rotate(180 26 25)" fill="#000"/><rect x="26" y="25" width="1" height="1" transform="rotate(180 26 25)" fill="#000"/><rect x="25" y="26" width="1" height="1" transform="rotate(180 25 26)" fill="#000"/><rect x="25" y="26" width="1" height="1" transform="rotate(180 25 26)" fill="#000"/><rect x="25" y="26" width="1" height="1" transform="rotate(180 25 26)" fill="#000"/><rect x="25" y="26" width="1" height="1" transform="rotate(180 25 26)" fill="#000"/><rect x="27" y="24" width="1" height="1" transform="rotate(180 27 24)" fill="#000"/><rect x="27" y="24" width="1" height="1" transform="rotate(180 27 24)" fill="#000"/><rect x="27" y="24" width="1" height="1" transform="rotate(180 27 24)" fill="#000"/><rect x="27" y="24" width="1" height="1" transform="rotate(180 27 24)" fill="#000"/><path d="M28 23H27V22H28V23Z" fill="#000"/><path d="M28 23H27V22H28V23Z" fill="#000"/><path d="M28 23H27V22H28V23Z" fill="#000"/><path d="M28 23H27V22H28V23Z" fill="#000"/><path d="M29 22H28V21H29V22Z" fill="#000"/><path d="M29 22H28V21H29V22Z" fill="#000"/><path d="M29 22H28V21H29V22Z" fill="#000"/><path d="M29 22H28V21H29V22Z" fill="#000"/><rect x="29" y="22" width="1" height="1" transform="rotate(180 29 22)" fill="#000"/><rect x="29" y="22" width="1" height="1" transform="rotate(180 29 22)" fill="#000"/><rect x="29" y="22" width="1" height="1" transform="rotate(180 29 22)" fill="#000"/><rect x="29" y="22" width="1" height="1" transform="rotate(180 29 22)" fill="#000"/><rect x="30" y="21" width="1" height="1" transform="rotate(180 30 21)" fill="#000"/><rect x="30" y="21" width="1" height="1" transform="rotate(180 30 21)" fill="#000"/><rect x="30" y="21" width="1" height="1" transform="rotate(180 30 21)" fill="#000"/><rect x="30" y="21" width="1" height="1" transform="rotate(180 30 21)" fill="#000"/><path d="M31 20H30V19H31V20Z" fill="#000"/><path d="M31 20H30V19H31V20Z" fill="#000"/><path d="M31 20H30V19H31V20Z" fill="#000"/><path d="M31 20H30V19H31V20Z" fill="#000"/><path d="M32 19H31V18H32V19Z" fill="#000"/><path d="M32 19H31V18H32V19Z" fill="#000"/><path d="M32 19H31V18H32V19Z" fill="#000"/><path d="M32 19H31V18H32V19Z" fill="#000"/><rect width="1" height="1" transform="matrix(-1 0 0 1 28 1)" fill="#000"/><rect width="1" height="1" transform="matrix(-1 0 0 1 28 1)" fill="#000"/><rect width="1" height="1" transform="matrix(-1 0 0 1 28 1)" fill="#000"/><rect width="1" height="1" transform="matrix(-1 0 0 1 28 1)" fill="#000"/><rect width="1" height="1" transform="matrix(-1 0 0 1 29 2)" fill="#000"/><rect width="1" height="1" transform="matrix(-1 0 0 1 29 2)" fill="#000"/><rect width="1" height="1" transform="matrix(-1 0 0 1 29 2)" fill="#000"/><rect width="1" height="1" transform="matrix(-1 0 0 1 29 2)" fill="#000"/><path d="M30 3H29V4H30V3Z" fill="#000"/><path d="M30 3H29V4H30V3Z" fill="#000"/><path d="M30 3H29V4H30V3Z" fill="#000"/><path d="M30 3H29V4H30V3Z" fill="#000"/><path d="M31 4H30V5H31V4Z" fill="#000"/><path d="M31 4H30V5H31V4Z" fill="#000"/><path d="M31 4H30V5H31V4Z" fill="#000"/><path d="M31 4H30V5H31V4Z" fill="#000"/><path d="M32 5H31V6H32V5Z" fill="#000"/><path d="M32 5H31V6H32V5Z" fill="#000"/><path d="M32 5H31V6H32V5Z" fill="#000"/><path d="M32 5H31V6H32V5Z" fill="#000"/><path d="M8 26H9V27H8V26Z" fill="#000"/><path d="M8 26H9V27H8V26Z" fill="#000"/><path d="M8 26H9V27H8V26Z" fill="#000"/><path d="M8 26H9V27H8V26Z" fill="#000"/><path d="M8 25H9V26H8V25Z" fill="#000"/><path d="M8 25H9V26H8V25Z" fill="#000"/><path d="M8 25H9V26H8V25Z" fill="#000"/><path d="M8 25H9V26H8V25Z" fill="#000"/><path d="M7 24H8V25H7V24Z" fill="#000"/><path d="M7 24H8V25H7V24Z" fill="#000"/><path d="M7 24H8V25H7V24Z" fill="#000"/><path d="M7 24H8V25H7V24Z" fill="#000"/><path d="M7 21H8V24H7V21Z" fill="#000"/><path d="M7 21H8V24H7V21Z" fill="#000"/><path d="M7 21H8V24H7V21Z" fill="#000"/><path d="M7 21H8V24H7V21Z" fill="#000"/><path d="M6 18H7V22H6V18Z" fill="#000"/><path d="M6 18H7V22H6V18Z" fill="#000"/><path d="M6 18H7V22H6V18Z" fill="#000"/><path d="M6 18H7V22H6V18Z" fill="#000"/><path d="M9 27H10V28H9V27Z" fill="#000"/><path d="M9 27H10V28H9V27Z" fill="#000"/><path d="M9 27H10V28H9V27Z" fill="#000"/><path d="M9 27H10V28H9V27Z" fill="#000"/><path d="M10 28H11V29H10V28Z" fill="#000"/><path d="M10 28H11V29H10V28Z" fill="#000"/><path d="M10 28H11V29H10V28Z" fill="#000"/><path d="M10 28H11V29H10V28Z" fill="#000"/><path d="M10 24H11V27H10V24Z" fill="#000"/><path d="M10 24H11V27H10V24Z" fill="#000"/><path d="M10 24H11V27H10V24Z" fill="#000"/><path d="M10 24H11V27H10V24Z" fill="#000"/><path d="M9 21H10V24H9V21Z" fill="#000"/><path d="M9 21H10V24H9V21Z" fill="#000"/><path d="M9 21H10V24H9V21Z" fill="#000"/><path d="M9 21H10V24H9V21Z" fill="#000"/><path d="M11 27H12V31H11V27Z" fill="#000"/><path d="M11 27H12V31H11V27Z" fill="#000"/><path d="M11 27H12V31H11V27Z" fill="#000"/><path d="M11 27H12V31H11V27Z" fill="#000"/><path d="M12 31H13V32H12V31Z" fill="#000"/><path d="M12 31H13V32H12V31Z" fill="#000"/><path d="M12 31H13V32H12V31Z" fill="#000"/><path d="M12 31H13V32H12V31Z" fill="#000"/><path d="M24 26H23V27H24V26Z" fill="#000"/><path d="M24 26H23V27H24V26Z" fill="#000"/><path d="M24 26H23V27H24V26Z" fill="#000"/><path d="M24 26H23V27H24V26Z" fill="#000"/><path d="M23 27H22V28H23V27Z" fill="#000"/><path d="M23 27H22V28H23V27Z" fill="#000"/><path d="M23 27H22V28H23V27Z" fill="#000"/><path d="M23 27H22V28H23V27Z" fill="#000"/><path d="M22 28H21V29H22V28Z" fill="#000"/><path d="M22 28H21V29H22V28Z" fill="#000"/><path d="M22 28H21V29H22V28Z" fill="#000"/><path d="M22 28H21V29H22V28Z" fill="#000"/><path d="M22 24H21V27H22V24Z" fill="#000"/><path d="M22 24H21V27H22V24Z" fill="#000"/><path d="M22 24H21V27H22V24Z" fill="#000"/><path d="M22 24H21V27H22V24Z" fill="#000"/><path d="M23 21H22V24H23V21Z" fill="#000"/><path d="M23 21H22V24H23V21Z" fill="#000"/><path d="M23 21H22V24H23V21Z" fill="#000"/><path d="M23 21H22V24H23V21Z" fill="#000"/><path d="M21 27H20V31H21V27Z" fill="#000"/><path d="M21 27H20V31H21V27Z" fill="#000"/><path d="M21 27H20V31H21V27Z" fill="#000"/><path d="M21 27H20V31H21V27Z" fill="#000"/><path d="M20 31H19V32H20V31Z" fill="#000"/><path d="M20 31H19V32H20V31Z" fill="#000"/><path d="M20 31H19V32H20V31Z" fill="#000"/><path d="M20 31H19V32H20V31Z" fill="#000"/><path d="M5 16H6V19H5V16Z" fill="#000"/><path d="M5 16H6V19H5V16Z" fill="#000"/><path d="M5 16H6V19H5V16Z" fill="#000"/><path d="M5 16H6V19H5V16Z" fill="#000"/><path d="M25 24H24V25H25V24Z" fill="#000"/><path d="M25 24H24V25H25V24Z" fill="#000"/><path d="M25 24H24V25H25V24Z" fill="#000"/><path d="M25 24H24V25H25V24Z" fill="#000"/><path d="M25 21H24V24H25V21Z" fill="#000"/><path d="M25 21H24V24H25V21Z" fill="#000"/><path d="M25 21H24V24H25V21Z" fill="#000"/><path d="M25 21H24V24H25V21Z" fill="#000"/><path d="M26 18H25V22H26V18Z" fill="#000"/><path d="M26 18H25V22H26V18Z" fill="#000"/><path d="M26 18H25V22H26V18Z" fill="#000"/><path d="M26 18H25V22H26V18Z" fill="#000"/><path d="M27 16H26V19H27V16Z" fill="#000"/><path d="M27 16H26V19H27V16Z" fill="#000"/><path d="M27 16H26V19H27V16Z" fill="#000"/><path d="M27 16H26V19H27V16Z" fill="#000"/><rect x="18" width="9" height="1" fill="#000"/><rect x="18" width="9" height="1" fill="#000"/><rect x="18" width="9" height="1" fill="#000"/><rect x="18" width="9" height="1" fill="#000"/><path d="M17 1H19V2H17V1Z" fill="#000"/><path d="M17 1H19V2H17V1Z" fill="#000"/><path d="M17 1H19V2H17V1Z" fill="#000"/><path d="M17 1H19V2H17V1Z" fill="#000"/><path d="M13 1H15V2H13V1Z" fill="#000"/><path d="M13 1H15V2H13V1Z" fill="#000"/><path d="M13 1H15V2H13V1Z" fill="#000"/><path d="M13 1H15V2H13V1Z" fill="#000"/><path d="M14 2H18V3H14V2Z" fill="#000"/><path d="M14 2H18V3H14V2Z" fill="#000"/><path d="M14 2H18V3H14V2Z" fill="#000"/><path d="M14 2H18V3H14V2Z" fill="#000"/><path d="M8 29V27H9V28H10V29H11V31H12V32H10V31H9V29H8Z" fill="#fff"/><path d="M24 29V27H23V28H22V29H21V31H20V32H22V31H23V29H24Z" fill="#fff"/><rect x="21" y="9" width="2" height="2" fill="#000"/><rect x="21" y="8" width="3" height="1" fill="#fff"/><rect x="23" y="9" width="1" height="2" fill="#fff"/><rect width="2" height="2" transform="matrix(-1 0 0 1 11 9)" fill="#000"/><rect width="3" height="1" transform="matrix(-1 0 0 1 11 8)" fill="#fff"/><rect width="1" height="2" transform="matrix(-1 0 0 1 9 9)" fill="#fff"/><rect x="21" y="9" width="2" height="2" fill="#000"/><rect x="21" y="8" width="3" height="1" fill="#fff"/><rect x="23" y="9" width="1" height="2" fill="#fff"/><rect x="7" y="7" width="5" height="1" fill="#646060"/><rect x="7" y="7" width="5" height="1" fill="#646060"/><rect x="7" y="7" width="5" height="1" fill="#646060"/><rect x="7" y="7" width="5" height="1" fill="#646060"/><rect x="7" y="7" width="5" height="1" fill="#646060"/><rect x="14" y="30" width="1" height="1" fill="#646060"/><rect x="14" y="30" width="1" height="1" fill="#646060"/><rect x="14" y="30" width="1" height="1" fill="#646060"/><rect x="14" y="30" width="1" height="1" fill="#646060"/><rect x="14" y="30" width="1" height="1" fill="#646060"/><rect x="17" y="30" width="1" height="1" fill="#646060"/><rect x="17" y="30" width="1" height="1" fill="#646060"/><rect x="17" y="30" width="1" height="1" fill="#646060"/><rect x="17" y="30" width="1" height="1" fill="#646060"/><rect x="17" y="30" width="1" height="1" fill="#646060"/><rect x="15" y="29" width="2" height="1" fill="#646060"/><rect x="15" y="29" width="2" height="1" fill="#646060"/><rect x="15" y="29" width="2" height="1" fill="#646060"/><rect x="15" y="29" width="2" height="1" fill="#646060"/><rect x="15" y="29" width="2" height="1" fill="#646060"/><rect x="13" y="26" width="1" height="1" fill="#646060"/><rect x="13" y="26" width="1" height="1" fill="#646060"/><rect x="13" y="26" width="1" height="1" fill="#646060"/><rect x="13" y="26" width="1" height="1" fill="#646060"/><rect x="13" y="26" width="1" height="1" fill="#646060"/><rect x="18" y="26" width="1" height="1" fill="#646060"/><rect x="18" y="26" width="1" height="1" fill="#646060"/><rect x="18" y="26" width="1" height="1" fill="#646060"/><rect x="18" y="26" width="1" height="1" fill="#646060"/><rect x="18" y="26" width="1" height="1" fill="#646060"/><rect x="14" y="25" width="4" height="1" fill="#646060"/><rect x="14" y="25" width="4" height="1" fill="#646060"/><rect x="14" y="25" width="4" height="1" fill="#646060"/><rect x="14" y="25" width="4" height="1" fill="#646060"/><rect x="14" y="25" width="4" height="1" fill="#646060"/><rect x="13" y="22" width="2" height="1" fill="#646060"/><rect x="13" y="22" width="2" height="1" fill="#646060"/><rect x="13" y="22" width="2" height="1" fill="#646060"/><rect x="13" y="22" width="2" height="1" fill="#646060"/><rect x="13" y="22" width="2" height="1" fill="#646060"/><rect x="18" y="22" width="2" height="1" fill="#646060"/><rect x="18" y="22" width="2" height="1" fill="#646060"/><rect x="18" y="22" width="2" height="1" fill="#646060"/><rect x="18" y="22" width="2" height="1" fill="#646060"/><rect x="18" y="22" width="2" height="1" fill="#646060"/><rect x="15" y="21" width="3" height="1" fill="#646060"/><rect x="15" y="21" width="3" height="1" fill="#646060"/><rect x="15" y="21" width="3" height="1" fill="#646060"/><rect x="15" y="21" width="3" height="1" fill="#646060"/><rect x="15" y="21" width="3" height="1" fill="#646060"/><rect x="12" y="5" width="2" height="1" fill="#646060"/><rect x="12" y="5" width="2" height="1" fill="#646060"/><rect x="12" y="5" width="2" height="1" fill="#646060"/><rect x="12" y="5" width="2" height="1" fill="#646060"/><rect x="12" y="5" width="2" height="1" fill="#646060"/><rect x="17" y="5" width="2" height="1" fill="#646060"/><rect x="17" y="5" width="2" height="1" fill="#646060"/><rect x="17" y="5" width="2" height="1" fill="#646060"/><rect x="17" y="5" width="2" height="1" fill="#646060"/><rect x="17" y="5" width="2" height="1" fill="#646060"/><rect x="7" y="11" width="5" height="1" fill="#646060"/><rect x="7" y="11" width="5" height="1" fill="#646060"/><rect x="7" y="11" width="5" height="1" fill="#646060"/><rect x="7" y="11" width="5" height="1" fill="#646060"/><rect x="7" y="11" width="5" height="1" fill="#646060"/><rect x="2" y="6" width="3" height="13" fill="#646060"/><rect x="2" y="6" width="3" height="13" fill="#646060"/><rect x="2" y="6" width="3" height="13" fill="#646060"/><rect x="2" y="6" width="3" height="13" fill="#646060"/><rect x="2" y="6" width="3" height="13" fill="#646060"/><rect x="3" y="5" width="3" height="1" fill="#646060"/><rect x="3" y="5" width="3" height="1" fill="#646060"/><rect x="3" y="5" width="3" height="1" fill="#646060"/><rect x="3" y="5" width="3" height="1" fill="#646060"/><rect x="3" y="5" width="3" height="1" fill="#646060"/><rect x="4" y="4" width="2" height="1" fill="#646060"/><rect x="4" y="4" width="2" height="1" fill="#646060"/><rect x="4" y="4" width="2" height="1" fill="#646060"/><rect x="4" y="4" width="2" height="1" fill="#646060"/><rect x="4" y="4" width="2" height="1" fill="#646060"/><rect x="5" y="3" width="2" height="1" fill="#646060"/><rect x="5" y="3" width="2" height="1" fill="#646060"/><rect x="5" y="3" width="2" height="1" fill="#646060"/><rect x="5" y="3" width="2" height="1" fill="#646060"/><rect x="5" y="3" width="2" height="1" fill="#646060"/><rect x="5" y="21" width="1" height="1" fill="#646060"/><rect x="5" y="21" width="1" height="1" fill="#646060"/><rect x="5" y="21" width="1" height="1" fill="#646060"/><rect x="5" y="21" width="1" height="1" fill="#646060"/><rect x="5" y="21" width="1" height="1" fill="#646060"/><rect width="1" height="1" transform="matrix(-1 0 0 1 7 22)" fill="#646060"/><rect width="1" height="1" transform="matrix(-1 0 0 1 7 22)" fill="#646060"/><rect width="1" height="1" transform="matrix(-1 0 0 1 7 22)" fill="#646060"/><rect width="1" height="1" transform="matrix(-1 0 0 1 7 22)" fill="#646060"/><rect width="1" height="1" transform="matrix(-1 0 0 1 7 22)" fill="#646060"/><rect width="3" height="1" transform="matrix(1 0 0 -1 3 20)" fill="#646060"/><rect width="3" height="1" transform="matrix(1 0 0 -1 3 20)" fill="#646060"/><rect width="3" height="1" transform="matrix(1 0 0 -1 3 20)" fill="#646060"/><rect width="3" height="1" transform="matrix(1 0 0 -1 3 20)" fill="#646060"/><rect width="3" height="1" transform="matrix(1 0 0 -1 3 20)" fill="#646060"/><rect width="2" height="1" transform="matrix(1 0 0 -1 4 21)" fill="#646060"/><rect width="2" height="1" transform="matrix(1 0 0 -1 4 21)" fill="#646060"/><rect width="2" height="1" transform="matrix(1 0 0 -1 4 21)" fill="#646060"/><rect width="2" height="1" transform="matrix(1 0 0 -1 4 21)" fill="#646060"/><rect width="2" height="1" transform="matrix(1 0 0 -1 4 21)" fill="#646060"/><rect x="1" y="7" width="1" height="11" fill="#646060"/><rect x="1" y="7" width="1" height="11" fill="#646060"/><rect x="1" y="7" width="1" height="11" fill="#646060"/><rect x="1" y="7" width="1" height="11" fill="#646060"/><rect x="1" y="7" width="1" height="11" fill="#646060"/><rect y="8" width="1" height="9" fill="#646060"/><rect y="8" width="1" height="9" fill="#646060"/><rect y="8" width="1" height="9" fill="#646060"/><rect y="8" width="1" height="9" fill="#646060"/><rect y="8" width="1" height="9" fill="#646060"/><rect width="3" height="12" transform="matrix(-1 0 0 1 30 6)" fill="#646060"/><rect width="3" height="12" transform="matrix(-1 0 0 1 30 6)" fill="#646060"/><rect width="3" height="12" transform="matrix(-1 0 0 1 30 6)" fill="#646060"/><rect width="3" height="12" transform="matrix(-1 0 0 1 30 6)" fill="#646060"/><rect width="3" height="12" transform="matrix(-1 0 0 1 30 6)" fill="#646060"/><rect width="3" height="1" transform="matrix(-1 0 0 1 29 5)" fill="#646060"/><rect width="3" height="1" transform="matrix(-1 0 0 1 29 5)" fill="#646060"/><rect width="3" height="1" transform="matrix(-1 0 0 1 29 5)" fill="#646060"/><rect width="3" height="1" transform="matrix(-1 0 0 1 29 5)" fill="#646060"/><rect width="3" height="1" transform="matrix(-1 0 0 1 29 5)" fill="#646060"/><rect width="2" height="1" transform="matrix(-1 0 0 1 28 4)" fill="#646060"/><rect width="2" height="1" transform="matrix(-1 0 0 1 28 4)" fill="#646060"/><rect width="2" height="1" transform="matrix(-1 0 0 1 28 4)" fill="#646060"/><rect width="2" height="1" transform="matrix(-1 0 0 1 28 4)" fill="#646060"/><rect width="2" height="1" transform="matrix(-1 0 0 1 28 4)" fill="#646060"/><rect width="2" height="1" transform="matrix(-1 0 0 1 27 3)" fill="#646060"/><rect width="2" height="1" transform="matrix(-1 0 0 1 27 3)" fill="#646060"/><rect width="2" height="1" transform="matrix(-1 0 0 1 27 3)" fill="#646060"/><rect width="2" height="1" transform="matrix(-1 0 0 1 27 3)" fill="#646060"/><rect width="2" height="1" transform="matrix(-1 0 0 1 27 3)" fill="#646060"/><rect width="1" height="2" transform="matrix(-1 0 0 1 27 20)" fill="#646060"/><rect width="1" height="2" transform="matrix(-1 0 0 1 27 20)" fill="#646060"/><rect width="1" height="2" transform="matrix(-1 0 0 1 27 20)" fill="#646060"/><rect width="1" height="2" transform="matrix(-1 0 0 1 27 20)" fill="#646060"/><rect width="1" height="2" transform="matrix(-1 0 0 1 27 20)" fill="#646060"/><rect x="25" y="22" width="1" height="1" fill="#646060"/><rect x="25" y="22" width="1" height="1" fill="#646060"/><rect x="25" y="22" width="1" height="1" fill="#646060"/><rect x="25" y="22" width="1" height="1" fill="#646060"/><rect x="25" y="22" width="1" height="1" fill="#646060"/><rect x="29" y="19" width="2" height="1" transform="rotate(180 29 19)" fill="#646060"/><rect x="29" y="19" width="2" height="1" transform="rotate(180 29 19)" fill="#646060"/><rect x="29" y="19" width="2" height="1" transform="rotate(180 29 19)" fill="#646060"/><rect x="29" y="19" width="2" height="1" transform="rotate(180 29 19)" fill="#646060"/><rect x="29" y="19" width="2" height="1" transform="rotate(180 29 19)" fill="#646060"/><rect x="28" y="20" width="2" height="1" transform="rotate(180 28 20)" fill="#646060"/><rect x="28" y="20" width="2" height="1" transform="rotate(180 28 20)" fill="#646060"/><rect x="28" y="20" width="2" height="1" transform="rotate(180 28 20)" fill="#646060"/><rect x="28" y="20" width="2" height="1" transform="rotate(180 28 20)" fill="#646060"/><rect x="28" y="20" width="2" height="1" transform="rotate(180 28 20)" fill="#646060"/><rect width="1" height="10" transform="matrix(-1 0 0 1 31 7)" fill="#646060"/><rect width="1" height="10" transform="matrix(-1 0 0 1 31 7)" fill="#646060"/><rect width="1" height="10" transform="matrix(-1 0 0 1 31 7)" fill="#646060"/><rect width="1" height="10" transform="matrix(-1 0 0 1 31 7)" fill="#646060"/><rect width="1" height="10" transform="matrix(-1 0 0 1 31 7)" fill="#646060"/><rect width="1" height="8" transform="matrix(-1 0 0 1 32 8)" fill="#646060"/><rect width="1" height="8" transform="matrix(-1 0 0 1 32 8)" fill="#646060"/><rect width="1" height="8" transform="matrix(-1 0 0 1 32 8)" fill="#646060"/><rect width="1" height="8" transform="matrix(-1 0 0 1 32 8)" fill="#646060"/><rect width="1" height="8" transform="matrix(-1 0 0 1 32 8)" fill="#646060"/><rect x="20" y="11" width="5" height="1" fill="#646060"/><rect x="20" y="11" width="5" height="1" fill="#646060"/><rect x="20" y="11" width="5" height="1" fill="#646060"/><rect x="20" y="11" width="5" height="1" fill="#646060"/><rect x="20" y="11" width="5" height="1" fill="#646060"/><rect x="20" y="7" width="5" height="1" fill="#646060"/><rect x="20" y="7" width="5" height="1" fill="#646060"/><rect x="20" y="7" width="5" height="1" fill="#646060"/><rect x="20" y="7" width="5" height="1" fill="#646060"/><rect x="20" y="7" width="5" height="1" fill="#646060"/><rect x="5" y="16" width="1" height="2" fill="#000"/><rect x="4" y="6" width="1" height="10" fill="#000"/><rect x="5" y="4" width="1" height="2" fill="#000"/><rect x="6" y="2" width="1" height="2" fill="#000"/><rect x="7" y="1" width="1" height="1" fill="#000"/><rect x="8" y="1" width="1" height="1" fill="#000"/><rect width="1" height="2" transform="matrix(-1 0 0 1 27 16)" fill="#000"/><rect width="1" height="10" transform="matrix(-1 0 0 1 28 6)" fill="#000"/><rect width="1" height="2" transform="matrix(-1 0 0 1 27 4)" fill="#000"/><rect width="1" height="2" transform="matrix(-1 0 0 1 26 2)" fill="#000"/><rect width="1" height="1" transform="matrix(-1 0 0 1 25 1)" fill="#000"/><rect width="1" height="1" transform="matrix(-1 0 0 1 24 1)" fill="#000"/></g><defs><clipPath id="clip0_104_579"><rect width="32" height="32" fill="#fff"/></clipPath></defs></svg>